<svg
  class="top-polluter"
  xmlns="http://www.w3.org/2000/svg"
  width="247.59"
  height="11"
  viewBox="803.3 176.09 247.59 11"
>
  <g>
    <path d="M875.5,235.9h-2.4a2,2,0,0,1,.4-.8,4.5,4.5,0,0,1,1.4-1.4l1.1-.8a1.8,1.8,0,0,0,.5-.7,1.6,1.6,0,0,0,.2-1,2.3,2.3,0,0,0-.6-1.6,2.9,2.9,0,0,0-1.9-.6,3,3,0,0,0-1.3.2,2,2,0,0,0-.9.9,3,3,0,0,0-.4,1.8h1.5a2.3,2.3,0,0,1,.3-1.3.8.8,0,0,1,.7-.4.5.5,0,0,1,.5.3.6.6,0,0,1,.3.6,1.6,1.6,0,0,1-.3.9l-1.3,1.3-1.1,1.2a3.7,3.7,0,0,0-.5,1.1,6.3,6.3,0,0,0-.2,1.6h5.2v-2.3h-1.3Z" transform="translate(-68.9 -52.9)"/>
    <path d="M880.9,229a2.1,2.1,0,0,0-2.1,1.1,5.3,5.3,0,0,0-.7,3.1,5.5,5.5,0,0,0,.7,3.1,2.4,2.4,0,0,0,2.1,1.1,2.2,2.2,0,0,0,2-1.1,5.4,5.4,0,0,0,.8-3.1,6.2,6.2,0,0,0-.7-3.1A2.3,2.3,0,0,0,880.9,229Zm.7,6c-.1.7-.3,1-.8,1s-.5-.2-.7-.7a10.6,10.6,0,0,1-.2-2.1,10.9,10.9,0,0,1,.2-2.2c.2-.5.4-.7.8-.7s.5.2.7.7a10.9,10.9,0,0,1,.2,2.2A12.4,12.4,0,0,1,881.6,235Z" transform="translate(-68.9 -52.9)"/>
    <rect x="816.4" y="182.3" width="2" height="1.96"/>
    <path d="M895.2,229.1h-4.3v1.4h1v5.4h-1v1.3h4.3v-1.3H894v-1.6h2.3l1-.4a2.2,2.2,0,0,0,.7-.9,2.4,2.4,0,0,0,.3-1.2,2.6,2.6,0,0,0-.8-1.9A3.3,3.3,0,0,0,895.2,229.1Zm.5,3.5c-.2.2-.6.3-1.4.3H894v-2.4h1.3a1,1,0,0,1,.5.4,1.1,1.1,0,0,1,.3.8A1.2,1.2,0,0,1,895.7,232.6Z" transform="translate(-68.9 -52.9)"/>
    <path d="M904.4,233.2a3.1,3.1,0,0,0-1-1.3,2.8,2.8,0,0,0-1.6-.5,3.2,3.2,0,0,0-2.3.9,3.3,3.3,0,0,0-.8,2.2,2.9,2.9,0,0,0,.8,2.1,3.6,3.6,0,0,0,2.4.8,3.1,3.1,0,0,0,2.7-1.4l-1.4-.5a1.7,1.7,0,0,1-1.3.7l-.9-.3a1.3,1.3,0,0,1-.5-1.1h4.2A3.8,3.8,0,0,0,904.4,233.2Zm-3.9.6q.2-1.2,1.2-1.2a.9.9,0,0,1,.8.4,2,2,0,0,1,.4.8Z" transform="translate(-68.9 -52.9)"/>
    <path d="M907.9,229.4l-1.9,1.3v.9h-.7v1.3h.7v3c0,.9.5,1.4,1.5,1.4a3.5,3.5,0,0,0,1.4-.3v-1.2h-1v-2.9h1v-1.3h-1Z" transform="translate(-68.9 -52.9)"/>
    <path d="M913,231.9a1.9,1.9,0,0,0-.7,1.1v-1.4h-2.7v1.3h1v3h-1.1v1.3h4v-1.3h-1.1v-.7a2.7,2.7,0,0,1,.3-1.2,1.3,1.3,0,0,1,.7-.6l1.1-.2v-1.7h-.3A1.6,1.6,0,0,0,913,231.9Z" transform="translate(-68.9 -52.9)"/>
    <path d="M918,231.4a3.2,3.2,0,0,0-2.1.8,3.3,3.3,0,0,0-.8,2.2,3.1,3.1,0,0,0,.8,2.2,3.2,3.2,0,0,0,2.1.8,3,3,0,1,0,0-6Zm.9,4.2a1.5,1.5,0,0,1-.9.4,1,1,0,0,1-.8-.5,1.6,1.6,0,0,1-.3-1.1c0-1,.4-1.6,1.1-1.6a1.3,1.3,0,0,1,.9.4,2.6,2.6,0,0,1,0,2.4Z" transform="translate(-68.9 -52.9)"/>
    <path d="M926.1,231.4a2.3,2.3,0,0,0-1.7.8v-3.1h-2.7v1.3h.9v5.5h-.9v1.3h2.7v-.6a2.3,2.3,0,0,0,1.7.7,1.9,1.9,0,0,0,1.7-.8,3.5,3.5,0,0,0,0-4.2A2,2,0,0,0,926.1,231.4Zm.2,4.1a.8.8,0,0,1-.7.4,1.1,1.1,0,0,1-.9-.4,1.6,1.6,0,0,1-.3-1.1,1.2,1.2,0,0,1,.4-1.1,1,1,0,0,1,1.6,0,1.6,1.6,0,0,1,.3,1.1A1.2,1.2,0,0,1,926.3,235.5Z" transform="translate(-68.9 -52.9)"/>
    <path d="M932.7,231.9a1.9,1.9,0,0,0-.7,1.1v-1.4h-2.6v1.3h1v3h-1.1v1.3h4v-1.3h-1.1v-.7a5,5,0,0,1,.2-1.2,1.6,1.6,0,0,1,.8-.6l1.1-.2v-1.7H934A2,2,0,0,0,932.7,231.9Z" transform="translate(-68.9 -52.9)"/>
    <path d="M940.3,233.9c0-.5-.1-.9-.1-1.2l-.4-.6a1.6,1.6,0,0,0-.8-.5l-1.4-.2a2.7,2.7,0,0,0-2.7,1.4l1.4.2a1.5,1.5,0,0,1,1.1-.4,1.1,1.1,0,0,1,.8.3.9.9,0,0,1,.3.7v.3l-1.3-.3a2.4,2.4,0,0,0-1.7.6,1.8,1.8,0,0,0-.6,1.4,1.8,1.8,0,0,0,.6,1.3,2.3,2.3,0,0,0,1.4.4,2.4,2.4,0,0,0,1.6-.5v.4h2.7v-1.3h-.9Zm-1.8,1.7a1.9,1.9,0,0,1-1.2.6l-.5-.2c-.1-.2-.2-.3-.2-.5a.6.6,0,0,1,.3-.6l.5-.2a2.5,2.5,0,0,1,1.1.5Z" transform="translate(-68.9 -52.9)"/>
    <path d="M945.9,233.9l-1.6-.4-.8-.2a.2.2,0,0,1-.2-.2c0-.3.3-.5.8-.5s1.2.2,1.3.6h1.3v-1.6h-1.3v.2a4,4,0,0,0-1.5-.3,2.5,2.5,0,0,0-1.5.5,1.5,1.5,0,0,0,0,2.4,4.7,4.7,0,0,0,2,.6l.9.3.3.3c0,.2-.1.3-.3.4l-.7.2a1.1,1.1,0,0,1-.8-.3.5.5,0,0,1-.4-.6h-1.3v1.9h1.3V237a2.1,2.1,0,0,0,1.4.4,2.4,2.4,0,0,0,1.7-.6,1.5,1.5,0,0,0,.5-1.3,1.7,1.7,0,0,0-.3-1A1.6,1.6,0,0,0,945.9,233.9Z" transform="translate(-68.9 -52.9)"/>
    <path d="M948.3,237.2h.9v.2a1,1,0,0,1-.9,1.1v.9l1.1-.2a1.3,1.3,0,0,0,.6-.7,3,3,0,0,0,.2-1.4v-1.8h-1.9Z" transform="translate(-68.9 -52.9)"/>
    <path d="M960.7,232.9a1.8,1.8,0,0,0,1.1-1.7,2,2,0,0,0-.4-1.3,2.6,2.6,0,0,0-1.1-.7h-5.5v1.4h1v5.4h-1v1.3h3.7a5.6,5.6,0,0,0,2-.2,2.4,2.4,0,0,0,1.2-.7,2.3,2.3,0,0,0,.4-1.4A2,2,0,0,0,960.7,232.9Zm-2.8-2.4h.5c.5,0,.8,0,1,.2s.3.3.3.7a.8.8,0,0,1-.3.7l-.9.2h-.6Zm1.7,5.1a1.6,1.6,0,0,1-1.1.3h-.6v-2.2h.6l1.1.2a1.2,1.2,0,0,1,.3.9C959.9,235.2,959.8,235.5,959.6,235.6Z" transform="translate(-68.9 -52.9)"/>
    <path d="M966.5,231.9a1.9,1.9,0,0,0-.7,1.1v-1.4h-2.7v1.3h1v3h-1v1.3h4v-1.3h-1.2v-.7a2.7,2.7,0,0,1,.3-1.2,1.3,1.3,0,0,1,.7-.6l1.1-.2v-1.7h-.2A1.8,1.8,0,0,0,966.5,231.9Z" transform="translate(-68.9 -52.9)"/>
    <path d="M974,233.9a4.1,4.1,0,0,0-.1-1.2c0-.2-.2-.4-.3-.6l-.8-.5-1.4-.2a2.9,2.9,0,0,0-2.8,1.4l1.5.2a1.3,1.3,0,0,1,1-.4,1,1,0,0,1,.8.3.9.9,0,0,1,.3.7v.3l-1.3-.3a2.1,2.1,0,0,0-1.6.6,1.6,1.6,0,0,0-.7,1.4,1.8,1.8,0,0,0,.6,1.3,2.4,2.4,0,0,0,1.5.4,2.3,2.3,0,0,0,1.5-.5v.4H975v-1.3h-1Zm-1.8,1.7a1.7,1.7,0,0,1-1.1.6l-.5-.2a.6.6,0,0,1-.2-.5c0-.3,0-.5.2-.6l.6-.2,1,.5Z" transform="translate(-68.9 -52.9)"/>
    <polygon points="906.9 180.7 908.1 180.7 908.1 179.8 909.9 179.8 906.6 183.1 906.6 184.3 912.1 184.3 912.1 182.2 910.9 182.2 910.9 183.2 908.8 183.2 912.1 179.8 912.1 178.6 906.9 178.6 906.9 180.7"/>
    <polygon points="915.7 178.6 913.1 178.6 913.1 179.9 913.9 179.9 913.9 183 913.1 183 913.1 184.3 916.6 184.3 916.6 183 915.7 183 915.7 178.6"/>
    <path d="M983.8,230.9a.9.9,0,0,0,.7-.3.7.7,0,0,0,.3-.6.8.8,0,0,0-.3-.7,1,1,0,0,0-1.4,0,.8.8,0,0,0-.3.7.7.7,0,0,0,.3.6A.9.9,0,0,0,983.8,230.9Z" transform="translate(-68.9 -52.9)"/>
    <polygon points="920 183 920 176.2 917.3 176.2 917.3 177.5 918.1 177.5 918.1 183 917.3 183 917.3 184.3 920.8 184.3 920.8 183 920 183"/>
  </g>
</svg>