<svg
  class="top-polluter"
  xmlns="http://www.w3.org/2000/svg"
  width="169.3"
  height="11"
  viewBox="803.3 118.5 169.3 11"
>
  <g>
    <polygon points="806.3 118.6 803.3 118.6 803.3 119.9 804.5 119.9 804.5 125.4 803.4 125.4 803.4 126.7 807.3 126.7 807.3 125.4 806.3 125.4 806.3 118.6"/>
    <path d="M881.4,174.4a1.7,1.7,0,0,0-1.4.6,4,4,0,0,1,.3-1.7.9.9,0,0,1,.9-.7c.4,0,.8.4.9,1.1l1.4-.2a2.1,2.1,0,0,0-2.3-2.1,2.7,2.7,0,0,0-2.2,1,5.1,5.1,0,0,0-.8,3.2,5.4,5.4,0,0,0,.7,3.2,2.7,2.7,0,0,0,2.2,1,2.2,2.2,0,0,0,1.8-.8,2.4,2.4,0,0,0,.7-2,2.5,2.5,0,0,0-.6-1.9A2,2,0,0,0,881.4,174.4Zm.3,3.7a.7.7,0,0,1-.6.4.9.9,0,0,1-.8-.5,4.4,4.4,0,0,1-.3-1.9,1.7,1.7,0,0,1,1-.3.9.9,0,0,1,.7.3,1.3,1.3,0,0,1,.3,1A1.5,1.5,0,0,1,881.7,178.1Z" transform="translate(-68.9 -52.9)"/>
    <rect x="816.4" y="124.7" width="2" height="1.96"/>
    <polygon points="821.8 119.9 823.1 119.9 823.1 125.3 821.8 125.3 821.8 126.7 826.5 126.7 826.5 125.3 825.2 125.3 825.2 119.9 826.5 119.9 826.5 118.6 821.8 118.6 821.8 119.9"/>
    <path d="M899.4,174.3a1.9,1.9,0,0,0-.7,1.1V174H896v1.3h1v3h-1v1.3h3.9v-1.3h-1.1v-.7a2.7,2.7,0,0,1,.3-1.2,1.3,1.3,0,0,1,.7-.6l1.1-.2v-1.7h-.3A1.6,1.6,0,0,0,899.4,174.3Z" transform="translate(-68.9 -52.9)"/>
    <path d="M906.9,176.3a4.1,4.1,0,0,0-.1-1.2,2.1,2.1,0,0,0-.4-.6,1.2,1.2,0,0,0-.8-.5l-1.3-.2a2.9,2.9,0,0,0-2.8,1.4l1.5.2a1.3,1.3,0,0,1,1-.4,1,1,0,0,1,.8.3.9.9,0,0,1,.3.7v.3l-1.3-.3a2.5,2.5,0,0,0-1.7.6,1.8,1.8,0,0,0-.6,1.4,1.8,1.8,0,0,0,.6,1.3,2.4,2.4,0,0,0,1.5.4,2.3,2.3,0,0,0,1.5-.5v.4h2.7v-1.3h-.9Zm-1.8,1.7a1.7,1.7,0,0,1-1.1.6l-.6-.2c-.1-.2-.2-.3-.2-.5a.6.6,0,0,1,.3-.6l.6-.2,1,.5Z" transform="translate(-68.9 -52.9)"/>
    <path d="M912.5,174.7a2.3,2.3,0,0,0-1.6-.8,2,2,0,0,0-1.8.9,3.5,3.5,0,0,0-.7,2,3.8,3.8,0,0,0,.7,2.1,2,2,0,0,0,1.8.9,2.6,2.6,0,0,0,1.6-.7v1.8h-1.1v1.3h3.9v-1.3h-1v-5.6h1V174h-2.8Zm-.3,3.3a1,1,0,0,1-1.6,0,2.1,2.1,0,0,1-.3-1.2,1.8,1.8,0,0,1,.3-1.1,1.2,1.2,0,0,1,.8-.4,1,1,0,0,1,.8.4,1.8,1.8,0,0,1,.3,1.1A2.1,2.1,0,0,1,912.2,178Z" transform="translate(-68.9 -52.9)"/>
    <polygon points="855.3 119.9 856.3 119.9 856.3 123.6 853.3 118.6 849.9 118.6 849.9 119.9 851 119.9 851 125.3 849.9 125.3 849.9 126.7 853.5 126.7 853.5 125.3 852.4 125.3 852.4 120.7 856 126.8 857.8 126.8 857.8 119.9 858.9 119.9 858.9 118.6 855.3 118.6 855.3 119.9"/>
    <path d="M933.9,176.3a4.1,4.1,0,0,0-.1-1.2,2.1,2.1,0,0,0-.4-.6,1.2,1.2,0,0,0-.8-.5l-1.3-.2a2.9,2.9,0,0,0-2.8,1.4l1.5.2a1.3,1.3,0,0,1,1-.4,1,1,0,0,1,.8.3.9.9,0,0,1,.3.7v.3l-1.3-.3a2.5,2.5,0,0,0-1.7.6,1.8,1.8,0,0,0-.6,1.4,1.8,1.8,0,0,0,.6,1.3,2.4,2.4,0,0,0,1.5.4,2.3,2.3,0,0,0,1.5-.5v.4h2.7v-1.3h-.9Zm-1.8,1.7a1.7,1.7,0,0,1-1.1.6l-.6-.2c-.1-.2-.2-.3-.2-.5a.6.6,0,0,1,.3-.6l.6-.2,1,.5Z" transform="translate(-68.9 -52.9)"/>
    <path d="M937.8,171.8l-1.8,1.3v.9h-.8v1.3h.8v3a1.3,1.3,0,0,0,1.4,1.4,3.5,3.5,0,0,0,1.4-.3v-1.2h-.6c-.2,0-.3,0-.3-.1s-.1-.2-.1-.5v-2.4h1V174h-1Z" transform="translate(-68.9 -52.9)"/>
    <polygon points="873.4 121 870.7 121 870.7 122.3 871.6 122.3 871.6 125.4 870.7 125.4 870.7 126.7 874.2 126.7 874.2 125.4 873.4 125.4 873.4 121"/>
    <path d="M941.4,173.3a.9.9,0,0,0,.7-.3.7.7,0,0,0,.3-.6.8.8,0,0,0-.3-.7.9.9,0,0,0-.7-.3,1.1,1.1,0,0,0-.7.3.8.8,0,0,0-.3.7.7.7,0,0,0,.3.6A1.1,1.1,0,0,0,941.4,173.3Z" transform="translate(-68.9 -52.9)"/>
    <path d="M946.8,173.8a3.2,3.2,0,0,0-2.1.8,2.9,2.9,0,0,0-.9,2.2,2.8,2.8,0,0,0,.9,2.2,3.2,3.2,0,0,0,2.1.8,2.8,2.8,0,0,0,3-3,2.9,2.9,0,0,0-.9-2.2A2.9,2.9,0,0,0,946.8,173.8Zm.8,4.2a1,1,0,0,1-.8.4.9.9,0,0,1-.8-.5,1.6,1.6,0,0,1-.3-1.1c0-1,.4-1.6,1.1-1.6a1,1,0,0,1,.8.4,1.6,1.6,0,0,1,.4,1.2A2.1,2.1,0,0,1,947.6,178Z" transform="translate(-68.9 -52.9)"/>
    <path d="M956.8,176.1c0-1.5-.6-2.2-1.8-2.2a2.7,2.7,0,0,0-1.6.6V174h-2.7v1.3h.9v3h-.9v1.3h3.5v-1.3h-.8v-2.5a1.4,1.4,0,0,1,1-.4.5.5,0,0,1,.4.2c.1.1.1.3.1.6v3.4h2.7v-1.3h-.8Z" transform="translate(-68.9 -52.9)"/>
    <path d="M963.7,176.3c0-.5-.1-.9-.1-1.2l-.4-.6a1.6,1.6,0,0,0-.8-.5l-1.4-.2a2.7,2.7,0,0,0-2.7,1.4l1.4.2a1.5,1.5,0,0,1,1.1-.4,1.1,1.1,0,0,1,.8.3.9.9,0,0,1,.3.7v.3l-1.3-.3a2.4,2.4,0,0,0-1.7.6,1.8,1.8,0,0,0-.6,1.4,1.8,1.8,0,0,0,.6,1.3,2.3,2.3,0,0,0,1.4.4,2.4,2.4,0,0,0,1.6-.5v.4h2.7v-1.3h-.9Zm-1.8,1.7a1.9,1.9,0,0,1-1.2.6l-.5-.2c-.1-.2-.2-.3-.2-.5a.6.6,0,0,1,.3-.6l.5-.2a2.5,2.5,0,0,1,1.1.5Z" transform="translate(-68.9 -52.9)"/>
    <polygon points="899 118.6 896.3 118.6 896.3 119.9 897.2 119.9 897.2 125.4 896.3 125.4 896.3 126.7 899.8 126.7 899.8 125.4 899 125.4 899 118.6"/>
    <path d="M977.1,171.4a4.5,4.5,0,0,0-3.3,1.2,4.1,4.1,0,0,0-1.2,3,4,4,0,0,0,1.2,2.9,5.1,5.1,0,0,0,6.6,0,3.7,3.7,0,0,0,1.3-2.9,4.1,4.1,0,0,0-1.2-3A4.9,4.9,0,0,0,977.1,171.4Zm1.6,6.2a2.2,2.2,0,0,1-1.6.7,2.3,2.3,0,0,1-1.6-.8,2.7,2.7,0,0,1-.6-1.9,2.8,2.8,0,0,1,.6-2,2.1,2.1,0,0,1,1.6-.7,2.2,2.2,0,0,1,1.7.7,2.9,2.9,0,0,1,.6,1.9A2.8,2.8,0,0,1,978.7,177.6Z" transform="translate(-68.9 -52.9)"/>
    <polygon points="916.5 121 913.8 121 913.8 122.3 914.7 122.3 914.7 125.4 913.8 125.4 913.8 126.7 917.4 126.7 917.4 125.4 916.5 125.4 916.5 121"/>
    <path d="M984.5,173.3a.8.8,0,0,0,.7-.3.7.7,0,0,0,.3-.6,1.2,1.2,0,0,0-.2-.7,1.1,1.1,0,0,0-.8-.3,1.1,1.1,0,0,0-.7.3,1.2,1.2,0,0,0-.2.7,1.1,1.1,0,0,0,.9.9Z" transform="translate(-68.9 -52.9)"/>
    <polygon points="920.7 118.6 918 118.6 918 119.9 918.9 119.9 918.9 125.4 918 125.4 918 126.7 921.5 126.7 921.5 125.4 920.7 125.4 920.7 118.6"/>
    <path d="M1000.4,177.7a2,2,0,0,1-1.5.5,2,2,0,0,1-1.6-.7,2.5,2.5,0,0,1-.7-1.9,3.4,3.4,0,0,1,.6-2,2.6,2.6,0,0,1,1.9-.8,2.1,2.1,0,0,1,2,1.6h1.4v-2.9h-1.4v.6a4.1,4.1,0,0,0-2.5-.7,3.8,3.8,0,0,0-2.1.5,3.6,3.6,0,0,0-1.6,1.4,4.4,4.4,0,0,0-.6,2.3,4.1,4.1,0,0,0,1.2,3,4.1,4.1,0,0,0,3.3,1.1,3.7,3.7,0,0,0,4-2.8l-1.6-.8A2.7,2.7,0,0,1,1000.4,177.7Z" transform="translate(-68.9 -52.9)"/>
    <path d="M1006.6,173.8a2.8,2.8,0,0,0-3,3,3.1,3.1,0,0,0,.8,2.2,3.3,3.3,0,0,0,2.2.8,3.2,3.2,0,0,0,2.1-.8,3.4,3.4,0,0,0,0-4.4A3.2,3.2,0,0,0,1006.6,173.8Zm.8,4.2a1.2,1.2,0,0,1-.8.4,1.1,1.1,0,0,1-.9-.5,1.6,1.6,0,0,1-.3-1.1c0-1,.4-1.6,1.2-1.6a1.2,1.2,0,0,1,.8.4,2.6,2.6,0,0,1,0,2.4Z" transform="translate(-68.9 -52.9)"/>
    <path d="M1010.7,179.6h.9v.2a1,1,0,0,1-.9,1.1v.9l1.1-.2a1.3,1.3,0,0,0,.6-.7,3,3,0,0,0,.2-1.4v-1.8h-1.9Z" transform="translate(-68.9 -52.9)"/>
    <polygon points="948.1 119.9 949.3 119.9 949.3 125.3 948.1 125.3 948.1 126.7 952.7 126.7 952.7 125.3 951.5 125.3 951.5 119.9 952.7 119.9 952.7 118.6 948.1 118.6 948.1 119.9"/>
    <path d="M1025.6,174.3a2.6,2.6,0,0,0-.7,1.1V174h-2.6v1.3h1v3h-1.1v1.3h4v-1.3h-1.1v-.7a2.7,2.7,0,0,1,.3-1.2,1.1,1.1,0,0,1,.7-.6l1.1-.2v-1.7h-.3A2,2,0,0,0,1025.6,174.3Z" transform="translate(-68.9 -52.9)"/>
    <path d="M1033.2,176.3c0-.5-.1-.9-.1-1.2a2.1,2.1,0,0,0-.4-.6,1.6,1.6,0,0,0-.8-.5l-1.4-.2a2.7,2.7,0,0,0-2.7,1.4l1.5.2a1.2,1.2,0,0,1,1-.4,1.1,1.1,0,0,1,.8.3.9.9,0,0,1,.3.7v.3l-1.3-.3a2.4,2.4,0,0,0-1.7.6,1.8,1.8,0,0,0-.6,1.4,1.8,1.8,0,0,0,.6,1.3,2.3,2.3,0,0,0,1.4.4,2.4,2.4,0,0,0,1.6-.5v.4h2.7v-1.3h-.9Zm-1.8,1.7a1.9,1.9,0,0,1-1.2.6l-.5-.2c-.1-.2-.2-.3-.2-.5a.6.6,0,0,1,.3-.6l.5-.2a2.5,2.5,0,0,1,1.1.5Z" transform="translate(-68.9 -52.9)"/>
    <path d="M1041.6,175.3V174h-2.8v.7a2.5,2.5,0,0,0-1.7-.8,2,2,0,0,0-1.7.9,2.9,2.9,0,0,0-.7,2,3.7,3.7,0,0,0,.6,2.1,2.3,2.3,0,0,0,1.8.9,2.8,2.8,0,0,0,1.7-.7v1.8h-1.1v1.3h3.9v-1.3h-1v-5.6Zm-3.1,2.7c-.3.2-.5.4-.8.4a.9.9,0,0,1-.8-.4,2.1,2.1,0,0,1-.3-1.2,1.8,1.8,0,0,1,.3-1.1,1,1,0,0,1,.8-.4,1.2,1.2,0,0,1,.8.4,1.8,1.8,0,0,1,.3,1.1A2.1,2.1,0,0,1,1038.5,178Z" transform="translate(-68.9 -52.9)"/>
  </g>
</svg>