<svg
  class="top-polluter"
  xmlns="http://www.w3.org/2000/svg"
  width="215.48"
  height="11"
  viewBox="503.6 161.7 215.48 11"
>
  <g>
    <polygon points="506.6 161.8 503.6 161.8 503.6 163.1 504.8 163.1 504.8 168.6 503.7 168.6 503.7 169.9 507.7 169.9 507.7 168.6 506.6 168.6 506.6 161.8"/>
    <path d="M583.2,214.6h-1.6l-3.5,5a5.1,5.1,0,0,1,.4,1h3v1.1h-.9v1.1h3.3v-1.1h-.7v-1.1h.8v-1.1h-.8Zm-1.7,4.9h-2l2-2.8Z" transform="translate(-68.9 -52.9)"/>
    <rect x="516.7" y="167.9" width="2" height="1.96"/>
    <path d="M596.5,216.1h1.1v-1.4h-5.3v1.4h1.1l-1.6,5.4h-1v1.3h3.6v-1.3h-1.1l.4-1.4h2.2l.3,1.4h-1v1.3h4v-1.3h-1Zm-2.4,2.8.7-2.5.7,2.5Z" transform="translate(-68.9 -52.9)"/>
    <path d="M603.8,217a2.1,2.1,0,0,0-1.6.8v-3.1h-2.8V216h1v5.5h-1v1.3h2.8v-.6a2,2,0,0,0,1.6.7,1.9,1.9,0,0,0,1.7-.8,3.5,3.5,0,0,0,0-4.2A2,2,0,0,0,603.8,217Zm.3,4.1a1,1,0,0,1-.8.4.8.8,0,0,1-.8-.4,1.7,1.7,0,0,1,0-2.2,1,1,0,0,1,1.6,0,2.2,2.2,0,0,1,0,2.2Z" transform="translate(-68.9 -52.9)"/>
    <path d="M613,217.2h-2.7v1.3h.9V221a1.6,1.6,0,0,1-1,.4h-.5c-.1-.1-.1-.3-.1-.6v-3.5h-2.7v1.3h.9v2.7a1.8,1.8,0,0,0,.4,1.3,2,2,0,0,0,1.3.4,3.7,3.7,0,0,0,1.7-.5v.4h2.7v-1.3H613Z" transform="translate(-68.9 -52.9)"/>
    <path d="M624.7,215.5a3.7,3.7,0,0,0-1.4-.7h-5.8v1.4h1.2v5.4h-1.2v1.3h5.6l1.1-.4,1-.7a3.3,3.3,0,0,0,.7-1.3,4.1,4.1,0,0,0,.3-1.6,4.1,4.1,0,0,0-.4-1.9A3.8,3.8,0,0,0,624.7,215.5Zm-1,4.9a1.4,1.4,0,0,1-.9.8,3.1,3.1,0,0,1-1.5.3h-.5v-5.4h.5l1.5.2a2,2,0,0,1,.9.9,4.1,4.1,0,0,1,.3,1.6A3.5,3.5,0,0,1,623.7,220.4Z" transform="translate(-68.9 -52.9)"/>
    <path d="M633.2,219.1c0-1.4-.6-2.1-1.7-2.1a2.7,2.7,0,0,0-1.6.6v-2.9h-2.8V216h1v5.5h-1v1.3h3.6v-1.3h-.8v-2.6a1.4,1.4,0,0,1,.9-.4l.5.2c.1.1.1.2.1.5v3.6h2.7v-1.3h-.9Z" transform="translate(-68.9 -52.9)"/>
    <path d="M640.2,219.5a4.1,4.1,0,0,0-.1-1.2c0-.2-.2-.4-.3-.6a1.9,1.9,0,0,0-.9-.5l-1.3-.2a2.9,2.9,0,0,0-2.8,1.4l1.5.2a1.3,1.3,0,0,1,1-.4,1,1,0,0,1,.8.3.9.9,0,0,1,.3.7v.3l-1.3-.3a2.1,2.1,0,0,0-1.6.6,1.6,1.6,0,0,0-.7,1.4,1.8,1.8,0,0,0,.6,1.3,2.4,2.4,0,0,0,1.5.4,2.3,2.3,0,0,0,1.5-.5v.4h2.7v-1.3h-.9Zm-1.8,1.7a1.7,1.7,0,0,1-1.1.6l-.5-.2a.6.6,0,0,1-.2-.5c0-.3,0-.5.2-.6l.6-.2a2.3,2.3,0,0,1,1,.5Z" transform="translate(-68.9 -52.9)"/>
    <path d="M645.9,217a2.1,2.1,0,0,0-1.6.8v-3.1h-2.8V216h1v5.5h-1v1.3h2.8v-.6a2.1,2.1,0,0,0,1.6.7,2.2,2.2,0,0,0,1.8-.8,4,4,0,0,0,0-4.2A2.3,2.3,0,0,0,645.9,217Zm.3,4.1a1,1,0,0,1-1.6,0,2.2,2.2,0,0,1,0-2.2,1,1,0,0,1,1.6,0,2.2,2.2,0,0,1,0,2.2Z" transform="translate(-68.9 -52.9)"/>
    <polygon points="583.1 164.2 580.4 164.2 580.4 165.5 581.3 165.5 581.3 168.6 580.4 168.6 580.4 169.9 583.9 169.9 583.9 168.6 583.1 168.6 583.1 164.2"/>
    <path d="M651.1,216.5l.7-.2a1.1,1.1,0,0,0,.3-.7.8.8,0,0,0-.3-.7,1,1,0,0,0-1.4,0,.8.8,0,0,0-.3.7.7.7,0,0,0,.3.6A.9.9,0,0,0,651.1,216.5Z" transform="translate(-68.9 -52.9)"/>
    <polygon points="592.8 163.1 593.9 163.1 593.9 166.8 590.9 161.8 587.5 161.8 587.5 163.1 588.5 163.1 588.5 168.5 587.5 168.5 587.5 169.9 591 169.9 591 168.5 590 168.5 590 163.9 593.5 170 595.3 170 595.3 163.1 596.5 163.1 596.5 161.8 592.8 161.8 592.8 163.1"/>
    <path d="M671.5,219.5c0-.5-.1-.9-.1-1.2a2.1,2.1,0,0,0-.4-.6,1.6,1.6,0,0,0-.8-.5l-1.4-.2a2.7,2.7,0,0,0-2.7,1.4l1.4.2a1.5,1.5,0,0,1,1.1-.4,1.1,1.1,0,0,1,.8.3.9.9,0,0,1,.3.7v.3l-1.3-.3a2.4,2.4,0,0,0-1.7.6,1.8,1.8,0,0,0-.6,1.4,1.8,1.8,0,0,0,.6,1.3,2.3,2.3,0,0,0,1.4.4,2.4,2.4,0,0,0,1.6-.5v.4h2.7v-1.3h-.9Zm-1.8,1.7a1.9,1.9,0,0,1-1.2.6l-.5-.2c-.1-.2-.2-.3-.2-.5a.6.6,0,0,1,.3-.6l.5-.2a2.5,2.5,0,0,1,1.1.5Z" transform="translate(-68.9 -52.9)"/>
    <path d="M675.3,215l-1.8,1.3v.9h-.7v1.3h.7v3c0,.9.5,1.4,1.5,1.4l1.4-.3v-1.2h-1a2,2,0,0,1-.1-.5v-2.4h1.1v-1.3h-1.1Z" transform="translate(-68.9 -52.9)"/>
    <polygon points="610.9 164.2 608.3 164.2 608.3 165.5 609.1 165.5 609.1 168.6 608.3 168.6 608.3 169.9 611.8 169.9 611.8 168.6 610.9 168.6 610.9 164.2"/>
    <path d="M679,216.5l.7-.2a1.1,1.1,0,0,0,.3-.7.8.8,0,0,0-.3-.7,1,1,0,0,0-1.4,0,.8.8,0,0,0-.3.7.7.7,0,0,0,.3.6A.9.9,0,0,0,679,216.5Z" transform="translate(-68.9 -52.9)"/>
    <path d="M684.4,217a2.9,2.9,0,0,0-2.1.8,2.9,2.9,0,0,0-.9,2.2,2.8,2.8,0,0,0,.9,2.2,2.9,2.9,0,0,0,2.1.8,3.2,3.2,0,0,0,2.1-.8,3.1,3.1,0,0,0,0-4.4A3.2,3.2,0,0,0,684.4,217Zm.8,4.2a1.2,1.2,0,0,1-.8.4,1.1,1.1,0,0,1-.9-.5,2.7,2.7,0,0,1-.2-1.1c0-1,.3-1.6,1.1-1.6a1.2,1.2,0,0,1,.8.4,2.5,2.5,0,0,1,0,2.4Z" transform="translate(-68.9 -52.9)"/>
    <path d="M694.3,219.3c0-1.5-.6-2.2-1.7-2.2a2.9,2.9,0,0,0-1.7.6v-.5h-2.6v1.3h.8v3h-.8v1.3h3.5v-1.3h-.9V219a1.7,1.7,0,0,1,1.1-.4.5.5,0,0,1,.4.2c.1.1.1.3.1.6v3.4h2.7v-1.3h-.9Z" transform="translate(-68.9 -52.9)"/>
    <path d="M701.2,219.5a4.1,4.1,0,0,0-.1-1.2c0-.2-.2-.4-.3-.6l-.8-.5-1.4-.2a2.9,2.9,0,0,0-2.8,1.4l1.5.2a1.3,1.3,0,0,1,1-.4,1,1,0,0,1,.8.3.9.9,0,0,1,.3.7v.3l-1.3-.3a2.1,2.1,0,0,0-1.6.6,1.6,1.6,0,0,0-.7,1.4,1.8,1.8,0,0,0,.6,1.3,2.4,2.4,0,0,0,1.5.4,2.3,2.3,0,0,0,1.5-.5v.4h2.7v-1.3h-.9Zm-1.8,1.7a1.7,1.7,0,0,1-1.1.6l-.5-.2a.6.6,0,0,1-.2-.5c0-.3,0-.5.2-.6l.6-.2a2.3,2.3,0,0,1,1,.5Z" transform="translate(-68.9 -52.9)"/>
    <polygon points="636.5 161.8 633.8 161.8 633.8 163.1 634.7 163.1 634.7 168.6 633.8 168.6 633.8 169.9 637.3 169.9 637.3 168.6 636.5 168.6 636.5 161.8"/>
    <path d="M714.7,214.6a4.5,4.5,0,0,0-3.3,1.2,4.1,4.1,0,0,0-1.2,3,3.9,3.9,0,0,0,1.1,2.9,4.5,4.5,0,0,0,3.4,1.2,4.5,4.5,0,0,0,3.3-1.2,4,4,0,0,0,1.2-2.9,4.1,4.1,0,0,0-1.2-3A4.5,4.5,0,0,0,714.7,214.6Zm1.6,6.2a2.6,2.6,0,0,1-1.6.7,2.1,2.1,0,0,1-1.6-.8,2.7,2.7,0,0,1-.7-1.9,2.8,2.8,0,0,1,.7-2,2,2,0,0,1,1.6-.7,1.9,1.9,0,0,1,1.6.7,2.9,2.9,0,0,1,.6,1.9A3.3,3.3,0,0,1,716.3,220.8Z" transform="translate(-68.9 -52.9)"/>
    <path d="M722.1,216.5l.7-.2a1.1,1.1,0,0,0,.3-.7.8.8,0,0,0-.3-.7,1,1,0,0,0-1.4,0,.8.8,0,0,0-.3.7.7.7,0,0,0,.3.6A.9.9,0,0,0,722.1,216.5Z" transform="translate(-68.9 -52.9)"/>
    <polygon points="654.1 164.2 651.4 164.2 651.4 165.5 652.3 165.5 652.3 168.6 651.4 168.6 651.4 169.9 654.9 169.9 654.9 168.6 654.1 168.6 654.1 164.2"/>
    <polygon points="658.3 161.8 655.6 161.8 655.6 163.1 656.5 163.1 656.5 168.6 655.6 168.6 655.6 169.9 659.1 169.9 659.1 168.6 658.3 168.6 658.3 161.8"/>
    <path d="M737.9,220.9a1.9,1.9,0,0,1-1.4.5,2.2,2.2,0,0,1-1.7-.7,2.9,2.9,0,0,1-.6-1.9,3.4,3.4,0,0,1,.6-2,2.2,2.2,0,0,1,1.8-.8,1.9,1.9,0,0,1,2,1.6H740v-2.9h-1.4v.6a3.6,3.6,0,0,0-2.4-.7,4.2,4.2,0,0,0-2.2.5,4,4,0,0,0-1.5,1.4,4.1,4.1,0,0,0,3.8,6.4,3.9,3.9,0,0,0,4.1-2.8l-1.6-.8A3.5,3.5,0,0,1,737.9,220.9Z" transform="translate(-68.9 -52.9)"/>
    <path d="M744.1,217a3.2,3.2,0,0,0-2.1.8,2.9,2.9,0,0,0-.9,2.2,2.8,2.8,0,0,0,.9,2.2,3.2,3.2,0,0,0,2.1.8,2.9,2.9,0,0,0,2.1-.8,3.1,3.1,0,0,0,0-4.4A2.9,2.9,0,0,0,744.1,217Zm.8,4.2a1.2,1.2,0,0,1-.8.4.9.9,0,0,1-.8-.5,1.6,1.6,0,0,1-.3-1.1c0-1,.4-1.6,1.1-1.6a1,1,0,0,1,.8.4,2.5,2.5,0,0,1,0,2.4Z" transform="translate(-68.9 -52.9)"/>
    <path d="M758.4,219.4a3.5,3.5,0,0,0-.2-1.3,1.1,1.1,0,0,0-.6-.7,1.8,1.8,0,0,0-1.1-.3,3.4,3.4,0,0,0-2.3.8,1.9,1.9,0,0,0-1.7-.8,4.1,4.1,0,0,0-1.8.5v-.4h-2.8v1.3h.9v3h-.9v1.3h3.7v-1.3h-.9V219a3.3,3.3,0,0,1,1.3-.4c.5,0,.7.4.7,1v3.2h2.8v-1.3h-1V219a3.8,3.8,0,0,1,1.3-.4c.5,0,.8.3.8.9v3.3h2.7v-1.3h-.9Z" transform="translate(-68.9 -52.9)"/>
    <path d="M764.1,217.1a2.5,2.5,0,0,0-1.7.8v-.7h-2.6v1.3h.8v5.6h-1v1.3h3.9v-1.3h-1.1v-1.8a2.8,2.8,0,0,0,1.7.7,2.1,2.1,0,0,0,1.7-.8,3.1,3.1,0,0,0,.7-2.1,3.7,3.7,0,0,0-.6-2.1A2.3,2.3,0,0,0,764.1,217.1Zm.2,4.1a1,1,0,0,1-.8.3.9.9,0,0,1-.8-.4,1.5,1.5,0,0,1-.3-1,2.1,2.1,0,0,1,.3-1.2,1.2,1.2,0,0,1,.8-.4,1,1,0,0,1,.8.4,1.8,1.8,0,0,1,.4,1.1A1.9,1.9,0,0,1,764.3,221.2Z" transform="translate(-68.9 -52.9)"/>
    <path d="M772.9,219.5a3.7,3.7,0,0,0-.2-1.2c0-.2-.2-.4-.3-.6l-.8-.5-1.4-.2a2.7,2.7,0,0,0-2.7,1.4l1.4.2a1.5,1.5,0,0,1,1.1-.4,1.1,1.1,0,0,1,.8.3,1.4,1.4,0,0,1,.2.7v.3a3.1,3.1,0,0,0-1.3-.3,2.3,2.3,0,0,0-1.6.6,1.6,1.6,0,0,0-.7,1.4,1.8,1.8,0,0,0,.6,1.3,2.4,2.4,0,0,0,1.5.4,2.1,2.1,0,0,0,1.5-.5v.4h2.8v-1.3h-.9Zm-1.9,1.7a1.7,1.7,0,0,1-1.1.6l-.5-.2a.6.6,0,0,1-.2-.5.8.8,0,0,1,.2-.6l.6-.2a1.9,1.9,0,0,1,1,.5Z" transform="translate(-68.9 -52.9)"/>
    <path d="M780.4,219.3c0-1.5-.5-2.2-1.7-2.2a2.9,2.9,0,0,0-1.7.6v-.5h-2.6v1.3h.8v3h-.8v1.3h3.5v-1.3H777V219a1.7,1.7,0,0,1,1.1-.4l.4.2c.1.1.1.3.1.6v3.4h2.7v-1.3h-.9Z" transform="translate(-68.9 -52.9)"/>
    <polygon points="716.1 164.2 716.1 165.5 716.8 165.5 715.8 168.1 714.9 165.5 715.6 165.5 715.6 164.2 712.2 164.2 712.2 165.5 713 165.5 715 170.2 714.7 171.2 713.6 171.2 713.6 172.5 715.6 172.5 718.3 165.5 719.1 165.5 719.1 164.2 716.1 164.2"/>
  </g>
</svg>