<svg
  class="top-polluter"
  xmlns="http://www.w3.org/2000/svg"
  width="151.79"
  height="11"
  viewBox="803.3 161.7 151.79 11"
>
  <g>
    <polygon points="806.3 161.8 803.3 161.8 803.3 163.1 804.5 163.1 804.5 168.6 803.4 168.6 803.4 169.9 807.3 169.9 807.3 168.6 806.3 168.6 806.3 161.8"/>
    <path d="M880.7,214.6a2.4,2.4,0,0,0-1.9.7,3.3,3.3,0,0,0-.1,3.9,2.4,2.4,0,0,0,1.6.7,2.5,2.5,0,0,0,1.5-.5c-.1,1.5-.5,2.3-1.3,2.3s-.7-.4-.9-1.1l-1.4.2a2.6,2.6,0,0,0,.7,1.6,2.5,2.5,0,0,0,1.6.6c2,0,3-1.4,3-4.3a5.4,5.4,0,0,0-.7-3.2A2.6,2.6,0,0,0,880.7,214.6Zm1.1,3.6a2.6,2.6,0,0,1-1,.4,1,1,0,0,1-.8-.4,1.8,1.8,0,0,1,0-2,.6.6,0,0,1,.6-.3,1,1,0,0,1,.9.6,3.8,3.8,0,0,1,.3,1.6Z" transform="translate(-68.9 -52.9)"/>
    <rect x="816.4" y="167.9" width="2" height="1.96"/>
    <path d="M896.8,218.5a1.7,1.7,0,0,0,1.2-1.7,2.1,2.1,0,0,0-.5-1.3,2.3,2.3,0,0,0-1-.7h-5.6v1.4h1v5.4h-1v1.3h3.7a5.3,5.3,0,0,0,2-.2,2.1,2.1,0,0,0,1.7-2.1A2,2,0,0,0,896.8,218.5Zm-2.8-2.4h.6a1.5,1.5,0,0,1,1,.2,1,1,0,0,1,.2.7.8.8,0,0,1-.3.7l-.9.2H894Zm1.8,5.1a1.7,1.7,0,0,1-1.2.3H894v-2.2h.6l1.1.2a1,1,0,0,1,.4.9C896.1,220.8,896,221.1,895.8,221.2Z" transform="translate(-68.9 -52.9)"/>
    <polygon points="834.8 163.1 835.6 163.1 835.6 164.9 833.4 164.9 833.4 163.1 834.3 163.1 834.3 161.8 830.3 161.8 830.3 163.1 831.4 163.1 831.4 168.5 830.3 168.5 830.3 169.9 834.3 169.9 834.3 168.5 833.4 168.5 833.4 166.3 835.6 166.3 835.6 168.5 834.8 168.5 834.8 169.9 838.7 169.9 838.7 168.5 837.7 168.5 837.7 163.1 838.7 163.1 838.7 161.8 834.8 161.8 834.8 163.1"/>
    <path d="M912.7,214.7h-4.3v1.4h1v5.4h-1v1.3h4.3v-1.3h-1.2v-1.6h2.2l1.1-.4a2.2,2.2,0,0,0,.7-.9,2.4,2.4,0,0,0,.3-1.2,2.6,2.6,0,0,0-.8-1.9A3.3,3.3,0,0,0,912.7,214.7Zm.5,3.5c-.2.2-.6.3-1.4.3h-.3v-2.4h1.3a1,1,0,0,1,.5.4,1.1,1.1,0,0,1,.3.8A1.2,1.2,0,0,1,913.2,218.2Z" transform="translate(-68.9 -52.9)"/>
    <path d="M925.3,218.5a1.7,1.7,0,0,0,1.2-1.7,2.1,2.1,0,0,0-.5-1.3,2.3,2.3,0,0,0-1-.7h-5.6v1.4h1v5.4h-1v1.3h3.7a5.3,5.3,0,0,0,2-.2,2.1,2.1,0,0,0,1.7-2.1A2,2,0,0,0,925.3,218.5Zm-2.8-2.4h.6a1.5,1.5,0,0,1,1,.2,1,1,0,0,1,.2.7.8.8,0,0,1-.3.7l-.9.2h-.6Zm1.8,5.1a1.7,1.7,0,0,1-1.2.3h-.6v-2.2h.6l1.1.2a1,1,0,0,1,.4.9C924.6,220.8,924.5,221.1,924.3,221.2Z" transform="translate(-68.9 -52.9)"/>
    <polygon points="861.6 164.2 859 164.2 859 165.5 859.8 165.5 859.8 168.6 859 168.6 859 169.9 862.5 169.9 862.5 168.6 861.6 168.6 861.6 164.2"/>
    <path d="M929.7,216.5l.7-.2a1.1,1.1,0,0,0,.3-.7.8.8,0,0,0-.3-.7,1,1,0,0,0-1.4,0,.8.8,0,0,0-.3.7.7.7,0,0,0,.3.6A.9.9,0,0,0,929.7,216.5Z" transform="translate(-68.9 -52.9)"/>
    <polygon points="865.9 161.8 863.2 161.8 863.2 163.1 864 163.1 864 168.6 863.2 168.6 863.2 169.9 866.7 169.9 866.7 168.6 865.9 168.6 865.9 161.8"/>
    <polygon points="870.1 161.8 867.4 161.8 867.4 163.1 868.3 163.1 868.3 168.6 867.4 168.6 867.4 169.9 870.9 169.9 870.9 168.6 870.1 168.6 870.1 161.8"/>
    <path d="M942.4,216.5l.7-.2a1.1,1.1,0,0,0,.3-.7.8.8,0,0,0-.3-.7.9.9,0,0,0-.7-.3,1.1,1.1,0,0,0-.7.3.8.8,0,0,0-.3.7.7.7,0,0,0,.3.6A1.1,1.1,0,0,0,942.4,216.5Z" transform="translate(-68.9 -52.9)"/>
    <polygon points="874.4 164.2 871.7 164.2 871.7 165.5 872.6 165.5 872.6 168.6 871.7 168.6 871.7 169.9 875.2 169.9 875.2 168.6 874.4 168.6 874.4 164.2"/>
    <path d="M947.1,215l-1.8,1.3v.9h-.7v1.3h.7v3c0,.9.5,1.4,1.5,1.4a3.5,3.5,0,0,0,1.4-.3v-1.2h-1a2,2,0,0,1-.1-.5v-2.4h1.1v-1.3h-1.1Z" transform="translate(-68.9 -52.9)"/>
    <path d="M952,217a2.8,2.8,0,0,0-3,3,3.1,3.1,0,0,0,.8,2.2,3.3,3.3,0,0,0,2.2.8,3.2,3.2,0,0,0,2.1-.8,2.9,2.9,0,0,0,.8-2.2,3.3,3.3,0,0,0-.8-2.2A3.2,3.2,0,0,0,952,217Zm.8,4.2a1.3,1.3,0,0,1-.9.4,1,1,0,0,1-.8-.5,1.6,1.6,0,0,1-.3-1.1c0-1,.4-1.6,1.1-1.6a1.3,1.3,0,0,1,.9.4,2.5,2.5,0,0,1,0,2.4Z" transform="translate(-68.9 -52.9)"/>
    <path d="M961.9,219.3c0-1.5-.6-2.2-1.7-2.2a2.7,2.7,0,0,0-1.7.6v-.5h-2.7v1.3h.9v3h-.9v1.3h3.6v-1.3h-.9V219a1.6,1.6,0,0,1,1-.4c.2,0,.4.1.4.2a.8.8,0,0,1,.2.6v3.4h2.6v-1.3h-.8Z" transform="translate(-68.9 -52.9)"/>
    <path d="M964,222.8h1v.2c0,.7-.3,1-1,1.1v.9l1.2-.2a1.3,1.3,0,0,0,.6-.7,5.2,5.2,0,0,0,.2-1.4v-1.8h-2Z" transform="translate(-68.9 -52.9)"/>
    <path d="M975.8,216.1h1.1v-1.4h-5.3v1.4h1.1l-1.6,5.4h-1v1.3h3.6v-1.3h-1.1l.5-1.4h2.1l.4,1.4h-1.1v1.3h4v-1.3h-.9Zm-2.4,2.8.8-2.5.6,2.5Z" transform="translate(-68.9 -52.9)"/>
    <path d="M984.8,217.2h-2.7v1.3h.9V221a1.6,1.6,0,0,1-1,.4h-.5c-.1-.1-.1-.3-.1-.6v-3.5h-2.7v1.3h.9v2.7a1.9,1.9,0,0,0,.5,1.3,1.7,1.7,0,0,0,1.3.4,3.3,3.3,0,0,0,1.6-.5v.4h2.7v-1.3h-.9Z" transform="translate(-68.9 -52.9)"/>
    <path d="M990.6,219.5l-1.6-.4-.8-.2a.2.2,0,0,1-.2-.2c0-.3.3-.5.8-.5s1.1.2,1.2.6h1.3v-1.6H990v.2a3.2,3.2,0,0,0-1.4-.3,2.5,2.5,0,0,0-1.5.5,1.5,1.5,0,0,0,0,2.4,4.3,4.3,0,0,0,2,.6l.9.3.2.3a.5.5,0,0,1-.2.4l-.7.2a1.2,1.2,0,0,1-.9-.3.9.9,0,0,1-.4-.6h-1.3v1.9H988v-.2a2.6,2.6,0,0,0,1.4.4,2.2,2.2,0,0,0,1.7-.6,1.6,1.6,0,0,0,.6-1.3,1.7,1.7,0,0,0-.3-1A1.6,1.6,0,0,0,990.6,219.5Z" transform="translate(-68.9 -52.9)"/>
    <path d="M994.9,215l-1.8,1.3v.9h-.7v1.3h.7v3c0,.9.5,1.4,1.5,1.4a3.1,3.1,0,0,0,1.3-.3v-1.2H995c-.1-.1-.1-.2-.1-.5v-2.4h1v-1.3h-1Z" transform="translate(-68.9 -52.9)"/>
    <path d="M1000,217.5a1.9,1.9,0,0,0-.7,1.1v-1.4h-2.6v1.3h.9v3h-1v1.3h4v-1.3h-1.2v-.7a2.7,2.7,0,0,1,.3-1.2,1.9,1.9,0,0,1,.7-.6l1.2-.2v-1.7h-.3A2,2,0,0,0,1000,217.5Z" transform="translate(-68.9 -52.9)"/>
    <path d="M1007.6,219.5c0-.5-.1-.9-.1-1.2l-.4-.6-.8-.5-1.4-.2a2.7,2.7,0,0,0-2.7,1.4l1.4.2a1.5,1.5,0,0,1,1.1-.4,1.1,1.1,0,0,1,.8.3.8.8,0,0,1,.2.7v.3a3.1,3.1,0,0,0-1.3-.3,2.3,2.3,0,0,0-1.6.6,1.6,1.6,0,0,0-.7,1.4,1.8,1.8,0,0,0,.6,1.3,2.6,2.6,0,0,0,1.5.4,2.1,2.1,0,0,0,1.5-.5v.4h2.8v-1.3h-.9Zm-1.9,1.7a1.7,1.7,0,0,1-1.1.6l-.5-.2a.6.6,0,0,1-.2-.5.8.8,0,0,1,.2-.6l.6-.2a1.9,1.9,0,0,1,1,.5Z" transform="translate(-68.9 -52.9)"/>
    <polygon points="942.9 161.8 940.2 161.8 940.2 163.1 941 163.1 941 168.6 940.2 168.6 940.2 169.9 943.7 169.9 943.7 168.6 942.9 168.6 942.9 161.8"/>
    <path d="M1015.2,216.5l.7-.2a1.1,1.1,0,0,0,.3-.7.8.8,0,0,0-.3-.7,1,1,0,0,0-1.4,0,.8.8,0,0,0-.3.7.7.7,0,0,0,.3.6A.9.9,0,0,0,1015.2,216.5Z" transform="translate(-68.9 -52.9)"/>
    <polygon points="947.1 164.2 944.5 164.2 944.5 165.5 945.3 165.5 945.3 168.6 944.5 168.6 944.5 169.9 948 169.9 948 168.6 947.1 168.6 947.1 164.2"/>
    <path d="M1023.1,221.5v-2a3.7,3.7,0,0,0-.2-1.2c0-.2-.2-.4-.3-.6l-.8-.5-1.4-.2a2.7,2.7,0,0,0-2.7,1.4l1.4.2a1.5,1.5,0,0,1,1.1-.4.8.8,0,0,1,.7.3.9.9,0,0,1,.3.7v.3l-1.3-.3a2.3,2.3,0,0,0-1.6.6,1.6,1.6,0,0,0-.7,1.4,1.8,1.8,0,0,0,.6,1.3,2.4,2.4,0,0,0,1.5.4,2.1,2.1,0,0,0,1.5-.5v.4h2.8v-1.3Zm-1.9-.3a1.7,1.7,0,0,1-1.1.6l-.5-.2a.6.6,0,0,1-.2-.5.8.8,0,0,1,.2-.6l.6-.2a1.9,1.9,0,0,1,1,.5Z" transform="translate(-68.9 -52.9)"/>
  </g>
</svg>