<svg
  class="top-polluter"
  xmlns="http://www.w3.org/2000/svg"
  width="105.4"
  height="11"
  viewBox="19.98 161.7 105.4 11"
>
  <g>
    <path d="M93.9,214.6H92.3l-3.5,5a4.6,4.6,0,0,1,.5,1h3v1.1h-.9v1.1h3.2v-1.1h-.7v-1.1h.8v-1.1h-.8Zm-1.6,4.9H90.2l2.1-2.8Z" transform="translate(-68.9 -52.9)"/>
    <rect x="27.4" y="167.9" width="2" height="1.96"/>
    <polygon points="33 163.1 34 163.1 34 168.5 33 168.5 33 169.9 40.2 169.9 40.2 167.3 38.7 167.3 38.7 168.5 36.1 168.5 36.1 166.4 38.2 166.4 38.2 165 36.1 165 36.1 163.1 38.7 163.1 38.7 164.3 40.2 164.3 40.2 161.8 33 161.8 33 163.1"/>
    <polygon points="45 166.9 46.2 165.5 46.9 165.5 46.9 164.2 45.2 164.2 44.1 165.8 43.1 164.2 40.9 164.2 40.9 165.5 41.7 165.5 42.9 167.1 41.7 168.6 40.9 168.6 40.9 169.9 42.7 169.9 43.8 168.3 44.9 169.9 47.1 169.9 47.1 168.6 46.4 168.6 45 166.9"/>
    <polygon points="51.8 166.9 52.9 165.5 53.7 165.5 53.7 164.2 52 164.2 50.9 165.8 49.8 164.2 47.7 164.2 47.7 165.5 48.5 165.5 49.7 167.1 48.5 168.6 47.7 168.6 47.7 169.9 49.4 169.9 50.6 168.3 51.7 169.9 53.9 169.9 53.9 168.6 53.1 168.6 51.8 166.9"/>
    <path d="M126.5,217a3.2,3.2,0,0,0-2.1.8,2.9,2.9,0,0,0-.9,2.2,2.8,2.8,0,0,0,.9,2.2,3.2,3.2,0,0,0,2.1.8,2.9,2.9,0,0,0,2.1-.8,3.1,3.1,0,0,0,0-4.4A2.9,2.9,0,0,0,126.5,217Zm.8,4.2a1.2,1.2,0,0,1-.8.4.9.9,0,0,1-.8-.5,1.6,1.6,0,0,1-.3-1.1c0-1,.4-1.6,1.1-1.6a1,1,0,0,1,.8.4,2.6,2.6,0,0,1,0,2.4Z" transform="translate(-68.9 -52.9)"/>
    <path d="M136.4,219.3c0-1.5-.5-2.2-1.7-2.2a2.7,2.7,0,0,0-1.6.6v-.5h-2.7v1.3h.8v3h-.8v1.3h3.5v-1.3h-.8V219a1.4,1.4,0,0,1,1-.4.5.5,0,0,1,.4.2c.1.1.1.3.1.6v3.4h2.7v-1.3h-.9Z" transform="translate(-68.9 -52.9)"/>
    <polygon points="74.7 166.5 72.9 161.8 68.9 161.8 68.9 163.1 69.9 163.1 69.9 168.5 68.9 168.5 68.9 169.9 72.3 169.9 72.3 168.5 71.2 168.5 71.2 163.1 71.4 163.1 74 169.9 74.9 169.9 77.4 163.1 77.6 163.1 77.6 168.5 76.6 168.5 76.6 169.9 80.7 169.9 80.7 168.5 79.6 168.5 79.6 163.1 80.7 163.1 80.7 161.8 76.5 161.8 74.7 166.5"/>
    <path d="M153.4,217a3.2,3.2,0,0,0-2.1.8,2.9,2.9,0,0,0-.9,2.2,2.8,2.8,0,0,0,.9,2.2,3.2,3.2,0,0,0,2.1.8,3,3,0,0,0,2.1-.8,3.1,3.1,0,0,0,0-4.4A3.2,3.2,0,0,0,153.4,217Zm.8,4.2a1.2,1.2,0,0,1-.8.4,1.1,1.1,0,0,1-.9-.5,2.7,2.7,0,0,1-.2-1.1c0-1,.3-1.6,1.1-1.6a1.2,1.2,0,0,1,.8.4,2.5,2.5,0,0,1,0,2.4Z" transform="translate(-68.9 -52.9)"/>
    <path d="M161.4,217a2.3,2.3,0,0,0-1.6.8v-3.1H157V216h1v5.5h-1v1.3h2.8v-.6a2.2,2.2,0,0,0,1.7.7,2,2,0,0,0,1.7-.8,3.5,3.5,0,0,0,0-4.2A2.3,2.3,0,0,0,161.4,217Zm.3,4.1a1,1,0,0,1-1.6,0,2.2,2.2,0,0,1,0-2.2,1,1,0,0,1,1.6,0,2.2,2.2,0,0,1,0,2.2Z" transform="translate(-68.9 -52.9)"/>
    <path d="M166.6,216.5l.7-.2a1.1,1.1,0,0,0,.3-.7.8.8,0,0,0-.3-.7.9.9,0,0,0-.7-.3,1.1,1.1,0,0,0-.7.3.8.8,0,0,0-.3.7.7.7,0,0,0,.3.6A1.1,1.1,0,0,0,166.6,216.5Z" transform="translate(-68.9 -52.9)"/>
    <polygon points="98.6 164.2 95.9 164.2 95.9 165.5 96.8 165.5 96.8 168.6 95.9 168.6 95.9 169.9 99.4 169.9 99.4 168.6 98.6 168.6 98.6 164.2"/>
    <polygon points="102.8 161.8 100.1 161.8 100.1 163.1 101 163.1 101 168.6 100.1 168.6 100.1 169.9 103.6 169.9 103.6 168.6 102.8 168.6 102.8 161.8"/>
    <path d="M174,222.8h.9v.2a1,1,0,0,1-.9,1.1v.9l1.1-.2a1.3,1.3,0,0,0,.6-.7,3,3,0,0,0,.2-1.4v-1.8H174Z" transform="translate(-68.9 -52.9)"/>
    <path d="M184.8,216.1h.8v3.6c0,.6-.1,1-.1,1.2l-.4.5-.7.2-.6-.2-.4-.6v-4.7h.8v-1.4h-3.9v1.4h1v3.7a5.3,5.3,0,0,0,.1,1.4,1.3,1.3,0,0,0,.3.8l1,.7a3.4,3.4,0,0,0,1.5.2,3,3,0,0,0,1.4-.2,1.5,1.5,0,0,0,.9-.6,1.3,1.3,0,0,0,.4-.7,4.1,4.1,0,0,0,.1-1.2v-4.1h1v-1.4h-3.2Z" transform="translate(-68.9 -52.9)"/>
    <path d="M193.9,219.3a3,3,0,0,0-.8-.8,6,6,0,0,0-1.4-.7c-.6-.3-1-.5-1.1-.7a.8.8,0,0,1-.2-.5.5.5,0,0,1,.2-.4.7.7,0,0,1,.6-.2,1.1,1.1,0,0,1,.8.3,1.9,1.9,0,0,1,.4.9h1.4v-2.5h-1.4v.7a1.9,1.9,0,0,0-1.5-.8,2,2,0,0,0-1.5.6,1.9,1.9,0,0,0-.7,1.7,2.2,2.2,0,0,0,.5,1.4,10.7,10.7,0,0,0,1.9,1.2,1.7,1.7,0,0,1,.9.6.6.6,0,0,1,.3.6.9.9,0,0,1-.3.6.6.6,0,0,1-.6.3,1.8,1.8,0,0,1-.9-.4,1.6,1.6,0,0,1-.3-1.1h-1.4v2.7h1.4v-.6a1.8,1.8,0,0,0,1.6.7,2.7,2.7,0,0,0,1.7-.6,2.5,2.5,0,0,0,.7-1.8A2.7,2.7,0,0,0,193.9,219.3Z" transform="translate(-68.9 -52.9)"/>
  </g>
</svg>