<svg
  class="top-polluter"
  xmlns="http://www.w3.org/2000/svg"
  width="112.8"
  height="11"
  viewBox="247.6 147.3 112.8 11"
>
  <g>
    <path d="M320.6,204.2a2.2,2.2,0,0,0,1.2-1.9,1.9,1.9,0,0,0-.7-1.6,3.3,3.3,0,0,0-1.9-.5,2.9,2.9,0,0,0-1.9.6,1.7,1.7,0,0,0-.7,1.5,2.2,2.2,0,0,0,1.2,1.9,1.9,1.9,0,0,0-1.5,2,2.5,2.5,0,0,0,.8,1.7,2.9,2.9,0,0,0,2.1.7,3.3,3.3,0,0,0,2.1-.7,2.1,2.1,0,0,0,.8-1.7A1.9,1.9,0,0,0,320.6,204.2Zm-2.1-2.5a.9.9,0,0,1,.7-.3.8.8,0,0,1,.7.3,1.2,1.2,0,0,1,0,1.6,1,1,0,0,1-1.4,0,1.2,1.2,0,0,1,0-1.6Zm1.5,5.2a1,1,0,0,1-1.6,0,1.2,1.2,0,1,1,1.6-1.8,1.4,1.4,0,0,1,.3.9A1.2,1.2,0,0,1,320,206.9Z" transform="translate(-68.9 -52.9)"/>
    <rect x="254.7" y="153.5" width="2" height="1.96"/>
    <path d="M335.5,206.5a2.1,2.1,0,0,1-1.5.5,2,2,0,0,1-1.6-.7,2.5,2.5,0,0,1-.7-1.9,3.4,3.4,0,0,1,.6-2,2.2,2.2,0,0,1,1.8-.8,2.1,2.1,0,0,1,2.1,1.6h1.4v-2.9h-1.4v.6a4.1,4.1,0,0,0-2.5-.7,3.8,3.8,0,0,0-2.1.5,3.6,3.6,0,0,0-1.6,1.4,4.4,4.4,0,0,0-.6,2.3,4.1,4.1,0,0,0,1.2,3,4.1,4.1,0,0,0,3.3,1.1,3.8,3.8,0,0,0,4-2.8l-1.6-.8A3.4,3.4,0,0,1,335.5,206.5Z" transform="translate(-68.9 -52.9)"/>
    <path d="M341.7,202.6a2.8,2.8,0,0,0-3,3,3.1,3.1,0,0,0,.8,2.2,3.3,3.3,0,0,0,2.2.8,3.2,3.2,0,0,0,2.1-.8,3.4,3.4,0,0,0,0-4.4A3.2,3.2,0,0,0,341.7,202.6Zm.8,4.2a1.3,1.3,0,0,1-.9.4,1,1,0,0,1-.8-.5,1.6,1.6,0,0,1-.3-1.1c0-1,.4-1.6,1.1-1.6a1.3,1.3,0,0,1,.9.4,2.5,2.5,0,0,1,0,2.4Z" transform="translate(-68.9 -52.9)"/>
    <path d="M351,205.1a4.1,4.1,0,0,0-.1-1.2,2.1,2.1,0,0,0-.4-.6,1.2,1.2,0,0,0-.8-.5l-1.3-.2a2.8,2.8,0,0,0-2.8,1.4l1.5.2a1.3,1.3,0,0,1,1-.4,1.1,1.1,0,0,1,.8.3.9.9,0,0,1,.3.7v.3l-1.3-.3a2.5,2.5,0,0,0-1.7.6,1.8,1.8,0,0,0-.6,1.4,1.8,1.8,0,0,0,.6,1.3,2.3,2.3,0,0,0,1.4.4,2.4,2.4,0,0,0,1.6-.5v.4h2.7v-1.3H351Zm-1.8,1.7a1.7,1.7,0,0,1-1.1.6l-.6-.2c-.1-.2-.2-.3-.2-.5a.6.6,0,0,1,.3-.6l.5-.2a2.1,2.1,0,0,1,1.1.5Z" transform="translate(-68.9 -52.9)"/>
    <polygon points="286.3 147.4 283.6 147.4 283.6 148.7 284.5 148.7 284.5 154.2 283.6 154.2 283.6 155.5 287.1 155.5 287.1 154.2 286.3 154.2 286.3 147.4"/>
    <polygon points="290.7 148.7 291.9 148.7 291.9 154.1 290.7 154.1 290.7 155.5 295.3 155.5 295.3 154.1 294 154.1 294 148.7 295.3 148.7 295.3 147.4 290.7 147.4 290.7 148.7"/>
    <path d="M370.9,204.9c0-1.5-.5-2.2-1.7-2.2a2.7,2.7,0,0,0-1.6.6v-.5h-2.7v1.3h.9v3h-.9v1.3h3.5v-1.3h-.8v-2.5a1.4,1.4,0,0,1,1-.4.5.5,0,0,1,.4.2c.1.1.1.3.1.6v3.4h2.7v-1.3h-.9Z" transform="translate(-68.9 -52.9)"/>
    <path d="M378.3,200.3h-2.7v1.3h.9v1.8a2.1,2.1,0,0,0-1.6-.8,2.3,2.3,0,0,0-1.8.9,3.5,3.5,0,0,0,0,4.2,2.5,2.5,0,0,0,1.8.8,2.1,2.1,0,0,0,1.6-.7v.6h2.7v-1.3h-.9Zm-2.1,6.5a1.1,1.1,0,0,1-.8.3c-.4,0-.7-.1-.8-.4a2,2,0,0,1-.3-1.1,1.8,1.8,0,0,1,.3-1.1.8.8,0,0,1,.8-.4,1.3,1.3,0,0,1,.8.3,2.5,2.5,0,0,1,0,2.4Z" transform="translate(-68.9 -52.9)"/>
    <path d="M381.8,202.1a.9.9,0,0,0,.9-.9,1.2,1.2,0,0,0-.2-.7,1.1,1.1,0,0,0-.7-.3,1,1,0,0,0-1,1,.7.7,0,0,0,.3.6A.8.8,0,0,0,381.8,202.1Z" transform="translate(-68.9 -52.9)"/>
    <polygon points="313.7 149.8 311 149.8 311 151.1 311.9 151.1 311.9 154.2 311 154.2 311 155.5 314.6 155.5 314.6 154.2 313.7 154.2 313.7 149.8"/>
    <path d="M389.6,205.1a4.1,4.1,0,0,0-.1-1.2,2.1,2.1,0,0,0-.4-.6,1.2,1.2,0,0,0-.8-.5l-1.3-.2a2.9,2.9,0,0,0-2.8,1.4l1.5.2a1.3,1.3,0,0,1,1-.4,1,1,0,0,1,.8.3.9.9,0,0,1,.3.7v.3l-1.3-.3a2.5,2.5,0,0,0-1.7.6,1.8,1.8,0,0,0-.6,1.4,1.8,1.8,0,0,0,.6,1.3,2.4,2.4,0,0,0,1.5.4,2.3,2.3,0,0,0,1.5-.5v.4h2.7v-1.3h-.9Zm-1.8,1.7a1.7,1.7,0,0,1-1.1.6l-.6-.2c-.1-.2-.2-.3-.2-.5a.6.6,0,0,1,.3-.6l.6-.2,1,.5Z" transform="translate(-68.9 -52.9)"/>
    <path d="M391.9,208.4h.9v.2a1,1,0,0,1-.9,1.1v.9l1.1-.2a1.3,1.3,0,0,0,.6-.7,5.2,5.2,0,0,0,.2-1.4v-1.8h-1.9Z" transform="translate(-68.9 -52.9)"/>
    <polygon points="329.3 148.7 330.5 148.7 330.5 154.1 329.3 154.1 329.3 155.5 333.9 155.5 333.9 154.1 332.6 154.1 332.6 148.7 333.9 148.7 333.9 147.4 329.3 147.4 329.3 148.7"/>
    <path d="M409.6,204.9c0-1.5-.6-2.2-1.8-2.2a2.7,2.7,0,0,0-1.6.6v-.5h-2.7v1.3h.9v3h-.9v1.3h3.6v-1.3h-.9v-2.5a1.4,1.4,0,0,1,1-.4l.4.2c.1.1.1.3.1.6v3.4h2.7v-1.3h-.8Z" transform="translate(-68.9 -52.9)"/>
    <path d="M416.9,200.3h-2.7v1.3h.9v1.8a2.1,2.1,0,0,0-1.6-.8,2.3,2.3,0,0,0-1.8.9,3.5,3.5,0,0,0,0,4.2,2.5,2.5,0,0,0,1.8.8,2.1,2.1,0,0,0,1.6-.7v.6h2.8v-1.3h-1Zm-2.1,6.5a1.1,1.1,0,0,1-.8.3.8.8,0,0,1-.8-.4,2,2,0,0,1-.3-1.1,1.8,1.8,0,0,1,.3-1.1.8.8,0,0,1,.8-.4,1.1,1.1,0,0,1,.8.3,2.5,2.5,0,0,1,0,2.4Z" transform="translate(-68.9 -52.9)"/>
    <polygon points="352.3 149.8 349.6 149.8 349.6 151.1 350.5 151.1 350.5 154.2 349.6 154.2 349.6 155.5 353.2 155.5 353.2 154.2 352.3 154.2 352.3 149.8"/>
    <path d="M420.4,202.1a1.1,1.1,0,0,0,.7-.3.7.7,0,0,0,.3-.6.8.8,0,0,0-.3-.7,1.1,1.1,0,0,0-.7-.3.9.9,0,0,0-.7.3.8.8,0,0,0-.3.7.7.7,0,0,0,.3.6A.9.9,0,0,0,420.4,202.1Z" transform="translate(-68.9 -52.9)"/>
    <path d="M428.2,207.1v-2a4.1,4.1,0,0,0-.1-1.2c0-.2-.2-.4-.3-.6l-.8-.5-1.4-.2a2.9,2.9,0,0,0-2.8,1.4l1.5.2a1.3,1.3,0,0,1,1-.4,1,1,0,0,1,.8.3.9.9,0,0,1,.3.7v.3l-1.3-.3a2.1,2.1,0,0,0-1.6.6,1.6,1.6,0,0,0-.7,1.4,1.8,1.8,0,0,0,.6,1.3,2.4,2.4,0,0,0,1.5.4,2.3,2.3,0,0,0,1.5-.5v.4h2.7v-1.3Zm-1.8-.3a1.7,1.7,0,0,1-1.1.6l-.5-.2a.6.6,0,0,1-.2-.5c0-.3,0-.5.2-.6l.6-.2a2.3,2.3,0,0,1,1,.5Z" transform="translate(-68.9 -52.9)"/>
  </g>
</svg>