<svg
  class="top-polluter"
  xmlns="http://www.w3.org/2000/svg"
  width="112.69"
  height="11"
  viewBox="803.3 132.9 112.69 11"
>
  <g>
    <polygon points="806.3 133 803.3 133 803.3 134.3 804.5 134.3 804.5 139.8 803.4 139.8 803.4 141.1 807.3 141.1 807.3 139.8 806.3 139.8 806.3 133"/>
    <path d="M878.4,188.3h1.3v-1.1h2.1a11.3,11.3,0,0,0-1.4,2.7,8.8,8.8,0,0,0-.7,2.8h-1V194h3.9v-1.3h-1a10.4,10.4,0,0,1,.6-3.2,6.2,6.2,0,0,1,1.3-2.6v-1h-5.1Z" transform="translate(-68.9 -52.9)"/>
    <rect x="816.4" y="139.1" width="2" height="1.96"/>
    <polygon points="828.4 136.2 828.4 133 821.1 133 821.1 136.2 822.5 136.2 822.5 134.3 823.7 134.3 823.7 139.7 822.5 139.7 822.5 141.1 827 141.1 827 139.7 825.8 139.7 825.8 134.3 827.1 134.3 827.1 136.2 828.4 136.2"/>
    <path d="M900.2,188.2a3.2,3.2,0,0,0-2.1.8,2.9,2.9,0,0,0-.9,2.2,2.8,2.8,0,0,0,.9,2.2,3.2,3.2,0,0,0,2.1.8,2.9,2.9,0,0,0,2.1-.8,3.1,3.1,0,0,0,0-4.4A3,3,0,0,0,900.2,188.2Zm.8,4.2a1.2,1.2,0,0,1-.8.4.8.8,0,0,1-.8-.5,1.6,1.6,0,0,1-.3-1.1c0-1,.4-1.6,1.1-1.6a1,1,0,0,1,.8.4,2.5,2.5,0,0,1,0,2.4Z" transform="translate(-68.9 -52.9)"/>
    <path d="M906.4,186.2l-1.8,1.3v.9h-.7v1.3h.7v3c0,.9.5,1.4,1.5,1.4l1.4-.3v-1.2h-1c-.1-.1-.1-.2-.1-.5v-2.4h1.1v-1.3h-1.1Z" transform="translate(-68.9 -52.9)"/>
    <path d="M913.7,190.7a4.1,4.1,0,0,0-.1-1.2l-.4-.6a1.6,1.6,0,0,0-.8-.5l-1.4-.2a2.7,2.7,0,0,0-2.7,1.4l1.5.2a1.2,1.2,0,0,1,1-.4,1.1,1.1,0,0,1,.8.3.9.9,0,0,1,.3.7v.3l-1.3-.3a2.4,2.4,0,0,0-1.7.6,1.8,1.8,0,0,0-.6,1.4,1.8,1.8,0,0,0,.6,1.3,2.3,2.3,0,0,0,1.4.4,2.4,2.4,0,0,0,1.6-.5v.4h2.7v-1.3h-.9Zm-1.8,1.7a1.7,1.7,0,0,1-1.2.6l-.5-.2c-.1-.2-.2-.3-.2-.5a.6.6,0,0,1,.3-.6l.5-.2a2.5,2.5,0,0,1,1.1.5Z" transform="translate(-68.9 -52.9)"/>
    <polygon points="849 133 846.3 133 846.3 134.3 847.2 134.3 847.2 139.8 846.3 139.8 846.3 141.1 849.8 141.1 849.8 139.8 849 139.8 849 133"/>
    <path d="M926.9,189.7a5,5,0,0,0-1.3-.7,3.7,3.7,0,0,1-1.2-.7.8.8,0,0,1-.2-.5c0-.2.1-.3.3-.4s.3-.2.5-.2a1.1,1.1,0,0,1,.8.3,1.3,1.3,0,0,1,.4.9h1.4v-2.5h-1.4v.7a1.6,1.6,0,0,0-1.5-.8,2,2,0,0,0-1.5.6,1.9,1.9,0,0,0-.7,1.7,2.2,2.2,0,0,0,.5,1.4l1.9,1.2,1,.6a.8.8,0,0,1,.2.6,1.4,1.4,0,0,1-.2.6.9.9,0,0,1-.7.3,1.4,1.4,0,0,1-1.2-1.5h-1.4V194H924v-.6a1.9,1.9,0,0,0,1.6.7,2.5,2.5,0,0,0,1.7-.6,2.1,2.1,0,0,0,.7-1.8,2.7,2.7,0,0,0-.3-1.2A2,2,0,0,0,926.9,189.7Z" transform="translate(-68.9 -52.9)"/>
    <path d="M934.1,187.3h1.1v-1.4h-5.3v1.4H931l-1.6,5.4h-1V194H932v-1.3h-1.1l.4-1.4h2.1l.4,1.4h-1V194h4v-1.3h-1Zm-2.4,2.8.7-2.5.7,2.5Z" transform="translate(-68.9 -52.9)"/>
    <path d="M937.9,194h1v.2c0,.7-.3,1-1,1.1v.9l1.1-.2a1.6,1.6,0,0,0,.7-.7,5.2,5.2,0,0,0,.2-1.4v-1.8h-2Z" transform="translate(-68.9 -52.9)"/>
    <polygon points="875.4 134.3 876.6 134.3 876.6 139.7 875.4 139.7 875.4 141.1 880 141.1 880 139.7 878.7 139.7 878.7 137.6 880.5 137.6 880.5 136.2 878.7 136.2 878.7 134.3 881.2 134.3 881.2 135.5 882.7 135.5 882.7 133 875.4 133 875.4 134.3"/>
    <path d="M955.5,188.7a1.9,1.9,0,0,0-.7,1.1v-1.4h-2.6v1.3h.9v3h-1V194h4v-1.3H955V192a2.5,2.5,0,0,1,.2-1.2,1.9,1.9,0,0,1,.7-.6l1.2-.2v-1.7h-.3A2,2,0,0,0,955.5,188.7Z" transform="translate(-68.9 -52.9)"/>
    <path d="M963.1,190.7c0-.5-.1-.9-.1-1.2l-.4-.6-.8-.5-1.4-.2a2.7,2.7,0,0,0-2.7,1.4l1.4.2a1.5,1.5,0,0,1,1.1-.4,1.1,1.1,0,0,1,.8.3.9.9,0,0,1,.3.7v.3l-1.4-.3a2.3,2.3,0,0,0-1.6.6,1.9,1.9,0,0,0-.7,1.4,1.8,1.8,0,0,0,.6,1.3,2.6,2.6,0,0,0,1.5.4,2.5,2.5,0,0,0,1.6-.5v.4H964v-1.3h-.9Zm-1.8,1.7a1.9,1.9,0,0,1-1.2.6l-.5-.2c-.1-.2-.2-.3-.2-.5a.8.8,0,0,1,.2-.6l.6-.2a2.5,2.5,0,0,1,1.1.5Z" transform="translate(-68.9 -52.9)"/>
    <path d="M970.6,190.5c0-1.5-.5-2.2-1.7-2.2a2.7,2.7,0,0,0-1.6.6v-.5h-2.7v1.3h.8v3h-.8V194h3.5v-1.3h-.8v-2.5a1.3,1.3,0,0,1,1-.4l.4.2c.1.1.1.3.1.6V194h2.7v-1.3h-.9Z" transform="translate(-68.9 -52.9)"/>
    <path d="M976.1,192.5l-.8.3a1.8,1.8,0,0,1-1-.4,2.1,2.1,0,0,1-.3-1.2,1.8,1.8,0,0,1,.3-1.1,1.8,1.8,0,0,1,1-.4,1.3,1.3,0,0,1,1.3,1h1.3v-2.3h-1.2v.4a3.4,3.4,0,0,0-1.7-.5,2.8,2.8,0,0,0-2,.8,2.6,2.6,0,0,0-.9,2.1,2.9,2.9,0,0,0,.9,2.2,3.6,3.6,0,0,0,2.4.8,2.8,2.8,0,0,0,2.7-1.7l-1.4-.7Z" transform="translate(-68.9 -52.9)"/>
    <path d="M982.1,193a1.9,1.9,0,0,1-1-.3,1.2,1.2,0,0,1-.4-1.1h4.2a3.8,3.8,0,0,0-.3-1.6,3.1,3.1,0,0,0-1-1.3,3.1,3.1,0,0,0-1.7-.5,2.9,2.9,0,0,0-2.2.9,2.9,2.9,0,0,0-.8,2.2,2.5,2.5,0,0,0,.8,2.1,3.4,3.4,0,0,0,2.3.8,3.1,3.1,0,0,0,2.8-1.4l-1.4-.5A1.7,1.7,0,0,1,982.1,193Zm-.3-3.6a1,1,0,0,1,.9.4,2,2,0,0,1,.4.8h-2.4C980.8,189.8,981.2,189.4,981.8,189.4Z" transform="translate(-68.9 -52.9)"/>
  </g>
</svg>