<svg
  class="top-polluter"
  xmlns="http://www.w3.org/2000/svg"
  width="247.59"
  height="11"
  viewBox="503.6 176.09 247.59 11"
>
  <g>
    <polygon points="506.6 176.2 503.6 176.2 503.6 177.5 504.8 177.5 504.8 183 503.7 183 503.7 184.3 507.7 184.3 507.7 183 506.6 183 506.6 176.2"/>
    <path d="M581.3,231.9a2.1,2.1,0,0,0-1.3.5v-2h2.1v.6h1.2v-1.9h-4.6l-.2,4.1,1.3.7a1.1,1.1,0,0,1,.9-.7c.7,0,1.1.5,1.1,1.5a1.5,1.5,0,0,1-.3,1,1,1,0,0,1-.8.3c-.6,0-1-.3-1.1-1.1l-1.5.2a2.7,2.7,0,0,0,.8,1.6,3.2,3.2,0,0,0,4.1-.1,3.5,3.5,0,0,0,.7-2,2.9,2.9,0,0,0-.7-1.9A2.4,2.4,0,0,0,581.3,231.9Z" transform="translate(-68.9 -52.9)"/>
    <rect x="516.7" y="182.3" width="2" height="1.96"/>
    <polygon points="527.8 179.8 530.1 177.5 531.1 177.5 531.1 176.2 527.1 176.2 527.1 177.5 528.1 177.5 525.4 180 527.9 182.9 526.9 182.9 526.9 184.3 531.3 184.3 531.3 182.9 530.5 182.9 527.8 179.8"/>
    <polygon points="525.4 177.5 526.4 177.5 526.4 176.2 522.1 176.2 522.1 177.5 523.2 177.5 523.2 182.9 522.1 182.9 522.1 184.3 526.3 184.3 526.3 182.9 525.4 182.9 525.4 177.5"/>
    <path d="M606.2,231.6h-2.6v1.3h.8v2.5a1.4,1.4,0,0,1-1,.4c-.2,0-.4,0-.4-.1a.8.8,0,0,1-.2-.6v-3.5h-2.6v1.3h.8v2.7a1.9,1.9,0,0,0,.5,1.3,1.7,1.7,0,0,0,1.3.4,3.3,3.3,0,0,0,1.6-.5v.4h2.8v-1.3h-1Z" transform="translate(-68.9 -52.9)"/>
    <polygon points="545.5 179.9 546.2 179.9 545.5 182 544.4 178.6 542.9 178.6 541.7 182 541 179.9 541.6 179.9 541.6 178.6 538.5 178.6 538.5 179.9 539.2 179.9 540.7 184.4 542.3 184.4 543.4 181.1 544.5 184.4 546.1 184.4 547.6 179.9 548.3 179.9 548.3 178.6 545.5 178.6 545.5 179.9"/>
    <path d="M622.9,233.9a4.1,4.1,0,0,0-.1-1.2c0-.2-.2-.4-.3-.6l-.8-.5-1.4-.2a2.9,2.9,0,0,0-2.8,1.4l1.5.2a1.3,1.3,0,0,1,1-.4,1,1,0,0,1,.8.3.9.9,0,0,1,.3.7v.3l-1.3-.3a2.1,2.1,0,0,0-1.6.6,1.6,1.6,0,0,0-.7,1.4,1.8,1.8,0,0,0,.6,1.3,2.4,2.4,0,0,0,1.5.4,2.3,2.3,0,0,0,1.5-.5v.4h2.7v-1.3h-.9Zm-1.8,1.7a1.7,1.7,0,0,1-1.1.6l-.5-.2a.6.6,0,0,1-.2-.5c0-.3,0-.5.2-.6l.6-.2,1,.5Z" transform="translate(-68.9 -52.9)"/>
    <path d="M626.3,230.9a.9.9,0,0,0,.7-.3.7.7,0,0,0,.3-.6.8.8,0,0,0-.3-.7,1,1,0,0,0-1.4,0,.8.8,0,0,0-.3.7.7.7,0,0,0,.3.6A.9.9,0,0,0,626.3,230.9Z" transform="translate(-68.9 -52.9)"/>
    <polygon points="558.3 178.6 555.6 178.6 555.6 179.9 556.5 179.9 556.5 183 555.6 183 555.6 184.3 559.1 184.3 559.1 183 558.3 183 558.3 178.6"/>
    <path d="M631,229.4l-1.8,1.3v.9h-.7v1.3h.7v3c0,.9.5,1.4,1.5,1.4a3.5,3.5,0,0,0,1.4-.3v-1.2h-1a2,2,0,0,1-.1-.5v-2.4h1.1v-1.3H631Z" transform="translate(-68.9 -52.9)"/>
    <path d="M640.1,229.1h-4.3v1.4h1v5.4h-1v1.3h4.3v-1.3h-1.2v-1.6h2.2l1.1-.4a2.2,2.2,0,0,0,.7-.9,2.4,2.4,0,0,0,.3-1.2,2.6,2.6,0,0,0-.8-1.9A3.3,3.3,0,0,0,640.1,229.1Zm.5,3.5c-.2.2-.6.3-1.4.3h-.3v-2.4h1.3a1,1,0,0,1,.5.4,1.1,1.1,0,0,1,.2.8A1.6,1.6,0,0,1,640.6,232.6Z" transform="translate(-68.9 -52.9)"/>
    <path d="M649.3,233.2a3.1,3.1,0,0,0-1-1.3,3.1,3.1,0,0,0-1.7-.5,2.9,2.9,0,0,0-2.2.9,2.9,2.9,0,0,0-.8,2.2,2.5,2.5,0,0,0,.8,2.1,3.4,3.4,0,0,0,2.3.8,3.1,3.1,0,0,0,2.8-1.4l-1.4-.5a1.7,1.7,0,0,1-1.3.7,1.9,1.9,0,0,1-1-.3,1.2,1.2,0,0,1-.4-1.1h4.2A3.8,3.8,0,0,0,649.3,233.2Zm-3.9.6c.1-.8.5-1.2,1.1-1.2a1,1,0,0,1,.9.4,2,2,0,0,1,.4.8Z" transform="translate(-68.9 -52.9)"/>
    <path d="M652.7,229.4l-1.8,1.3v.9h-.7v1.3h.7v3c0,.9.5,1.4,1.5,1.4a3.5,3.5,0,0,0,1.4-.3v-1.2h-1a2,2,0,0,1-.1-.5v-2.4h1.1v-1.3h-1.1Z" transform="translate(-68.9 -52.9)"/>
    <path d="M657.8,231.9a2.6,2.6,0,0,0-.7,1.1v-1.4h-2.6v1.3h1v3h-1.1v1.3h4v-1.3h-1.1v-.7a2.7,2.7,0,0,1,.3-1.2,1.3,1.3,0,0,1,.7-.6l1.1-.2v-1.7h-.3A2,2,0,0,0,657.8,231.9Z" transform="translate(-68.9 -52.9)"/>
    <path d="M662.9,231.4a3.2,3.2,0,0,0-2.1.8,2.9,2.9,0,0,0-.9,2.2,2.8,2.8,0,0,0,.9,2.2,3.2,3.2,0,0,0,2.1.8,3,3,0,1,0,0-6Zm.8,4.2a1,1,0,0,1-.8.4,1,1,0,0,1-.8-.5,1.6,1.6,0,0,1-.3-1.1c0-1,.4-1.6,1.1-1.6a1.5,1.5,0,0,1,.9.4,2.1,2.1,0,0,1,.3,1.2A1.6,1.6,0,0,1,663.7,235.6Z" transform="translate(-68.9 -52.9)"/>
    <polygon points="600.6 176.2 597.9 176.2 597.9 177.5 598.8 177.5 598.8 183 597.9 183 597.9 184.3 601.4 184.3 601.4 183 600.6 183 600.6 176.2"/>
    <path d="M676.8,233.2a3.1,3.1,0,0,0-1-1.3,2.8,2.8,0,0,0-1.6-.5,3.2,3.2,0,0,0-2.3.9,3.3,3.3,0,0,0-.8,2.2,2.9,2.9,0,0,0,.8,2.1,3.6,3.6,0,0,0,2.4.8A3.1,3.1,0,0,0,677,236l-1.4-.5a1.7,1.7,0,0,1-1.3.7l-.9-.3a1.3,1.3,0,0,1-.5-1.1h4.2A3.8,3.8,0,0,0,676.8,233.2Zm-3.9.6q.1-1.2,1.2-1.2a.9.9,0,0,1,.8.4,2,2,0,0,1,.4.8Z" transform="translate(-68.9 -52.9)"/>
    <path d="M683.8,231.6h-2.7v1.3h.9v2.5a1.6,1.6,0,0,1-1,.4h-.5c-.1-.1-.1-.3-.1-.6v-3.5h-2.7v1.3h.9v2.7a1.8,1.8,0,0,0,.4,1.3,2,2,0,0,0,1.3.4,3.7,3.7,0,0,0,1.7-.5v.4h2.7v-1.3h-.9Z" transform="translate(-68.9 -52.9)"/>
    <path d="M695.8,233.8a4.2,4.2,0,0,0-.1-1.3,1.1,1.1,0,0,0-.6-.7,2.1,2.1,0,0,0-1.2-.3,3.6,3.6,0,0,0-2.3.8,1.8,1.8,0,0,0-1.7-.8,4.1,4.1,0,0,0-1.8.5v-.4h-2.8v1.3h1v3h-1v1.3H689v-1.3h-.9v-2.5a3.8,3.8,0,0,1,1.3-.4c.5,0,.7.4.7,1v3.2h2.8v-1.3H692v-2.5a3.3,3.3,0,0,1,1.3-.4c.5,0,.7.3.7.9v3.3h2.8v-1.3h-1Z" transform="translate(-68.9 -52.9)"/>
    <path d="M706.5,235.3a1.9,1.9,0,0,1-1.4.5,2.1,2.1,0,0,1-1.7-.7,2.9,2.9,0,0,1-.6-1.9,3.4,3.4,0,0,1,.6-2,2.2,2.2,0,0,1,1.8-.8,2.1,2.1,0,0,1,2,1.6h1.4v-2.9h-1.4v.6a3.8,3.8,0,0,0-2.4-.7,4.2,4.2,0,0,0-2.2.5,3.4,3.4,0,0,0-1.5,1.4,4.4,4.4,0,0,0-.6,2.3,4,4,0,0,0,1.1,3,4.1,4.1,0,0,0,3.3,1.1,3.7,3.7,0,0,0,4-2.8l-1.6-.8A2.7,2.7,0,0,1,706.5,235.3Z" transform="translate(-68.9 -52.9)"/>
    <path d="M712.7,231.4a3,3,0,0,0-2.1.8,2.9,2.9,0,0,0-.9,2.2,2.8,2.8,0,0,0,.9,2.2,3.2,3.2,0,0,0,4.2,0,3.1,3.1,0,0,0,0-4.4A3.2,3.2,0,0,0,712.7,231.4Zm.8,4.2a1.2,1.2,0,0,1-.8.4,1.1,1.1,0,0,1-.9-.5,2.7,2.7,0,0,1-.2-1.1c0-1,.3-1.6,1.1-1.6a1.2,1.2,0,0,1,.8.4,2.5,2.5,0,0,1,0,2.4Z" transform="translate(-68.9 -52.9)"/>
    <path d="M719.9,231.9a1.9,1.9,0,0,0-.7,1.1v-1.4h-2.7v1.3h1v3h-1v1.3h3.9v-1.3h-1.1v-.7a2.7,2.7,0,0,1,.3-1.2,1.3,1.3,0,0,1,.7-.6l1.1-.2v-1.7h-.3A1.6,1.6,0,0,0,719.9,231.9Z" transform="translate(-68.9 -52.9)"/>
    <path d="M726.8,231.5a2.3,2.3,0,0,0-1.7.8v-.7h-2.6v1.3h.8v5.6h-1v1.3h3.9v-1.3h-1.1v-1.8a2.6,2.6,0,0,0,1.6.7,2.2,2.2,0,0,0,1.8-.8,3.8,3.8,0,0,0,.7-2.1,3.1,3.1,0,0,0-.7-2.1A2,2,0,0,0,726.8,231.5Zm.2,4.1a1.1,1.1,0,0,1-.8.3.9.9,0,0,1-.8-.4,1.5,1.5,0,0,1-.4-1,2.1,2.1,0,0,1,.4-1.2,1,1,0,0,1,1.6,0,1.8,1.8,0,0,1,.3,1.1A1.9,1.9,0,0,1,727,235.6Z" transform="translate(-68.9 -52.9)"/>
    <path d="M733,231.4a3.2,3.2,0,0,0-2.1.8,3.3,3.3,0,0,0-.8,2.2,3.1,3.1,0,0,0,.8,2.2,3.2,3.2,0,0,0,2.1.8,3,3,0,1,0,0-6Zm.9,4.2a1.5,1.5,0,0,1-.9.4,1,1,0,0,1-.8-.5,1.6,1.6,0,0,1-.3-1.1c0-1,.4-1.6,1.1-1.6a1.3,1.3,0,0,1,.9.4,2.5,2.5,0,0,1,0,2.4Z" transform="translate(-68.9 -52.9)"/>
    <path d="M740.2,231.9a1.9,1.9,0,0,0-.7,1.1v-1.4h-2.6v1.3h1v3h-1.1v1.3h4v-1.3h-1.1v-.7a5,5,0,0,1,.2-1.2,1.6,1.6,0,0,1,.8-.6l1.1-.2v-1.7h-.3A2,2,0,0,0,740.2,231.9Z" transform="translate(-68.9 -52.9)"/>
    <path d="M747.8,233.9c0-.5-.1-.9-.1-1.2l-.4-.6a1.6,1.6,0,0,0-.8-.5l-1.4-.2a2.7,2.7,0,0,0-2.7,1.4l1.4.2a1.5,1.5,0,0,1,1.1-.4,1.1,1.1,0,0,1,.8.3.9.9,0,0,1,.3.7v.3l-1.3-.3a2.4,2.4,0,0,0-1.7.6,1.9,1.9,0,0,0-.7,1.4,1.9,1.9,0,0,0,.7,1.3,2.3,2.3,0,0,0,1.4.4,2.4,2.4,0,0,0,1.6-.5v.4h2.7v-1.3h-.9Zm-1.8,1.7a1.9,1.9,0,0,1-1.2.6l-.5-.2c-.1-.2-.2-.3-.2-.5a.6.6,0,0,1,.3-.6l.5-.2a2.5,2.5,0,0,1,1.1.5Z" transform="translate(-68.9 -52.9)"/>
    <path d="M751.6,229.4l-1.8,1.3v.9h-.7v1.3h.7v3c0,.9.5,1.4,1.5,1.4l1.4-.3v-1.2h-1c-.1-.1-.1-.2-.1-.5v-2.4h1.1v-1.3h-1.1Z" transform="translate(-68.9 -52.9)"/>
    <path d="M755.3,230.9a.9.9,0,0,0,.7-.3.7.7,0,0,0,.3-.6.8.8,0,0,0-.3-.7,1,1,0,0,0-1.4,0,.8.8,0,0,0-.3.7.7.7,0,0,0,.3.6A.9.9,0,0,0,755.3,230.9Z" transform="translate(-68.9 -52.9)"/>
    <polygon points="687.2 178.6 684.6 178.6 684.6 179.9 685.4 179.9 685.4 183 684.6 183 684.6 184.3 688.1 184.3 688.1 183 687.2 183 687.2 178.6"/>
    <path d="M760.7,231.4a2.9,2.9,0,0,0-2.1.8,2.9,2.9,0,0,0-.9,2.2,2.8,2.8,0,0,0,.9,2.2,2.9,2.9,0,0,0,2.1.8,3.2,3.2,0,0,0,2.1-.8,3.1,3.1,0,0,0,0-4.4A3.2,3.2,0,0,0,760.7,231.4Zm.8,4.2a1.2,1.2,0,0,1-.8.4,1.1,1.1,0,0,1-.9-.5c-.2-.2-.2-.6-.2-1.1s.3-1.6,1.1-1.6a1.2,1.2,0,0,1,.8.4,2.5,2.5,0,0,1,0,2.4Z" transform="translate(-68.9 -52.9)"/>
    <path d="M770.6,233.7c0-1.5-.6-2.2-1.7-2.2a2.9,2.9,0,0,0-1.7.6v-.5h-2.7v1.3h.9v3h-.9v1.3h3.6v-1.3h-.9v-2.5a1.7,1.7,0,0,1,1.1-.4l.4.2c.1.1.1.3.1.6v3.4h2.7v-1.3h-.9Z" transform="translate(-68.9 -52.9)"/>
    <path d="M772.8,237.2h.9v.2a1,1,0,0,1-.9,1.1v.9l1.1-.2a1.3,1.3,0,0,0,.6-.7,3,3,0,0,0,.2-1.4v-1.8h-1.9Z" transform="translate(-68.9 -52.9)"/>
    <polygon points="713.4 177.5 714.4 177.5 714.4 176.2 710.2 176.2 710.2 177.5 711.3 177.5 711.3 182.9 710.2 182.9 710.2 184.3 714.3 184.3 714.3 182.9 713.4 182.9 713.4 177.5"/>
    <polygon points="715.8 179.8 718.1 177.5 719.1 177.5 719.1 176.2 715.1 176.2 715.1 177.5 716.1 177.5 713.5 180 715.9 182.9 715 182.9 715 184.3 719.3 184.3 719.3 182.9 718.5 182.9 715.8 179.8"/>
    <path d="M794.3,231.6h-2.7v1.3h.9v2.5a1.6,1.6,0,0,1-1,.4H791c-.1-.1-.1-.3-.1-.6v-3.5h-2.7v1.3h.9v2.7a1.5,1.5,0,0,0,1.7,1.7,3.7,3.7,0,0,0,1.7-.5v.4h2.7v-1.3h-.9Z" transform="translate(-68.9 -52.9)"/>
    <polygon points="733.6 179.9 734.2 179.9 733.5 182 732.4 178.6 730.9 178.6 729.7 182 729 179.9 729.7 179.9 729.7 178.6 726.6 178.6 726.6 179.9 727.3 179.9 728.8 184.4 730.4 184.4 731.5 181.1 732.6 184.4 734.1 184.4 735.6 179.9 736.3 179.9 736.3 178.6 733.6 178.6 733.6 179.9"/>
    <path d="M811,233.9c0-.5-.1-.9-.1-1.2a2.1,2.1,0,0,0-.4-.6,1.6,1.6,0,0,0-.8-.5l-1.4-.2a2.7,2.7,0,0,0-2.7,1.4l1.4.2a1.5,1.5,0,0,1,1.1-.4,1.1,1.1,0,0,1,.8.3.9.9,0,0,1,.3.7v.3l-1.3-.3a2.4,2.4,0,0,0-1.7.6,1.8,1.8,0,0,0-.6,1.4,1.8,1.8,0,0,0,.6,1.3,2.3,2.3,0,0,0,1.4.4,2.4,2.4,0,0,0,1.6-.5v.4h2.7v-1.3H811Zm-1.8,1.7a1.9,1.9,0,0,1-1.2.6l-.5-.2c-.1-.2-.2-.3-.2-.5a.6.6,0,0,1,.3-.6l.5-.2a2.5,2.5,0,0,1,1.1.5Z" transform="translate(-68.9 -52.9)"/>
    <polygon points="746.3 178.6 743.6 178.6 743.6 179.9 744.5 179.9 744.5 183 743.6 183 743.6 184.3 747.2 184.3 747.2 183 746.3 183 746.3 178.6"/>
    <path d="M814.4,230.9a.9.9,0,0,0,.9-.9c0-.3,0-.6-.2-.7a1.1,1.1,0,0,0-.7-.3,1,1,0,0,0-1,1,.7.7,0,0,0,.3.6A.9.9,0,0,0,814.4,230.9Z" transform="translate(-68.9 -52.9)"/>
    <path d="M820.1,232.9v-1.3h-1v-2.2l-1.8,1.3v.9h-.8v1.3h.8v3c0,.9.5,1.4,1.5,1.4a3.1,3.1,0,0,0,1.3-.3v-1.2h-.9c-.1-.1-.1-.2-.1-.5v-2.4Z" transform="translate(-68.9 -52.9)"/>
  </g>
</svg>