<svg
  class="top-polluter"
  xmlns="http://www.w3.org/2000/svg"
  width="85"
  height="11"
  viewBox="19.98 132.6 85 11"
>
  <g>
    <path d="M93.1,192.7H90.8a1.6,1.6,0,0,1,.3-.8,5.2,5.2,0,0,1,1.5-1.4l1.1-.8a1.8,1.8,0,0,0,.5-.7,3,3,0,0,0,.2-1,2,2,0,0,0-.7-1.6,2.4,2.4,0,0,0-1.8-.6,2.7,2.7,0,0,0-1.3.2,2.8,2.8,0,0,0-1,.9,4.2,4.2,0,0,0-.3,1.8h1.5a3.9,3.9,0,0,1,.2-1.3,1,1,0,0,1,.8-.4.5.5,0,0,1,.5.3c.2.1.2.3.2.6a1.6,1.6,0,0,1-.3.9L91,190.1a6,6,0,0,0-1.1,1.2,3.9,3.9,0,0,0-.6,1.1,7.1,7.1,0,0,0-.1,1.6h5.2v-2.3H93.1Z" transform="translate(-68.9 -52.9)"/>
    <rect x="27.4" y="139.1" width="2" height="1.96"/>
    <path d="M108.2,192.1a2,2,0,0,1-1.5.5,2,2,0,0,1-1.6-.7,2.9,2.9,0,0,1-.7-1.9,3.4,3.4,0,0,1,.6-2,2.6,2.6,0,0,1,1.9-.8,2.1,2.1,0,0,1,2,1.6h1.4v-2.9h-1.4v.6a4.1,4.1,0,0,0-2.5-.7,3.8,3.8,0,0,0-2.1.5,3.6,3.6,0,0,0-1.6,1.4,4.4,4.4,0,0,0-.6,2.3,4.1,4.1,0,0,0,1.2,3,4.1,4.1,0,0,0,3.3,1.1,3.7,3.7,0,0,0,4-2.8l-1.6-.8A2.7,2.7,0,0,1,108.2,192.1Z" transform="translate(-68.9 -52.9)"/>
    <path d="M117.3,190.3c0-1.4-.6-2.1-1.7-2.1a2.7,2.7,0,0,0-1.6.6v-2.9h-2.7v1.3h.9v5.5h-.9V194h3.5v-1.3H114v-2.6a1.4,1.4,0,0,1,.9-.4l.5.2c.1.1.1.2.1.5V194h2.7v-1.3h-.9Z" transform="translate(-68.9 -52.9)"/>
    <path d="M124.6,190a3.1,3.1,0,0,0-1-1.3,3,3,0,0,0-3.8.4,2.9,2.9,0,0,0-.9,2.2,2.9,2.9,0,0,0,.8,2.1,3.6,3.6,0,0,0,2.4.8,3.1,3.1,0,0,0,2.7-1.4l-1.4-.5a1.7,1.7,0,0,1-1.3.7,1.6,1.6,0,0,1-.9-.3,1.3,1.3,0,0,1-.5-1.1h4.2A3.8,3.8,0,0,0,124.6,190Zm-3.9.6q.1-1.2,1.2-1.2a.9.9,0,0,1,.8.4,2,2,0,0,1,.4.8Z" transform="translate(-68.9 -52.9)"/>
    <polygon points="60.3 136.7 61 136.7 60 139.3 59.1 136.7 59.8 136.7 59.8 135.4 56.4 135.4 56.4 136.7 57.2 136.7 59.1 141.2 60.6 141.2 62.5 136.7 63.3 136.7 63.3 135.4 60.3 135.4 60.3 136.7"/>
    <path d="M135.9,188.7a1.9,1.9,0,0,0-.7,1.1v-1.4h-2.6v1.3h1v3h-1.1V194h4v-1.3h-1.1V192a5,5,0,0,1,.2-1.2,1.6,1.6,0,0,1,.8-.6l1.1-.2v-1.7h-.3A2,2,0,0,0,135.9,188.7Z" transform="translate(-68.9 -52.9)"/>
    <path d="M141,188.2a3.2,3.2,0,0,0-2.1.8,2.9,2.9,0,0,0-.9,2.2,2.8,2.8,0,0,0,.9,2.2,3.2,3.2,0,0,0,2.1.8,2.9,2.9,0,0,0,2.1-.8,3.1,3.1,0,0,0,0-4.4A3.2,3.2,0,0,0,141,188.2Zm.8,4.2a1.2,1.2,0,0,1-.8.4.8.8,0,0,1-.8-.5,1.6,1.6,0,0,1-.3-1.1c0-1,.4-1.6,1.1-1.6a1.2,1.2,0,0,1,.8.4,2.5,2.5,0,0,1,0,2.4Z" transform="translate(-68.9 -52.9)"/>
    <path d="M150.9,190.5c0-1.5-.5-2.2-1.7-2.2a2.9,2.9,0,0,0-1.7.6v-.5h-2.6v1.3h.8v3h-.8V194h3.5v-1.3h-.9v-2.5a1.7,1.7,0,0,1,1.1-.4l.4.2c.1.1.1.3.1.6V194h2.7v-1.3h-.9Z" transform="translate(-68.9 -52.9)"/>
    <path d="M153.1,194h1v.2a1,1,0,0,1-1,1.1v.9l1.1-.2a2.3,2.3,0,0,0,.7-.7,5.7,5.7,0,0,0,.1-1.4v-1.8h-1.9Z" transform="translate(-68.9 -52.9)"/>
    <path d="M163.9,187.3h.8v3.6c0,.6-.1,1-.1,1.2l-.4.5-.7.2-.6-.2a.9.9,0,0,1-.3-.6,2.5,2.5,0,0,1-.1-1v-3.7h.8v-1.4h-3.9v1.4h1V191a5.3,5.3,0,0,0,.1,1.4c0,.3.2.5.4.8a2.2,2.2,0,0,0,.9.7,3.4,3.4,0,0,0,1.5.2,3,3,0,0,0,1.4-.2,1.5,1.5,0,0,0,.9-.6.9.9,0,0,0,.4-.7,4.1,4.1,0,0,0,.1-1.2v-4.1h1v-1.4h-3.2Z" transform="translate(-68.9 -52.9)"/>
    <path d="M173,190.5a2,2,0,0,0-.8-.8,5,5,0,0,0-1.3-.7c-.7-.3-1.1-.5-1.2-.7a.8.8,0,0,1-.2-.5c0-.2.1-.3.3-.4s.3-.2.5-.2a1.1,1.1,0,0,1,.8.3,1.3,1.3,0,0,1,.4.9h1.4v-2.5h-1.4v.7a1.9,1.9,0,0,0-1.5-.8,2,2,0,0,0-1.5.6,1.9,1.9,0,0,0-.7,1.7,2.2,2.2,0,0,0,.5,1.4l1.9,1.2,1,.6a.8.8,0,0,1,.2.6.9.9,0,0,1-.3.6.6.6,0,0,1-.6.3,1.4,1.4,0,0,1-1.2-1.5h-1.4V194h1.4v-.6a1.8,1.8,0,0,0,1.6.7,2.5,2.5,0,0,0,1.7-.6,2.5,2.5,0,0,0,.7-1.8A2.7,2.7,0,0,0,173,190.5Z" transform="translate(-68.9 -52.9)"/>
  </g>
</svg>