<svg
  class="top-polluter"
  xmlns="http://www.w3.org/2000/svg"
  width="150.3"
  height="11"
  viewBox="19.98 176.09 150.3 11"
>
  <g>
    <path d="M92.1,231.9a2.4,2.4,0,0,0-1.4.5v-2h2.1v.6h1.2v-1.9H89.6l-.2,4.1,1.3.7c.3-.4.6-.7,1-.7s1,.5,1,1.5a1.5,1.5,0,0,1-.3,1c-.1.2-.4.3-.8.3s-.9-.3-1-1.1l-1.6.2a2.4,2.4,0,0,0,.9,1.6,2.6,2.6,0,0,0,1.9.7,2.6,2.6,0,0,0,2.8-2.8,2.5,2.5,0,0,0-.7-1.9A2.2,2.2,0,0,0,92.1,231.9Z" transform="translate(-68.9 -52.9)"/>
    <rect x="27.4" y="182.3" width="2" height="1.96"/>
    <polygon points="38.3 177.5 39.4 177.5 39.4 181.2 36.4 176.2 33 176.2 33 177.5 34 177.5 34 182.9 33 182.9 33 184.3 36.5 184.3 36.5 182.9 35.5 182.9 35.5 178.3 39 184.4 40.8 184.4 40.8 177.5 42 177.5 42 176.2 38.3 176.2 38.3 177.5"/>
    <path d="M117,233.9c0-.5-.1-.9-.1-1.2l-.4-.6-.8-.5-1.4-.2a2.7,2.7,0,0,0-2.7,1.4l1.4.2a1.5,1.5,0,0,1,1.1-.4,1.1,1.1,0,0,1,.8.3.9.9,0,0,1,.3.7v.3l-1.3-.3a2.4,2.4,0,0,0-1.7.6,1.9,1.9,0,0,0-.7,1.4,1.9,1.9,0,0,0,.7,1.3,2.3,2.3,0,0,0,1.4.4,2.4,2.4,0,0,0,1.6-.5v.4h2.7v-1.3H117Zm-1.8,1.7a1.9,1.9,0,0,1-1.2.6l-.5-.2c-.1-.2-.2-.3-.2-.5a.8.8,0,0,1,.2-.6l.6-.2a2.5,2.5,0,0,1,1.1.5Z" transform="translate(-68.9 -52.9)"/>
    <path d="M120.8,229.4l-1.8,1.3v.9h-.7v1.3h.7v3c0,.9.5,1.4,1.5,1.4l1.4-.3v-1.2h-1c-.1-.1-.1-.2-.1-.5v-2.4h1.1v-1.3h-1.1Z" transform="translate(-68.9 -52.9)"/>
    <polygon points="56.4 178.6 53.8 178.6 53.8 179.9 54.6 179.9 54.6 183 53.8 183 53.8 184.3 57.3 184.3 57.3 183 56.4 183 56.4 178.6"/>
    <path d="M124.5,230.9a.9.9,0,0,0,.7-.3.7.7,0,0,0,.3-.6.8.8,0,0,0-.3-.7,1,1,0,0,0-1.4,0,.8.8,0,0,0-.3.7.7.7,0,0,0,.3.6A.9.9,0,0,0,124.5,230.9Z" transform="translate(-68.9 -52.9)"/>
    <path d="M129.9,231.4a2.9,2.9,0,0,0-2.1.8,2.9,2.9,0,0,0-.9,2.2,2.8,2.8,0,0,0,.9,2.2,2.9,2.9,0,0,0,2.1.8,3.2,3.2,0,0,0,2.1-.8,3.1,3.1,0,0,0,0-4.4A3.2,3.2,0,0,0,129.9,231.4Zm.8,4.2a1.2,1.2,0,0,1-.8.4,1.1,1.1,0,0,1-.9-.5c-.2-.2-.2-.6-.2-1.1s.3-1.6,1.1-1.6a1.2,1.2,0,0,1,.8.4,2.5,2.5,0,0,1,0,2.4Z" transform="translate(-68.9 -52.9)"/>
    <path d="M139.8,233.7c0-1.5-.6-2.2-1.7-2.2a2.9,2.9,0,0,0-1.7.6v-.5h-2.7v1.3h.9v3h-.9v1.3h3.6v-1.3h-.9v-2.5a1.7,1.7,0,0,1,1.1-.4l.4.2a3.5,3.5,0,0,1,.1.6v3.4h2.7v-1.3h-.9Z" transform="translate(-68.9 -52.9)"/>
    <path d="M146.7,233.9a4.1,4.1,0,0,0-.1-1.2l-.4-.6a1.2,1.2,0,0,0-.8-.5l-1.3-.2a2.9,2.9,0,0,0-2.8,1.4l1.5.2a1.3,1.3,0,0,1,1-.4,1,1,0,0,1,.8.3.9.9,0,0,1,.3.7v.3l-1.3-.3a2.5,2.5,0,0,0-1.7.6,1.8,1.8,0,0,0-.6,1.4,1.8,1.8,0,0,0,.6,1.3,2.4,2.4,0,0,0,1.5.4,2.3,2.3,0,0,0,1.5-.5v.4h2.7v-1.3h-.9Zm-1.8,1.7a1.7,1.7,0,0,1-1.1.6l-.5-.2c-.2-.2-.3-.3-.3-.5a.6.6,0,0,1,.3-.6l.6-.2,1,.5Z" transform="translate(-68.9 -52.9)"/>
    <polygon points="82 176.2 79.3 176.2 79.3 177.5 80.2 177.5 80.2 183 79.3 183 79.3 184.3 82.8 184.3 82.8 183 82 183 82 176.2"/>
    <polygon points="86.4 177.5 87.6 177.5 87.6 182.9 86.4 182.9 86.4 184.3 91 184.3 91 182.9 89.8 182.9 89.8 177.5 91 177.5 91 176.2 86.4 176.2 86.4 177.5"/>
    <path d="M163.9,231.9a1.9,1.9,0,0,0-.7,1.1v-1.4h-2.6v1.3h1v3h-1.1v1.3h4v-1.3h-1.1v-.7a5,5,0,0,1,.2-1.2,1.6,1.6,0,0,1,.8-.6l1.1-.2v-1.7h-.3A2,2,0,0,0,163.9,231.9Z" transform="translate(-68.9 -52.9)"/>
    <path d="M171.5,233.9c0-.5-.1-.9-.1-1.2l-.4-.6-.8-.5-1.4-.2a2.7,2.7,0,0,0-2.7,1.4l1.4.2a1.5,1.5,0,0,1,1.1-.4,1.1,1.1,0,0,1,.8.3.9.9,0,0,1,.3.7v.3l-1.3-.3a2.4,2.4,0,0,0-1.7.6,1.9,1.9,0,0,0-.7,1.4,1.9,1.9,0,0,0,.7,1.3,2.3,2.3,0,0,0,1.4.4,2.4,2.4,0,0,0,1.6-.5v.4h2.7v-1.3h-.9Zm-1.8,1.7a1.9,1.9,0,0,1-1.2.6l-.5-.2c-.1-.2-.2-.3-.2-.5a.8.8,0,0,1,.2-.6l.6-.2a2.5,2.5,0,0,1,1.1.5Z" transform="translate(-68.9 -52.9)"/>
    <path d="M179,233.7c0-1.5-.5-2.2-1.7-2.2a2.7,2.7,0,0,0-1.6.6v-.5H173v1.3h.9v3H173v1.3h3.5v-1.3h-.8v-2.5a1.4,1.4,0,0,1,1-.4l.4.2c.1.1.1.3.1.6v3.4h2.7v-1.3H179Z" transform="translate(-68.9 -52.9)"/>
    <polygon points="114.3 178.6 111.6 178.6 111.6 179.9 112.5 179.9 112.5 183 111.6 183 111.6 184.3 115.1 184.3 115.1 183 114.3 183 114.3 178.6"/>
    <path d="M182.3,230.9a.8.8,0,0,0,.7-.3.7.7,0,0,0,.3-.6,1,1,0,0,0-1-1,1.1,1.1,0,0,0-.7.3,1.2,1.2,0,0,0-.2.7.9.9,0,0,0,.9.9Z" transform="translate(-68.9 -52.9)"/>
    <path d="M190.2,233.9a4.1,4.1,0,0,0-.1-1.2l-.4-.6a1.2,1.2,0,0,0-.8-.5l-1.3-.2a2.8,2.8,0,0,0-2.8,1.4l1.5.2a1.3,1.3,0,0,1,1-.4,1,1,0,0,1,.8.3.9.9,0,0,1,.3.7v.3l-1.3-.3a2.5,2.5,0,0,0-1.7.6,1.8,1.8,0,0,0-.6,1.4,1.8,1.8,0,0,0,.6,1.3,2.4,2.4,0,0,0,1.5.4,2.3,2.3,0,0,0,1.5-.5v.4h2.7v-1.3h-.9Zm-1.8,1.7a1.7,1.7,0,0,1-1.1.6l-.6-.2c-.1-.2-.2-.3-.2-.5a.6.6,0,0,1,.3-.6,1.1,1.1,0,0,1,.6-.2l1,.5Z" transform="translate(-68.9 -52.9)"/>
    <path d="M197.8,233.7c0-1.5-.6-2.2-1.7-2.2a2.9,2.9,0,0,0-1.7.6v-.5h-2.7v1.3h.9v3h-.9v1.3h3.6v-1.3h-.9v-2.5a1.6,1.6,0,0,1,1-.4l.4.2a.8.8,0,0,1,.2.6v3.4h2.6v-1.3h-.8Z" transform="translate(-68.9 -52.9)"/>
    <path d="M206.9,229a4.5,4.5,0,0,0-3.3,1.2,4.1,4.1,0,0,0-1.2,3,4,4,0,0,0,1.2,2.9,4.3,4.3,0,0,0,3.3,1.2,4.5,4.5,0,0,0,3.3-1.2,4.1,4.1,0,0,0,1.3-2.9,4.2,4.2,0,0,0-1.3-3A4.5,4.5,0,0,0,206.9,229Zm1.6,6.2a2.4,2.4,0,0,1-1.6.7,2.3,2.3,0,0,1-1.6-.8,2.7,2.7,0,0,1-.6-1.9,2.8,2.8,0,0,1,.6-2,2.1,2.1,0,0,1,1.6-.7,1.9,1.9,0,0,1,1.6.7,2.5,2.5,0,0,1,.7,1.9A2.8,2.8,0,0,1,208.5,235.2Z" transform="translate(-68.9 -52.9)"/>
    <path d="M214.3,230.9a.9.9,0,0,0,.7-.3.7.7,0,0,0,.3-.6,1,1,0,0,0-1-1,1.1,1.1,0,0,0-.7.3.8.8,0,0,0-.3.7.7.7,0,0,0,.3.6A1.1,1.1,0,0,0,214.3,230.9Z" transform="translate(-68.9 -52.9)"/>
    <polygon points="146.3 178.6 143.6 178.6 143.6 179.9 144.5 179.9 144.5 183 143.6 183 143.6 184.3 147.1 184.3 147.1 183 146.3 183 146.3 178.6"/>
    <polygon points="150.5 176.2 147.8 176.2 147.8 177.5 148.7 177.5 148.7 183 147.8 183 147.8 184.3 151.3 184.3 151.3 183 150.5 183 150.5 176.2"/>
    <path d="M230.2,235.3a2.1,2.1,0,0,1-1.5.5,1.9,1.9,0,0,1-1.6-.7,2.5,2.5,0,0,1-.7-1.9,3.4,3.4,0,0,1,.6-2,2.2,2.2,0,0,1,1.8-.8,2.1,2.1,0,0,1,2.1,1.6h1.4v-2.9h-1.4v.6a4.1,4.1,0,0,0-2.5-.7,4.5,4.5,0,0,0-3.7,1.9,4.4,4.4,0,0,0-.6,2.3,4.1,4.1,0,0,0,1.2,3,4.1,4.1,0,0,0,3.3,1.1,3.8,3.8,0,0,0,4-2.8l-1.6-.8A3.4,3.4,0,0,1,230.2,235.3Z" transform="translate(-68.9 -52.9)"/>
    <path d="M238.5,232.2a3.2,3.2,0,0,0-2.1-.8,2.8,2.8,0,0,0-3,3,3.1,3.1,0,0,0,.8,2.2,3.3,3.3,0,0,0,2.2.8,3.2,3.2,0,0,0,2.1-.8,2.9,2.9,0,0,0,.8-2.2A3.3,3.3,0,0,0,238.5,232.2Zm-1.3,3.4a1.3,1.3,0,0,1-.9.4,1,1,0,0,1-.8-.5,1.6,1.6,0,0,1-.3-1.1c0-1,.4-1.6,1.1-1.6a1.3,1.3,0,0,1,.9.4,2.5,2.5,0,0,1,0,2.4Z" transform="translate(-68.9 -52.9)"/>
  </g>
</svg>