<svg
  class="top-polluter"
  xmlns="http://www.w3.org/2000/svg"
  width="129.7"
  height="11"
  viewBox="803.3 147.3 129.7 11"
>
  <g>
    <polygon points="806.3 147.4 803.3 147.4 803.3 148.7 804.5 148.7 804.5 154.2 803.4 154.2 803.4 155.5 807.3 155.5 807.3 154.2 806.3 154.2 806.3 147.4"/>
    <path d="M882.3,204.2a2.2,2.2,0,0,0,1.2-1.9,1.9,1.9,0,0,0-.7-1.6,3.3,3.3,0,0,0-1.9-.5,2.7,2.7,0,0,0-1.9.6,1.7,1.7,0,0,0-.7,1.5,2.2,2.2,0,0,0,1.2,1.9,1.9,1.9,0,0,0-1.5,2,2.8,2.8,0,0,0,.7,1.7,3.4,3.4,0,0,0,2.2.7,3.3,3.3,0,0,0,2.1-.7,2.1,2.1,0,0,0,.7-1.7A2,2,0,0,0,882.3,204.2Zm-2.1-2.5a1,1,0,0,1,1.4,0,1.7,1.7,0,0,1,0,1.6.9.9,0,0,1-.7.3.8.8,0,0,1-.7-.3,1.2,1.2,0,0,1,0-1.6Zm1.5,5.2a1,1,0,0,1-1.6,0,1.2,1.2,0,1,1,1.6-1.8,1.4,1.4,0,0,1,.3.9A1.2,1.2,0,0,1,881.7,206.9Z" transform="translate(-68.9 -52.9)"/>
    <rect x="816.4" y="153.5" width="2" height="1.96"/>
    <path d="M895.4,204.1l-1.3-.8q-1.1-.3-1.2-.6a.8.8,0,0,1-.2-.5c0-.2.1-.3.3-.4s.3-.2.5-.2a1.1,1.1,0,0,1,.8.3,1.3,1.3,0,0,1,.4.9h1.4v-2.5h-1.4v.7a1.9,1.9,0,0,0-1.5-.8,2,2,0,0,0-1.5.6,1.9,1.9,0,0,0-.7,1.7,2.4,2.4,0,0,0,.5,1.4l1.9,1.2,1,.6a.8.8,0,0,1,.2.6,1.4,1.4,0,0,1-.2.6.9.9,0,0,1-.7.3,1.4,1.4,0,0,1-1.2-1.5h-1.4v2.7h1.4v-.6a1.9,1.9,0,0,0,1.6.7,2.5,2.5,0,0,0,1.7-.6,2.5,2.5,0,0,0,.7-1.8,2.7,2.7,0,0,0-.3-1.2A2,2,0,0,0,895.4,204.1Z" transform="translate(-68.9 -52.9)"/>
    <path d="M900.3,202.6a3.2,3.2,0,0,0-2.1.8,2.9,2.9,0,0,0-.9,2.2,2.8,2.8,0,0,0,.9,2.2,3.2,3.2,0,0,0,2.1.8,2.8,2.8,0,0,0,3-3,2.9,2.9,0,0,0-.9-2.2A2.9,2.9,0,0,0,900.3,202.6Zm.8,4.2a1,1,0,0,1-.8.4.9.9,0,0,1-.8-.5,1.6,1.6,0,0,1-.3-1.1c0-1,.4-1.6,1.1-1.6a1,1,0,0,1,.8.4,2.5,2.5,0,0,1,0,2.4Z" transform="translate(-68.9 -52.9)"/>
    <path d="M910.2,204.9c0-1.5-.5-2.2-1.7-2.2a2.7,2.7,0,0,0-1.6.6v-.5h-2.7v1.3h.9v3h-.9v1.3h3.5v-1.3h-.8v-2.5a1.4,1.4,0,0,1,1-.4.5.5,0,0,1,.4.2c.1.1.1.3.1.6v3.4h2.7v-1.3h-.9Z" transform="translate(-68.9 -52.9)"/>
    <path d="M917.2,205.1c0-.5-.1-.9-.1-1.2l-.4-.6-.8-.5-1.4-.2a2.7,2.7,0,0,0-2.7,1.4l1.4.2a1.5,1.5,0,0,1,1.1-.4,1.1,1.1,0,0,1,.8.3.9.9,0,0,1,.3.7v.3l-1.3-.3a2.4,2.4,0,0,0-1.7.6,1.9,1.9,0,0,0-.7,1.4,1.9,1.9,0,0,0,.7,1.3,2.3,2.3,0,0,0,1.4.4,2.4,2.4,0,0,0,1.6-.5v.4h2.7v-1.3h-.9Zm-1.8,1.7a1.9,1.9,0,0,1-1.2.6l-.5-.2c-.1-.2-.2-.3-.2-.5a.8.8,0,0,1,.2-.6l.6-.2a2.5,2.5,0,0,1,1.1.5Z" transform="translate(-68.9 -52.9)"/>
    <path d="M921,200.6l-1.8,1.3v.9h-.7v1.3h.7v3c0,.9.5,1.4,1.5,1.4l1.4-.3V207h-1c-.1-.1-.1-.2-.1-.5v-2.4h1.1v-1.3H921Z" transform="translate(-68.9 -52.9)"/>
    <path d="M926.1,203.1a1.9,1.9,0,0,0-.7,1.1v-1.4h-2.6v1.3h1v3h-1.1v1.3h4v-1.3h-1.1v-.7a2.7,2.7,0,0,1,.3-1.2,1.1,1.1,0,0,1,.7-.6l1.1-.2v-1.7h-.3A2,2,0,0,0,926.1,203.1Z" transform="translate(-68.9 -52.9)"/>
    <path d="M933.7,205.1c0-.5-.1-.9-.1-1.2l-.4-.6a1.6,1.6,0,0,0-.8-.5l-1.4-.2a2.7,2.7,0,0,0-2.7,1.4l1.4.2a1.5,1.5,0,0,1,1.1-.4,1.1,1.1,0,0,1,.8.3.9.9,0,0,1,.3.7v.3l-1.3-.3a2.4,2.4,0,0,0-1.7.6,1.8,1.8,0,0,0-.6,1.4,1.8,1.8,0,0,0,.6,1.3,2.3,2.3,0,0,0,1.4.4,2.4,2.4,0,0,0,1.6-.5v.4h2.7v-1.3h-.9Zm-1.8,1.7a1.9,1.9,0,0,1-1.2.6l-.5-.2c-.1-.2-.2-.3-.2-.5a.6.6,0,0,1,.3-.6l.5-.2a2.5,2.5,0,0,1,1.1.5Z" transform="translate(-68.9 -52.9)"/>
    <path d="M939.2,206.9a1.3,1.3,0,0,1-.8.3,1.3,1.3,0,0,1-.9-.4,1.6,1.6,0,0,1-.4-1.2,1.8,1.8,0,0,1,.3-1.1,1.8,1.8,0,0,1,1-.4,1.5,1.5,0,0,1,1.4,1H941v-2.3h-1.2v.4a3.4,3.4,0,0,0-1.7-.5,3,3,0,0,0-2,.8,2.6,2.6,0,0,0-.9,2.1,2.9,2.9,0,0,0,.9,2.2,3.6,3.6,0,0,0,2.4.8,2.8,2.8,0,0,0,2.7-1.7l-1.4-.7C939.7,206.5,939.4,206.7,939.2,206.9Z" transform="translate(-68.9 -52.9)"/>
    <path d="M947.9,204.7c0-1.4-.6-2.1-1.7-2.1a2.7,2.7,0,0,0-1.6.6v-2.9h-2.8v1.3h1v5.5h-1v1.3h3.6v-1.3h-.8v-2.6a1.4,1.4,0,0,1,.9-.4l.5.2c.1.1.1.2.1.5v3.6h2.6v-1.3h-.8Z" transform="translate(-68.9 -52.9)"/>
    <path d="M950.2,208.4h.9v.2a1,1,0,0,1-.9,1.1v.9l1.1-.2a1.3,1.3,0,0,0,.6-.7,3,3,0,0,0,.2-1.4v-1.8h-1.9Z" transform="translate(-68.9 -52.9)"/>
    <path d="M962,201.7h1.1v-1.4h-5.4v1.4h1.1l-1.6,5.4h-1v1.3h3.6v-1.3h-1l.4-1.4h2.1l.4,1.4h-1.1v1.3h4.1v-1.3h-1Zm-2.4,2.8.7-2.5.7,2.5Z" transform="translate(-68.9 -52.9)"/>
    <polygon points="898.9 147.4 896.2 147.4 896.2 148.7 897 148.7 897 154.2 896.2 154.2 896.2 155.5 899.7 155.5 899.7 154.2 898.9 154.2 898.9 147.4"/>
    <path d="M973.4,203.5a1.9,1.9,0,0,0-1.6-.8,2.1,2.1,0,0,0-1.7.8,3.1,3.1,0,0,0-.7,2.1,3.3,3.3,0,0,0,.6,2.1,2.2,2.2,0,0,0,3.4,0v.5c0,.6-.1,1-.4,1.2a1.5,1.5,0,0,1-1,.3,2.7,2.7,0,0,1-1.4-.4l-.8,1.2a4.2,4.2,0,0,0,2.5.6c2,0,3-1,3-2.8v-4.2h.9v-1.3h-2.8Zm-.3,3.2a1,1,0,0,1-1.6,0,2,2,0,0,1-.3-1.1,1.5,1.5,0,0,1,.3-1,1,1,0,0,1,.8-.5,1,1,0,0,1,.8.4,1.5,1.5,0,0,1,.4,1.1A1.8,1.8,0,0,1,973.1,206.7Z" transform="translate(-68.9 -52.9)"/>
    <path d="M982.4,204.4a4.1,4.1,0,0,0-1-1.3,3.4,3.4,0,0,0-1.7-.5,3.1,3.1,0,0,0-3.1,3.1,2.6,2.6,0,0,0,.9,2.1,3.2,3.2,0,0,0,2.3.8,3.2,3.2,0,0,0,2.8-1.4l-1.4-.5a1.9,1.9,0,0,1-1.4.7l-.9-.3a1.3,1.3,0,0,1-.5-1.1h4.2A7,7,0,0,0,982.4,204.4Zm-4,.6q.1-1.2,1.2-1.2a.9.9,0,0,1,.8.4,1.2,1.2,0,0,1,.4.8Z" transform="translate(-68.9 -52.9)"/>
    <path d="M986.8,203.1a1.9,1.9,0,0,0-.7,1.1v-1.4h-2.7v1.3h1v3h-1v1.3h3.9v-1.3h-1.1v-.7a2.7,2.7,0,0,1,.3-1.2,1.3,1.3,0,0,1,.7-.6l1.1-.2v-1.7H988A1.6,1.6,0,0,0,986.8,203.1Z" transform="translate(-68.9 -52.9)"/>
    <path d="M991,202.1a.9.9,0,0,0,.7-.3.7.7,0,0,0,.3-.6.8.8,0,0,0-.3-.7,1,1,0,0,0-1.4,0,.8.8,0,0,0-.3.7.7.7,0,0,0,.3.6A.9.9,0,0,0,991,202.1Z" transform="translate(-68.9 -52.9)"/>
    <polygon points="923 149.8 920.3 149.8 920.3 151.1 921.1 151.1 921.1 154.2 920.3 154.2 920.3 155.5 923.8 155.5 923.8 154.2 923 154.2 923 149.8"/>
    <path d="M998.9,207.1v-2c0-.5-.1-.9-.1-1.2a2.1,2.1,0,0,0-.4-.6l-.8-.5-1.4-.2a2.7,2.7,0,0,0-2.7,1.4l1.4.2a1.5,1.5,0,0,1,1.1-.4,1.1,1.1,0,0,1,.8.3.9.9,0,0,1,.3.7v.3l-1.3-.3a2.4,2.4,0,0,0-1.7.6,1.9,1.9,0,0,0-.7,1.4,1.6,1.6,0,0,0,.7,1.3,2.1,2.1,0,0,0,1.4.4,2.4,2.4,0,0,0,1.6-.5v.4h2.7v-1.3Zm-1.8-.3a1.9,1.9,0,0,1-1.2.6l-.5-.2c-.1-.2-.2-.3-.2-.5a.8.8,0,0,1,.2-.6l.6-.2a2.5,2.5,0,0,1,1.1.5Z" transform="translate(-68.9 -52.9)"/>
  </g>
</svg>