<svg
  class="top-polluter"
  xmlns="http://www.w3.org/2000/svg"
  width="103.4"
  height="11"
  viewBox="247.6 161.7 103.4 11"
>
  <g>
    <path d="M319,214.6a2.5,2.5,0,0,0-1.9.7,2.9,2.9,0,0,0-.7,2,2.5,2.5,0,0,0,.7,1.9,2.1,2.1,0,0,0,1.5.7,2.5,2.5,0,0,0,1.5-.5c-.1,1.5-.5,2.3-1.2,2.3s-.8-.4-1-1.1l-1.3.2a1.9,1.9,0,0,0,.7,1.6,2.1,2.1,0,0,0,1.6.6c2,0,3-1.4,3-4.3a5.4,5.4,0,0,0-.8-3.2A2.6,2.6,0,0,0,319,214.6Zm1.1,3.6a2.1,2.1,0,0,1-1,.4,1,1,0,0,1-.8-.4,2.6,2.6,0,0,1,0-2l.6-.3a1,1,0,0,1,.9.6,3.8,3.8,0,0,1,.3,1.6Z" transform="translate(-68.9 -52.9)"/>
    <rect x="254.7" y="167.9" width="2" height="1.96"/>
    <path d="M333.5,214.7h-4.3v1.4h1v5.4h-1v1.3h4.3v-1.3h-1.1v-1.6h2.2l1-.4a1.6,1.6,0,0,0,.7-.9,2.4,2.4,0,0,0,.3-1.2,2.2,2.2,0,0,0-.8-1.9A3.2,3.2,0,0,0,333.5,214.7Zm.6,3.5a2.2,2.2,0,0,1-1.4.3h-.3v-2.4h1.3l.5.4a1.9,1.9,0,0,1,.2.8A1.6,1.6,0,0,1,334.1,218.2Z" transform="translate(-68.9 -52.9)"/>
    <path d="M342.8,218.8a4.1,4.1,0,0,0-1-1.3,3.4,3.4,0,0,0-1.7-.5,3.1,3.1,0,0,0-3.1,3.1,2.6,2.6,0,0,0,.9,2.1,3.2,3.2,0,0,0,2.3.8,3.2,3.2,0,0,0,2.8-1.4l-1.4-.5a1.9,1.9,0,0,1-1.4.7,1.6,1.6,0,0,1-.9-.3,1.3,1.3,0,0,1-.5-1.1H343A7,7,0,0,0,342.8,218.8Zm-4,.6q.1-1.2,1.2-1.2a.9.9,0,0,1,.8.4,1.2,1.2,0,0,1,.4.8Z" transform="translate(-68.9 -52.9)"/>
    <path d="M354.3,219.4a3.5,3.5,0,0,0-.2-1.3,1.1,1.1,0,0,0-.6-.7,2,2,0,0,0-1.1-.3,3.4,3.4,0,0,0-2.3.8,1.9,1.9,0,0,0-1.7-.8,4.5,4.5,0,0,0-1.9.5v-.4h-2.7v1.3h.9v3h-.9v1.3h3.7v-1.3h-1V219l1.3-.4c.5,0,.8.4.8,1v3.2h2.7v-1.3h-.9V219a3.8,3.8,0,0,1,1.3-.4c.5,0,.8.3.8.9v3.3h2.7v-1.3h-.9Z" transform="translate(-68.9 -52.9)"/>
    <path d="M361.5,218.8a3.1,3.1,0,0,0-1-1.3,2.9,2.9,0,0,0-1.7-.5,3.1,3.1,0,0,0-2.2.9,3.3,3.3,0,0,0-.8,2.2,2.9,2.9,0,0,0,.8,2.1,3.6,3.6,0,0,0,2.4.8,3.1,3.1,0,0,0,2.7-1.4l-1.4-.5a1.7,1.7,0,0,1-1.3.7,1.6,1.6,0,0,1-.9-.3,1.3,1.3,0,0,1-.5-1.1h4.2A3.8,3.8,0,0,0,361.5,218.8Zm-3.9.6q.1-1.2,1.2-1.2a.9.9,0,0,1,.8.4,2,2,0,0,1,.4.8Z" transform="translate(-68.9 -52.9)"/>
    <polygon points="297.7 166.9 298.8 165.5 299.6 165.5 299.6 164.2 297.9 164.2 296.7 165.8 295.7 164.2 293.5 164.2 293.5 165.5 294.4 165.5 295.6 167.1 294.4 168.6 293.5 168.6 293.5 169.9 295.3 169.9 296.5 168.3 297.6 169.9 299.8 169.9 299.8 168.6 299 168.6 297.7 166.9"/>
    <path d="M370.1,222.8h1v.2a1,1,0,0,1-1,1.1v.9l1.1-.2a2.3,2.3,0,0,0,.7-.7,5.2,5.2,0,0,0,.2-1.4v-1.8h-2Z" transform="translate(-68.9 -52.9)"/>
    <polygon points="313.5 166.5 311.7 161.8 307.6 161.8 307.6 163.1 308.7 163.1 308.7 168.5 307.6 168.5 307.6 169.9 311 169.9 311 168.5 310 168.5 310 163.1 310.2 163.1 312.7 169.9 313.6 169.9 316.1 163.1 316.3 163.1 316.3 168.5 315.3 168.5 315.3 169.9 319.4 169.9 319.4 168.5 318.4 168.5 318.4 163.1 319.4 163.1 319.4 161.8 315.3 161.8 313.5 166.5"/>
    <path d="M394.9,218.8a3.1,3.1,0,0,0-1-1.3,3.1,3.1,0,0,0-1.7-.5,2.9,2.9,0,0,0-2.2.9,2.9,2.9,0,0,0-.8,2.2,2.5,2.5,0,0,0,.8,2.1,3.4,3.4,0,0,0,2.3.8,3.1,3.1,0,0,0,2.8-1.4l-1.4-.5a1.7,1.7,0,0,1-1.3.7,1.9,1.9,0,0,1-1-.3,1.2,1.2,0,0,1-.4-1.1h4.2A3.8,3.8,0,0,0,394.9,218.8Zm-3.9.6c.1-.8.5-1.2,1.1-1.2a1,1,0,0,1,.9.4,2,2,0,0,1,.4.8Z" transform="translate(-68.9 -52.9)"/>
    <polygon points="331 166.9 332.2 165.5 333 165.5 333 164.2 331.2 164.2 330.1 165.8 329.1 164.2 326.9 164.2 326.9 165.5 327.7 165.5 329 167.1 327.7 168.6 326.9 168.6 326.9 169.9 328.7 169.9 329.9 168.3 331 169.9 333.1 169.9 333.1 168.6 332.4 168.6 331 166.9"/>
    <polygon points="336.6 164.2 333.9 164.2 333.9 165.5 334.8 165.5 334.8 168.6 333.9 168.6 333.9 169.9 337.4 169.9 337.4 168.6 336.6 168.6 336.6 164.2"/>
    <path d="M404.6,216.5l.7-.2a1.1,1.1,0,0,0,.3-.7.8.8,0,0,0-.3-.7.9.9,0,0,0-.7-.3,1.1,1.1,0,0,0-.7.3.8.8,0,0,0-.3.7.7.7,0,0,0,.3.6A1.1,1.1,0,0,0,404.6,216.5Z" transform="translate(-68.9 -52.9)"/>
    <path d="M411,221.3a1.1,1.1,0,0,1-.8.3,1.3,1.3,0,0,1-.9-.4,1.6,1.6,0,0,1-.4-1.2,1.4,1.4,0,0,1,.4-1.1,1.3,1.3,0,0,1,.9-.4,1.5,1.5,0,0,1,1.4,1h1.3v-2.3h-1.3v.4a3.4,3.4,0,0,0-1.7-.5,3.2,3.2,0,0,0-2,.8,2.6,2.6,0,0,0-.9,2.1,2.9,2.9,0,0,0,.9,2.2,3.6,3.6,0,0,0,2.4.8,2.8,2.8,0,0,0,2.7-1.7l-1.4-.7A1.3,1.3,0,0,1,411,221.3Z" transform="translate(-68.9 -52.9)"/>
    <path d="M418.9,217.8a3.2,3.2,0,0,0-2.1-.8,2.9,2.9,0,0,0-2.1.8,2.9,2.9,0,0,0-.9,2.2,2.8,2.8,0,0,0,.9,2.2,2.9,2.9,0,0,0,2.1.8,3.2,3.2,0,0,0,2.1-.8,3.1,3.1,0,0,0,0-4.4Zm-1.3,3.4a1.2,1.2,0,0,1-.8.4,1.1,1.1,0,0,1-.9-.5c-.2-.2-.2-.6-.2-1.1s.3-1.6,1.1-1.6a1.2,1.2,0,0,1,.8.4,2.5,2.5,0,0,1,0,2.4Z" transform="translate(-68.9 -52.9)"/>
  </g>
</svg>