<svg
  class="top-polluter"
  xmlns="http://www.w3.org/2000/svg"
  width="129.7"
  height="11"
  viewBox="503.6 147.3 129.7 11"
>
  <g>
    <polygon points="506.6 147.4 503.6 147.4 503.6 148.7 504.8 148.7 504.8 154.2 503.7 154.2 503.7 155.5 507.7 155.5 507.7 154.2 506.6 154.2 506.6 147.4"/>
    <path d="M582.3,204.2a1.9,1.9,0,0,0,1.3-1.9,2.2,2.2,0,0,0-.7-1.6,2.7,2.7,0,0,0-1.9-.5,2.9,2.9,0,0,0-1.7.5,2.5,2.5,0,0,0-.8,1.7l1.6.2c0-.8.2-1.1.8-1.1l.7.2a1.4,1.4,0,0,1,.2.7.9.9,0,0,1-.3.7,1.2,1.2,0,0,1-1,.4v1.3h.3a1,1,0,0,1,.9.4,1.1,1.1,0,0,1,.3.8,1.2,1.2,0,0,1-.3.9.9.9,0,0,1-.8.4c-.7,0-1-.5-1-1.5l-1.6.2a2.5,2.5,0,0,0,2.8,2.6,3.2,3.2,0,0,0,2-.7,2.2,2.2,0,0,0,.8-1.8A1.8,1.8,0,0,0,582.3,204.2Z" transform="translate(-68.9 -52.9)"/>
    <rect x="516.7" y="153.5" width="2" height="1.96"/>
    <path d="M597.4,206.5a1.9,1.9,0,0,1-1.4.5,2.2,2.2,0,0,1-1.7-.7,2.9,2.9,0,0,1-.6-1.9,3.4,3.4,0,0,1,.6-2,2.2,2.2,0,0,1,1.8-.8,2.1,2.1,0,0,1,2.1,1.6h1.3v-2.9h-1.3v.6a4.1,4.1,0,0,0-2.5-.7,4.5,4.5,0,0,0-3.7,1.9,4.1,4.1,0,0,0,3.8,6.4,3.9,3.9,0,0,0,4.1-2.8l-1.6-.8A3.5,3.5,0,0,1,597.4,206.5Z" transform="translate(-68.9 -52.9)"/>
    <path d="M603.6,202.6a3.2,3.2,0,0,0-2.1.8,2.9,2.9,0,0,0-.9,2.2,2.8,2.8,0,0,0,.9,2.2,3.2,3.2,0,0,0,2.1.8,3,3,0,1,0,0-6Zm.8,4.2a1,1,0,0,1-.8.4.9.9,0,0,1-.8-.5,1.6,1.6,0,0,1-.3-1.1c0-1,.4-1.6,1.1-1.6a1,1,0,0,1,.8.4,1.6,1.6,0,0,1,.4,1.2A2.1,2.1,0,0,1,604.4,206.8Z" transform="translate(-68.9 -52.9)"/>
    <path d="M613.6,204.9c0-1.5-.6-2.2-1.8-2.2a2.7,2.7,0,0,0-1.6.6v-.5h-2.7v1.3h.9v3h-.9v1.3H611v-1.3h-.8v-2.5a1.4,1.4,0,0,1,1-.4l.4.2c.1.1.1.3.1.6v3.4h2.7v-1.3h-.8Z" transform="translate(-68.9 -52.9)"/>
    <path d="M618,202.6a3.2,3.2,0,0,0-2.1.8,2.9,2.9,0,0,0-.9,2.2,2.8,2.8,0,0,0,.9,2.2,3.2,3.2,0,0,0,2.1.8,2.9,2.9,0,0,0,2.1-.8,3.1,3.1,0,0,0,0-4.4A3,3,0,0,0,618,202.6Zm.8,4.2a1.2,1.2,0,0,1-.8.4.8.8,0,0,1-.8-.5,1.6,1.6,0,0,1-.3-1.1c0-1,.4-1.6,1.1-1.6a1.2,1.2,0,0,1,.8.4,2.6,2.6,0,0,1,0,2.4Z" transform="translate(-68.9 -52.9)"/>
    <path d="M625.9,206.9l-.8.3a1.8,1.8,0,0,1-1-.4,2.1,2.1,0,0,1-.3-1.2,1.8,1.8,0,0,1,.3-1.1,1.8,1.8,0,0,1,1-.4,1.3,1.3,0,0,1,1.3,1h1.3v-2.3h-1.2v.4a3.4,3.4,0,0,0-1.7-.5,2.8,2.8,0,0,0-2,.8,2.6,2.6,0,0,0-.9,2.1,2.9,2.9,0,0,0,.9,2.2,3.6,3.6,0,0,0,2.4.8,2.8,2.8,0,0,0,2.7-1.7l-1.4-.7Z" transform="translate(-68.9 -52.9)"/>
    <path d="M631.6,202.6a3.2,3.2,0,0,0-2.1.8,2.9,2.9,0,0,0-.8,2.2,2.7,2.7,0,0,0,.8,2.2,3.2,3.2,0,0,0,2.1.8,3,3,0,1,0,0-6Zm.9,4.2a1.5,1.5,0,0,1-.9.4,1,1,0,0,1-.8-.5,1.6,1.6,0,0,1-.3-1.1c0-1,.4-1.6,1.1-1.6a1.3,1.3,0,0,1,.9.4,2.5,2.5,0,0,1,0,2.4Z" transform="translate(-68.9 -52.9)"/>
    <path d="M639.7,200.3h-4.3v1.4h1.1v5.4h-1.1v1.3h4.3v-1.3h-1.1v-1.6h2.2l1-.4a2.6,2.6,0,0,0,1.1-2.1,2.6,2.6,0,0,0-.8-1.9A3.6,3.6,0,0,0,639.7,200.3Zm.6,3.5a2.2,2.2,0,0,1-1.4.3h-.3v-2.4h1.3a1,1,0,0,1,.5.4,1.1,1.1,0,0,1,.2.8A1.6,1.6,0,0,1,640.3,203.8Z" transform="translate(-68.9 -52.9)"/>
    <path d="M649.5,204.7q0-2.1-1.8-2.1a2.9,2.9,0,0,0-1.6.6v-2.9h-2.7v1.3h.9v5.5h-.9v1.3h3.5v-1.3h-.8v-2.6a1.6,1.6,0,0,1,1-.4l.4.2a.6.6,0,0,1,.2.5v3.6h2.6v-1.3h-.8Z" transform="translate(-68.9 -52.9)"/>
    <polygon points="584.8 149.8 582.2 149.8 582.2 151.1 583 151.1 583 154.2 582.2 154.2 582.2 155.5 585.7 155.5 585.7 154.2 584.8 154.2 584.8 149.8"/>
    <path d="M652.9,202.1a.9.9,0,0,0,.7-.3.7.7,0,0,0,.3-.6.8.8,0,0,0-.3-.7,1,1,0,0,0-1.4,0,.8.8,0,0,0-.3.7.7.7,0,0,0,.3.6A.9.9,0,0,0,652.9,202.1Z" transform="translate(-68.9 -52.9)"/>
    <polygon points="589 147.4 586.3 147.4 586.3 148.7 587.2 148.7 587.2 154.2 586.3 154.2 586.3 155.5 589.9 155.5 589.9 154.2 589 154.2 589 147.4"/>
    <polygon points="593.3 147.4 590.6 147.4 590.6 148.7 591.5 148.7 591.5 154.2 590.6 154.2 590.6 155.5 594.1 155.5 594.1 154.2 593.3 154.2 593.3 147.4"/>
    <polygon points="597.6 149.8 594.9 149.8 594.9 151.1 595.8 151.1 595.8 154.2 594.9 154.2 594.9 155.5 598.4 155.5 598.4 154.2 597.6 154.2 597.6 149.8"/>
    <path d="M665.6,202.1a.9.9,0,0,0,.7-.3.7.7,0,0,0,.3-.6.8.8,0,0,0-.3-.7,1,1,0,0,0-1.4,0,.8.8,0,0,0-.3.7.7.7,0,0,0,.3.6A1.1,1.1,0,0,0,665.6,202.1Z" transform="translate(-68.9 -52.9)"/>
    <path d="M672.2,202.7a2.5,2.5,0,0,0-1.7.8v-.7h-2.6v1.3h.8v5.6h-.9V211h3.9v-1.3h-1.2v-1.8a2.8,2.8,0,0,0,1.7.7,2.5,2.5,0,0,0,1.8-.8,4,4,0,0,0,0-4.2A2,2,0,0,0,672.2,202.7Zm.3,4.1a1.1,1.1,0,0,1-.8.3,1,1,0,0,1-.9-.4,1.5,1.5,0,0,1-.3-1,2.1,2.1,0,0,1,.3-1.2,1.5,1.5,0,0,1,.9-.4,1.2,1.2,0,0,1,.8.4,1.8,1.8,0,0,1,.3,1.1A1.9,1.9,0,0,1,672.5,206.8Z" transform="translate(-68.9 -52.9)"/>
    <path d="M679.6,205.1l-1.6-.4-.8-.2c-.1,0-.1-.1-.1-.2s.2-.5.7-.5,1.2.2,1.3.6h1.3v-1.6h-1.3v.2a3.5,3.5,0,0,0-1.4-.3,2.5,2.5,0,0,0-1.6.5,1.7,1.7,0,0,0-.5,1.2,1.4,1.4,0,0,0,.6,1.2,3.9,3.9,0,0,0,2,.6l.9.3c.1.1.2.2.2.3s-.1.3-.3.4l-.7.2a1.1,1.1,0,0,1-.8-.3.5.5,0,0,1-.4-.6h-1.3v1.9h1.3v-.2a2.1,2.1,0,0,0,1.4.4,2.4,2.4,0,0,0,1.7-.6,1.6,1.6,0,0,0,.6-1.3,1.7,1.7,0,0,0-.3-1A1.8,1.8,0,0,0,679.6,205.1Z" transform="translate(-68.9 -52.9)"/>
    <path d="M682,208.4h.9v.2a1,1,0,0,1-.9,1.1v.9l1.1-.2a2.3,2.3,0,0,0,.7-.7,5.7,5.7,0,0,0,.1-1.4v-1.8H682Z" transform="translate(-68.9 -52.9)"/>
    <path d="M692.8,201.7h.8v3.6c0,.6-.1,1-.1,1.2l-.4.5-.7.2-.6-.2a.9.9,0,0,1-.3-.6,2.5,2.5,0,0,1-.1-1v-3.7h.8v-1.4h-3.9v1.4h1v3.7a5.3,5.3,0,0,0,.1,1.4,1,1,0,0,0,.4.8,2.2,2.2,0,0,0,.9.7,3.4,3.4,0,0,0,1.5.2,3,3,0,0,0,1.4-.2,1.5,1.5,0,0,0,.9-.6,1.3,1.3,0,0,0,.4-.7,4.1,4.1,0,0,0,.1-1.2v-4.1h1v-1.4h-3.2Z" transform="translate(-68.9 -52.9)"/>
    <path d="M701.9,204.9a2,2,0,0,0-.8-.8l-1.4-.8c-.6-.2-1-.4-1.1-.6a.8.8,0,0,1-.2-.5c0-.2.1-.3.3-.4s.3-.2.5-.2a1.1,1.1,0,0,1,.8.3,1.3,1.3,0,0,1,.4.9h1.4v-2.5h-1.4v.7a1.9,1.9,0,0,0-1.5-.8,2,2,0,0,0-1.5.6,1.9,1.9,0,0,0-.7,1.7,2.4,2.4,0,0,0,.5,1.4,10.7,10.7,0,0,0,1.9,1.2l1,.6a.8.8,0,0,1,.2.6.9.9,0,0,1-.3.6.6.6,0,0,1-.6.3,1.4,1.4,0,0,1-1.2-1.5h-1.4v2.7h1.4v-.6a1.8,1.8,0,0,0,1.6.7,2.5,2.5,0,0,0,1.7-.6,2.5,2.5,0,0,0,.7-1.8A2.7,2.7,0,0,0,701.9,204.9Z" transform="translate(-68.9 -52.9)"/>
  </g>
</svg>