<svg
  class="top-polluter"
  xmlns="http://www.w3.org/2000/svg"
  width="175.266"
  height="11"
  viewBox="21 118.6 175.266 11"
>
  <g>
    <polygon class="" points="23.9 118.6 21 118.6 21 119.9 22.2 119.9 22.2 125.4 21 125.4 21 126.7 25 126.7 25 125.4 23.9 125.4 23.9 118.6" />
    <rect class="" x="27.4" y="124.7" width="2" height="1.96" />
    <path class="" d="M106.5,175.3l-1.4-.8c-.6-.2-1-.4-1.1-.6s-.2-.3-.2-.5a.5.5,0,0,1,.2-.4.7.7,0,0,1,.6-.2,1.3,1.3,0,0,1,.8.3,1.2,1.2,0,0,1,.3.9h1.4v-2.5h-1.4v.7a1.6,1.6,0,0,0-1.5-.8,2.4,2.4,0,0,0-1.5.6,2.2,2.2,0,0,0-.6,1.7,1.7,1.7,0,0,0,.5,1.4,7.8,7.8,0,0,0,1.9,1.2l.9.6a.6.6,0,0,1,.3.6,1.1,1.1,0,0,1-.9.9,1.5,1.5,0,0,1-.9-.4,1.6,1.6,0,0,1-.4-1.1h-1.4v2.7h1.4V179a1.9,1.9,0,0,0,1.7.7,2.3,2.3,0,0,0,1.6-.6,2.1,2.1,0,0,0,.7-1.8,2.7,2.7,0,0,0-.3-1.2A1.8,1.8,0,0,0,106.5,175.3Z" transform="translate(-68.9 -52.9)" />
    <path class="" d="M113.8,176.3a4.1,4.1,0,0,0-.1-1.2c0-.2-.2-.4-.3-.6l-.8-.5-1.4-.2a2.9,2.9,0,0,0-2.8,1.4l1.5.2a1.4,1.4,0,0,1,1.1-.4,1,1,0,0,1,1,1v.3l-1.3-.3a2.1,2.1,0,0,0-1.6.6,1.6,1.6,0,0,0-.7,1.4,1.8,1.8,0,0,0,.6,1.3,2.4,2.4,0,0,0,1.5.4,2.3,2.3,0,0,0,1.5-.5v.4h2.8v-1.3h-1ZM112,178a1.7,1.7,0,0,1-1.1.6l-.5-.2a.6.6,0,0,1-.2-.5c0-.3,0-.5.2-.6l.6-.2,1,.5Z" transform="translate(-68.9 -52.9)" />
    <path class="" d="M121.2,174h-2.7v1.3h.9v2.5a1.6,1.6,0,0,1-1,.4h-.5c-.1-.1-.1-.3-.1-.6V174h-2.6v1.3h.8V178a1.9,1.9,0,0,0,.5,1.3,1.7,1.7,0,0,0,1.3.4,3.3,3.3,0,0,0,1.6-.5v.4h2.7v-1.3h-.9Z" transform="translate(-68.9 -52.9)" />
    <path class="" d="M128.8,171.5h-2.7v1.3h.9v1.8a2.3,2.3,0,0,0-1.7-.8,2.1,2.1,0,0,0-1.7.9,3.5,3.5,0,0,0,0,4.2,2.1,2.1,0,0,0,1.7.8,2.3,2.3,0,0,0,1.7-.7v.6h2.7v-1.3h-.9Zm-2.2,6.5a.9.9,0,0,1-.7.3,1,1,0,0,1-.9-.4,2,2,0,0,1-.3-1.1,1.8,1.8,0,0,1,.3-1.1.9.9,0,0,1,.8-.4,1.1,1.1,0,0,1,.8.3,2,2,0,0,1,0,2.4Z" transform="translate(-68.9 -52.9)" />
    <path class="" d="M132.2,173.3a.9.9,0,0,0,.7-.3.7.7,0,0,0,.3-.6.8.8,0,0,0-.3-.7,1,1,0,0,0-1.4,0,.8.8,0,0,0-.3.7.7.7,0,0,0,.3.6A.9.9,0,0,0,132.2,173.3Z" transform="translate(-68.9 -52.9)" />
    <polygon class="" points="64.2 121 61.5 121 61.5 122.3 62.4 122.3 62.4 125.4 61.5 125.4 61.5 126.7 65 126.7 65 125.4 64.2 125.4 64.2 121" />
    <path class="" d="M142.9,172.9H144v-1.4h-5.3v1.4h1l-1.6,5.4h-1v1.3h3.7v-1.3h-1.1l.4-1.4h2.1l.4,1.4h-1v1.3h4v-1.3h-1Zm-2.4,2.8.7-2.5.7,2.5Z" transform="translate(-68.9 -52.9)" />
    <path class="" d="M149.3,174.3a1.9,1.9,0,0,0-.7,1.1V174h-2.7v1.3h1v3h-1v1.3h4v-1.3h-1.2v-.7a2.7,2.7,0,0,1,.3-1.2,1.3,1.3,0,0,1,.7-.6l1.1-.2v-1.7h-.2A1.8,1.8,0,0,0,149.3,174.3Z" transform="translate(-68.9 -52.9)" />
    <path class="" d="M156.8,176.3a4.1,4.1,0,0,0-.1-1.2c0-.2-.2-.4-.3-.6l-.8-.5-1.4-.2a2.7,2.7,0,0,0-2.7,1.4l1.4.2a1.4,1.4,0,0,1,1.1-.4,1,1,0,0,1,1,1v.3l-1.3-.3a2.1,2.1,0,0,0-1.6.6,1.6,1.6,0,0,0-.7,1.4,1.8,1.8,0,0,0,.6,1.3,2.4,2.4,0,0,0,1.5.4,2.3,2.3,0,0,0,1.5-.5v.4h2.8v-1.3h-1ZM155,178a1.7,1.7,0,0,1-1.1.6l-.5-.2a.6.6,0,0,1-.2-.5c0-.3,0-.5.2-.6l.6-.2,1,.5Z" transform="translate(-68.9 -52.9)" />
    <path class="" d="M168.8,176.2a3.5,3.5,0,0,0-.2-1.3,1.1,1.1,0,0,0-.6-.7,2.1,2.1,0,0,0-1.2-.3,3.3,3.3,0,0,0-2.2.8,1.9,1.9,0,0,0-1.7-.8,4.1,4.1,0,0,0-1.9.5V174h-2.7v1.3h.9v3h-.9v1.3H162v-1.3h-1v-2.5l1.3-.4c.5,0,.8.4.8,1v3.2h2.7v-1.3h-.9v-2.5a3.8,3.8,0,0,1,1.3-.4c.5,0,.8.3.8.9v3.3h2.7v-1.3h-.9Z" transform="translate(-68.9 -52.9)" />
    <path class="" d="M174.2,178.1a1.1,1.1,0,0,1-.8.3,1.5,1.5,0,0,1-.9-.4,1.6,1.6,0,0,1-.4-1.2,1.4,1.4,0,0,1,.4-1.1,1.3,1.3,0,0,1,.9-.4,1.4,1.4,0,0,1,1.4,1h1.3V174h-1.2v.4a3.7,3.7,0,0,0-1.8-.5,3.2,3.2,0,0,0-2,.8,2.9,2.9,0,0,0-.8,2.1,3.3,3.3,0,0,0,.8,2.2,3.6,3.6,0,0,0,2.4.8,3,3,0,0,0,2.8-1.7l-1.4-.7A2.3,2.3,0,0,1,174.2,178.1Z" transform="translate(-68.9 -52.9)" />
    <path class="" d="M180,173.8a3.2,3.2,0,0,0-2.1.8,2.9,2.9,0,0,0-.9,2.2,2.8,2.8,0,0,0,.9,2.2,3.2,3.2,0,0,0,2.1.8,2.9,2.9,0,0,0,2.1-.8,3.1,3.1,0,0,0,0-4.4A3.2,3.2,0,0,0,180,173.8Zm.8,4.2a1.2,1.2,0,0,1-.8.4.8.8,0,0,1-.8-.5,1.6,1.6,0,0,1-.3-1.1c0-1,.4-1.6,1.1-1.6a1.2,1.2,0,0,1,.8.4,2.6,2.6,0,0,1,0,2.4Z" transform="translate(-68.9 -52.9)" />
    <path class="" d="M184.1,179.6h1v.2c0,.7-.3,1-1,1.1v.9l1.1-.2a1.6,1.6,0,0,0,.7-.7,5.2,5.2,0,0,0,.2-1.4v-1.8h-2Z" transform="translate(-68.9 -52.9)" />
    <path class="" d="M195.1,175.3l-1.3-.8q-1.1-.3-1.2-.6a.8.8,0,0,1-.2-.5c0-.2.1-.3.3-.4s.3-.2.5-.2a1.1,1.1,0,0,1,.8.3,1.3,1.3,0,0,1,.4.9h1.4v-2.5h-1.4v.7a1.9,1.9,0,0,0-1.5-.8,2,2,0,0,0-1.5.6,1.9,1.9,0,0,0-.7,1.7,2.2,2.2,0,0,0,.5,1.4,10.7,10.7,0,0,0,1.9,1.2,2.9,2.9,0,0,1,1,.6.8.8,0,0,1,.2.6.9.9,0,0,1-.3.6.6.6,0,0,1-.6.3,1.4,1.4,0,0,1-1.2-1.5h-1.4v2.7h1.4V179a1.8,1.8,0,0,0,1.6.7,2.5,2.5,0,0,0,1.7-.6,2.5,2.5,0,0,0,.7-1.8,2.7,2.7,0,0,0-.3-1.2A2,2,0,0,0,195.1,175.3Z" transform="translate(-68.9 -52.9)" />
    <path class="" d="M202.5,176.3a4.1,4.1,0,0,0-.1-1.2l-.4-.6a1.6,1.6,0,0,0-.8-.5l-1.4-.2a2.7,2.7,0,0,0-2.7,1.4l1.5.2a1.2,1.2,0,0,1,1-.4,1.1,1.1,0,0,1,.8.3.9.9,0,0,1,.3.7v.3l-1.3-.3a2.4,2.4,0,0,0-1.7.6,1.8,1.8,0,0,0-.6,1.4,1.8,1.8,0,0,0,.6,1.3,2.3,2.3,0,0,0,1.4.4,2.4,2.4,0,0,0,1.6-.5v.4h2.7v-1.3h-.9Zm-1.8,1.7a1.7,1.7,0,0,1-1.2.6l-.5-.2c-.1-.2-.2-.3-.2-.5a.6.6,0,0,1,.3-.6l.5-.2a2.5,2.5,0,0,1,1.1.5Z" transform="translate(-68.9 -52.9)" />
    <path class="" d="M209.9,174h-2.7v1.3h.9v2.5a1.6,1.6,0,0,1-1,.4h-.5c-.1-.1-.1-.3-.1-.6V174h-2.7v1.3h.9V178a1.5,1.5,0,0,0,1.7,1.7,3.7,3.7,0,0,0,1.7-.5v.4h2.7v-1.3h-.9Z" transform="translate(-68.9 -52.9)" />
    <path class="" d="M217.4,171.5h-2.7v1.3h.9v1.8a2.1,2.1,0,0,0-1.6-.8,2.3,2.3,0,0,0-1.8.9,3.5,3.5,0,0,0,0,4.2,2.5,2.5,0,0,0,1.8.8,2.1,2.1,0,0,0,1.6-.7v.6h2.8v-1.3h-1Zm-2.1,6.5a1.1,1.1,0,0,1-.8.3.8.8,0,0,1-.8-.4,2,2,0,0,1-.3-1.1,1.8,1.8,0,0,1,.3-1.1.8.8,0,0,1,.8-.4,1.1,1.1,0,0,1,.8.3,2.5,2.5,0,0,1,0,2.4Z" transform="translate(-68.9 -52.9)" />
    <polygon class="" points="152.8 121 150.2 121 150.2 122.3 151 122.3 151 125.4 150.2 125.4 150.2 126.7 153.7 126.7 153.7 125.4 152.8 125.4 152.8 121" />
    <path class="" d="M220.9,173.3a1.1,1.1,0,0,0,.7-.3.7.7,0,0,0,.3-.6.8.8,0,0,0-.3-.7,1.1,1.1,0,0,0-.7-.3.9.9,0,0,0-.7.3.8.8,0,0,0-.3.7.7.7,0,0,0,.3.6A.9.9,0,0,0,220.9,173.3Z" transform="translate(-68.9 -52.9)" />
    <path class="" d="M231.5,172.9h1.1v-1.4h-5.3v1.4h1.1l-1.6,5.4h-1v1.3h3.6v-1.3h-1.1l.4-1.4h2.2l.3,1.4h-1v1.3h4v-1.3h-1Zm-2.4,2.8.7-2.5.7,2.5Z" transform="translate(-68.9 -52.9)" />
    <path class="" d="M237.9,174.3a2.6,2.6,0,0,0-.7,1.1V174h-2.6v1.3h1v3h-1.1v1.3h4v-1.3h-1.1v-.7a2.7,2.7,0,0,1,.3-1.2,1.3,1.3,0,0,1,.7-.6l1.1-.2v-1.7h-.3A2,2,0,0,0,237.9,174.3Z" transform="translate(-68.9 -52.9)" />
    <path class="" d="M245.5,176.3a4.1,4.1,0,0,0-.1-1.2l-.4-.6a1.6,1.6,0,0,0-.8-.5l-1.3-.2c-1.5,0-2.4.5-2.8,1.4l1.5.2a1.3,1.3,0,0,1,1-.4,1.1,1.1,0,0,1,.8.3.9.9,0,0,1,.3.7v.3l-1.3-.3a2.4,2.4,0,0,0-1.7.6,1.8,1.8,0,0,0-.6,1.4,1.8,1.8,0,0,0,.6,1.3,2.3,2.3,0,0,0,1.4.4,2.4,2.4,0,0,0,1.6-.5v.4h2.7v-1.3h-.9Zm-1.8,1.7a1.7,1.7,0,0,1-1.2.6l-.5-.2c-.1-.2-.2-.3-.2-.5a.6.6,0,0,1,.3-.6l.5-.2a2.5,2.5,0,0,1,1.1.5Z" transform="translate(-68.9 -52.9)" />
    <path class="" d="M251.2,173.8a2.3,2.3,0,0,0-1.7.8v-3.1h-2.8v1.3h1v5.5h-1v1.3h2.8V179a2.3,2.3,0,0,0,1.7.7,1.9,1.9,0,0,0,1.7-.8,3.5,3.5,0,0,0,0-4.2A2,2,0,0,0,251.2,173.8Zm.2,4.1a.8.8,0,0,1-.8.4.9.9,0,0,1-.8-.4,1.6,1.6,0,0,1-.3-1.1,1.2,1.2,0,0,1,.4-1.1.8.8,0,0,1,.8-.4.9.9,0,0,1,.8.4,1.9,1.9,0,0,1-.1,2.2Z" transform="translate(-68.9 -52.9)" />
    <path class="" d="M256.4,173.3a1.1,1.1,0,0,0,.7-.3.7.7,0,0,0,.3-.6.8.8,0,0,0-.3-.7,1.1,1.1,0,0,0-.7-.3.9.9,0,0,0-.7.3.8.8,0,0,0-.3.7.7.7,0,0,0,.3.6A.9.9,0,0,0,256.4,173.3Z" transform="translate(-68.9 -52.9)" />
    <polygon class="" points="188.3 121 185.7 121 185.7 122.3 186.5 122.3 186.5 125.4 185.7 125.4 185.7 126.7 189.2 126.7 189.2 125.4 188.3 125.4 188.3 121" />
    <path class="" d="M264.2,178.3v-2a4.1,4.1,0,0,0-.1-1.2c0-.2-.2-.4-.3-.6l-.8-.5-1.4-.2a2.9,2.9,0,0,0-2.8,1.4l1.5.2a1.3,1.3,0,0,1,1-.4,1,1,0,0,1,.8.3.9.9,0,0,1,.3.7v.3l-1.3-.3a2.1,2.1,0,0,0-1.6.6,1.6,1.6,0,0,0-.7,1.4,1.8,1.8,0,0,0,.6,1.3,2.4,2.4,0,0,0,1.5.4,2.3,2.3,0,0,0,1.5-.5v.4h2.8v-1.3Zm-1.8-.3a1.7,1.7,0,0,1-1.1.6l-.5-.2a.6.6,0,0,1-.2-.5c0-.3,0-.5.2-.6l.6-.2a2.3,2.3,0,0,1,1,.5Z" transform="translate(-68.9 -52.9)" />
  </g>
</svg>