<svg
  class="top-polluter"
  xmlns="http://www.w3.org/2000/svg"
  width="133.7"
  height="11"
  viewBox="503.6 132.9 133.7 11"
>
  <g>
    <polygon points="506.6 133 503.6 133 503.6 134.3 504.8 134.3 504.8 139.8 503.7 139.8 503.7 141.1 507.7 141.1 507.7 139.8 506.6 139.8 506.6 133"/>
    <path d="M582.4,192.7H580l.4-.8a5.2,5.2,0,0,1,1.5-1.4l1-.8.6-.7a3,3,0,0,0,.2-1,2.4,2.4,0,0,0-.7-1.6,2.8,2.8,0,0,0-1.8-.6,3.2,3.2,0,0,0-1.4.2,2,2,0,0,0-.9.9,4,4,0,0,0-.4,1.8H580a3.5,3.5,0,0,1,.3-1.3,1,1,0,0,1,.7-.4.9.9,0,0,1,.6.3.8.8,0,0,1,.2.6,1.6,1.6,0,0,1-.3.9l-1.2,1.3a4,4,0,0,0-1.1,1.2,2.4,2.4,0,0,0-.6,1.1,6.3,6.3,0,0,0-.2,1.6h5.2v-2.3h-1.3Z" transform="translate(-68.9 -52.9)"/>
    <rect x="516.7" y="139.1" width="2" height="1.96"/>
    <path d="M595.5,185.9h-4.3v1.4h1v5.4h-1V194h4.3v-1.3h-1.2v-1.6h2.3l1-.4a2.2,2.2,0,0,0,.7-.9,2.4,2.4,0,0,0,.3-1.2,2.6,2.6,0,0,0-.8-1.9A3.3,3.3,0,0,0,595.5,185.9Zm.6,3.5a2.4,2.4,0,0,1-1.4.3h-.4v-2.4h1.4l.5.4a1.9,1.9,0,0,1,.2.8A1.6,1.6,0,0,1,596.1,189.4Z" transform="translate(-68.9 -52.9)"/>
    <path d="M604.7,190a3.1,3.1,0,0,0-1-1.3,2.8,2.8,0,0,0-1.6-.5,3.2,3.2,0,0,0-2.3.9,3.3,3.3,0,0,0-.8,2.2,2.9,2.9,0,0,0,.8,2.1,3.6,3.6,0,0,0,2.4.8,3.1,3.1,0,0,0,2.7-1.4l-1.4-.5a1.7,1.7,0,0,1-1.3.7,1.6,1.6,0,0,1-.9-.3,1.3,1.3,0,0,1-.5-1.1H605A3.8,3.8,0,0,0,604.7,190Zm-3.9.6q.2-1.2,1.2-1.2a.9.9,0,0,1,.8.4,2,2,0,0,1,.4.8Z" transform="translate(-68.9 -52.9)"/>
    <path d="M611.3,190.7a4.1,4.1,0,0,0-.1-1.2l-.4-.6a1.2,1.2,0,0,0-.8-.5l-1.3-.2a2.8,2.8,0,0,0-2.8,1.4l1.5.2a1.3,1.3,0,0,1,1-.4,1,1,0,0,1,.8.3.9.9,0,0,1,.3.7v.3l-1.3-.3a2.5,2.5,0,0,0-1.7.6,1.8,1.8,0,0,0-.6,1.4,1.8,1.8,0,0,0,.6,1.3,2.4,2.4,0,0,0,1.5.4,2.3,2.3,0,0,0,1.5-.5v.4h2.7v-1.3h-.9Zm-1.8,1.7a1.7,1.7,0,0,1-1.1.6l-.6-.2c-.1-.2-.2-.3-.2-.5a.6.6,0,0,1,.3-.6l.6-.2a2.3,2.3,0,0,1,1,.5Z" transform="translate(-68.9 -52.9)"/>
    <path d="M617,188.2a2.1,2.1,0,0,0-1.6.8v-3.1h-2.8v1.3h1v5.5h-1V194h2.8v-.6a2,2,0,0,0,1.6.7,1.9,1.9,0,0,0,1.7-.8,3.5,3.5,0,0,0,0-4.2A2,2,0,0,0,617,188.2Zm.3,4.1a1,1,0,0,1-.8.4.8.8,0,0,1-.8-.4,1.7,1.7,0,0,1,0-2.2,1,1,0,0,1,1.6,0,2.2,2.2,0,0,1,0,2.2Z" transform="translate(-68.9 -52.9)"/>
    <path d="M623.3,188.2a3.2,3.2,0,0,0-2.1.8,2.9,2.9,0,0,0-.8,2.2,2.7,2.7,0,0,0,.8,2.2,3.2,3.2,0,0,0,2.1.8,3,3,0,1,0,0-6Zm.9,4.2a1.5,1.5,0,0,1-.9.4,1,1,0,0,1-.8-.5,1.6,1.6,0,0,1-.3-1.1c0-1,.4-1.6,1.1-1.6a1.3,1.3,0,0,1,.9.4,2.5,2.5,0,0,1,0,2.4Z" transform="translate(-68.9 -52.9)"/>
    <path d="M633.1,185.9h-2.7v1.3h.9V189a1.9,1.9,0,0,0-1.6-.8,2.3,2.3,0,0,0-1.8.9,3.5,3.5,0,0,0,0,4.2,2.5,2.5,0,0,0,1.8.8,2.1,2.1,0,0,0,1.6-.7v.6h2.8v-1.3h-1Zm-2.1,6.5a1.1,1.1,0,0,1-.8.3.8.8,0,0,1-.8-.4,2,2,0,0,1-.3-1.1,1.8,1.8,0,0,1,.3-1.1.8.8,0,0,1,.8-.4,1.1,1.1,0,0,1,.8.3,2.5,2.5,0,0,1,0,2.4Z" transform="translate(-68.9 -52.9)"/>
    <polygon points="569.1 136.7 569.9 136.7 568.9 139.3 567.9 136.7 568.6 136.7 568.6 135.4 565.2 135.4 565.2 136.7 566 136.7 568.1 141.4 567.7 142.4 566.6 142.4 566.6 143.7 568.6 143.7 571.3 136.7 572.1 136.7 572.1 135.4 569.1 135.4 569.1 136.7"/>
    <polygon points="575.6 134.3 576.6 134.3 576.6 139.7 575.6 139.7 575.6 141.1 582.8 141.1 582.8 138.5 581.3 138.5 581.3 139.7 578.7 139.7 578.7 137.6 580.8 137.6 580.8 136.2 578.7 136.2 578.7 134.3 581.3 134.3 581.3 135.5 582.8 135.5 582.8 133 575.6 133 575.6 134.3"/>
    <path d="M658.7,190.5c0-1.5-.6-2.2-1.8-2.2a2.7,2.7,0,0,0-1.6.6v-.5h-2.7v1.3h.9v3h-.9V194h3.6v-1.3h-.9v-2.5a1.4,1.4,0,0,1,1-.4l.4.2c.1.1.1.3.1.6V194h2.7v-1.3h-.8Z" transform="translate(-68.9 -52.9)"/>
    <path d="M665.9,190a3.1,3.1,0,0,0-1-1.3,3.1,3.1,0,0,0-1.7-.5,3.1,3.1,0,0,0-3.1,3.1,2.6,2.6,0,0,0,.9,2.1,3.2,3.2,0,0,0,2.3.8,3.1,3.1,0,0,0,2.8-1.4l-1.4-.5a1.9,1.9,0,0,1-1.3.7,1.7,1.7,0,0,1-1-.3,1.6,1.6,0,0,1-.5-1.1h4.2A3.9,3.9,0,0,0,665.9,190Zm-3.9.6c.1-.8.4-1.2,1.1-1.2a1.1,1.1,0,0,1,.9.4,1.1,1.1,0,0,1,.3.8Z" transform="translate(-68.9 -52.9)"/>
    <path d="M670.3,188.7a1.9,1.9,0,0,0-.7,1.1v-1.4h-2.7v1.3h1v3h-1V194h4v-1.3h-1.2V192a2.7,2.7,0,0,1,.3-1.2,1.3,1.3,0,0,1,.7-.6l1.1-.2v-1.7h-.2A1.8,1.8,0,0,0,670.3,188.7Z" transform="translate(-68.9 -52.9)"/>
    <path d="M676.5,189.1a2.1,2.1,0,0,0-1.7-.8,2.5,2.5,0,0,0-1.7.8,3.1,3.1,0,0,0-.7,2.1,2.8,2.8,0,0,0,.7,2.1,1.9,1.9,0,0,0,1.7.8,2.4,2.4,0,0,0,1.7-.8v.5a1.3,1.3,0,0,1-1.4,1.5,2.3,2.3,0,0,1-1.4-.4l-.9,1.2a4.4,4.4,0,0,0,2.5.6c2,0,3-.9,3-2.8v-4.2h.9v-1.3h-2.7Zm-.3,3.2c-.3.2-.5.4-.8.4a1.3,1.3,0,0,1-.9-.4,2,2,0,0,1-.3-1.1,1.5,1.5,0,0,1,.3-1,1.1,1.1,0,0,1,.9-.5,1.2,1.2,0,0,1,.8.4,2,2,0,0,1,.3,1.1A1.8,1.8,0,0,1,676.2,192.3Z" transform="translate(-68.9 -52.9)"/>
    <polygon points="617.5 135.4 614.5 135.4 614.5 136.7 615.3 136.7 614.2 139.3 613.3 136.7 614 136.7 614 135.4 610.6 135.4 610.6 136.7 611.4 136.7 613.5 141.4 613.1 142.4 612 142.4 612 143.7 614 143.7 616.7 136.7 617.5 136.7 617.5 135.4"/>
    <path d="M686,194h1v.2c0,.7-.3,1-1,1.1v.9l1.2-.2a1.3,1.3,0,0,0,.6-.7,5.2,5.2,0,0,0,.2-1.4v-1.8h-2Z" transform="translate(-68.9 -52.9)"/>
    <path d="M696.8,187.3h.8v3.6a3.5,3.5,0,0,1-.1,1.2c0,.2-.1.3-.3.5l-.7.2-.7-.2a.9.9,0,0,1-.3-.6c0-.2-.1-.5-.1-1v-3.7h.8v-1.4h-3.9v1.4h1V191a5.3,5.3,0,0,0,.1,1.4l.4.8a2.2,2.2,0,0,0,.9.7,4.1,4.1,0,0,0,1.6.2,3.2,3.2,0,0,0,1.4-.2,1.5,1.5,0,0,0,.9-.6,2.5,2.5,0,0,0,.4-.7c0-.3.1-.7.1-1.2v-4.1h1v-1.4h-3.3Z" transform="translate(-68.9 -52.9)"/>
    <path d="M705.9,190.5a1.8,1.8,0,0,0-.7-.8l-1.4-.7c-.6-.3-1-.5-1.1-.7s-.2-.3-.2-.5,0-.3.2-.4.3-.2.6-.2a.9.9,0,0,1,.7.3,1,1,0,0,1,.4.9h1.4v-2.5h-1.4v.7a1.6,1.6,0,0,0-1.5-.8,2.4,2.4,0,0,0-1.5.6,2.2,2.2,0,0,0-.7,1.7,1.8,1.8,0,0,0,.6,1.4,7.8,7.8,0,0,0,1.9,1.2l.9.6c.2.1.2.3.2.6a.7.7,0,0,1-.2.6.9.9,0,0,1-.6.3,1.3,1.3,0,0,1-.9-.4,1.2,1.2,0,0,1-.4-1.1h-1.4V194h1.4v-.6a1.9,1.9,0,0,0,1.7.7,2.5,2.5,0,0,0,1.6-.6,2.1,2.1,0,0,0,.7-1.8A2.7,2.7,0,0,0,705.9,190.5Z" transform="translate(-68.9 -52.9)"/>
  </g>
</svg>