<svg
  class="top-polluter"
  xmlns="http://www.w3.org/2000/svg"
  width="51.61"
  height="11"
  viewBox="247.6 118.5 51.61 11"
>
  <g>
    <path d="M319.7,174.4a1.8,1.8,0,0,0-1.4.6,4,4,0,0,1,.3-1.7.9.9,0,0,1,.9-.7c.5,0,.8.4,1,1.1l1.4-.2a2.2,2.2,0,0,0-2.3-2.1,2.8,2.8,0,0,0-2.3,1,5.1,5.1,0,0,0-.8,3.2,6.3,6.3,0,0,0,.7,3.2,2.9,2.9,0,0,0,2.3,1,2.5,2.5,0,0,0,1.8-.8,2.8,2.8,0,0,0,.7-2,2.6,2.6,0,0,0-.7-1.9A1.9,1.9,0,0,0,319.7,174.4Zm.4,3.7a.9.9,0,0,1-1.5-.1,4.4,4.4,0,0,1-.3-1.9,1.9,1.9,0,0,1,1-.3.9.9,0,0,1,.7.3,1.3,1.3,0,0,1,.3,1A2.5,2.5,0,0,1,320.1,178.1Z" transform="translate(-68.9 -52.9)"/>
    <rect x="254.7" y="124.7" width="2" height="1.96"/>
    <path d="M335.1,175.3a1.7,1.7,0,0,0,1.2-1.7,2.1,2.1,0,0,0-.5-1.3,1.8,1.8,0,0,0-1-.7h-5.6v1.4h1v5.4h-1v1.3H333a5.9,5.9,0,0,0,2-.2,2.9,2.9,0,0,0,1.2-.7,2.3,2.3,0,0,0,.4-1.4A2,2,0,0,0,335.1,175.3Zm-2.7-2.4h.5c.5,0,.8,0,1,.2s.3.3.3.7a.8.8,0,0,1-.3.7l-.9.2h-.6Zm1.7,5.1a1.6,1.6,0,0,1-1.1.3h-.6v-2.2h.6l1.1.2a1.2,1.2,0,0,1,.3.9C334.4,177.6,334.3,177.9,334.1,178Z" transform="translate(-68.9 -52.9)"/>
    <path d="M345,174.1a2.6,2.6,0,0,0-.8-1.9,3.2,3.2,0,0,0-2.3-.7h-4.3v1.4h1v5.4h-1v1.3h4.3v-1.3h-1.2v-1.6H343l1-.4a2.2,2.2,0,0,0,.7-.9A2.4,2.4,0,0,0,345,174.1Zm-2.5.9a2.2,2.2,0,0,1-1.4.3h-.4v-2.4h1.4l.5.4a1.9,1.9,0,0,1,.2.8A1.6,1.6,0,0,1,342.5,175Z" transform="translate(-68.9 -52.9)"/>
    <path d="M344.5,179.6h.9v.2a1,1,0,0,1-.9,1.1v.9l1.1-.2a1.3,1.3,0,0,0,.6-.7,3,3,0,0,0,.2-1.4v-1.8h-1.9Z" transform="translate(-68.9 -52.9)"/>
    <path d="M355.2,172.9h.8v4.8l-.4.5-.7.2-.7-.2-.3-.6v-4.7h.8v-1.4h-3.9v1.4h.9v3.7c0,.6.1,1.1.1,1.4a3,3,0,0,0,.4.8,2,2,0,0,0,1,.7,3.4,3.4,0,0,0,1.5.2,3.2,3.2,0,0,0,1.4-.2,1.5,1.5,0,0,0,.9-.6,1.3,1.3,0,0,0,.4-.7,4.1,4.1,0,0,0,.1-1.2v-4.1h1v-1.4h-3.3Z" transform="translate(-68.9 -52.9)"/>
    <polygon points="298.3 125.3 295.6 122.2 297.9 119.9 298.9 119.9 298.9 118.6 295 118.6 295 119.9 295.9 119.9 293.3 122.4 295.7 125.3 294.8 125.3 294.8 126.7 299.2 126.7 299.2 125.3 298.3 125.3"/>
    <polygon points="293.2 119.9 294.2 119.9 294.2 118.6 290 118.6 290 119.9 291.1 119.9 291.1 125.3 290 125.3 290 126.7 294.2 126.7 294.2 125.3 293.2 125.3 293.2 119.9"/>
  </g>
</svg>