<svg
  class="top-polluter"
  xmlns="http://www.w3.org/2000/svg"
  width="195.8"
  height="11"
  viewBox="247.6 132.9 195.8 11"
>
  <g>
    <path d="M316.7,188.3H318v-1.1h2.1a11.3,11.3,0,0,0-1.4,2.7,12.6,12.6,0,0,0-.7,2.8h-1V194h3.9v-1.3h-1a10.4,10.4,0,0,1,.6-3.2,10.1,10.1,0,0,1,1.3-2.6v-1h-5.1Z" transform="translate(-68.9 -52.9)"/>
    <rect x="254.7" y="139.1" width="2" height="1.96"/>
    <path d="M335.2,190.2a2.1,2.1,0,0,0,1.5-2,2.6,2.6,0,0,0-.7-1.6,2.3,2.3,0,0,0-2-.7h-4.9v1.4h1.1v5.4h-1.1V194h4.3v-1.3h-1v-2.2h.9l1.8,3.5h2.5v-1.3h-1Zm-2.1-1h-.7v-1.9h.9l.8.2a.9.9,0,0,1,.3.7C334.4,188.9,334,189.2,333.1,189.2Z" transform="translate(-68.9 -52.9)"/>
    <path d="M341,188.2a3.2,3.2,0,0,0-2.1.8,2.9,2.9,0,0,0-.8,2.2,2.7,2.7,0,0,0,.8,2.2,3.2,3.2,0,0,0,2.1.8,3,3,0,1,0,0-6Zm.8,4.2a1,1,0,0,1-.8.4,1,1,0,0,1-.8-.5,1.6,1.6,0,0,1-.3-1.1c0-1,.4-1.6,1.1-1.6a1.3,1.3,0,0,1,.9.4,2.1,2.1,0,0,1,.3,1.2A1.6,1.6,0,0,1,341.8,192.4Z" transform="translate(-68.9 -52.9)"/>
    <polygon points="279.3 136.7 280 136.7 279 139.3 278 136.7 278.7 136.7 278.7 135.4 275.3 135.4 275.3 136.7 276.1 136.7 278.2 141.4 277.8 142.4 276.7 142.4 276.7 143.7 278.7 143.7 281.4 136.7 282.2 136.7 282.2 135.4 279.3 135.4 279.3 136.7"/>
    <path d="M357,190.7c0-.5-.1-.9-.1-1.2l-.4-.6a1.6,1.6,0,0,0-.8-.5l-1.4-.2a2.7,2.7,0,0,0-2.7,1.4l1.4.2a1.5,1.5,0,0,1,1.1-.4,1.1,1.1,0,0,1,.8.3.9.9,0,0,1,.3.7v.3l-1.3-.3a2.4,2.4,0,0,0-1.7.6,1.8,1.8,0,0,0-.6,1.4,1.8,1.8,0,0,0,.6,1.3,2.3,2.3,0,0,0,1.4.4,2.4,2.4,0,0,0,1.6-.5v.4h2.7v-1.3H357Zm-1.8,1.7a1.9,1.9,0,0,1-1.2.6l-.5-.2c-.1-.2-.2-.3-.2-.5a.6.6,0,0,1,.3-.6l.5-.2a2.5,2.5,0,0,1,1.1.5Z" transform="translate(-68.9 -52.9)"/>
    <polygon points="292.3 133 289.6 133 289.6 134.3 290.5 134.3 290.5 139.8 289.6 139.8 289.6 141.1 293.1 141.1 293.1 139.8 292.3 139.8 292.3 133"/>
    <path d="M372.8,186.7a3.7,3.7,0,0,0-1.4-.7h-5.8v1.4h1.2v5.4h-1.2V194h5.6l1.1-.4a2.6,2.6,0,0,0,1-.7,5.7,5.7,0,0,0,.8-1.3,7.8,7.8,0,0,0,.2-1.6,4.1,4.1,0,0,0-.4-1.9A3,3,0,0,0,372.8,186.7Zm-1,4.9a1.4,1.4,0,0,1-.9.8,2.6,2.6,0,0,1-1.4.3h-.6v-5.4h.6l1.4.2a2,2,0,0,1,.9.9,4.1,4.1,0,0,1,.3,1.6A3.5,3.5,0,0,1,371.8,191.6Z" transform="translate(-68.9 -52.9)"/>
    <path d="M381.2,188.4h-2.7v1.3h.9v2.5a1.4,1.4,0,0,1-1,.4h-.5a3.5,3.5,0,0,1-.1-.6v-3.5h-2.6v1.3h.8v2.7a1.9,1.9,0,0,0,.5,1.3,1.7,1.7,0,0,0,1.3.4,3.3,3.3,0,0,0,1.6-.5v.4h2.7v-1.3h-.9Z" transform="translate(-68.9 -52.9)"/>
    <path d="M385.2,186.2l-1.8,1.3v.9h-.7v1.3h.7v3c0,.9.5,1.4,1.5,1.4a3.1,3.1,0,0,0,1.3-.3v-1.2h-.9c-.1-.1-.1-.2-.1-.5v-2.4h1v-1.3h-1Z" transform="translate(-68.9 -52.9)"/>
    <path d="M391,192.5a1.3,1.3,0,0,1-.8.3,1.3,1.3,0,0,1-.9-.4,1.6,1.6,0,0,1-.4-1.2,1.8,1.8,0,0,1,.3-1.1,1.8,1.8,0,0,1,1-.4,1.5,1.5,0,0,1,1.4,1h1.2v-2.3h-1.2v.4a3.4,3.4,0,0,0-1.7-.5,3,3,0,0,0-2,.8,2.6,2.6,0,0,0-.9,2.1,2.9,2.9,0,0,0,.9,2.2,3.6,3.6,0,0,0,2.4.8,2.8,2.8,0,0,0,2.7-1.7l-1.4-.7C391.5,192.1,391.2,192.3,391,192.5Z" transform="translate(-68.9 -52.9)"/>
    <path d="M399.7,190.3c0-1.4-.6-2.1-1.7-2.1a2.7,2.7,0,0,0-1.6.6v-2.9h-2.8v1.3h1v5.5h-1V194h3.6v-1.3h-.8v-2.6a1.4,1.4,0,0,1,.9-.4l.5.2c.1.1.1.2.1.5V194h2.6v-1.3h-.8Z" transform="translate(-68.9 -52.9)"/>
    <path d="M408.7,189.7a5,5,0,0,0-1.3-.7,3.7,3.7,0,0,1-1.2-.7.8.8,0,0,1-.2-.5c0-.2.1-.3.3-.4s.3-.2.5-.2a1.1,1.1,0,0,1,.8.3,1.3,1.3,0,0,1,.4.9h1.4v-2.5H408v.7a1.8,1.8,0,0,0-1.5-.8,2,2,0,0,0-1.5.6,1.9,1.9,0,0,0-.7,1.7,2.2,2.2,0,0,0,.5,1.4l1.9,1.2,1,.6a.8.8,0,0,1,.2.6,1.4,1.4,0,0,1-.2.6.9.9,0,0,1-.7.3,1.4,1.4,0,0,1-1.2-1.5h-1.4V194h1.4v-.6a1.9,1.9,0,0,0,1.6.7,2.5,2.5,0,0,0,1.7-.6,2.1,2.1,0,0,0,.7-1.8,2.7,2.7,0,0,0-.3-1.2A2,2,0,0,0,408.7,189.7Z" transform="translate(-68.9 -52.9)"/>
    <path d="M416.6,190.3q0-2.1-1.8-2.1a2.9,2.9,0,0,0-1.6.6v-2.9h-2.7v1.3h.9v5.5h-.9V194H414v-1.3h-.8v-2.6a1.6,1.6,0,0,1,1-.4l.4.2a.6.6,0,0,1,.2.5V194h2.6v-1.3h-.8Z" transform="translate(-68.9 -52.9)"/>
    <path d="M423.9,190a3.1,3.1,0,0,0-1-1.3,3.1,3.1,0,0,0-1.7-.5,3.1,3.1,0,0,0-3.1,3.1,2.6,2.6,0,0,0,.9,2.1,3.2,3.2,0,0,0,2.3.8,3.1,3.1,0,0,0,2.8-1.4l-1.4-.5a1.9,1.9,0,0,1-1.3.7,1.7,1.7,0,0,1-1-.3,1.6,1.6,0,0,1-.5-1.1h4.3A3.8,3.8,0,0,0,423.9,190Zm-3.9.6c.1-.8.5-1.2,1.1-1.2a1,1,0,0,1,.9.4,1.1,1.1,0,0,1,.3.8Z" transform="translate(-68.9 -52.9)"/>
    <polygon points="358.8 133 356.1 133 356.1 134.3 357 134.3 357 139.8 356.1 139.8 356.1 141.1 359.6 141.1 359.6 139.8 358.8 139.8 358.8 133"/>
    <polygon points="363 133 360.3 133 360.3 134.3 361.2 134.3 361.2 139.8 360.3 139.8 360.3 141.1 363.8 141.1 363.8 139.8 363 139.8 363 133"/>
    <path d="M434.2,194h1v.2c0,.7-.3,1-1,1.1v.9l1.1-.2a1.6,1.6,0,0,0,.7-.7,5.2,5.2,0,0,0,.2-1.4v-1.8h-2Z" transform="translate(-68.9 -52.9)"/>
    <polygon points="377.1 134.3 378.1 134.3 378.1 138 375.1 133 371.7 133 371.7 134.3 372.8 134.3 372.8 139.7 371.7 139.7 371.7 141.1 375.3 141.1 375.3 139.7 374.2 139.7 374.2 135.1 377.8 141.2 379.6 141.2 379.6 134.3 380.7 134.3 380.7 133 377.1 133 377.1 134.3"/>
    <path d="M456,190a3.1,3.1,0,0,0-1-1.3,2.9,2.9,0,0,0-1.7-.5,3.1,3.1,0,0,0-2.2.9,3.3,3.3,0,0,0-.8,2.2,2.9,2.9,0,0,0,.8,2.1,3.6,3.6,0,0,0,2.4.8,3.1,3.1,0,0,0,2.7-1.4l-1.4-.5a1.7,1.7,0,0,1-1.3.7,1.6,1.6,0,0,1-.9-.3,1.3,1.3,0,0,1-.5-1.1h4.2A3.8,3.8,0,0,0,456,190Zm-3.9.6q.1-1.2,1.2-1.2a.9.9,0,0,1,.8.4,2,2,0,0,1,.4.8Z" transform="translate(-68.9 -52.9)"/>
    <path d="M459.5,186.2l-1.9,1.3v.9h-.7v1.3h.7v3c0,.9.5,1.4,1.5,1.4a3.5,3.5,0,0,0,1.4-.3v-1.2h-1v-2.9h1v-1.3h-1Z" transform="translate(-68.9 -52.9)"/>
    <path d="M467.2,190.3c0-1.4-.6-2.1-1.7-2.1a2.7,2.7,0,0,0-1.6.6v-2.9h-2.7v1.3h.9v5.5h-.9V194h3.5v-1.3h-.8v-2.6a1.4,1.4,0,0,1,.9-.4l.5.2c.1.1.1.2.1.5V194h2.7v-1.3h-.9Z" transform="translate(-68.9 -52.9)"/>
    <path d="M474.5,190a3.1,3.1,0,0,0-1-1.3,2.8,2.8,0,0,0-1.6-.5,3.2,3.2,0,0,0-2.3.9,3.3,3.3,0,0,0-.8,2.2,2.9,2.9,0,0,0,.8,2.1,3.6,3.6,0,0,0,2.4.8,3.1,3.1,0,0,0,2.7-1.4l-1.4-.5a1.7,1.7,0,0,1-1.3.7,1.6,1.6,0,0,1-.9-.3,1.3,1.3,0,0,1-.5-1.1h4.2A3.8,3.8,0,0,0,474.5,190Zm-3.9.6q.1-1.2,1.2-1.2a.9.9,0,0,1,.8.4,2,2,0,0,1,.4.8Z" transform="translate(-68.9 -52.9)"/>
    <path d="M478.9,188.7a2.6,2.6,0,0,0-.7,1.1v-1.4h-2.6v1.3h1v3h-1.1V194h4v-1.3h-1.1V192a2.7,2.7,0,0,1,.3-1.2,1.3,1.3,0,0,1,.7-.6l1.1-.2v-1.7h-.3A2,2,0,0,0,478.9,188.7Z" transform="translate(-68.9 -52.9)"/>
    <polygon points="414.8 133 412.1 133 412.1 134.3 413 134.3 413 139.8 412.1 139.8 412.1 141.1 415.6 141.1 415.6 139.8 414.8 139.8 414.8 133"/>
    <path d="M490.7,190.7a4.1,4.1,0,0,0-.1-1.2c0-.2-.2-.4-.3-.6l-.8-.5-1.4-.2a2.7,2.7,0,0,0-2.7,1.4l1.4.2a1.4,1.4,0,0,1,1.1-.4,1,1,0,0,1,1,1v.3l-1.3-.3a2.1,2.1,0,0,0-1.6.6,1.6,1.6,0,0,0-.7,1.4,1.8,1.8,0,0,0,.6,1.3,2.4,2.4,0,0,0,1.5.4,2.3,2.3,0,0,0,1.5-.5v.4h2.8v-1.3h-1Zm-1.8,1.7a1.7,1.7,0,0,1-1.1.6l-.5-.2a.6.6,0,0,1-.2-.5c0-.3,0-.5.2-.6l.6-.2a2.3,2.3,0,0,1,1,.5Z" transform="translate(-68.9 -52.9)"/>
    <path d="M498.3,190.5c0-1.5-.6-2.2-1.7-2.2a2.9,2.9,0,0,0-1.7.6v-.5h-2.6v1.3h.8v3h-.8V194h3.5v-1.3h-.9v-2.5a1.7,1.7,0,0,1,1.1-.4l.4.2c.1.1.1.3.1.6V194h2.7v-1.3h-.9Z" transform="translate(-68.9 -52.9)"/>
    <path d="M505.7,185.9H503v1.3h.9V189a2.3,2.3,0,0,0-1.7-.8,2.2,2.2,0,0,0-1.7.9,3.5,3.5,0,0,0,0,4.2,2.1,2.1,0,0,0,1.7.8,2.3,2.3,0,0,0,1.7-.7v.6h2.7v-1.3h-.9Zm-2.2,6.5a.9.9,0,0,1-.7.3,1,1,0,0,1-.9-.4,2,2,0,0,1-.3-1.1,1.8,1.8,0,0,1,.3-1.1.9.9,0,0,1,.8-.4,1.1,1.1,0,0,1,.8.3,2,2,0,0,1,0,2.4Z" transform="translate(-68.9 -52.9)"/>
    <path d="M512.2,191.3a1.6,1.6,0,0,0-.8-.6l-1.6-.4-.8-.2a.2.2,0,0,1-.2-.2c0-.3.3-.5.8-.5s1.1.2,1.2.6h1.3v-1.6h-1.3v.2a3.2,3.2,0,0,0-1.4-.3,2.5,2.5,0,0,0-1.5.5,1.5,1.5,0,0,0,0,2.4,4.3,4.3,0,0,0,2,.6l.9.3c.2.1.2.2.2.3a.5.5,0,0,1-.2.4l-.7.2a1.4,1.4,0,0,1-.9-.3.9.9,0,0,1-.4-.6h-1.3V194h1.3v-.2a2.6,2.6,0,0,0,1.4.4,2.2,2.2,0,0,0,1.7-.6,1.6,1.6,0,0,0,.6-1.3A1.7,1.7,0,0,0,512.2,191.3Z" transform="translate(-68.9 -52.9)"/>
  </g>
</svg>