<svg
  class="top-polluter"
  xmlns="http://www.w3.org/2000/svg"
  width="84.7"
  height="11"
  viewBox="503.6 118.5 84.7 11"
>
  <g>
    <polygon points="506.6 118.6 503.6 118.6 503.6 119.9 504.8 119.9 504.8 125.4 503.7 125.4 503.7 126.7 507.7 126.7 507.7 125.4 506.6 125.4 506.6 118.6"/>
    <polygon points="513.2 118.6 510.2 118.6 510.2 119.9 511.4 119.9 511.4 125.4 510.3 125.4 510.3 126.7 514.3 126.7 514.3 125.4 513.2 125.4 513.2 118.6"/>
    <rect x="516.7" y="124.7" width="2" height="1.96"/>
    <path d="M595.5,171.5h-4.3v1.4h1v5.4h-1v1.3h4.3v-1.3h-1.2v-1.6h2.3l1-.4a2.2,2.2,0,0,0,.7-.9,2.4,2.4,0,0,0,.3-1.2,2.6,2.6,0,0,0-.8-1.9A3.3,3.3,0,0,0,595.5,171.5Zm.6,3.5a2.4,2.4,0,0,1-1.4.3h-.4v-2.4h1.4l.5.4a1.9,1.9,0,0,1,.2.8A1.6,1.6,0,0,1,596.1,175Z" transform="translate(-68.9 -52.9)"/>
    <path d="M604.7,175.6a3.1,3.1,0,0,0-1-1.3,2.8,2.8,0,0,0-1.6-.5,3.2,3.2,0,0,0-2.3.9,3.3,3.3,0,0,0-.8,2.2,2.9,2.9,0,0,0,.8,2.1,3.6,3.6,0,0,0,2.4.8,3.1,3.1,0,0,0,2.7-1.4l-1.4-.5a1.7,1.7,0,0,1-1.3.7l-.9-.3a1.3,1.3,0,0,1-.5-1.1H605A3.8,3.8,0,0,0,604.7,175.6Zm-3.9.6q.2-1.2,1.2-1.2a.9.9,0,0,1,.8.4,2,2,0,0,1,.4.8Z" transform="translate(-68.9 -52.9)"/>
    <path d="M608.2,171.8l-1.8,1.3v.9h-.8v1.3h.8v3a1.2,1.2,0,0,0,1.4,1.4,3.5,3.5,0,0,0,1.4-.3v-1.2h-1v-2.9h1V174h-1Z" transform="translate(-68.9 -52.9)"/>
    <path d="M613.3,174.3a1.9,1.9,0,0,0-.7,1.1V174h-2.7v1.3h1v3h-1v1.3h3.9v-1.3h-1.1v-.7a2.7,2.7,0,0,1,.3-1.2,1.3,1.3,0,0,1,.7-.6l1.1-.2v-1.7h-.3A1.6,1.6,0,0,0,613.3,174.3Z" transform="translate(-68.9 -52.9)"/>
    <path d="M618.4,173.8a2.8,2.8,0,0,0-3,3,3.1,3.1,0,0,0,.8,2.2,3.3,3.3,0,0,0,2.2.8,3.2,3.2,0,0,0,2.1-.8,2.9,2.9,0,0,0,.8-2.2,3.3,3.3,0,0,0-.8-2.2A3.2,3.2,0,0,0,618.4,173.8Zm.8,4.2a1.3,1.3,0,0,1-.9.4,1,1,0,0,1-.8-.5,1.6,1.6,0,0,1-.3-1.1c0-1,.4-1.6,1.1-1.6a1.3,1.3,0,0,1,.9.4,2.5,2.5,0,0,1,0,2.4Z" transform="translate(-68.9 -52.9)"/>
    <path d="M628.4,177.7a1.9,1.9,0,0,1-1.4.5,2.1,2.1,0,0,1-1.7-.7,2.9,2.9,0,0,1-.6-1.9,3.4,3.4,0,0,1,.6-2,2.2,2.2,0,0,1,1.8-.8,2,2,0,0,1,2,1.6h1.4v-2.9h-1.4v.6a3.6,3.6,0,0,0-2.4-.7,4.2,4.2,0,0,0-2.2.5,4,4,0,0,0-1.5,1.4,4.7,4.7,0,0,0,.5,5.3,4.1,4.1,0,0,0,3.3,1.1,3.7,3.7,0,0,0,4-2.8l-1.6-.8A2.7,2.7,0,0,1,628.4,177.7Z" transform="translate(-68.9 -52.9)"/>
    <path d="M637.6,175.9q0-2.1-1.8-2.1a2.9,2.9,0,0,0-1.6.6v-2.9h-2.7v1.3h.9v5.5h-.9v1.3H635v-1.3h-.8v-2.6a1.6,1.6,0,0,1,1-.4l.4.2a.6.6,0,0,1,.2.5v3.6h2.6v-1.3h-.8Z" transform="translate(-68.9 -52.9)"/>
    <polygon points="572.9 121 570.2 121 570.2 122.3 571.1 122.3 571.1 125.4 570.2 125.4 570.2 126.7 573.8 126.7 573.8 125.4 572.9 125.4 572.9 121"/>
    <path d="M641,173.3a.9.9,0,0,0,.9-.9,1.2,1.2,0,0,0-.2-.7,1.1,1.1,0,0,0-.7-.3,1,1,0,0,0-1,1,.7.7,0,0,0,.3.6A.9.9,0,0,0,641,173.3Z" transform="translate(-68.9 -52.9)"/>
    <path d="M649.4,176.1c0-1.5-.6-2.2-1.7-2.2a2.9,2.9,0,0,0-1.7.6V174h-2.7v1.3h.9v3h-.9v1.3h3.6v-1.3H646v-2.5a1.6,1.6,0,0,1,1-.4l.5.2a3.5,3.5,0,0,1,.1.6v3.4h2.7v-1.3h-.9Z" transform="translate(-68.9 -52.9)"/>
    <path d="M656.3,178.3v-2a4.1,4.1,0,0,0-.1-1.2,2.1,2.1,0,0,0-.4-.6,1.2,1.2,0,0,0-.8-.5l-1.3-.2a2.9,2.9,0,0,0-2.8,1.4l1.5.2a1.3,1.3,0,0,1,1-.4,1,1,0,0,1,.8.3.9.9,0,0,1,.3.7v.3l-1.3-.3a2.5,2.5,0,0,0-1.7.6,1.8,1.8,0,0,0-.6,1.4,1.8,1.8,0,0,0,.6,1.3,2.4,2.4,0,0,0,1.5.4,2.3,2.3,0,0,0,1.5-.5v.4h2.7v-1.3Zm-1.8-.3a1.7,1.7,0,0,1-1.1.6l-.6-.2c-.1-.2-.2-.3-.2-.5a.6.6,0,0,1,.3-.6l.6-.2a2.3,2.3,0,0,1,1,.5Z" transform="translate(-68.9 -52.9)"/>
  </g>
</svg>