<svg
  class="top-polluter"
  xmlns="http://www.w3.org/2000/svg"
  width="204.1"
  height="11"
  viewBox="247.6 176.09 204.1 11"
>
  <g>
    <polygon points="251.2 176.2 248.2 176.2 248.2 177.5 249.4 177.5 249.4 183 248.3 183 248.3 184.3 252.3 184.3 252.3 183 251.2 183 251.2 176.2"/>
    <path d="M325.8,229a2.3,2.3,0,0,0-2.1,1.1,5.3,5.3,0,0,0-.7,3.1,6.5,6.5,0,0,0,.7,3.1,2.6,2.6,0,0,0,4.2,0,5.5,5.5,0,0,0,.7-3.1,5.3,5.3,0,0,0-.7-3.1A2.3,2.3,0,0,0,325.8,229Zm.8,6c-.1.7-.4,1-.8,1s-.6-.2-.7-.7a6.2,6.2,0,0,1-.2-2.1,6.5,6.5,0,0,1,.2-2.2c.1-.5.4-.7.7-.7s.6.2.7.7a6.1,6.1,0,0,1,.3,2.2A12.4,12.4,0,0,1,326.6,235Z" transform="translate(-68.9 -52.9)"/>
    <rect x="261.3" y="182.3" width="2" height="1.96"/>
    <path d="M340.1,229.1h-4.3v1.4h1.1v5.4h-1.1v1.3h4.3v-1.3H339v-1.6h2.2l1-.4a2.6,2.6,0,0,0,1.1-2.1,2.3,2.3,0,0,0-.9-1.9A3.2,3.2,0,0,0,340.1,229.1Zm.6,3.5a2.2,2.2,0,0,1-1.4.3H339v-2.4h1.3a1,1,0,0,1,.5.4,1.9,1.9,0,0,1,.2.8A1.6,1.6,0,0,1,340.7,232.6Z" transform="translate(-68.9 -52.9)"/>
    <path d="M349.4,233.2a3.1,3.1,0,0,0-1-1.3,3.1,3.1,0,0,0-1.7-.5,3.1,3.1,0,0,0-3.1,3.1,2.6,2.6,0,0,0,.9,2.1,3.2,3.2,0,0,0,2.3.8,3.1,3.1,0,0,0,2.8-1.4l-1.4-.5a1.9,1.9,0,0,1-1.3.7,1.7,1.7,0,0,1-1-.3,1.6,1.6,0,0,1-.5-1.1h4.2A3.9,3.9,0,0,0,349.4,233.2Zm-3.9.6c.1-.8.4-1.2,1.1-1.2a1.1,1.1,0,0,1,.9.4,1.1,1.1,0,0,1,.3.8Z" transform="translate(-68.9 -52.9)"/>
    <path d="M352.8,229.4l-1.8,1.3v.9h-.7v1.3h.7v3c0,.9.5,1.4,1.5,1.4l1.4-.3v-1.2h-1c-.1-.1-.1-.2-.1-.5v-2.4h1.1v-1.3h-1.1Z" transform="translate(-68.9 -52.9)"/>
    <path d="M357.9,231.9a1.9,1.9,0,0,0-.7,1.1v-1.4h-2.6v1.3h1v3h-1.1v1.3h4v-1.3h-1.1v-.7a5,5,0,0,1,.2-1.2,1.6,1.6,0,0,1,.8-.6l1.1-.2v-1.7h-.3A2,2,0,0,0,357.9,231.9Z" transform="translate(-68.9 -52.9)"/>
    <polygon points="296.3 176 294.1 176 293.2 177.9 294.1 177.9 296.3 176"/>
    <path d="M363,231.4a3.2,3.2,0,0,0-2.1.8,2.9,2.9,0,0,0-.9,2.2,2.8,2.8,0,0,0,.9,2.2,3.2,3.2,0,0,0,2.1.8,2.9,2.9,0,0,0,2.1-.8,3.1,3.1,0,0,0,0-4.4A3.2,3.2,0,0,0,363,231.4Zm.8,4.2a1.2,1.2,0,0,1-.8.4.8.8,0,0,1-.8-.5,1.6,1.6,0,0,1-.3-1.1c0-1,.3-1.6,1.1-1.6a1.2,1.2,0,0,1,.8.4,2.5,2.5,0,0,1,0,2.4Z" transform="translate(-68.9 -52.9)"/>
    <polygon points="300.7 176.2 298 176.2 298 177.5 298.8 177.5 298.8 183 298 183 298 184.3 301.5 184.3 301.5 183 300.7 183 300.7 176.2"/>
    <path d="M376.9,233.2a3.1,3.1,0,0,0-1-1.3,3.1,3.1,0,0,0-1.7-.5,3.1,3.1,0,0,0-3.1,3.1,2.6,2.6,0,0,0,.9,2.1,3.2,3.2,0,0,0,2.3.8,3.1,3.1,0,0,0,2.8-1.4l-1.4-.5a1.9,1.9,0,0,1-1.3.7,1.7,1.7,0,0,1-1-.3,1.6,1.6,0,0,1-.5-1.1h4.3A3.8,3.8,0,0,0,376.9,233.2Zm-3.9.6c.1-.8.5-1.2,1.1-1.2a1,1,0,0,1,.9.4,1.1,1.1,0,0,1,.3.8Z" transform="translate(-68.9 -52.9)"/>
    <path d="M381,231.4a3.2,3.2,0,0,0-2.1.8,2.9,2.9,0,0,0-.9,2.2,2.8,2.8,0,0,0,.9,2.2,3.2,3.2,0,0,0,2.1.8,2.9,2.9,0,0,0,2.1-.8,3.1,3.1,0,0,0,0-4.4A3,3,0,0,0,381,231.4Zm.8,4.2a1.2,1.2,0,0,1-.8.4.8.8,0,0,1-.8-.5,1.6,1.6,0,0,1-.3-1.1c0-1,.4-1.6,1.1-1.6a1.2,1.2,0,0,1,.8.4,2.5,2.5,0,0,1,0,2.4Z" transform="translate(-68.9 -52.9)"/>
    <path d="M389,233.9l-1.6-.4-.8-.2a.2.2,0,0,1-.2-.2c0-.3.3-.5.8-.5s1.1.2,1.3.6h1.3v-1.6h-1.3v.2a4,4,0,0,0-1.5-.3,2.5,2.5,0,0,0-1.5.5,1.5,1.5,0,0,0,0,2.4,4.3,4.3,0,0,0,2,.6l.9.3c.2.1.2.2.2.3s0,.3-.2.4l-.7.2-.9-.3a.6.6,0,0,1-.3-.6h-1.4v1.9h1.4V237a2.5,2.5,0,0,0,3-.2,1.6,1.6,0,0,0,.6-1.3,1.7,1.7,0,0,0-.3-1A1.6,1.6,0,0,0,389,233.9Z" transform="translate(-68.9 -52.9)"/>
    <path d="M399.9,229.1h-2.7v1.3h.9v1.8a2.1,2.1,0,0,0-1.6-.8,2.3,2.3,0,0,0-1.8.9,3.8,3.8,0,0,0-.7,2.1,3.1,3.1,0,0,0,.7,2.1,2.5,2.5,0,0,0,1.8.8,2.1,2.1,0,0,0,1.6-.7v.6h2.8v-1.3h-1Zm-2.1,6.5a1.1,1.1,0,0,1-.8.3.8.8,0,0,1-.8-.4,2,2,0,0,1-.3-1.1,1.8,1.8,0,0,1,.3-1.1.8.8,0,0,1,.8-.4,1.3,1.3,0,0,1,.8.3,2.5,2.5,0,0,1,0,2.4Z" transform="translate(-68.9 -52.9)"/>
    <path d="M407.3,233.2a3.1,3.1,0,0,0-1-1.3,3.4,3.4,0,0,0-1.7-.5,3.1,3.1,0,0,0-3.1,3.1,2.6,2.6,0,0,0,.9,2.1,3.2,3.2,0,0,0,2.3.8,3.1,3.1,0,0,0,2.8-1.4l-1.4-.5a1.9,1.9,0,0,1-1.4.7l-.9-.3a1.3,1.3,0,0,1-.5-1.1h4.2A7,7,0,0,0,407.3,233.2Zm-4,.6c.2-.8.5-1.2,1.2-1.2a.8.8,0,0,1,.8.4.9.9,0,0,1,.4.8Z" transform="translate(-68.9 -52.9)"/>
    <polygon points="349.2 176.2 345.6 176.2 345.6 177.5 346.6 177.5 345.3 181.6 343.9 177.5 345 177.5 345 176.2 340.8 176.2 340.8 177.5 341.8 177.5 344.2 184.4 345.9 184.4 348.2 177.5 349.2 177.5 349.2 176.2"/>
    <path d="M423.1,233.2a3.1,3.1,0,0,0-1-1.3,2.8,2.8,0,0,0-1.6-.5,3.2,3.2,0,0,0-2.3.9,3.3,3.3,0,0,0-.8,2.2,2.9,2.9,0,0,0,.8,2.1,3.6,3.6,0,0,0,2.4.8,3.1,3.1,0,0,0,2.7-1.4l-1.4-.5a1.7,1.7,0,0,1-1.3.7l-.9-.3a1.3,1.3,0,0,1-.5-1.1h4.2A3.8,3.8,0,0,0,423.1,233.2Zm-3.9.6q.2-1.2,1.2-1.2a.9.9,0,0,1,.8.4,2,2,0,0,1,.4.8Z" transform="translate(-68.9 -52.9)"/>
    <path d="M430.3,233.7c0-1.5-.6-2.2-1.7-2.2a2.9,2.9,0,0,0-1.7.6v-.5h-2.7v1.3h.9v3h-.9v1.3h3.6v-1.3h-.9v-2.5a1.6,1.6,0,0,1,1-.4c.2,0,.4.1.4.2a.8.8,0,0,1,.2.6v3.4h2.6v-1.3h-.8Z" transform="translate(-68.9 -52.9)"/>
    <path d="M437.5,233.2a3.1,3.1,0,0,0-1-1.3,3.1,3.1,0,0,0-1.7-.5,2.9,2.9,0,0,0-2.2.9,2.9,2.9,0,0,0-.8,2.2,2.5,2.5,0,0,0,.8,2.1,3.4,3.4,0,0,0,2.3.8,3.1,3.1,0,0,0,2.8-1.4l-1.4-.5a1.7,1.7,0,0,1-1.3.7,1.9,1.9,0,0,1-1-.3,1.6,1.6,0,0,1-.5-1.1h4.3A3.8,3.8,0,0,0,437.5,233.2Zm-3.9.6c.1-.8.5-1.2,1.1-1.2a1,1,0,0,1,.9.4,2,2,0,0,1,.4.8Z" transform="translate(-68.9 -52.9)"/>
    <polygon points="369.9 180.7 371.2 180.7 371.2 179.8 373 179.8 369.7 183.1 369.7 184.3 375.2 184.3 375.2 182.2 374 182.2 374 183.2 371.8 183.2 375.2 179.8 375.2 178.6 369.9 178.6 369.9 180.7"/>
    <path d="M450.8,231.6h-2.6v1.3h.8v2.5a1.4,1.4,0,0,1-1,.4c-.2,0-.4,0-.4-.1a.8.8,0,0,1-.2-.6v-3.5h-2.6v1.3h.8v2.7a1.9,1.9,0,0,0,.5,1.3,1.7,1.7,0,0,0,1.3.4,3.3,3.3,0,0,0,1.6-.5v.4h2.8v-1.3h-1Z" transform="translate(-68.9 -52.9)"/>
    <path d="M458.2,233.2a2.8,2.8,0,0,0-.9-1.3,3.4,3.4,0,0,0-1.7-.5,2.8,2.8,0,0,0-2.2.9,2.9,2.9,0,0,0-.9,2.2,2.9,2.9,0,0,0,.8,2.1,3.6,3.6,0,0,0,2.4.8,3.2,3.2,0,0,0,2.8-1.4l-1.5-.5a1.6,1.6,0,0,1-1.3.7l-.9-.3a1.3,1.3,0,0,1-.5-1.1h4.2A3.8,3.8,0,0,0,458.2,233.2Zm-3.9.6q.1-1.2,1.2-1.2a.9.9,0,0,1,.8.4,1.2,1.2,0,0,1,.4.8Z" transform="translate(-68.9 -52.9)"/>
    <polygon points="393.1 176.2 390.4 176.2 390.4 177.5 391.3 177.5 391.3 183 390.4 183 390.4 184.3 394 184.3 394 183 393.1 183 393.1 176.2"/>
    <path d="M469.1,233.9c0-.5-.1-.9-.1-1.2l-.4-.6a1.6,1.6,0,0,0-.8-.5l-1.4-.2a2.7,2.7,0,0,0-2.7,1.4l1.5.2a1.2,1.2,0,0,1,1-.4,1.1,1.1,0,0,1,.8.3.9.9,0,0,1,.3.7v.3l-1.3-.3a2.4,2.4,0,0,0-1.7.6,1.8,1.8,0,0,0-.6,1.4,1.8,1.8,0,0,0,.6,1.3,2.3,2.3,0,0,0,1.4.4,2.4,2.4,0,0,0,1.6-.5v.4H470v-1.3h-.9Zm-1.8,1.7a1.7,1.7,0,0,1-1.2.6l-.5-.2c-.1-.2-.2-.3-.2-.5a.6.6,0,0,1,.3-.6l.5-.2a2.5,2.5,0,0,1,1.1.5Z" transform="translate(-68.9 -52.9)"/>
    <path d="M474.7,230.8a5.9,5.9,0,0,0-1,3.6,5.6,5.6,0,0,0,1,3.5,4.2,4.2,0,0,0,2.3,1.9v-1.2a2.1,2.1,0,0,1-1.1-1.3,14.2,14.2,0,0,1,0-5.8,2.1,2.1,0,0,1,1.1-1.3V229A4.4,4.4,0,0,0,474.7,230.8Z" transform="translate(-68.9 -52.9)"/>
    <path d="M482,229.1h-4.3v1.4h1v5.4h-1v1.3H482v-1.3h-1.2v-1.6H483l1.1-.4a2.2,2.2,0,0,0,.7-.9,2.4,2.4,0,0,0,.3-1.2,2.6,2.6,0,0,0-.8-1.9A3.3,3.3,0,0,0,482,229.1Zm.5,3.5c-.2.2-.6.3-1.4.3h-.3v-2.4h1.3a1,1,0,0,1,.5.4,1.1,1.1,0,0,1,.2.8A1.6,1.6,0,0,1,482.5,232.6Z" transform="translate(-68.9 -52.9)"/>
    <path d="M492.8,229.9a3.7,3.7,0,0,0-1.4-.7h-5.8v1.4h1.2v5.4h-1.2v1.3h5.6l1.1-.4a2.6,2.6,0,0,0,1-.7,3.3,3.3,0,0,0,.7-1.3,4.1,4.1,0,0,0,.3-1.6,4.1,4.1,0,0,0-.4-1.9A3.8,3.8,0,0,0,492.8,229.9Zm-1,4.9a1.4,1.4,0,0,1-.9.8,2.8,2.8,0,0,1-1.5.3h-.5v-5.4h.5l1.5.2a2,2,0,0,1,.9.9,4.1,4.1,0,0,1,.3,1.6A3.5,3.5,0,0,1,491.8,234.8Z" transform="translate(-68.9 -52.9)"/>
    <polygon points="430.3 177.5 431.4 177.5 430 181.6 428.6 177.5 429.7 177.5 429.7 176.2 425.5 176.2 425.5 177.5 426.5 177.5 428.9 184.4 430.6 184.4 432.9 177.5 433.9 177.5 433.9 176.2 430.3 176.2 430.3 177.5"/>
    <path d="M507.8,232.9l-1.4-.8a2.6,2.6,0,0,1-1.2-.6.8.8,0,0,1-.2-.5c0-.2.1-.3.3-.4s.3-.2.5-.2a1.1,1.1,0,0,1,.8.3,1.3,1.3,0,0,1,.4.9h1.4v-2.5H507v.7a1.6,1.6,0,0,0-1.5-.8,2,2,0,0,0-1.5.6,1.9,1.9,0,0,0-.7,1.7,2.4,2.4,0,0,0,.5,1.4l1.9,1.2,1,.6a.8.8,0,0,1,.2.6,1.4,1.4,0,0,1-.2.6.9.9,0,0,1-.7.3,1.4,1.4,0,0,1-1.2-1.5h-1.4v2.7h1.4v-.6a1.9,1.9,0,0,0,1.6.7,2.5,2.5,0,0,0,1.7-.6,2.1,2.1,0,0,0,.7-1.8,2.7,2.7,0,0,0-.3-1.2A2.7,2.7,0,0,0,507.8,232.9Z" transform="translate(-68.9 -52.9)"/>
    <path d="M514.9,230.5H516v-1.4h-5.3v1.4h1.1l-1.6,5.4h-1v1.3h3.6v-1.3h-1.1l.4-1.4h2.1l.4,1.4h-1v1.3h4v-1.3h-1Zm-2.4,2.8.7-2.5.7,2.5Z" transform="translate(-68.9 -52.9)"/>
    <path d="M520.2,230.9a4.2,4.2,0,0,0-2.3-1.9v1.2a2.1,2.1,0,0,1,1.1,1.3,10.7,10.7,0,0,1,.3,2.9,11.2,11.2,0,0,1-.3,2.9,2.1,2.1,0,0,1-1.1,1.3v1.2a4.2,4.2,0,0,0,2.3-1.9,6.6,6.6,0,0,0,0-7Z" transform="translate(-68.9 -52.9)"/>
  </g>
</svg>