<svg
  class="top-polluter"
  xmlns="http://www.w3.org/2000/svg"
  width="114.5"
  height="11"
  viewBox="19.98 147.3 114.5 11"
>
  <g>
    <path d="M93.1,204.2a2,2,0,0,0,1.2-1.9,1.9,1.9,0,0,0-.7-1.6,2.4,2.4,0,0,0-1.8-.5,3.5,3.5,0,0,0-1.8.5,2.1,2.1,0,0,0-.7,1.7l1.5.2c0-.8.3-1.1.9-1.1l.6.2a.8.8,0,0,1,.2.7.9.9,0,0,1-.3.7,1.1,1.1,0,0,1-1,.4v1.3h.4c.4,0,.7.1.8.4a1.1,1.1,0,0,1,.3.8,1.2,1.2,0,0,1-.3.9.8.8,0,0,1-.7.4c-.7,0-1.1-.5-1.1-1.5L89,206a2.6,2.6,0,0,0,2.8,2.6,3.2,3.2,0,0,0,2-.7,2.2,2.2,0,0,0,.8-1.8A1.8,1.8,0,0,0,93.1,204.2Z" transform="translate(-68.9 -52.9)"/>
    <rect x="27.4" y="153.5" width="2" height="1.96"/>
    <path d="M107.3,205.7h1.4a1.7,1.7,0,0,1-.6,1,2.8,2.8,0,0,1-1.3.4,2.5,2.5,0,0,1-1.7-.8,3.1,3.1,0,0,1-.6-2.1,2.9,2.9,0,0,1,.6-1.9,2.2,2.2,0,0,1,1.7-.7,3.7,3.7,0,0,1,1.4.4,2,2,0,0,1,.8,1.2h1.4v-2.9H109v.7a3.3,3.3,0,0,0-2.5-.8,4.2,4.2,0,0,0-2.2.5,3.4,3.4,0,0,0-1.5,1.4,4.4,4.4,0,0,0-.6,2.3,4.1,4.1,0,0,0,1.2,3,4.3,4.3,0,0,0,3.3,1.1,5.3,5.3,0,0,0,2.3-.4,4.4,4.4,0,0,0,1.6-1.4,4.3,4.3,0,0,0,.5-2.4h-3.8Z" transform="translate(-68.9 -52.9)"/>
    <path d="M117.6,205.1a4.1,4.1,0,0,0-.1-1.2,2.1,2.1,0,0,0-.4-.6,1.6,1.6,0,0,0-.8-.5l-1.3-.2c-1.5,0-2.4.5-2.8,1.4l1.5.2a1.3,1.3,0,0,1,1-.4,1.1,1.1,0,0,1,.8.3.9.9,0,0,1,.3.7v.3l-1.3-.3a2.4,2.4,0,0,0-1.7.6,1.8,1.8,0,0,0-.6,1.4,1.8,1.8,0,0,0,.6,1.3,2.3,2.3,0,0,0,1.4.4,2.4,2.4,0,0,0,1.6-.5v.4h2.7v-1.3h-.9Zm-1.8,1.7a1.7,1.7,0,0,1-1.1.6l-.6-.2c-.1-.2-.2-.3-.2-.5a.6.6,0,0,1,.3-.6l.5-.2a2.1,2.1,0,0,1,1.1.5Z" transform="translate(-68.9 -52.9)"/>
    <polygon points="50.5 151.9 51.7 151.9 51.7 151 53.5 151 50.2 154.3 50.2 155.5 55.7 155.5 55.7 153.4 54.5 153.4 54.5 154.4 52.4 154.4 55.7 151 55.7 149.8 50.5 149.8 50.5 151.9"/>
    <path d="M129.7,202.7a2.5,2.5,0,0,0-1.7.8v-.7h-2.6v1.3h.8v5.6h-1V211h3.9v-1.3H128v-1.8a2.8,2.8,0,0,0,1.7.7,2.5,2.5,0,0,0,1.8-.8,4,4,0,0,0,0-4.2A2.1,2.1,0,0,0,129.7,202.7Zm.3,4.1a1.3,1.3,0,0,1-.8.3,1,1,0,0,1-.9-.4,1.5,1.5,0,0,1-.3-1,2.1,2.1,0,0,1,.3-1.2,1.2,1.2,0,0,1,.8-.4,1.3,1.3,0,0,1,.9.4,1.8,1.8,0,0,1,.3,1.1A1.9,1.9,0,0,1,130,206.8Z" transform="translate(-68.9 -52.9)"/>
    <path d="M136.3,203.1a1.9,1.9,0,0,0-.7,1.1v-1.4h-2.7v1.3h1v3h-1v1.3h4v-1.3h-1.2v-.7a2.7,2.7,0,0,1,.3-1.2,1.3,1.3,0,0,1,.7-.6l1.2-.2v-1.7h-.3A1.8,1.8,0,0,0,136.3,203.1Z" transform="translate(-68.9 -52.9)"/>
    <path d="M141.4,202.6a2.9,2.9,0,0,0-2.1.8,2.9,2.9,0,0,0-.9,2.2,2.8,2.8,0,0,0,.9,2.2,2.9,2.9,0,0,0,2.1.8,3.2,3.2,0,0,0,2.1-.8,3.1,3.1,0,0,0,0-4.4A3.2,3.2,0,0,0,141.4,202.6Zm.8,4.2a1.2,1.2,0,0,1-.8.4,1.1,1.1,0,0,1-.9-.5,1.6,1.6,0,0,1-.3-1.1c0-1,.4-1.6,1.2-1.6a1.2,1.2,0,0,1,.8.4,2.5,2.5,0,0,1,0,2.4Z" transform="translate(-68.9 -52.9)"/>
    <path d="M155.7,205a3.5,3.5,0,0,0-.2-1.3,1.1,1.1,0,0,0-.6-.7,2.1,2.1,0,0,0-1.2-.3,3.6,3.6,0,0,0-2.3.8,1.8,1.8,0,0,0-1.7-.8,4.1,4.1,0,0,0-1.8.5v-.4h-2.7v1.3h.9v3h-.9v1.3h3.6v-1.3h-.9v-2.5a3.8,3.8,0,0,1,1.3-.4c.5,0,.8.4.8,1v3.2h2.7v-1.3h-.9v-2.5a3.3,3.3,0,0,1,1.3-.4c.5,0,.7.3.7.9v3.3h2.8v-1.3h-.9Z" transform="translate(-68.9 -52.9)"/>
    <path d="M157.8,208.4h1v.2c0,.7-.3,1-1,1.1v.9l1.2-.2a1.3,1.3,0,0,0,.6-.7,5.2,5.2,0,0,0,.2-1.4v-1.8h-2Z" transform="translate(-68.9 -52.9)"/>
    <path d="M170.3,204.6a2,2,0,0,0,1.4-2,2.5,2.5,0,0,0-.6-1.6,2.3,2.3,0,0,0-2-.7h-4.9v1.4h1.1v5.4h-1.1v1.3h4.3v-1.3h-1v-2.2h.9l1.8,3.5h2.5v-1.3h-1Zm-2.1-1h-.7v-1.9h.9l.8.2a.9.9,0,0,1,.3.7C169.5,203.3,169.1,203.6,168.2,203.6Z" transform="translate(-68.9 -52.9)"/>
    <path d="M179,202.8h-2.7v1.3h.9v2.5a1.6,1.6,0,0,1-1,.4h-.5c-.1-.1-.1-.3-.1-.6v-3.5h-2.7v1.3h.9v2.7a1.5,1.5,0,0,0,1.7,1.7,3.7,3.7,0,0,0,1.7-.5v.4h2.7v-1.3H179Z" transform="translate(-68.9 -52.9)"/>
    <path d="M184.7,205.1l-1.5-.4-.9-.2c-.1,0-.1-.1-.1-.2s.2-.5.8-.5,1.1.2,1.2.6h1.3v-1.6h-1.3v.2a3.2,3.2,0,0,0-1.4-.3,2.5,2.5,0,0,0-1.6.5,1.7,1.7,0,0,0-.5,1.2,1.4,1.4,0,0,0,.6,1.2,3.9,3.9,0,0,0,2,.6l.9.3c.1.1.2.2.2.3s-.1.3-.3.4l-.7.2a1.1,1.1,0,0,1-.8-.3.5.5,0,0,1-.4-.6h-1.3v1.9h1.3v-.2a2.7,2.7,0,0,0,3.1-.2,1.6,1.6,0,0,0,.6-1.3,1.7,1.7,0,0,0-.3-1A1.5,1.5,0,0,0,184.7,205.1Z" transform="translate(-68.9 -52.9)"/>
    <path d="M190.8,205.1l-1.5-.4-.8-.2c-.2,0-.2-.1-.2-.2s.3-.5.8-.5,1.1.2,1.2.6h1.3v-1.6h-1.3v.2a3.2,3.2,0,0,0-1.4-.3,2.3,2.3,0,0,0-1.5.5,1.5,1.5,0,0,0,0,2.4,4.3,4.3,0,0,0,2,.6l.9.3c.1.1.2.2.2.3a.5.5,0,0,1-.2.4l-.7.2a1.2,1.2,0,0,1-.9-.3.7.7,0,0,1-.4-.6H187v1.9h1.3v-.2a2.7,2.7,0,0,0,3.1-.2,1.6,1.6,0,0,0,.6-1.3,1.7,1.7,0,0,0-.3-1A1.5,1.5,0,0,0,190.8,205.1Z" transform="translate(-68.9 -52.9)"/>
    <path d="M194.7,202.1a.9.9,0,0,0,.7-.3.7.7,0,0,0,.3-.6.8.8,0,0,0-.3-.7,1,1,0,0,0-1.4,0,.8.8,0,0,0-.3.7.7.7,0,0,0,.3.6A.9.9,0,0,0,194.7,202.1Z" transform="translate(-68.9 -52.9)"/>
    <polygon points="126.7 149.8 124 149.8 124 151.1 124.9 151.1 124.9 154.2 124 154.2 124 155.5 127.5 155.5 127.5 154.2 126.7 154.2 126.7 149.8"/>
    <path d="M202.6,207.1v-2c0-.5-.1-.9-.1-1.2a2.1,2.1,0,0,0-.4-.6,1.6,1.6,0,0,0-.8-.5l-1.4-.2a2.7,2.7,0,0,0-2.7,1.4l1.5.2a1.2,1.2,0,0,1,1-.4,1.1,1.1,0,0,1,.8.3.9.9,0,0,1,.3.7v.3l-1.3-.3a2.4,2.4,0,0,0-1.7.6,1.8,1.8,0,0,0-.6,1.4,1.8,1.8,0,0,0,.6,1.3,2.3,2.3,0,0,0,1.4.4,2.4,2.4,0,0,0,1.6-.5v.4h2.7v-1.3Zm-1.8-.3a1.7,1.7,0,0,1-1.2.6l-.5-.2c-.1-.2-.2-.3-.2-.5a.6.6,0,0,1,.3-.6l.5-.2a2.5,2.5,0,0,1,1.1.5Z" transform="translate(-68.9 -52.9)"/>
  </g>
</svg>