<svg id="Continents" xmlns="http://www.w3.org/2000/svg" width="1006.8" height="780">
  <defs>
    <style>
      #Continents {
        pointer-events: none;
      }
    </style>
  </defs>
  <g>
    <g>
      <path class="cls-1" d="M562.7,481a5.2,5.2,0,0,1-4.7.2.6.6,0,0,0-.8.2c-.3.4-.7.4-1.6,0s-1.2-.5-1.4,0a1.1,1.1,0,0,1-.9.5,2.9,2.9,0,0,0-1.3.5c-.4.5-.7.5-1.4,0s-2.4-.6-8.3.3-7.8,1.8-7.8,2.8-.3.3-.7.2a.6.6,0,0,0-.8.1,1.1,1.1,0,0,1-.9.4,3.6,3.6,0,0,0-1.8,1.1,5.9,5.9,0,0,1-1.6,1.2,5.8,5.8,0,0,1-3-.5,12.7,12.7,0,0,0-2.9,0c-2.7.4-4.3-.2-4.7-1.8s-.9-1-1.7-.5a8.3,8.3,0,0,0-1.5,2.7c-1.5,3.6-2.5,4.7-5.2,6s-5.3,3.6-5.3,4.7a5.3,5.3,0,0,1-.9,2c-.8,1-1,1.9-1,4.1a6.8,6.8,0,0,1-.5,3.3,2,2,0,0,0-.6,1.1,5.3,5.3,0,0,1-1.6,1.7l-2.4,2.1a10,10,0,0,1-4.5,2c-1,0-1.6.7-2.7,3.2a5.6,5.6,0,0,1-1.4,2.1c-1.1,0-3.5,3.5-3.5,5.3s-1.2,2.8-2.9,4.5a11.5,11.5,0,0,0-2,3.5,9.1,9.1,0,0,1-1.7,3.1,4.5,4.5,0,0,0-1.1,2.2,16.4,16.4,0,0,1-.5,2.7c-.1.7-.1.9.4.8s1,.3,1.5.9,1.4,2.2.7,2.2-1,2.2-.3,3.2.8,5.1-.2,7.7a11.5,11.5,0,0,0-.9,3.4c0,1.3-2.1,4.9-2.9,4.9s-.6.2-.6.4.3.5.7.5.8.5,1.1,1.1l.9,2c.2.4.2.8-.1,1a4.6,4.6,0,0,0-.4,2.3,3.7,3.7,0,0,0,1.3,3.3c1.4,1.4,1.7,2.2.6,1.7s-.6-.1-.4.8.8,1.7,1.8,1,.7-.8.3-.9-.8-1.4-.2-1.4.6.5.9,1.3.7,1.3.9,1.3a.6.6,0,0,1,.5.6.7.7,0,0,0,.6.7c.4,0,.7.1.7.3a17.9,17.9,0,0,0,2.1,2.7c1.4,1.5,2.2,2.7,2.3,3.5s.3,2.8.8,3.1a.6.6,0,0,1,.3.8c-.2.3-.2.5.1.5s.3.2.2.5.6.9,1.7,1.3,3.3,2,8.5,6.7,6.6,5.2,10.6,3.2,10.7-2.1,14.4-.4a2.1,2.1,0,0,0,2-.2c4-2,7-3.3,7.9-3.3a1.6,1.6,0,0,0,1.2-.6c.3-.8,3.8-1.6,7.9-1.6,2.5-.1,3.2,0,4,.7a10.6,10.6,0,0,1,2.6,4.7,3.2,3.2,0,0,0,1,1.6,2.3,2.3,0,0,0,2.5.7l3.3-.5,3.1-.3c1.1-.2,1.4,0,1.6.8a2.5,2.5,0,0,0,1.2,1.3c.4.1.8.5.8.8a2,2,0,0,0,.6,1.1c.9.7.5,4.9-.6,7.1s-.7,1.6-.3,1.7.4.5.1,1.1a11.8,11.8,0,0,0-.5,2.8c-.2,1.8-.8,2.8-1.5,2.3s-.4.9.2,2.3a28.7,28.7,0,0,1,1.4,3,17.2,17.2,0,0,0,2.4,3.3c3.1,3,6.9,8.7,6.9,10.3a1.7,1.7,0,0,0,.5,1.2.6.6,0,0,1,.2.7,6.6,6.6,0,0,0,.8,2.7c.6,1.2,1.4,3.3,1.9,4.6s.8,2.3,0,2.9-.8.7.6,4.2,1.4,4.3,1.3,5.6-.8,4.4-1.5,4.4-2.8,3.6-3.2,5.7-1.4,6.4-1.8,6.4-.3,8.1.3,9.5a3.1,3.1,0,0,0,.9,1.4c.4,0,2.3,3.9,4.2,8.5a21.6,21.6,0,0,0,1.9,3.7,9.3,9.3,0,0,1,1.2,5,27.3,27.3,0,0,0,.5,5.3c.3,1.2.8,3.9,1.2,6,.8,4.5,1.4,5.9,3.7,8.4a14.4,14.4,0,0,1,2.6,4.8c1,3.2,2.5,6.4,3.1,6.7a5.5,5.5,0,0,1,.6,2.3c.3,1.7.2,2.1-.4,2.1a.9.9,0,0,0-.8.5,3.2,3.2,0,0,0,1.1,2.5,1.3,1.3,0,0,1,.2,1.4c-.3,1.5.4,2.6,1,1.7s.4-.5.4-.2a.6.6,0,0,0,.6.6,2.9,2.9,0,0,1,1.4.9c.9,1.1,1.8,1.1,2.9.1a3.8,3.8,0,0,1,2.6-.7,5.8,5.8,0,0,0,2.8-.6c1.3-.8,4.4-1.1,6.8-.5s1.9.3,2.3-.1a2.7,2.7,0,0,1,1.6-.3c.6.1,1-.1.9-.4s.8-.6,1.8-.7,6.7-3.1,9.2-5.9a31.5,31.5,0,0,1,2.6-2.6c1.6-1.6,4.6-5.9,4.6-6.6s2.9-3.5,3.5-3.5,1.2-1.6,2.3-5,1-5.7.3-5.3-.4-.5.6-1.7a13.3,13.3,0,0,1,4-2.4c2.2-.8,3.3-1.6,4-2.6s.8-1.6.6-1.9-.3-.8,0-1.6.5-4.8-.1-5.4a2.3,2.3,0,0,1-.4-.9c0-.2.2-.1.4.2s.5.5.5-.3-.2-1-.5-.9-.6-.5-.6-1.4-.3-1.6-.6-1.7-.5-.6-.5-1.1,3.9-5.5,5-5.5.7-.2.7-.3a3.5,3.5,0,0,1,.7-1.4,11.8,11.8,0,0,1,5.7-4.4l2.7-1.3a2.3,2.3,0,0,1,.9-.7c1.2-.6,4.1-4.6,4.7-6.4a5.6,5.6,0,0,0,.1-3.4,41.7,41.7,0,0,1-.5-7.6c.2-7.2.2-6.9-1-7.5s-1.2-1.1-1.7-3.5-.9-4.3.1-4.6.9-.4.9-.7-.3-.4-.7-.3-1.3-.9-.7-1.8.1-1.1-.8-2.3a5.8,5.8,0,0,1-1.3-2.1,17.3,17.3,0,0,1,1.9-5.3,33.4,33.4,0,0,0,2.8-6.4,2.7,2.7,0,0,1,1.1-1.5A13.9,13.9,0,0,0,672,626c1.9-3.7,7.7-10,11.3-12.2s9.3-9.1,9.3-10.2a13.2,13.2,0,0,1,1.6-2.8,11.4,11.4,0,0,0,1.5-3.1c0-.9,2.7-6.6,3.2-6.8a1.1,1.1,0,0,0,.3-.6,14.8,14.8,0,0,1,1.1-2.6,10.7,10.7,0,0,0,1.1-3.7c0-1.2.2-1.6.8-1.8s1.2-.8.5-1.1-.6-2.4-.4-4-1.6-1.7-2.6-.7-4.7,2.3-5.6,1.9a2.9,2.9,0,0,0-1.7.3,3.5,3.5,0,0,1-2,.3,2.4,2.4,0,0,0-2.1.7,3.8,3.8,0,0,1-2.7.7,4,4,0,0,0-2.8.5c-2.2,1.4-3.9.9-5.6-1.9a3.7,3.7,0,0,0-1.9-1.4l-1-.3,1-.5c1.7-.8,1.5-2.1-.6-4.3a22,22,0,0,1-2.5-2.9,2.5,2.5,0,0,0-1.1-.9c-.2,0-.8-.6-1.2-1.3a3.3,3.3,0,0,0-1.5-1.6,4.8,4.8,0,0,1-1.4-.9,1.2,1.2,0,0,0-1.1-.3c-.4.1-.7-.2-.8-.9s0-1.1.4-1.1.5-.1,0-.7-1-.8-1.3.3-.4,1-1,.2a10.7,10.7,0,0,1-1.1-2.6c-1.2-5.1-1.8-6.3-3.9-8s-3.1-3.3-3.2-7.5a14.3,14.3,0,0,0-.6-3.7,2.7,2.7,0,0,1-.7-1.8c0-.6-.1-1-.3-1l-2.1-1.7c-2-1.8-3.2-4.9-1.9-4.9s.4-.3-.5-1a17.3,17.3,0,0,1-2.3-3.6c-.7-1.4-1.7-3.3-2.3-4.2a12.5,12.5,0,0,1-.9-2.2,4,4,0,0,0-.7-1.6,4,4,0,0,1-.9-1.9,7.9,7.9,0,0,0-1.7-2.6,6.8,6.8,0,0,1-1.5-2.7,2,2,0,0,0-.4-1.3,10.1,10.1,0,0,1-.7-3.3,11.5,11.5,0,0,0-.8-3.8c-1.2-1.5-6.4-1-8.3.9a2.5,2.5,0,0,1-1.8.6l-2.8-.7a10.2,10.2,0,0,1-2.8-.9,13.6,13.6,0,0,0-5.6-1c-.8.2-1.2,0-1.4-.7s-.6-.9-1.6-.9-4.6-.8-4.8-1.8a1.2,1.2,0,0,0-1.1-.8c-.6,0-1.1-.2-1.2-.5s-4.8,0-6.8,1.6a3.7,3.7,0,0,0-.9,4.5c.7,1.1-1,3.5-2.6,3.5a7.2,7.2,0,0,1-2.4-1.2,12.5,12.5,0,0,0-6.3-2.3,3.3,3.3,0,0,1-3.2-2.6,2.3,2.3,0,0,0-1.5-1.8l-2.4-1.1a7.8,7.8,0,0,0-3.6-.6,10.6,10.6,0,0,1-4-.8c-1.8-.9-2.9-2.3-2.4-2.8s0-.3-.4-.3-.8.2-.8.5-1.2.4-1.7-.4-.2-1.1.9-2a3.1,3.1,0,0,1,1.9-.9c.4.2.7.1.7-.2s-.2-.4-.4-.2-.4-.4-.2-1.5.1-1.8-.7-2.2-1.1-1.6-.2-2.5.6-1,.4-1.3,0-.5.2-.4.5.1.5-.1-.7-.9-1.4-.2-.9.7-1.1-.2a2.5,2.5,0,0,0-2.3-1.5Zm83.2,140.6a1,1,0,0,1,0,1.3c-.2.3-.3.7-.1.9s-.7,2.7-1.2,2.7-.3.2-.3.5a1.9,1.9,0,0,1-.8,1.1c-.7.6-.7.7,0,1.2s.5,1.1-1.8.7a3.7,3.7,0,0,0-2.5.1c-.8.7-1.1-.3-.8-3.4.4-4.7.5-4.8,2.3-5.4a7.8,7.8,0,0,0,2-.9C643.2,620,645.2,620.7,645.9,621.6Zm-15.1,16.8c0,.6.2,1.3.5,1.4a1.1,1.1,0,0,1,.2,1,1.7,1.7,0,0,0,.2,1.5c.4.7.4,1,0,1.1s-.5,1.9.6,2.3a2.6,2.6,0,0,1,1.5,2.7,11.3,11.3,0,0,0,1.1,3c1.4,2.6,1.4,2.7,0,2.1s-1-.8-.9-1.2,0-1-.4-1.5a4.2,4.2,0,0,1-.6-1.5,6,6,0,0,0-1.3-2.2,5.2,5.2,0,0,1-1.4-2.2,19.1,19.1,0,0,0-.2-2c-.1-.8-.2-2.9-.3-4.8s-.1-3.4.4-2.2A11.4,11.4,0,0,1,630.8,638.4Zm15.7,19.9a13.1,13.1,0,0,1,.6,2.9,3.9,3.9,0,0,0,.6,2.4c.6.7.7,2.4.1,2.8s-.3,6.4.4,6.7.4.3.4.5-.1.3-.4.2-.4,0-.4.2a.5.5,0,0,1-.5.5c-.3,0-.4-.4-.2-.9a1.9,1.9,0,0,0-.1-1.5,14.7,14.7,0,0,1-1-5.3c.3-5.2.2-6.6-.3-7.6a4.7,4.7,0,0,1-.5-1.4C645.2,657.1,646,657.5,646.5,658.3Z" transform="translate(-68.9 -52.9)" />
      <path class="cls-1" d="M694.8,667.1a9.1,9.1,0,0,0-.7,2.5c-.1,1.8-.4,2.1-1.5,1.5s-.8-.5-.8,0a.9.9,0,0,0,.5.9c.3.1.1.1-.4,0s-1.2.1-1,1.7a1.5,1.5,0,0,1-.4,1c-.3.1-.5.6-.5,1.1s-.2.7-.6.6-.7,0-.7.4-3.1,3-5.4,3.8a10.4,10.4,0,0,0-2.2.9,2.3,2.3,0,0,1-1.4.4c-.8,0-1,.2-1,1.1a6.1,6.1,0,0,1-.8,2.5c-.9,1.3-.9,2.4,0,7.4.5,2.9.5,3-.8,5.4a19.6,19.6,0,0,1-1.6,2.8c-1.5,1.1-2.1,5-1,7.1a5.6,5.6,0,0,1,.4,3c-.1,1.2,0,2,.3,2.2a1.9,1.9,0,0,1,.5,1.1,2.8,2.8,0,0,0,2.3,2.2c.4,0,.7.2.7.4s2.3.5,3.2-.2a4.7,4.7,0,0,1,2.1-.6,3.7,3.7,0,0,0,3-3,2.9,2.9,0,0,1,.6-1.6,15.6,15.6,0,0,0,1.1-3.3,33.7,33.7,0,0,1,1.4-3.9,31.9,31.9,0,0,0,1.3-3.7,54.9,54.9,0,0,1,2.2-6.4,52.2,52.2,0,0,0,1.9-5.9c.5-3.1.6-3.6,1.2-3.5s.6-.3,0-3.6l-.3-1.9.9,1,.9,1.1.7-1.4c.5-1,.6-1.6.3-2.2a9.4,9.4,0,0,1-.5-2.8,16.7,16.7,0,0,0-.4-3.4c-.6-1.9-2.3-5.6-2.6-5.6A3.4,3.4,0,0,0,694.8,667.1Z" transform="translate(-68.9 -52.9)" />
    </g>
    <g>
      <path class="cls-1" d="M736.9,332.5c-3,.8-3.2.9-2.2,1.3s.8.4-.1.4-1.7.8-.5,2,1.9,1.4,2.2.5.3-.4.3,0,.4.6.7.6.7-.3.7-.6.1-.4.3.1a.9.9,0,0,0,1.1.3,4.5,4.5,0,0,1,2.6.4,58.4,58.4,0,0,0,11.1,1.5c1.9,0,2.9-.8,1.5-1.2a1.1,1.1,0,0,1-1-1c0-1-1-1.3-4.4-1.5s-4.5-.6-3.9-1.3-.2-.6-2.3-1.1C738.8,332.1,738.7,332.1,736.9,332.5Z" transform="translate(-68.9 -52.9)" />
      <path class="cls-1" d="M765.1,342a1.7,1.7,0,0,0-1,2.5c.4.5.2.6-1.4.6a4.1,4.1,0,0,0-2.2.4c0,.2-.9.5-1.8.6s-1.5.2-1.3-.2-8-.1-8.8.7a8.4,8.4,0,0,1-3.5.8,12.7,12.7,0,0,0-4,1,2.6,2.6,0,0,1-2.1.4c-.6-.1-1,0-1,.2s-.4.5-.7.5a.8.8,0,0,0-.7.7c0,.5-.1.6-.3.2s-1.7-.6-2,.2a1.1,1.1,0,0,0,0,1c.2.1.4,0,.5-.3s.4-.4,1.2.2a3.3,3.3,0,0,0,1.8.5.8.8,0,0,1,.9.4c.3.7-3.2.8-3.6.1s-.6-.4-1-.4-.6.1-.1.4-.4.8-4.7,1h-3.7l1.3,1.1a21.5,21.5,0,0,1,2.2,1.9,5.2,5.2,0,0,0,2.9,1.1c1.1.1,2,.4,2,.6s.4.4.8.5.1.3-.7.3a5.5,5.5,0,0,1-2.6-.6c-1-.5-3.7-1.1-8.2-1.8a1.9,1.9,0,0,0-1.9.4c-.5.6-.4.7.5.8s.8.1-1.1.6-1.2.3-.4.9a13,13,0,0,0,2.3,1c1.5.5,1.5.5-.6.3s-3.3-1-3.3-2.5-1.8-2.5-2.5-2.5a3.3,3.3,0,0,1-1.4-.6c-.6-.4-1-.4-1.4,0s-.1.6.9.9a2.7,2.7,0,0,0,1.9.2c.2-.1.3,0,.1.2a.6.6,0,0,0,.2.8c.8.5.4,1-.9,1.3s-1.3.6-1.3.9a.8.8,0,0,1-.5.7c-.3.1.6.7,2,1.4s2.4,1.3,2.2,2.7-.1,1.5.6,2a1.6,1.6,0,0,1,1,1.2c0,.5.6.5,3.1.3s3-.2,1.5.2-2.5,1.5-.9,2.8,1.2,1.1.7,1.6a2.5,2.5,0,0,0-.5,1.5c0,.7-.4,1-1.3,1.2s-1.3.6-1.3,1-.3.6-1.4.4a3.7,3.7,0,0,1-1.9-.8c-.3-.3-.2-.3.3-.1s.9-.2,1.4-1.6a7.8,7.8,0,0,1,1.1-1.7c.2,0,.3-.6.3-1.4s-.3-1.6-1.9-2.3-1.9-1-1.9-1.3a8.8,8.8,0,0,0-.9-2,9.2,9.2,0,0,1-1.1-2.3,3.1,3.1,0,0,0-2.5-2.3c-.9-.2-1-.4-.7-.7a2.7,2.7,0,0,0-.2-3.1c-.4-.5-1.5-.9-3.6-1.1s-2.3-.4-1.4-.4,1.5-.1.7-.7-4.4-1-4.1-.2a1.5,1.5,0,0,1-.4,1.2,3.9,3.9,0,0,0-.6,2.2c0,1.5-.1,1.9-1.3,2.4s-1.7,1.9-.2,2.4a1.6,1.6,0,0,1,1.1,1.7c0,1.4,1,2.5,1.9,2.1a3.4,3.4,0,0,1,1.8.6,11,11,0,0,0,2.3,1.3c1,.4,1.3,1.1.7,1.4s-1.7-.3-3.4-1c-4.4-1.8-5.2-1.7-3.2.4a7.4,7.4,0,0,1,1.6,2c-.1,1.5-4.8,4.9-9.2,6.6a7.8,7.8,0,0,0-2.5,1.3c-.3.3.3,2.1,2,5.9a36.2,36.2,0,0,1,3.6,15.3c0,2.6.6,4.2,2.3,5.6s1.2,5.6-1.7,5.6a3.1,3.1,0,0,0-2.1.9c-.7.8-.7.9.3,2.1l2.1,2.9c1.5,2,2.9,2,4.8,0s3-2,4.1-.2.7,1.6.3,3.4-.5,2.1.3,2.7c2.9,2.1,2.9,2.1,2.4,2.5s.1,1.3,2.4,2.1,2.2,3.5-.9,3.1c-1.2-.2-1.8-.1-1.9.4s-1.4.8-2.2-.1a2.8,2.8,0,0,0-1.5-.6c-.4,0-.8-.2-.8-.5s-.7-.4-2.1-.2a9.1,9.1,0,0,1-4.7-.7c-2.8-1-8.2-1.3-9-.4a5.3,5.3,0,0,1-2.7.5,15.4,15.4,0,0,0-3.9.5c-1.6.4-1.6.4-1.3,2.2s.8,3.2,2.6,5.3,1.5,1.9,1.4,3.1a2.2,2.2,0,0,0,1.1,2.5c.6.4,1.2,1.1,1.2,1.4s1.4,1.2,3,.9a1.5,1.5,0,0,1,2,.8c.7,1,1.2,5.2.6,4.8l-2.5-.3c-2-.2-2.2-.1-2.7.9s-.4,1.2-.2,1.4-.4.4-1.1.4-1.3.1-.9.9a1.8,1.8,0,0,0,1.1.9,2.3,2.3,0,0,1,1.4,1.3c.4.7.9,1.3,1.1,1.3s.3.4.3.9.2.8.6.6.7,0,.9.3a2.8,2.8,0,0,0,1.6.9c1.5.2,1.7.6,1.4,2.6s-.1,1.7.2,1.7,2,2.6,1.7,3.6.7,3.2,1.5,3,.6.2.5,1.3-.1,1.3.5,1.1,1.9,1,2.4,4a15.5,15.5,0,0,0,.7,3.5c.2.6-.4.8-2.7,1.5s-5.3.5-7.7-1.5a6.5,6.5,0,0,0-2.7-1.3c-1.3,0-2.4-1.3-2.7-3.3s0-1.7.4-1.9a4,4,0,0,0,.6-2.5c0-2,0-2.1,1.2-2.1s1.2-.2,1.2-.4-.6-.4-1.4-.3-11-4.3-14.7-7.6l-2.9-2.4-2.3.2c-2.1.3-2.6.1-4.4-1a14.9,14.9,0,0,0-3.5-1.6,9.1,9.1,0,0,1-3-1.1,2.3,2.3,0,0,0-2.5-.3l-1.2.4,1,1a16.2,16.2,0,0,0,3.5,2.3c1.9.9,2.7,1.6,3.3,2.8,1.4,3-.5,4.3-6.5,4.5-2.3.1-4.2,0-4.2-.2s-.5-.4-1.2-.4-1.5-.2-1.6-.5a1.3,1.3,0,0,0-1.1-.2,1,1,0,0,1-1.3-.6c-.4-.7-.7-.9-1.4-.6a1.5,1.5,0,0,1-1.6-.6c-.7-.8-1-.8-4.3-.6s-6.1,1.4-7.3,2.9-1.3.5-3.7.2-4.5.1-3.4,1.2-.6,1.6-4.7,1.7a13.6,13.6,0,0,0-4,.5c-.1.3-.5.3-.8.2s-.6,0-.6.3.3.4.6.4.7.4.7,1.1.3,1.3,1.6,1.2.4.2.4.6a2.7,2.7,0,0,0,.1,1.3,3.3,3.3,0,0,1,.4,1.3c0,.5-.1.6-.1.3s-1.4-.6-1.3.4.5,1.1,1.6,1.5,1.2.6.9.6-.5.2,0,1a4.6,4.6,0,0,0,.9,1.2c.2.2,0,.6-.4.8s-.7.6,1.3.6.8.1.2.2-.8.4-.8.7.3.3.6.1.7,0,.7.2.3.4.7.4.6-.2.6-.4,2.1-.1,3.1.9a3.3,3.3,0,0,0,2.6.8c1.7-.2,1.9-.5,1.8-2s3.3-.2,5.3,1.7,4.9.7,6.1-.8,1.6-1.3,2.9-.5,1,.4,1.7-.3,1.7-.6.7.5-.6.8-.3,1.1a1.3,1.3,0,0,1,.1,1.4,1.4,1.4,0,0,0-.1,1.4c.5.5.9,3.5.5,3.9a38.5,38.5,0,0,0-2.6,8.1c-.5,2.7-1.5,3.9-3.1,3.9l-2.4.2c-1.3.2-1.5.4-1.5,1.5s.9,5,1.8,6a3.7,3.7,0,0,1,.8,1.5c0,.7,3.2,4.2,3.7,4.2a2,2,0,0,0,.9-.6,2.6,2.6,0,0,1,1.6-.7.8.8,0,0,1,.8.7c0,.3.2.6.4.6a.5.5,0,0,1,.5.5,2.8,2.8,0,0,0,.8,1.3,28.6,28.6,0,0,1,1.6,2.5,13.6,13.6,0,0,0,1.6,2.5c1.1,1.1,2.2,3.3,1.9,3.6s1.2,2.7,1.8,2.7a.9.9,0,0,1,.8.7c.2.3.5.5.8.3s.3,0,.1.2a2.2,2.2,0,0,0,.6,1.6,4,4,0,0,1,.9,1.7,1.5,1.5,0,0,0,.4,1c.3.2.4.9.3,1.9s-.1,1.8.4,2.2a1.9,1.9,0,0,1,.5,1.4c-.2.5.1,1,.8,1.5a4.2,4.2,0,0,1,1.3,1.4,4.8,4.8,0,0,0,1.4,1.6c.7.4,1.3.9,1.2,1.1s.3.5.9.8,1,.8,1,1.8a2.5,2.5,0,0,0,.8,2c.4.3.8.7.8.9a5.3,5.3,0,0,0,1.6,2,7.1,7.1,0,0,1,1.6,2.3c0,.4.2.6.4.6s.6.6.9,1.4.5,1.4-.4.6-.7-1-.6-1.1-.1-.3-.5-.2-.6.1-.6-.3-.2-.6-.6-.7-.7,0-.5.6.2.8-.4,0-.8-.6-.8-.4,2,4.1,2.3,3.8,2.3,1.6,2.4,2.4a1.8,1.8,0,0,0,.3,1.1,41.7,41.7,0,0,1,1.8,6.3c.2,2.1.8,3,2.3,3.3s1.7.1,2-.2a1.2,1.2,0,0,1,1-.2c.3.1,1.2-.4,2-1.1a4,4,0,0,1,2.8-1.3c1.5,0,4.3-1.1,4.7-1.8a3.4,3.4,0,0,1,1.8-.4,2.6,2.6,0,0,0,2.3-1.1c.6-.8,2.2-1.6,4.5-2.4,4.3-1.6,6.3-2.7,6.1-3.5s.5-2.1,2.3-2.8,3.8-1.5,5.2-1.5a2.1,2.1,0,0,0,2.5-2.2c.1-.8.5-1.2,1.5-1.2s2.4-.9,2.4-1.9,1.6-2.1,2.9-2.1.9-.3.8-2.7.5-3.6,1.6-2.4.7.5,1.3-.1.6-2-.1-1.6-.4-.6.6-1.8,2.5-3.8,2.5-4.7a.8.8,0,0,0-.9-.7,1.2,1.2,0,0,1-1.2-.9c-.1-.4-.4-.8-.6-.8a.5.5,0,0,1-.4-.5c0-.9-1.4-1.8-3.4-2.2-3.9-.7-5.8-3.2-5.8-7.4s-.5-3.2-1.5-1.4-6,7-6.6,6.8-.5,0-.5.2-.7.3-1.6.2-1.5-.3-1.5-.6a.4.4,0,0,0-.4-.4.7.7,0,0,0-.5.7c0,1-.8,1.2-1.7.5a2.4,2.4,0,0,0-1.3-.7c-.3,0-.4-.3-.1-1s.1-5.3-.5-5.6-1.5-.3-2.1,1.4l-.5,1.7-.8-1.2c-.9-1.4-1-1.9-.4-1.9s.5.3.5.7.2.6.4.4a1,1,0,0,0-.4-1.8c-.5-.1-.9-.4-.9-.6s-.1-.6-.2-.8-.4-.7-.9-1.1a1.9,1.9,0,0,1-.9-1.2.5.5,0,0,0-.5-.5c-.3.1-.6,0-.6-.2s-.3-.6-.8-.7-.9-.6-.9-1-.2-.6-.3-.6-2.4-4.1-2.1-5,.2-.7-.1-.3a.7.7,0,0,1-1,.1c-.5-.3-.5-.4,0-.4a2.5,2.5,0,0,0,1.4-.8c1.4-1.5,1.9-1.8,2.7-1.3a2.6,2.6,0,0,0,1.5.2c.5-.2,1,.2,1.7,1.1a5.1,5.1,0,0,1,1,2,.8.8,0,0,0,.4.6,8.5,8.5,0,0,1,1.6,2.3,5.3,5.3,0,0,0,2.8,2.6,9.1,9.1,0,0,1,2.8,1.7,4.7,4.7,0,0,0,1.9,1.2c.6,0,.6,0,.2.4s-.2.4.9.6,1.5.5,1.4.7-.1.4.1.4a.5.5,0,0,0,.5-.4q0-.5.9,0a1.7,1.7,0,0,0,1.3.2,6.4,6.4,0,0,1,2.1-.5c1.7-.2,2.8-.9,2.4-1.5s1.5-.4,1.9.1a11,11,0,0,1,.8,2.4c.6,2.1,2.2,3,6.3,3.4a44.4,44.4,0,0,1,6.1,1c1.9.4,5.7.5,5.7.1a3.3,3.3,0,0,1,1.7-.1c1.1.2,1.8.1,1.8-.2s.5-.3,1.5-.1a13.2,13.2,0,0,0,4.4-.1c3.3-.5,4.1-.3,4.1,1a.7.7,0,0,0,.8.8c.5,0,.9.5,1.1,1.2s1.5,2.8,2.3,2.8a3.2,3.2,0,0,1,1.9,1.3c1.8,1.8,3.6,2.6,5.3,2.3s1.4-.2.6.5a4.1,4.1,0,0,1-3,.7c-.4-.1-.7.1-.7.4s6,6.5,6.8,6.5c2.3-.1,5.5-3,4.5-4s-.1-2.1.4-2.1.2.5.1,1.1,0,1.1.3,1.1.4.2.3.4,0,1.1.4,1.9a4.5,4.5,0,0,1,.4,2.8,6.5,6.5,0,0,0,.2,3.1l2.5,9.3a37.1,37.1,0,0,0,2.1,5.7c1,1.7,2,3.9,2.4,4.7a18.8,18.8,0,0,1,1.5,4.1,22.6,22.6,0,0,0,2.1,4.8c1.7,2.4,3.8,7.5,3.8,8.8s2.4,4.8,3.5,5.4a2.4,2.4,0,0,0,3.2-2.1c.3-1.4,1.8-2.1,3.4-1.6s.9.1.7-.3a.9.9,0,0,0-.8-.6c-.7,0-.7-.4-.2-2.1s.7-1.2,1.4-1.2,1.1-.1.8-1.2-.4-5.7.1-6.3.8-4.4.1-7.7-.6-5.9,1.2-5.5,1.1.1,1.3-.8.5-1.1.8-1.1a2.7,2.7,0,0,0,2.8-2.3c0-.6.2-1.2.4-1.2s5.1-4.4,6.5-6.5a9.1,9.1,0,0,1,3-2.9,21.1,21.1,0,0,0,2.7-1.8c1-.9,1.1-1.4.9-3.6-.1-.5.1-1.2.5-1.3l1.6-.9c.8-.4,1.1-.4,1.3.2s1.9.5,4.2-.2a7.1,7.1,0,0,1,2.4-.4c1.5-.1,3.3-1.5,3-2.3s-.1-.9.1-1,.4.2.6.7.4.8.6.6,1,.7,1,2,.9,2.7,2.9,4.9a6,6,0,0,1,1.4,2.1c0,.2.4.4.8.3s2,.7,1.7,1.5a2.1,2.1,0,0,0,.2,1.3c.3.5.3.8-.1.8s-.4.1,0,.5.6.4.8,0,1.3-.1,2.3,2.1.8,2.5.6,5.3l-.2,3.3,1.2.3c2.4.7,3.2.6,3.8-.3a8.6,8.6,0,0,1,2.2-1.9,3.2,3.2,0,0,0,1.6-2.1c0-1.3,2.9,4.7,3.3,6.9a10.1,10.1,0,0,0,.8,2.9,5.3,5.3,0,0,1,.6,2.3c0,.7.3,1.1.7,1.1s.8.6,1,1.4.7,2.1-.1,1.9-.6-.1-.4.4.4.7.6.7.2.6-.1,1.3-.6,1.2-.8.8-.4-.4-.4-.2a1.3,1.3,0,0,0,1.5,1.4,1.2,1.2,0,0,1,.7,2c-.3.3-.6.3-1.1-.1s-.7-.3-.7-.1.4.7.8.9,1,3.4.4,6,.1,5.6.7,5,2-.5,2,.5.1.9.5.3.4-.5.4,0a6.9,6.9,0,0,0,1.3,2.2c1.2,1.5,1.3,1.8.7,2.1s-.7.5-.1.9.7.5.7-.2.1-.7.7.1a6.5,6.5,0,0,1,.5,2.7c0,1,.1,2,.4,2.2a4.3,4.3,0,0,1,.8,2.1,5.5,5.5,0,0,0,1.3,3,4.1,4.1,0,0,1,1.1,2.2c0,.7.8,1.5,3.2,3s4.2,3.1,4.1,3.8-.1.4,0,.2,1.5-.3,1.3.4-.1.7.4.4.6.1.6.7.2.8.5.8.4-.4.2-.9-.1-.8.4-.4.6.4.9,0-.2-1.3-1.5-1.3-.9-.2-.4-.3.8-.5.8-.8-.2-.6-.3-.5-.4-.3-.4-.8a6.3,6.3,0,0,0-1.3-2.6c-1-1.4-1.2-2-1.2-4.7a12.7,12.7,0,0,0-.4-4.4c-.5-1.3-4-5.1-4.6-5.1s-.7-.6-1.1-1.3-1.1-1.3-1.6-1.1-2.5-.9-3.1-3.3a7.9,7.9,0,0,0-1.1-2.8c-.6-.5-1.2-3.2-.7-3.2s.4-1.2,0-1.6-.3.1-.3.7-1.3,1.7-1.8.8-.2-4.5.6-7.3a21,21,0,0,0,.9-5c0-2.6.1-2.7,1.3-2.8s1.1,0,1.1,1.6.1,1.7,1.6,1.7,3.2.8,3.2,1.7.3.6.8.5,1,.4,1.5,1.4.7,1.8.8,2,1.5,2.4,2.2,2.4.3-.3.1-.6-.1-.4.1-.2.5.6.6,1.8.9.8.9-.3.1-.8.8-.2a5.1,5.1,0,0,0,1.6.9c.6.3.7.4.3.7s-.6,5.3.2,5.3a1.8,1.8,0,0,0,1.1-.9,8.7,8.7,0,0,1,2.4-2,4.4,4.4,0,0,0,2.5-3.9.4.4,0,0,1,.6-.3c.7.1,3-1.1,4.4-2.3a3.7,3.7,0,0,1,1.6-1.1c.7,0,1.1-2.3.9-4s0-1.1.2-1,.4-.1.4-.6a1.4,1.4,0,0,0-.4-1.1,5,5,0,0,1-.6-2.3,13.9,13.9,0,0,0-.9-3.4,5.3,5.3,0,0,1-.7-2,4.2,4.2,0,0,0-1.3-1.9,4.7,4.7,0,0,1-1.3-1.8c0-.3-.4-.7-.9-.8s-6.1-5.3-6.1-5.9a8.6,8.6,0,0,0-1.5-2,3.7,3.7,0,0,1-1.5-3.5c0-1.3.2-2.1.6-2.2a4.3,4.3,0,0,0,1.3-1.7c.4-.9.9-1.4,1.1-1.3s.5-.1.6-.4a.8.8,0,0,1,.8-.6c.3.1.5-.2.5-.6s2.9-1.9,4.1-1.4a5,5,0,0,0,1.8.2c.8-.1.9.1.7.6s1.1,4.1,2.1,4.2,1.3-1,.7-2.2-.3-.9,0-.7.5-.1.5-.6.2-.9.5-.9l1-.2h1c.3-.1.4-.3.2-.7s-.1-.3.2-.1a.6.6,0,0,0,.8-.2c.1-.3.6-.3,1.3,0s2.1.5,1.7-.3,0-.5.2-.4.5.1.5-.2.2-.3.4-.1,1.3-.7,1.1-2.1-.2-1,.3.1,2.1,1.8,2.1.9.8-.9,1.8-1.3,1.6-.8,1.4-.5,0,.4.2.4a.5.5,0,0,0,.5-.4c0-.3.1-.4.3-.4s2.4-.2,2.9-1.3a2.2,2.2,0,0,1,1.3-1.5,4.4,4.4,0,0,0,1.8-1.6c.5-.7,1.1-1.3,1.4-1.3s1.6-1.6,1.2-2.3-.1-.4.1-.2,1.5-.8,1.2-1.2.1-.2.6-.2,1-.3,1-.7-.2-.6-.4-.5-1-1.5-.5-2.1.3-.7.1-.8,0-.3.2-.3.6-.4.6-.8a1.9,1.9,0,0,1,.4-1.2c.3-.1.4-.7.4-1.3s.5-2.4,1.2-2.4a.6.6,0,0,0,.6-.5c.2-1.6.2-2.4-.2-3.1s-.1-.7.2-.6.5-.8.6-2.6-.1-2.7-.3-2.7a.4.4,0,0,0-.4.4c0,.2-.1.6-.1.8s-.7,1-1.4.3a1.8,1.8,0,0,0-1.7-.5c-1.5.4-.9-.8.7-1.6s1.6-1,.8-1.4-.3-.4-.2-.6-.3-.5-1-.6-2.1-1.4-1.1-1.8.5,0,.5.2a.6.6,0,0,0,.4.7.4.4,0,0,0,.6-.4c0-.5-1.5-1.8-3.7-3.3a4.2,4.2,0,0,1-1.1-1.4c-1.8-3.1-3.7-5.1-5.7-6.1s-2.1-1.1-1.9-2.1a7.4,7.4,0,0,1,1.6-2.3c1.2-1.3,1.6-2,.7-1.4s0-.3.8-1.1a4.4,4.4,0,0,1,2.8-1.4c1,0,1.2-.1,1.2-1s-.2-1.5-2.7-1.8a7.8,7.8,0,0,1-2.8-.6c-1-.5-3.4-.2-3,.3s-.1.7-.4,1.1-.8.8-1.7.4a1.9,1.9,0,0,1-1.1-1.3,2.3,2.3,0,0,0-2.6-2.2c-2-.1-3.5-1.1-3.5-2.5s.1-1.1.7-.9a2.2,2.2,0,0,0,3-1.4,4.3,4.3,0,0,1,1.5-2.1c.7-.4,1.3-1.1,1.3-1.4a1.8,1.8,0,0,1,2.3-1.5c1.8.3,2.3,1.2,1.6,2.6s-.8,2,.2,2.7.7.7.1,1.3-.5,1.4.2,1.4a14.1,14.1,0,0,0,2.1-1.8c1.4-1.5,2.1-1.9,3.7-2a5.6,5.6,0,0,1,2.7.1,2,2,0,0,0,1.2.2,2.7,2.7,0,0,1,1.2.4c.7.4.8.9.8,3.4s.2,2.8.5,2.3.4-.5.4-.2,2.1,1.5,2.4,1,.6-.2,1.1,0,.9.4.9.3.4,0,1,.4,1.5,2,.7,2-.5.7.8,2,2.2,2.6,1.9,2.9-.4,2.7.1,3a2,2,0,0,1,.5,1.3c0,.9.1,1,1.9.9s2.1-.3,2.1-.6a1.2,1.2,0,0,1,1-.4c.5,0,.8-.2.8-.4s.3-.3.7-.2,2.4-1.4,2.4-2.6-2.6-6.2-4.7-8.2l-2.9-2.9a9.2,9.2,0,0,0-2.6-1.9,7.2,7.2,0,0,1-2.2-2c-.7-.9-.6-1,.5-1.7a10.2,10.2,0,0,0,2.4-2.3c1-1.5,1-1.7.5-2.8s-.6-3.6.2-3.4.5-.3.5-.8.2-.8.4-.7.6-.2.8-.9.5-1,.5-.6.2.4.7-.2.6-.7.7-.2,3,1.9,4.4,1.4,3.8-3.4,3.8-4.4a26.2,26.2,0,0,1,1.7-6.3c.3-.3.4-2.3.4-4.4a17.5,17.5,0,0,1,.5-5c.3-.9.1-1.6-.7-3.5a8.3,8.3,0,0,0-1.5-2.7c-.3-.2-.4-.5-.2-.6s-.2-.6-.6-1-3.3-5.7-2.2-5.7,4.3,2.8,4.6,3.7a9.8,9.8,0,0,0,1.7,2.4,23.8,23.8,0,0,1,2.4,3.5,10.7,10.7,0,0,0,2.2,3.1,7.1,7.1,0,0,1,1.8,2.7c.2.9.6,1.6.8,1.6s.6.6.9,1.4a9.1,9.1,0,0,0,1.8,2.7L958,449l-.3-1.6c-.3-1.5-.2-1.5,1-1.3a4,4,0,0,1,2,1.1c.6.8.7.8.7.2s-1.4-2.5-2-2.5a4.3,4.3,0,0,1-1.6-1,11.8,11.8,0,0,0-2.2-1.7,7.8,7.8,0,0,1-1.7-2.7,20.7,20.7,0,0,0-1-2.6c-.4-1.1,1.7-1,3.8.3s2.1,1.3,2.1.8-.6-.7-1.4-1.2a20.3,20.3,0,0,1-3.2-2.6c-.9-1-3.5-3.3-5.6-5.2s-4.1-4-4.4-4.7-2.5-3.4-3.1-3.4-.9-.5-1.5-1.2-2.4-2.3-3.2-2-.4.4.7,1.1,1.3.8.6,1.7-.8,1-.2,1.4,2.3,2.9,2.1,3.2-2.6-2.2-2.6-2.9a9.2,9.2,0,0,0-2.7-1.8l-3.9-1.9c-1.5-.8-5.3-1.2-4.7-.5s-.2,2.5-.9,2.5-.4-.4-.4-.9-.3-.9-.6-.9a.8.8,0,0,1-.7-.8c0-.5-.2-.9-.5-.9a.4.4,0,0,1-.2-.6c.3-.9-1.3-2.2-2.2-1.8a2.1,2.1,0,0,1-1.3.2,1.2,1.2,0,0,0-.8.4c-.3.4,1,.6,3,.6s.7,0,.3.2-.3.4.2,1,.5.9.3.9-.4.4-.2.9-.1.5-.7-.5-1.1-1.6-3.1-1.8c-3.7-.5-3.8-.6-2.1-2.7s2.6-3.7,2-3.9,1.3-4.2,1.9-4.2.1-.5-.1-1.1-.2-1.2.2-1.4a1.4,1.4,0,0,0,.7-1.3,1.3,1.3,0,0,1,.9-1.4c1.4-.6,7.7-.6,8-.1a1.9,1.9,0,0,0,1.2.5c.4,0,.7-.2.6-.4s1.4-.2,3.3-.2,3.5.1,3.3-.8-.1-.8.5-.6a20.9,20.9,0,0,0,4.1.7,4.4,4.4,0,0,1,1.5.2c.9.2.9.4.6.8s-.1,1.1,1.3,1.1c3.5,0,4.3-.1,4.3-.4s.5-.4,1.2-.2a6.9,6.9,0,0,0,2.5-.2c1.5-.6,1.1-1.1-1.8-1.8s-2.1-1.1-1.4-3.1a7.1,7.1,0,0,0,.5-2.6c.1-1.3.2-1.4,1.8-1.6h4.8c.7,0,1.1.2,1.1.6s1.7,2.4,2.3,2.1.7.2,1.2.8.8.8.9.4.1-.5.3-.3.5-.4.7-1.2.8-1.4,1.7-1.5,1.8-1,.8-1a4.7,4.7,0,0,1-1.6-1.2c-1.1-1.1-1.1-1.1-.2-1.4s2.3-.1,1.9.5,2.1,3.4,2.7,3.4.5,1.5-.5,2.4a2,2,0,0,0-.8,1.9,2.4,2.4,0,0,1-.3,1.7,2.3,2.3,0,0,0-.2,1.9c.3,1.6-.3,3.4-1.2,3.4s-.7.2-.7.5-.4.4-1,.4-1,0,.2,1.1a2,2,0,0,1,.9,2.1c-.3,1.8,1.9,4.8,7,9.1a46.1,46.1,0,0,1,3.9,3.6c1,.9,2.7,2.4,3.8,3.2a28.6,28.6,0,0,1,3,2.8,21.8,21.8,0,0,0,2.2,2.1l1.3.9.7-1.4a3.7,3.7,0,0,0-.5-4.4c-.8-.6-.8-1.9,0-2.2a2.5,2.5,0,0,1,1.7,0c.8.2.6-.2-.9-1.5s-1.9-1.9-1.6-2.7.5-.9,1.8-.7,1.5.2,1.4-.5a4.7,4.7,0,0,0-1.9-1.9c-2.6-1.8-3.7-4.5-1.3-3.4.6.3,1.2.4,1.4.2s-1.6-2.5-2.5-2.5-3-1.9-3-2.8-1.7-1.6-2.9-1.3a2.8,2.8,0,0,1-3-3.2c.2-1,0-1.5-.9-2.4s-1-1.4-.1-1.2l1.3-.4c.5-.3.8-.3.6-.1s0,.5.4.7a.7.7,0,0,0,.9-1c-.6-.9,1-.7,1.9.2s1.8,1.1,1.8-.2,4-1.8,7.3-.2,3,1.1,2.3-.1-.1-1,.6-1.8a4.3,4.3,0,0,0,1.3-2.1,2.3,2.3,0,0,1,1.6-1.4c.7-.3,1.2-.7,1.2-.9a.6.6,0,0,1,.6-.5,1.9,1.9,0,0,0,1.2-.7c.6-.7,2.3-.6,5.8.1,1,.2,1.1.1,1.1-.6a1.2,1.2,0,0,0-.9-1.2,6.8,6.8,0,0,1-1.7-.9,5.4,5.4,0,0,0-1.7-.9c-1.7-.6-6.5-3.4-6.5-3.8a3.3,3.3,0,0,1,.8-1.2c1.1-1.2.5-2.3-1.8-3s-1.6-.6-1.4-.9,1.4.2,2.7.9a10.1,10.1,0,0,0,5.5,1.2,9.5,9.5,0,0,1,5.3,1.1,8.2,8.2,0,0,0,3.1,1.2,24.9,24.9,0,0,1,3.6.8c2.5.8,2.7.8,3.1.1s.4-.6.2.1.9,1,1.9.3.5-.5-.3-.7-.8-.4-.7-.7,0-.3-.2-.3a2.4,2.4,0,0,1-1.3-.9c-.9-.8-.9-.8.2-1s1.3-.4,1.4-.7,0-.5-.5-.4-.6.1-.5-.2-.3-.9-1-1.3-9.5-3-12.7-3a10.6,10.6,0,0,1-5.1-1c-2.3-1.2-21.9-6.1-28.3-7.1-2.1-.3-5.5-.7-7.6-.8a86.4,86.4,0,0,1-11.5-.9c-.7-.2-.7-.1.3.9a5.5,5.5,0,0,0,1.6,1.1,6.9,6.9,0,0,1,2.1,1l1.6,1h-1.2a2.5,2.5,0,0,1-1.8-.3,5.9,5.9,0,0,0-2.6-.7,5.4,5.4,0,0,1-2.2-.7c-.1-.2.2-.2.6-.1s.9,0,.9-.2-.1-.5-.3-.5h-1.9l-1.5-.2,1.5-.3,1.6-.3h-1.4c-2.7-.3-3-.2-3,.4s-.5.7-2,.6H929.6c-1.5.2-5.2-.7-5.2-1.3s-2-1.7-5.5-2.6-4.3-.6-9.8-.4-7,.2-8.3-.4a23.6,23.6,0,0,0-3.6-.9c-3-.3-4.2-.7-3.9-1.1s-8-2.3-9.3-1.2-.6.4-.4.1-.5-1-8.6-1.7-8.6-.8-7.2,0l1.1.6h-1.6c-1.3,0-1.6.1-1.4.6s.7.7,1.4.7.9.1.7.3.3.5,1,.8l1.2.6-1.3-.3-2.2-.2h-3.6a14.6,14.6,0,0,0-3.7.4,6.2,6.2,0,0,1-3-.1l-2.9-.5c-.4,0-.8-.2-.7-.4s0-.3-.3-.3-.4.4-.3.7c.9,3,1,2.8-.6,2.5a17.9,17.9,0,0,1-7.3-3.6,4.6,4.6,0,0,0-2.1-1.3.6.6,0,0,1-.6-.6c0-1.2-7.8-3.4-8.5-2.4s-.5.2-.7,0a5.3,5.3,0,0,0-1.7-.4l-3-.6c-1.4-.3-2-.3-2.1,0s-.3.4-.6.2-.4,0-.4.2.4.7.9,1a2.4,2.4,0,0,1,.9.8c0,.2-3.7.2-7.9-.2l-3.2-.2c-.7,0-.8-.1-.3-.4s.4-.5.2-.7-11.2-.4-11.8-.1-3.6-1.3-3.6-2.1-.6-.6-2-.6-2,.1-2.2.8-.5.7-1.1.6H793c-.5.3-.6.4-.2.9s.3.8-1.1,1.1-4.2.6-3.9,0a2.2,2.2,0,0,1,1.3-.4c.6,0,1.3-.3,1.4-.6s1.6-1.3,4.2-2.6a6.3,6.3,0,0,0,2.3-1.5c.4-1-1.5-2.7-2.8-2.6s-.9.1-.6,0,.4-.3-.2-.8-1.6-.8-1.2-.2-.3.6-1.2-.3-1.8-.7-6.1-.7a31.3,31.3,0,0,0-6.4.3c-.8.3-.9.3-.8-.2s-.5-2.1-1.2-2.1-.6.2-.4.4-1.5.5-2.6-.2S766.4,341.4,765.1,342Zm33.8,10.5c.5.3.3.4-.7.4s-1.4-.2-1.4-.4S798.1,351.9,798.9,352.5Zm-68.5,16.6c1,1.2.5,1.4-.7.4a3.8,3.8,0,0,0-1.6-.9,1.9,1.9,0,0,1-.8-.3C726.9,367.5,729.6,368.3,730.4,369.1Zm271.8,6.1c.1.2-.1.3-.4.1s-.9-.6-.3-.6A1,1,0,0,1,1002.2,375.2Zm-8.3,7.4c.3.5-.7.5-1.5,0s-.5-.5.3-.5S993.8,382.3,993.9,382.6ZM842.4,414.2c1.7,4.1,1.9,4.9,1.4,5.7s-.5.7-.2,0,0-.7-.2-.7-.5.3-.5.8.3.9.8.9.6.1.3.3a2.8,2.8,0,0,0-.8,1.2c-.1.6-1,1.2-2.1,1.6s-1.9.8-1.7,1.8-.1,1.2-1.6,1.7a3.3,3.3,0,0,1-2.8,0c-.9-.4-.9-.5.3-.5s2.9-1,2.9-1.8a2.5,2.5,0,0,1,.9-1.3c.4-.5.8-1.2.6-1.5s0-.8.3-.9,1.9-4.4.9-7.7C840.5,412.6,841.8,412.9,842.4,414.2Zm-83.8,31.5c.1.2,0,.5-.4.6a1.3,1.3,0,0,0-.6,1,.7.7,0,0,1-.7.6c-.4,0-.7.4-.7,1.4s0,1.3-.6.8-.9-2.6-.1-2.6.4-.2.2-.3,1.1-1.8,1.9-1.9A1.3,1.3,0,0,1,758.6,445.7Zm2.6-.1h-1.1c-.3-.1-.1-.2.5-.2S761.4,445.5,761.2,445.6Zm5.9.6c.5.3.3.4-.6.1s-2-.6-.8-.6A3.4,3.4,0,0,1,767.1,446.2Zm2.7-.1c0,.3-.4.4-.9.4s-.9-.2-.9-.4.4-.4.9-.4S769.8,445.9,769.8,446.1Zm-52.5.8a1.1,1.1,0,0,1-.8,0c-.3-.1-.2-.3.3-.3S717.5,446.7,717.3,446.9Zm-3.3,1.9a.5.5,0,0,1-.5.4c-.2,0-.3.2-.2.5a1.5,1.5,0,0,0,1.2.2c.6-.2.8,0,1.1.8a3.4,3.4,0,0,0,.8,1.6c.5.4.5.7-.1,1.8s-.8,1.2-1.3,1l-1.3-.2c-.4,0-.6-.6-.6-2.4a5.5,5.5,0,0,0-.4-2.6c-.3-.2-.2-.5.1-.9S714,448.2,714,448.8Zm-1.5,2.2c.4,1.4-.3,1.9-.9.6s-.8-1.5,0-1.5S712.3,450.5,712.5,451Zm-1.3,3.4c-.3.2-1.1-2-1.1-2.9s.3,0,.7.9A5.4,5.4,0,0,1,711.2,454.4Zm-12,9.7a7.5,7.5,0,0,0,1.9,2.2c.7.7,1.1,1.2.8,1a.9.9,0,0,0-1.2.5c-.5.6-.8.6-.9.2a1.6,1.6,0,0,0-1.1-.5c-1.2,0-2.1-1.2-2.1-2.7S698.4,462.5,699.2,464.1Zm-54,49.8c0,.4-.2.7-.5.7s-.3-.3-.2-.7.4-.6.5-.6S645.2,513.6,645.2,513.9Zm167.7,32.9c0,.2-.1.4-.2.4l-.5-.4c-.1-.3,0-.4.2-.4S812.9,546.5,812.9,546.8ZM671.5,558.9c.1.2-.1.4-.4.4s-.5-.2-.4-.4a.5.5,0,0,1,.4-.3Zm204.3,21c.2.2.1.5-.2.7s-.4-.1-.4-.4S875.4,579.3,875.8,579.9Zm9.2,3.9c.4.5.6.9.3.9s-.7-.4-1-.9-.4-.8-.3-.8Z" transform="translate(-68.9 -52.9)" />
      <path class="cls-1" d="M860.8,351.6c0,.7,1.3,1.4,2.1,1.2s1-.1,1.1.4,0,.6-.6.6-.8.2-.6.5.7.3,1.3.2a26.9,26.9,0,0,1,4.5.2c3.6.5,4.8.3,3.5-.5a19.4,19.4,0,0,0-6.6-1.7,4.2,4.2,0,0,1-2.3-.7C862.3,351.2,860.8,351,860.8,351.6Z" transform="translate(-68.9 -52.9)" />
      <path class="cls-1" d="M957.5,450.4c0,.3-.2.5-.4.3s-.4,0-.4.3.2.4.6.3,3.9,3.8,3.4,5.1a.8.8,0,0,0,.3.9c.9.5.4,1-.8.6s-2-.1-1.1.9.6.9.1,1.1a1.7,1.7,0,0,0-.7,1.6c0,.8.1,1.2.2.9s2.2.6,2.5,1.9,1.4,1.4,1.8.4a1.1,1.1,0,0,1,.9-.7c1.2,0,.6-.8-1.2-1.5s-1.7-1-1.7-1.2.6-.4,1.2.2.7.3,1.3-.1,1.3-.4,3.3.4,2.7.9,3,.7.4-.2.2.1-.1.6.2.6.4-.4.2-1.1.1-2.4,1.7-2.4,2.8-.9,2.8-1.7a.4.4,0,0,0-.6-.2c-.6.2-.7-.1-.6-1.7s.2-2,.7-1.8.5.1.5-.2-.3-.5-.8-.7-.9.1-1.2,1.5-1,1.9-1,.2-.7-1.4-1.1-.2-.3.8-3.4-.3-4.9-2.1-5.5-2.8a14.9,14.9,0,0,0-3.9-2.1C957.7,449.7,957.5,450,957.5,450.4Z" transform="translate(-68.9 -52.9)" />
      <path class="cls-1" d="M964.1,465.1c0,.4-.3.6-.5.4s-.5.1-.2.8,0,1.3-.3,1.4-.2.6.3,1.1a1.5,1.5,0,0,1,.4,1.5c-.2.5,0,.7.4.7a1.7,1.7,0,0,1,1.2.9c.7,1.3.8,5.3.1,6.1a2.2,2.2,0,0,0-.6,1.9c0,.4-.5.9-1.1,1.3a3.4,3.4,0,0,0-1.6.9c-.5.6-1.2-.7-.9-1.6s-.3-1.3-1.3-.6-.6.6,0,1.6.5.8.6.4.1-.5.2-.4-.8,2.6-1.2,2.6-.4,1.6.1,1.8.3.4,0,.7-.5.6-1,.1-1.2-.5-2.9,0a15.2,15.2,0,0,1-3.2.4c-1.8-.2-2.5,0-2.5.5s-2.2,3.2-3.1,3.6a1.1,1.1,0,0,0-.8,1.1,2.9,2.9,0,0,1-.5,1.4l-1.6,1.2-1,.9,1.2,1.3c.6.7,1.3,1.2,1.6,1s.3,0,.2.2.2,1.2.9,2.2a8.4,8.4,0,0,1,1.2,2.3c0,.4.4.7,1,.8s.9.4.9.6.5.1,1-.5,1-1.6.9-3.9-.1-3.1-.2-3.3.1-1.1,1.4.2,2.8,1.8,2.4.6.5-2.3,1.3-2.3.6.1.6.4.7.4,1.2-.7a2.9,2.9,0,0,0,.3-1.7,1,1,0,0,1,.2-.9c.3-.1.5,0,.5.4s1.7,2.3,2.8,2.5.9-.2,1.2-1.3.7-1.4,1-1.4.8-1.2-.2-1.5-.9-.4-.9-.6.4-.3.9-.2.9.4.9.6a4.7,4.7,0,0,0,1.9.2c1.8,0,2-.1,2-1.1v-1.1l.7,1.3c.7,1.4,1.6,1.1,1.3-.4s.6-1.4,1.6-.4.8.6,1.4,0,.6-.9.4-1.1a1.2,1.2,0,0,1,.2-1.1c.4-.4.3-.8-.4-1.5a3.6,3.6,0,0,1-.9-1.9,6.3,6.3,0,0,0-.2-1.6,6.8,6.8,0,0,0-.2-1.4,3.5,3.5,0,0,0-.9-1.7,3.4,3.4,0,0,1-.8-1.6c0-.4.2-.5.8-.3s.9.1.9-.2a.5.5,0,0,0-.4-.5c-.2,0-.5-.9-.5-2.1s-.1-2.3-2.8-5.1a13.7,13.7,0,0,1-2.8-3.5.6.6,0,0,0-.6-.6,2.8,2.8,0,0,1-1.3-.3C964.3,464.5,964.1,464.6,964.1,465.1Zm2.1,1.3c0,.1-.3.2-.6.4s-.7.1-.7-.2.3-.4.7-.4Zm-7.9,24.4c.3,1,0,1.2-1.4.9s-1-.4-.6-.9A1.1,1.1,0,0,1,958.3,490.8Zm-3.2,1.3a1,1,0,0,1-1.7.3c-.2-.4.4-.7,1.6-.9S955.2,491.8,955.1,492.1Zm-3.8.8c-.1.3-.3.2-.3-.3s.1-.7.2-.6A.9.9,0,0,1,951.3,492.9Zm1.3.2c-.3,1.2-1.4,2.3-2.1,2.3s-.3-.3-.3-.6-.4-.5-1.3-.6-1.4-.4-1.4-.6.7-.4,2.1-.2,2.2.2,2.5-.6S952.9,491.7,952.6,493.1Z" transform="translate(-68.9 -52.9)" />
      <path class="cls-1" d="M641.4,486.9a4.3,4.3,0,0,1-2.4.7c-.9,0-1.7.1-1.7.4s-.4.4-.9.4-.9,1.4.7,2.1,1.3.5,2.4-.3a5.6,5.6,0,0,1,1.7-.9c.3,0,.3-.3.2-.6a1.1,1.1,0,0,1,.7-1.2c.9-.6,1.2-1.3.5-1.3A5.7,5.7,0,0,0,641.4,486.9Z" transform="translate(-68.9 -52.9)" />
      <path class="cls-1" d="M928.5,551.2c-.4.7-.3,6.9.1,8.4s.2.9-.4.1-1.6-.3-.4,3.3,1.8,3.8,2.7,3.8.4-.3.4-.7.2-.6.4-.4a1.6,1.6,0,0,1-.4,1.3c-.6,1.2-.3,2.7.5,2.2s.4,0,.4.2-1.3.6-1.6-.2a1,1,0,0,0-.9-.6c-.4,0-.2.5.7,1.6a31.1,31.1,0,0,1,2,3c.9,1.9,1.6,2.2,2.3,1.3s.3-2.8-.7-3.8-.8-.7.2-1.2,2.5-.2,1.5.4-.5.5,0,1.1.7.7,1.1,0,.6-.7,1,.1.6.6.8.4.1-.7-.2-1.2-.3-1.3,1.7.9,2.2,2.6,1.2,2.6a.3.3,0,0,1-.3-.3c.1-.5-1.1-2.3-1.5-2.3s-.3,1.4.3,1.6.7.8.7,2.1.1,1.5.4,1.1.6-.4,1.4.2,1.8.8,1-.7-.5-1.5-.3-1.6a3.1,3.1,0,0,0,.6-1.5c.2-.9,0-1.2-1-1.7s-1.7-1.2-.6-1.2.7.1.7.4.4.6,1.2,0,.5-.5.1-1.3-1.3-1.2-1.3-.2-.2.6-1.3,0a3.1,3.1,0,0,0-1.7-.5.6.6,0,0,1-.7-.4c-.2-.6-.6-.7-2.2-.5s-1.9.2-2.1-.4.2-.8,1.8-.8.5,0,.5-.2-1.5-1.3-2.3-1.4-1-.6-.8-2.2.4-1.3.9-1.3,1.6-3.6.6-5.1a6.7,6.7,0,0,1-.7-2.7c0-1.7,0-1.7-1.4-1.5s-1.5.1-1.7-.2A2.3,2.3,0,0,0,928.5,551.2Z" transform="translate(-68.9 -52.9)" />
      <path class="cls-1" d="M943.6,574.3a2.8,2.8,0,0,0,1.2,1.7c.8.6,1.2,1.2,1.1,1.6s-.4.4-.8-.2-1.2-.4-.9,1.4.6,1.5.9,1.5.7.5.7,1.3a1.6,1.6,0,0,0,1.2,1.8c.7.3,1.2.7,1.2,1a8.9,8.9,0,0,0,.3,1.4c.3.8.2,1-.8,1s-1.1-.2-1.1-.4a.4.4,0,0,0-.4-.4c-.2,0-.3.6-.1,1.4s.1,1.3-.3,1.1-.6,0-.8.5-.5,1.2-1.4,0-.9-.9-1.9-.5-1.2.8-1.2,1.2-.4.7-1.1.7-1.1.2-1.2.5a18.3,18.3,0,0,1-.6,1.9,4.2,4.2,0,0,0-.2,1.8.7.7,0,0,0,1.4-.2,3.5,3.5,0,0,1,.6-1.6c.7-.8.7-.8.7.1s.6,1.3,1.1.5.5-.3.9-.1.6-.1.6-.7.1-.9.8-.5.9.9.9,2.7.1,2.4,1.1,3.2a6.1,6.1,0,0,0,2.2,1.2,1.3,1.3,0,0,1,1,1.1c.2,1,1.2,1.1,1.2,0a3.8,3.8,0,0,1,.4-1.3,2.9,2.9,0,0,0-.2-2c-.8-1.6-.8-2,.1-2.1s.8.2.8.7a4.6,4.6,0,0,0,.6,1.6c.6.8.7.7.7-.8a3.3,3.3,0,0,1,.4-1.9c.3-.1.5-.6.5-1.2s-1.9-7.7-2.3-7.5-.3-.4-.1-1.4.2-1.5-.5-1.3-.8,0-.9-.6-1-1.1-1-.2a.7.7,0,0,1-.7.7q-.7,0-.3-.6a1.7,1.7,0,0,0,.1-1.4c-.6-1.4-.5-1.6.9-1.4h1.2l-.8-1.3a5.9,5.9,0,0,1-.9-2.5c0-1.6-.7-2.3-2.5-2.3S943.6,573.6,943.6,574.3Z" transform="translate(-68.9 -52.9)" />
      <path class="cls-1" d="M935.7,576.4a1.2,1.2,0,0,0,.5.7c.3.2.4,1.3.3,2.6s0,2.8.9,1.8.7-.4.8,0a.6.6,0,0,0,.8.3c1-.4.8.9-.2,1.7s-.8.9-.4,1.6a1.8,1.8,0,0,0,1.1.9c.3,0,.6.3.8.7s1,.7,1.5-.9.7-1.5,1-1.5.3.1.1.4,1.1.6,2.2.2.8-1.7-.4-2.4-1.1-.9-1.1-2.2-.1-1.7-.9-1.7-.9.2-.9.4-.3.5-.8.5-.7-.3-.6-1.1,0-1.1-.8-1.1a4.4,4.4,0,0,1-2.1-.7C936.2,575.9,935.7,575.9,935.7,576.4Zm6.9,4c-.2.4-.3.3-.3-.2s.1-.8.2-.6S942.7,580.1,942.6,580.4Zm-.3,3.2c0,.2-.2.1-.5-.2a3,3,0,0,1-.4-1.1c0-.3.2-.1.4.2A2.5,2.5,0,0,1,942.3,583.6Zm.7-.1c-.1.3-.2.2-.2-.3s0-.7.2-.5A1.1,1.1,0,0,1,943,583.5Zm-1.7.9q-.3.5-.3-.3c0-.5.1-.7.2-.6A.9.9,0,0,1,941.3,584.4Z" transform="translate(-68.9 -52.9)" />
      <path class="cls-1" d="M927.6,579.5a7,7,0,0,1-1.1,2.7,2.4,2.4,0,0,0-.6,1.6c.2.3.2.4-.1.4s-3.9,3.3-4.2,4.4a1.6,1.6,0,0,0,.2,1.5c.3.3.4.3.4,0a10.2,10.2,0,0,1,2.2-2.7,10.2,10.2,0,0,0,2.2-2.7c0-.6,1.9-2.5,2.8-2.7s1.3-1,.2-1.3-.8-.6-.8-1.4.1-1.1.4-.9.4.1.4-.2-.4-.4-.8-.3S927.8,578.3,927.6,579.5Z" transform="translate(-68.9 -52.9)" />
      <path class="cls-1" d="M797.4,584.4a.5.5,0,0,0,.1.7c.4,0,.6.5.6,1s-.2.7-.7.5a.4.4,0,0,0-.6.2.5.5,0,0,0,.4.5c.6,0,.6,1.9,0,2.4s.5,6.4,1.1,8,2.1,1.3,3.5.6,2.8-1.8,2.8-3.7-1.7-5.9-2.9-6.9a1.5,1.5,0,0,1-.6-1c0-.6-2.2-2.9-2.9-2.9A1,1,0,0,0,797.4,584.4Z" transform="translate(-68.9 -52.9)" />
      <path class="cls-1" d="M921.1,593.3a7.3,7.3,0,0,0-1.1,1.9c-.3,1-.7,1.7-.9,1.7s-.6.6-.8,1.3a5.3,5.3,0,0,1-1.6,2c-.8.5-1,.8-.5,1.3s.3.6-.7.6a2.7,2.7,0,0,0-1.8.7,3.2,3.2,0,0,1-1.5.6c-.6,0-.9.3-.9,1a7.2,7.2,0,0,1-1.7,3c-1.4,1.7-2,2.1-3.7,2.3s-2.1.5-2.2.8a.5.5,0,0,1-.7.1c-.3-.2-.6,1.4-.4,2.6a3.1,3.1,0,0,1-.4,1.2c-.4.7-.6.8-1.4.3a3.3,3.3,0,0,0-1.8-.4,1,1,0,0,1-1-.6c-.4-.9-1.6-.2-2.4,1.5s-.7,3.1,0,6.8,1.1,4,2.2,3.8.9-.1.9,1.2.1,2.4.2,3.5.3,2.2,3.6,2.1c1.6,0,1.9.2,1.9.9s.7,1.5,1.1.9.6-.4,1-.2a2.2,2.2,0,0,0,1.7-.7c.5-.5,1-.7,1-.4s.3.4.6.4.7.2.7.5.4.4.9.2,2.1.2,2.1,1.5.3,1.6,2.7.2l1.9-1.1.5,1c.5,1,.5,1,1-.3a2.9,2.9,0,0,0,.2-2,5.2,5.2,0,0,1,.5-2.5c.5-1,.6-1.6.3-1.7s-.1-2.1,1.5-3.6a6.8,6.8,0,0,1,1.9-1.3c.2,0,.3-1,.2-2.4s.3-4,2.5-3.8,2.5-.7.4-2.6-1.9-1.8-1.6-2.5a2.5,2.5,0,0,0-.6-2.2c-.8-1.1-.9-1.4-.4-2.5s.3-1.2,0-1.6.2-1.4,1.8-1.9,1.9-.9.5-1.3-1.4-1-.2-1,2.6-.8,2.6-1.4-.4-.6-1-.8a12,12,0,0,1-3-1.9.7.7,0,0,0-.8-.2c-.4.1-.6-.2-.5-.7a3,3,0,0,0-1-1.9c-.6-.5-1-1.2-.8-1.6S921.8,592.9,921.1,593.3Z" transform="translate(-68.9 -52.9)" />
      <path class="cls-1" d="M849.3,600c-.9,1.3.4,3.3,5.5,8.1,1.5,1.4,2.5,2.7,2.5,3.3s.9,1.2,2,2a5.4,5.4,0,0,1,1.9,1.7c-.3.9,1.4,5.3,2.1,5.5s4.5,6.2,4.7,8.4,1.4,3,3.4,4.9a6.8,6.8,0,0,1,1.2,1.6,28.5,28.5,0,0,0,3.8,4.1c3.9,3.8,4,3.9,5.3,3.4s1.5-.4,2,.2.6.8.2,1.8-1.3,1.5-1.3.6-.6,0-.7.8.3.6,1.6.6,3,1,2.7,1.7.6.4,1.5.6l2.5.7c1.5.7,2.3.9,2.6.6s3.9,0,5.5.8,8.2,1.8,9.3,1.4.7,0,.7.3.3.4.6.3a4.4,4.4,0,0,1,1.9.4c1.9.8,2.4.8,2.1-.2s-.1-.8.6-.6a1.2,1.2,0,0,1,.9,1.1c0,1,0,1,.6.1s.7-.6.7-.3.7.6,1.7.7l2.5.7a5.4,5.4,0,0,0,3-.2c1.2-.3,1.9-.6,1.6-.6s-.5-.2-.4-.4a.7.7,0,0,1,.8.2,2.5,2.5,0,0,0,3-.2.7.7,0,0,1,1.1-.1c1,.8,7.1.9,9.8.1a13.7,13.7,0,0,1,3-.6,1.7,1.7,0,0,0,1.1-.4,1.1,1.1,0,0,1,1.1,0,6.4,6.4,0,0,0,3.8-.6c.7-.7-.4-.8-4.4-.6a5.4,5.4,0,0,1-2.6-.3c-.2-.3-.6,0-1.2.8s-1.1,1-1.3.9-3.1-.7-5.7-.8-2.3.2-2.5.6-.5.5-.5.1-.3-.5-.8-.3a1.2,1.2,0,0,1-1.1-.2.3.3,0,0,1,.2-.5c.3,0,.3-.2.2-.4s-.4-.4-.6,0-2,.4-2.5-.1-2.4-.3-2.6.4a.8.8,0,0,1-.9.4.5.5,0,0,0-.7.3c-.1.3-.4.3-.9-.3s-1.7-.7-2.2.5-.7,1-1,1-.7-.7-.1-1.1-1.2-1.7-2-1.4-2-.1-2-.8,0-.7-3-.8c-1.4-.1-2-.2-2.1-.8s.1-.7.7-.6,3.7-.6,3.4-1.2-1.3-.4-3.2-.3a11.5,11.5,0,0,1-4.4-.6,2.2,2.2,0,0,0-1.5-.4c-.2.2-.6-.1-.9-.5s-.6-.8-1.3.3a1.7,1.7,0,0,1-1.9,1l-3-.2c-1.3,0-1.8-.2-2.1-1a2.4,2.4,0,0,0-1.5-1.1,11.1,11.1,0,0,1-2.4-.8c-.8-.5-1.4-.6-1.5-.3s-.6.3-1.5.1a3.9,3.9,0,0,0-1.7-.2c-.2.2-.3-.3-.2-1.2a35.4,35.4,0,0,0,.5-4.7c.2-4.4.5-5.3,1.6-4.7s2.5-.2,2.5-1.1-.1-.3-.4.1-.4.4-.6.1a1,1,0,0,1-.1-.9c.1-.2-.1-.5-.6-.6s-1.1-.5-1.5-2.6-1.2-1.5-2.6-.2-1.1,1.6.2,1.6.8.3.8.5-.4.4-.9.2l-1.3-.2c-.3,0-.4-.2-.4-.5a2.4,2.4,0,0,0-.6-1.1,3.2,3.2,0,0,1-.7-2c0-1-.2-1.2-1-1.2a3.5,3.5,0,0,1-1.8-.6c-.8-.5-.8-.7-.2-1.4s1-2.6.2-3.2a1.5,1.5,0,0,1-.4-1.2c.2-.5.1-.7-.4-.5s-.7.1-.7-.3-.5-.7-1.1-.9-1.1-.5-1.1-.9-.2-.7-1.8-.8-.6-.4-.6-.9a1.1,1.1,0,0,0-.9-1,2.3,2.3,0,0,1-1.3-.6,3.1,3.1,0,0,0-1.4-.1.8.8,0,0,1-1.2-.6c-.1-.6-.5-1-.7-1a.4.4,0,0,1-.4-.4c0-.6-.7-1.3-2.6-2.6l-2.1-1.6a2.2,2.2,0,0,0-1-.6c-.2,0-.4-.3-.4-.6a2.8,2.8,0,0,0-.4-1.3l-1.3-1.5c-.7-.9-1.3-1-3-1a4.5,4.5,0,0,1-3.2-.9C850.6,599.4,849.7,599.3,849.3,600Zm75.1,53.4c0,.1-.3.1-.6.1s-.7-.1-.7-.4.3-.3.7-.2S924.4,653.3,924.4,653.4Z" transform="translate(-68.9 -52.9)" />
      <path class="cls-1" d="M774.1,606.4a2.6,2.6,0,0,0,.4,1.6.5.5,0,0,1,.2.8,1.1,1.1,0,0,0,.2,1,.9.9,0,0,1,.5.7c0,.3-.2.3-.5-.1s-.4-.5-.2.1a5.1,5.1,0,0,1,.3,1.7c0,1,1,1.1,1.7.1s.5-.7-.3-.9-.9-.4-.7-.6-.3-3.5-.8-3.2-.4-.2-.3-1.1.1-1.3-.1-1.3S774.1,605.7,774.1,606.4Zm2.2,5.8a.4.4,0,0,1-.4.4.5.5,0,0,1-.5-.4.5.5,0,0,1,.5-.5A.5.5,0,0,1,776.3,612.2Z" transform="translate(-68.9 -52.9)" />
      <path class="cls-1" d="M957.5,613.7a7.8,7.8,0,0,0-.6,2.9c0,.9-.2,1.7-.5,1.7s-.1.2.3.4.4.6.1.7-.4.6-.2,1.1.2.9.5.1.4-.6.4.4-.1,1.2-.8,1-1.5.3-1.1,1.4,2.8,1.6,2.8.6.1-.6.5,0,1.1.4.3-1.3-.8-3.2,1-2.6,1.9.2.6-1-1-1.1-.2-1.6,1.2-2.7.5-2.7a3.3,3.3,0,0,0-1.3.7c-1,.6-1,.6-1-1.1S958.3,612.1,957.5,613.7Z" transform="translate(-68.9 -52.9)" />
      <path class="cls-1" d="M946.9,616.1c-1,1-2,1.7-2.4,1.5l-4.1-.5c-1.8-.1-3.4-.4-3.4-.6s-1.5-.8-2-.5a3.5,3.5,0,0,0-.7,1.1c-.2.4-.5.6-.7.5s-2.2,1.4-2.2,2.5-.2.8-.4.8-.3.5-.1,1.2a4.4,4.4,0,0,1-.6,2.3,4.8,4.8,0,0,0-.7,2.4c0,1.5-1.1,4.1-1.7,4.1s-.4.5-.3,1.2.3,1.5.3,1.9.3.6,1,.5,1,0,1.1,1.4a12.6,12.6,0,0,1-.4,3.8c-.6,2.6-.3,3,1.8,2.7s1.6-.4,1.6-1.8c.1-6.9.3-8.8,1.1-9.1s1.5.1.9,1.7-.4,1.4.7,2.4,1.1,1.4.9,2,.2,2,1.1,2a2.6,2.6,0,0,0,1.2-.9,2.2,2.2,0,0,1,1.2-.8c.4,0,.3.2-.1.7s-1.2,2.6-.3,3.4.9.7,1.7,0a1.9,1.9,0,0,0,.7-1.6.9.9,0,0,1,0-.9,3.5,3.5,0,0,0,.4-1.9c-.1-1.4-.2-1.7-.8-1.6s-2-1.1-1.7-2.1a6.8,6.8,0,0,0-1.2-3.1c-1.1-1.7-1.2-2.3-.8-2.8a1.5,1.5,0,0,1,1-.6c.4,0,1.1-.6,1.6-1.4s1.2-1.2,2-1,1,0,1-.6-1.1-1.6-2.5-.9a6.2,6.2,0,0,1-2.6.6,2.9,2.9,0,0,0-2.4,1.1c-.8.9-2.1,1-2.1,0a3.3,3.3,0,0,0-.9-1.3,2.2,2.2,0,0,1-.7-2.3c.5-2.2.9-2.3,6.4-2,7.4.5,8.7.5,8.7-.5a5.7,5.7,0,0,1,1.1-1.9c.6-.9,1-1.7.8-2.2S948.8,614.1,946.9,616.1Z" transform="translate(-68.9 -52.9)" />
      <path class="cls-1" d="M960.4,631.7a4.1,4.1,0,0,0-1.7.6q-.3.6-.3,0c0-.4-.3-.3-.9.2s-1.1,1.7-.2,1.3.7,0,.7.7,0,1.1,1.5.6,1.5-.7,1.5-1,.2-.5.9-.2a2.6,2.6,0,0,0,1.7.3,3.2,3.2,0,0,1,2.3.6c1.8,1.1,2.1,1.1,2.1-.1S964.7,631.2,960.4,631.7Z" transform="translate(-68.9 -52.9)" />
      <path class="cls-1" d="M953.6,652.4l-2.8.5c-1.9.2-2.9.5-3.3,1.1a7.8,7.8,0,0,1-2.7,1.7,5,5,0,0,0-2.4,1.9,4,4,0,0,1-.9,1.7c-.4.5-.4.8-.1,1s3.8-.7,5.4-2.4a9.5,9.5,0,0,1,3.4-2.2c2.4-.8,5.2-2.5,4.9-3A1.1,1.1,0,0,0,953.6,652.4Z" transform="translate(-68.9 -52.9)" />
    </g>
    <g>
      <path class="cls-1" d="M971.5,623l-2.1,1.3c-.3.3-.6.3-.8.1s-1.9-.7-1.9-.2,1.9,2.8,2.6,2.8,2.2.4,2.2,1.1,1.4,1.8,4,1.7,2.5-.1,2.3.2a1.4,1.4,0,0,1-1.3.3,1.6,1.6,0,0,0-1.6.4,1.3,1.3,0,0,1-1.3.4c-.8-.3-2.1.1-2.1.7s.4.6,1.1.8a1.4,1.4,0,0,1,1,1.1.7.7,0,0,0,.5.7c.2,0,.3.2.2.4s.2,2.2.7,1.9a1.3,1.3,0,0,1,1.1.3c.3.3.8.4.9.2s.1-.4-.2-.6-.4-.5-.1-.9.6-.5,2,.2a11.6,11.6,0,0,1,2.3,1.4,3.9,3.9,0,0,0,2.1.8c1.7.2,8.2,3.3,8.1,3.9a4.5,4.5,0,0,0,.6,1.3,4,4,0,0,1,.6,1.6c0,.4.1.8.3.8s.3.7.4,1.5-.2,1.5-.8,1.5-3,2.8-3,3.9,3.9.6,4.4-.1a5.8,5.8,0,0,1,1.8-.5c1.4-.2,1.6,0,3.1,1.9s1.7,2.2,4,2.2a7.6,7.6,0,0,1,2.7.2c.1.2.6.1,1.1-.1s.7-.4.6.4a3.2,3.2,0,0,1-.5,1.3c-.1.3-.1.4.2.4s.9-1,.9-2.2.2-.8.5-.8.4-.3.4-.7.2-.6.4-.5.4-.2.4-.7,3.2-4,4.2-3a4.6,4.6,0,0,0,1.9.7,3.2,3.2,0,0,1,2,1.5c.2.5.6.9.8.9s.3.4.3.9a1.9,1.9,0,0,0,.7,1.3c.3.3.5.7.4.9s0,.4.4.4.8.5,1,1.1.7,1.1,2.2,1.6a17.4,17.4,0,0,0,3.4.5,4,4,0,0,1,2.2.6c1.2.7,4.4.8,4.7.1s.2-.4,0-.3h-1c-.6-.1-.6-.2-.1-.4s0-.6-1.3-1-2.3-1.3-1.3-1.3.4-.8-.7-1-1.2-.3-1.1-1.1.1-1-1.1-.8-1.3.1-1.9-1.6a9.9,9.9,0,0,0-2.2-3.4,5.7,5.7,0,0,1-1.7-2.5c0-.8.3-.9,1.6-.9s1.5-.2,1.5-.8a3.5,3.5,0,0,0-2.5-2.5,3.4,3.4,0,0,1-1.4-.8,7.6,7.6,0,0,0-1.8-.9c-1-.2-1.1-.4-.9-1.3s.3-1.1.5-1.1.4-.3.4-.7-.1-.6-.6-.2-.9.4-1.6-.4a3.4,3.4,0,0,1-.8-1.4c0-.2-.2-.3-.4-.2s-.7-.1-1.1-.4a2.3,2.3,0,0,0-1.5-.7,2.2,2.2,0,0,1-1.4-.6,7.8,7.8,0,0,0-3-1.3,33.3,33.3,0,0,1-4.2-1.7,4.1,4.1,0,0,0-2.2-.8q-.6.2-.6-.3c0-.2-.8-.5-1.8-.7a19,19,0,0,1-4.7-1.8c-2.8-1.5-3.1-1.6-4.3-1s-1.5.9-1.5,1.4a1.5,1.5,0,0,1-1.4.7c-.6,0-1.1.2-1.1.4a4.1,4.1,0,0,1-.8,1.3,22,22,0,0,0-1.4,1.8,2.2,2.2,0,0,1-1.6.9c-.7,0-1-.4-1.5-2.1s-.6-1.8-.7-1.5-1,.2-1-.9.1-.9.5-.3.4.5.2-.2a12.2,12.2,0,0,1-.5-2.5c-.2-2-.5-2.7-1.3-2.3a5.5,5.5,0,0,1-2.1-.7C974.2,622,973.4,622,971.5,623Z" transform="translate(-68.9 -52.9)" />
      <path class="cls-1" d="M1003.8,661.9a6.8,6.8,0,0,0-.8,1.7,7,7,0,0,1-1.2,2.5,9.2,9.2,0,0,0-1,3.2,5,5,0,0,1-.6,2.3,11.2,11.2,0,0,0-.6,3.3c-.3,3.3-1.8,8.1-2.9,9.4a2.8,2.8,0,0,0-.8,1.3c0,.9-1.4,1.9-2.5,1.9a4.8,4.8,0,0,1-2.8-1.7,5.8,5.8,0,0,0-2.5-1.8,1.8,1.8,0,0,1-1.4-1.1c-.3-.6-.8-1-1.1-1s-.7-.5-.9-1.1-1-1.5-1-.5-.8-.1-2.2-1.3l-2.1-2.1.9-.9a7.6,7.6,0,0,0,1.2-1.9c.2-.6.6-.9.9-.7s.3.5.2.8,1.4,1.3,2,.9.2-2.3-.2-2.7-.6,0-1,.3-.6.4-.6-.6.2-1.1.5-1a4.8,4.8,0,0,0,1.5-1.9c.9-1.6,1-2,.5-2.4a.9.9,0,0,1-.5-1,.3.3,0,0,0-.2-.5.5.5,0,0,0-.5.4c0,.2-.4.5-.9.6s-.8.1-.7-.4,0-.8-1.5.4-1.4.8-1.8.4a2.3,2.3,0,0,0-1.5-.5,2.5,2.5,0,0,1-1.5-.6,1.5,1.5,0,0,0-1.2-.4c-.2.1-.5-.2-.5-.6s-.1-.7-.4-.2-.5.6-.9-.1-.6-.7-.9-.5-.4-.2-.4-.6-.1-.9-1.1-.5-1.1.2-1.1.1-.2-.1-.5.2.3,1.9,1.1,1.6,1.3,1.1.6,1.9-1.1.6-2.8.4-2.3,0-2.3.2a.5.5,0,0,1-.5.4c-.8,0-2.9,2.6-2.7,3.2s-.2.8-.7,1.1-.9.7-.9,1a2.7,2.7,0,0,1-1,1.5c-.7.8-.8,1.2-.3,1.4s0,1.3-1.6,1.1a3.2,3.2,0,0,0-2.1.3c-.6.4-.6.4-.4-.2a.7.7,0,0,0-.4-1,.9.9,0,0,1-.7-.8c0-.3-.6-1-1.4-1.6s-1.4-.9-1.9-.2-.6.6-.7.5-3-.7-3-.2a.4.4,0,0,0,.4.4c.3,0,.5.5.5,1s-.1,1-.7.1-.6-.7-.6,0-.3.7-.9.4-.9,0-.9,1-.1,1-.2.9-2.6,1.9-2.7,3.1-.1,1.3-.1,1.5-.7.2-1.6.1-1.5-.2-1.3.1a.4.4,0,0,1-.2.7q-.5.3,0,1.2c.3.5.3.8.1.8s-.5.4-.6.7-.4,0-.6-1-.4-1.9-.6-1.9l-1.9,1.7a3.8,3.8,0,0,0-1.6,3.2,4.5,4.5,0,0,1-1.4,3.1,16.3,16.3,0,0,0-2.2,2.7,7.3,7.3,0,0,1-5.6,2.6,5.9,5.9,0,0,0-2.9.8,3.4,3.4,0,0,1-1.9.7,2.4,2.4,0,0,0-1.7.7c-.4.5-1.1.6-2.2.5a3.4,3.4,0,0,0-2,.2,1,1,0,0,1-.8.4,4.6,4.6,0,0,0-2.1,1.2,10.2,10.2,0,0,1-3,2.1,4.9,4.9,0,0,0-2.1,1.9l-.6,1.1-.2-1.3c-.2-1.1-.4-1.2-.7-.7a7.4,7.4,0,0,0-1.5,4,6.2,6.2,0,0,1-1.1,2.9c-1.3,1.9-1.3,2.3-.3,5.6s.8,5-.4,2.5l-.8-1.7-.4,1.1-.4,1.1-.5-1.1c-.4-.9-.5-.8-.3.8a17.9,17.9,0,0,0,.9,3.2,11.1,11.1,0,0,1,.9,3.6c.1,1.2.3,2.8.4,3.5a11.5,11.5,0,0,1,.3,2.6c0,.7-.1,3.7-.2,6.5s-.3,5.3-.6,5.4a1.3,1.3,0,0,0-.6,1.2c0,1.3-1.2,2.8-2.2,2.8s-1,.5-1.3,1.2-.5,1.9.4,1.9a1.1,1.1,0,0,1,1.1.8c.4,1,1.8,1.7,4.3,2s4.3-.4,4.3-1.1,1.3-.9,2.6-1.1a2.9,2.9,0,0,0,1.6-.9c1.1-1.1,4.2-1.5,9.3-1.3l3.8.2,1.9-1.9a6.1,6.1,0,0,1,2.6-1.9,1.5,1.5,0,0,0,1-.4,2.6,2.6,0,0,1,1.4-.7,5.4,5.4,0,0,0,2-1,2.3,2.3,0,0,1,2.2-.4c1.4.3,7.4-1.1,8.4-1.9a19,19,0,0,1,4.5-.7c3.7-.3,4-.3,5,.7s1.4.9,1.7.8a4.3,4.3,0,0,1,2.1.8,11,11,0,0,0,2.2,1c.4,0,.4.2,0,.5s-.6,2.1.1,2.1,1.5,4,.6,4.6-.6.6.7,1.7,1.4,1.2,1.5.2,3-3.9,3.9-3.9a7.6,7.6,0,0,0,2.6-1.9c1.1-1.1,2.1-1.9,2.2-1.7s0,.4-.2.5a1.1,1.1,0,0,0-.6,1,2.4,2.4,0,0,1-1.1,1.5,6.7,6.7,0,0,0-1.8,2.2,3.4,3.4,0,0,1-1.6,1.9,4.5,4.5,0,0,0-1.6,1.2c-.6.7-.5.7.5.4l1.8-.3c.5,0,1.2-.7,1.7-1.5s1.1-1.5,1.3-1.5.3,2.2-.9,3.4-1.3,1.9.4,1.6,1.3-.1,1.8,1.1.5,1.6-.3,3a3,3,0,0,0-.4,3,3.4,3.4,0,0,0,1.5,1.9c.5.2.9.5.9.7s.8.4,1.8.4a4.2,4.2,0,0,1,2.1.4c.1.3.7.7,1.2,1s1.3.4,3-.6,2.2-.9,2.4-.7l1.8,1.1c.9.5,1.6,1.1,1.6,1.5s.2.5,1-.2c2.5-2.3,7.1-4.5,9.4-4.5s5.3-1.4,5.3-3a4.5,4.5,0,0,1,1.1-1.7,3.9,3.9,0,0,0,1.1-1.7,9.1,9.1,0,0,1,2-2.3,42.2,42.2,0,0,0,4-4.3c2.6-3.3,4.8-5.4,6.8-6.4s1.6-1.1,1.6-1.4a5.7,5.7,0,0,1,1.2-1.8c2-2.1,2.7-3.1,2.7-3.7a5.1,5.1,0,0,1,1-2c2.5-3.8,3.9-6.4,4.1-7.6a23.7,23.7,0,0,1,.8-3.1c.7-1.8.5-2.8-.2-1.1s-.4.9-.4.6a20.6,20.6,0,0,1,1.1-4.5,8.4,8.4,0,0,0,.2-1c-.1-.3.3-1,.8-1.9a4.2,4.2,0,0,0,.8-2.2c0-.6-.1-.6-.2-.2s-2.3,2.1-2.3.4-.2-.8-.4-.8-.5-.6-.6-1.3-.6-1.3-1-1.3-.7-.5-.7-1-.4-.9-.7-.8-.6-.5-.3-2.4.3-2.5-.6-2.3-1,0-1.1-.4-.4-.5-1,0-.7.3-.6-1.3a4.5,4.5,0,0,0-.6-2.9c-.9-1.3-.9-1.6-.1-1.6s.6-.3.5-1-.4-.9-.7-.8-3.4-1.7-3.7-2.6a.8.8,0,0,0-.9-.5.4.4,0,0,1-.6-.3c0-.2-.2-.4-.4-.2s-1.5-1-1.3-2.2.1-1.2-.1-1.3a.5.5,0,0,1-.1-.7c.5-.9.1-4.4-.5-5.2s-.7-5.3-.1-6.3-.2-.9-.9-1.3-1.1-.8-.4-1.3.6-.6.2-1a1.8,1.8,0,0,0-1.2-.5c-.4,0-.4.2.2.4s.9.4,0,.5h-1.2c-.2,0-.3.1-.3.4s-.3.4-.7.4-.6-.4-.5-2.2.3-2.1.7-1.9.5-.2.5-1.5a5,5,0,0,1,0-1.8c.3-.9.3-1.7-.1-1.7s-.5.8-.4,3,0,1.3-.3,1.2a1.1,1.1,0,0,1-.3-1.1,2.4,2.4,0,0,0-.3-1.2,1.7,1.7,0,0,1,.3-2.1c.3-.2.1-.3-.3-.1s-1.9-1.1-1.4-1.6a3.9,3.9,0,0,0,0-1.6C1005.4,661.3,1004.6,661,1003.8,661.9ZM900.9,720.4c0,.4-.1.7-.2.7s-.2-.3-.4-.7-.1-.6.2-.6S900.9,720.1,900.9,720.4Zm82.8,44.4c-.3.4-.7.6-.8.5s.3-1.1.8-1.1S984,764.5,983.7,764.8Z" transform="translate(-68.9 -52.9)" />
      <path class="cls-1" d="M977.4,774.6a8.9,8.9,0,0,0-1.3,3.4,20.3,20.3,0,0,1-.7,2.7,5.1,5.1,0,0,0-.4,2.6c.1,1.5.3,1.8,1.4,2s4.2-.8,4.2-1.6.2-.3.6,0,.8.2,1.7-.8a3.5,3.5,0,0,0,1.2-1.9.7.7,0,0,1,.8-.7,1.4,1.4,0,0,0,1.2-1,15.3,15.3,0,0,1,1.3-2.5c1.4-2.1.8-2.6-2.1-1.8s-4,1-4.9.2a6.4,6.4,0,0,0-1.3-1,.8.8,0,0,1-.3-.8C979,772.5,978.6,772.9,977.4,774.6Z" transform="translate(-68.9 -52.9)" />
    </g>
    <g>
      <path class="cls-1" d="M662,331.1a6.1,6.1,0,0,1-2.2.7c-1.8.3-5.5,1.9-6,2.6s-.5.2-.8.1-.4-.1-.4.1a.5.5,0,0,0,.5.5l1.6.2a2.9,2.9,0,0,0,1.9-.8l.6-.5c-.1.3.2.6.7.8s1.7.3,1.4-.2.1-.3.4-.1.6.4.4.7.9.4,3.4.2,3.3-.1,2.8.1-.5.4.9.4,1.9-.2,2.1-.6a1.1,1.1,0,0,1,1.1-.7c1.1,0,2.2-.4,2.2-.9s-.4-.4-.8-.4-.9-.1-1-.4-3-.8-5.8-.9c-.6,0-.7-.1-.2-.6s.3-.7-1-.7A2.9,2.9,0,0,0,662,331.1Zm5.2,2.2a3.1,3.1,0,0,1-2,.9h-1.1l1.1-.3c.6-.2.8-.4.4-.5s-.1-.2.5-.4S668,332.4,667.2,333.3Zm-11.2.6a.5.5,0,0,1-.4.5c-.2.2-.4.1-.4-.2a.4.4,0,0,1,.4-.4Z" transform="translate(-68.9 -52.9)" />
      <path class="cls-1" d="M647,333.1c-.8.2-1.3.6-1.1.8s0,.3-.2.3a.5.5,0,0,1-.5-.4c0-.6-3.2-.6-6.4,0s-1.5.5,1.4.5c.8,0,1.3.2,1.2.4s-.2.4-.1.4c2.3.4,5.2.4,5,0s.1-.5.7-.5.8.2.4.4,1.3.9,3.6.9,1.2-.1.7-.4a4,4,0,0,0-2-.2c-1.1.3-1.2.3-.7-.4a2.1,2.1,0,0,1,1.5-.7c.4,0,.7-.2.5-.4s-.6-.5-1.1-.5-.8-.2-.8-.4S648.8,332.4,647,333.1Z" transform="translate(-68.9 -52.9)" />
      <path class="cls-1" d="M582,335c-.4.4-1.1.5-2.3.3s-1.7-.1-1.9.5a.9.9,0,0,0,.3,1.1c.4.2.4.4.1.4a2.6,2.6,0,0,1-1-.7,1.6,1.6,0,0,0-1.6-.5c-.6.1-1.1,0-1.2-.2a8.6,8.6,0,0,0-2.7-.1H568c-1,0-1.2.2-1,.8a6.8,6.8,0,0,0,1.4,1.8l1.2,1.1-1.2-.7c-.7-.5-1.3-.6-1.4-.3s.5.7,1.6,1.3,2.3,1.1,1.6.2,2.2.8,3.4,2a3.6,3.6,0,0,0,1.8,1.3,6.6,6.6,0,0,1,2.4.8c2.6,1.3,3.6,1.2,4-.4s.5-1.3.8-1.3,3.2-2.2,2.6-2.2,0-.2.4-.5,2.3-.1,3.7,1,1,.8.2,1.2-.5.6,1.5.5a2.1,2.1,0,0,1,1.7.4c.3.5,2.3.2,3-.5a2.1,2.1,0,0,1,1.2-.4c.5,0,.7-.2.6-.4a2.8,2.8,0,0,0-1.6-.4,1.7,1.7,0,0,1-1.5-.7c-.1-.5-.6-.7-1.3-.5s-1.1,0-1.1-.2-4-2.2-4.7-1.9-.6.1-.2-.3,1.3-.3,3.3-.2c4.6.6,8.6.3,8.9-.6a1.3,1.3,0,0,1,1-.4c1.1,0,1.5-.8.6-1.2s-6.6-1-6.9-.4-.3.3-.5-.1-2.4-.6-2.4.2-.1.6-.6.2S582.7,334.2,582,335Zm3.8,2.2c.2.4-.1.5-.6.4a1.1,1.1,0,0,1-.9-.7c-.2-.4,0-.6.6-.4A1.1,1.1,0,0,1,585.8,337.2Zm-8.6,2.9-.8.2c-.4,0-.8-.3-.8-.6s.2-.6.8-.2S577.2,340,577.2,340.1Zm-3.1,1.1a.4.4,0,0,1-.4.4.4.4,0,0,1-.4-.4.5.5,0,0,1,.4-.5C574,340.7,574.1,340.9,574.1,341.2Z" transform="translate(-68.9 -52.9)" />
      <path class="cls-1" d="M689.6,343.7a9,9,0,0,0-2.1.8c-.6.5-2.8.8-6.4,1.1-5.3.3-7.1.6-7.6,1.2a10.9,10.9,0,0,1-4.5,1.8c-.6-.1-.8.2-.7.7a3.1,3.1,0,0,1-1.9,3.3l-1.4.7,1.1.4c.6.3.8.5.4.5a4.5,4.5,0,0,0-2,1.1c-1,.9-1.1,1.1-.5,1.1s.9.9-.3,1.3-1.1.7-1.1,1.1a1.8,1.8,0,0,0,2.2,1.4c.4-.1.7,0,.6.2s.3.6.9.8,1.3.4,1.6-.1.3-.4.3.2,1,1.2,4.4,1.5c5.2.4,5.8.4,6-.2s0-.6-.5-.4-.7.1-.5-.1-.6-.6-1.5-.9a5,5,0,0,1-1.8-.8c0-.2-.5-.6-1.2-1s-1.9-3-.9-3a.4.4,0,0,0,.4-.4c0-.6,4.6-5.2,5.2-5.2a4.1,4.1,0,0,0,1.3-.8c1-1,2.8-1.6,8.5-2.7,7.6-1.5,9.1-2.5,5.6-3.5A6.3,6.3,0,0,0,689.6,343.7Zm-22.4,9.5a.7.7,0,0,1-.8,0c-.3-.1-.2-.2.3-.2S667.4,353.1,667.2,353.2Z" transform="translate(-68.9 -52.9)" />
      <path class="cls-1" d="M602.2,361.3c-.1.2-.6.3-1,.1a2.3,2.3,0,0,0-1.7.8c-.6.5-1,.7-.8.4s-.1-.5-1.1-.5-3.5.4-3.2.9-1.9,1-3.2.9-.9,0-.7.5.2.4-.3,0-3.9-.6-3.9.6,0,.6-1.6.8-2.4.6-2.1,1.5a1.2,1.2,0,0,1-.3,1.2c-.3.2-.3,0-.1-.3s.1-.5-.9-.3-1.1.2-.7-.3,0-.9-2.3.2-1.8,1.1-1.7,1.6.1.6-.2.4-3.6.8-3.6,1.4.2.6,2-.1,1.5-.6,1.5-.5l1.3-.2c.8-.3,1.3-.3,1.3,0s-.3.4-.6.4a.8.8,0,0,0-.7.8c0,.5-.8,1.5-2.1,2.4a9.1,9.1,0,0,0-2.2,2c0,.2-.4.5-.9.6s-.9.6-.9,1.3a3,3,0,0,1-2.9,2.9c-1,0-1.1.1-.6.5s.6.5.1.7a11.9,11.9,0,0,0-2.3,1.9c-1.5,1.5-1.8,1.7-2.6,1.2s-.9-.4-1.4.1a1.1,1.1,0,0,1-1.1.5c-.5-.1-.5,0-.4.5s-.1.7-1,.9-1.3.5-1.3.7-.5.5-1.1.7-1.1.4-1.1.7-.1.3-.3.2-1,.1-1.7.6-1.3.9-1.4,4.1.1,3.2.6,3,.9.5.3.9-.5,2.9,0,2.9.4.4.4.8.6,1.3,1.7,2a5.7,5.7,0,0,0,6.6,0,26.3,26.3,0,0,1,3.3-2c1-.5,1.9-1.3,1.9-1.7s.1-.6.3,0a2.5,2.5,0,0,0,.8,1c.4.2.6.9.6,1.5a4.1,4.1,0,0,0,.9,2.3,4.2,4.2,0,0,1,.9,1.4,8.6,8.6,0,0,0,1.5,2c.8.9,1.3,1.6,1.1,1.7a.9.9,0,0,0-.5.8q0,.6-.3.6c-.7-.2-3.1.6-3.1.9s-2.6,1-3,.7,0-.6.3-1,.4-.8.5,0,.2.6.4.5.4-.4.2-.6a.6.6,0,0,1,.2-.7.8.8,0,0,0-.4-1.5.9.9,0,0,1-.5-1.6c.6-.3.5-2.8,0-2.8a.5.5,0,0,0-.4.5c0,.2-.2.4-.6.4a2,2,0,0,0-1.1.6,2.5,2.5,0,0,1-1.8.7c-2.3,0-4,4.7-2.2,6.4s.6,1.3.1,1.7-.3.5-.2.9.4.5.9.1.6-.3.6.2-.2.7-.5.7-.3.2,0,.7-.2,2-2.2,1.7a3.1,3.1,0,0,0-2.6.3,3.9,3.9,0,0,1-2.4.5,3.7,3.7,0,0,0-4.3,2.6c-.4,2.3-3.3,4.9-6.5,6s-2.3.9-2.6,2.3-.6,1.6-2,2a5.3,5.3,0,0,0-2.3,1.3,1.9,1.9,0,0,1-3,.3,5.6,5.6,0,0,0-1.9-.9c-1.1-.2-1.2-.2-.9.7.9,3,.9,3.2-.9,3.2a8.8,8.8,0,0,1-2.2-.3c-.6-.4-3.9,0-4.9.6s-.9,2.5-.2,2.5a.6.6,0,0,1,.6.5c0,.2.3.3.6.2s2.9.6,2.6,1.3,0,.7.3.7.3-.3.2-.5,1.1-.4,2.1.5.7.8.4.8-.4.2.1.7a2.4,2.4,0,0,1,.7,1.1c0,.2.3.4.7.4s.5.2.4.4-.1.5.1.5a.5.5,0,0,1,.4.5,3.6,3.6,0,0,0,.2,1,35,35,0,0,1-1,6.7c-.5,1.5-1.7,2.4-3,2s-6.6-.6-12.1-.8a7.1,7.1,0,0,1-2.5-.4c-.6-.6-2.3-.3-3,.6a3.4,3.4,0,0,1-1.6.8c-1.2,0-1.8,1.1-1.3,2.3a16.6,16.6,0,0,1,.5,4.1c.1,3.2-.9,6.8-2.2,7.9s-.5.5-.4.5.2.6-.1,1.4-.2,1.3.1,1.3.4.3.4.6.2.6.6.5.6,2.2.1,4.1-.2,1.1,1.5,1a10.7,10.7,0,0,0,2.9-.3c1.6-.5,2.7.1,3.5,1.9s2.4,2.7,3.3,1.6,3.5-2,6.2-2h3.4c.4,0,1-.6,1.4-1.3a2.7,2.7,0,0,1,2-1.6c1-.1,1.4-.6,2-1.9s.9-1.7,1.2-1.7a2,2,0,0,0,1.1-.6c.5-.6.4-.8-.1-1.2a2.1,2.1,0,0,1-.4-3.1c1.5-2.3,4.2-5.1,4.8-5.1a11.5,11.5,0,0,0,2.9-1.2c2.4-1.1,3.7-2.9,2.8-3.8a2.3,2.3,0,0,1-.4-1.4c0-2.1,4.6-2.9,7.2-1.2s2.5.8,4-.6a6.6,6.6,0,0,1,2.7-1.6,2.7,2.7,0,0,0,1.7-1.1c.3-.4.7-.9,1.1-1s4.6,1.4,4.6,2.1a4,4,0,0,0,.6,1.6c.4.7.4.9-.3,1.5s-.6.6-.3.8a.7.7,0,0,0,.9-.2c.3-.5.5-.5,1,0a1.7,1.7,0,0,1,.7,1.1.8.8,0,0,0,.9.7c.5,0,.9.1.9.3s4.3,3.7,5.3,3.8a3.7,3.7,0,0,1,2.2,1.2,3.3,3.3,0,0,0,1.8,1.2.7.7,0,0,1,.7.7c0,.4.5.9,1.3,1.2s1.4.9,1.9,2.4.6,2,.3,2.1a1.1,1.1,0,0,0-.5.9c0,1.1-4,2-7.1,1.7s-3.3,0-3.3,1,3.9,3.1,5.1,3.1a.9.9,0,0,1,.8.5,2.4,2.4,0,0,0,1.4.9c1.1.3,2-.9,1.6-2.1a2.7,2.7,0,0,1,0-1.8c.2-.9.4-1,1.1-.8s3-1.3,3-2.5a1.2,1.2,0,0,1,.9-1.1c1.2-.3,1.1-1.9-.2-2.7s-1-.8-.5-1.8.8-1,1.8-.9,1.4.3,1.4.5a2.9,2.9,0,0,0,.9,1.1c.7.7.8.7,1.1-.2s-.7-2.6-4.5-4.4-2.9-1.6-2.6-2.3.3-.7.1-.8h-2.1a4.5,4.5,0,0,1-3.4-1.7,5.1,5.1,0,0,1-1.6-2.4c0-1.1-.8-1.9-2.7-3.1s-2.4-2.4-1.6-3.3.3-.7,0-.9-.5-1.3,1-1.9,3-.7,2.1-.1-.4.7-.1,1.4,1.3,2,1.8,1.2.4-.3.4.4a1.7,1.7,0,0,0,.4,1.2c.3.1.5-.1.5-.6a1.5,1.5,0,0,1,.5-1.2c.3-.2.4-.1.2.4a1.4,1.4,0,0,0,.4,1.5c.5.5.5.8.2,1s1.5,2.2,2.4,2.2a2.5,2.5,0,0,1,1.4.8,2.6,2.6,0,0,0,1.8.9h1.1l-1.1.3c-1,.4-1,.4.3.4s1.6.2,1.7.5a1.4,1.4,0,0,0,1.1.4,10.9,10.9,0,0,1,2.9,1.7l2.3,1.6-.3,2.7c-.2,2.5-.2,2.7,1,3.5s.9.8.6,1-.1,1.7.7,1.7a1.9,1.9,0,0,1,1.2.7c.7.7.7,1.5.1,3s-.2.9.1,1.1a2.9,2.9,0,0,1,.7,1c.3.9,1.2,1,1.2.3s1.6,1,1.9,2.5.4,1.5,1.4,1.3,1-.1,1,.4.2.6.4.6a.5.5,0,0,0,.5-.4.4.4,0,0,1,.4-.4c.3,0,.4.4.4,1.1s.3,1,.5,1,.6-2.2-.3-4.1-.5-1.1-.1-.8a2.2,2.2,0,0,0,1.4.6c.6,0,.7-.2.5-.9s-.1-.9.8-.8.9,0,.8-.7-.1-.8.5-.3.7.5.7.3.3-.1.7.2a2.2,2.2,0,0,1,.6,1.4c0,.8.1.8.7.2s.6-.8-.2-1.7-.9-.8-.9-.6-1.4-.8-1.8-1.8a1.4,1.4,0,0,0-1.2-1c-.6,0-1.1-.4-1.4-1.3s-.6-1.3-.9-1.3-1.7-2.5-1.6-3.1.8,0,1.6.7,2.1,1.4,1.6.7.1-.3.5-.2.7.2.4-.5-.2-.8.2-.3,1.5.5.5-.5-1-1.1-.2-1.5,1-.4,1.3,0,.1.4-.2.2-.5-.1-.5.1,1.1.5,1.4-.3.4-.8,1.7-.3a10.8,10.8,0,0,1,2.4,1,2.9,2.9,0,0,0,3.7-.6,2.7,2.7,0,0,1,2.4-.9,2.8,2.8,0,0,0,2-.5c.5-.6.5-.6-1-1.3s-3.3-4-2.6-4.6a2.1,2.1,0,0,0,.4-1.4,1.2,1.2,0,0,1,.9-1.2c.7-.2.8-.7,1-2.3s.3-2.2,1.3-2.7a1.8,1.8,0,0,0,1.2-1.7,3.9,3.9,0,0,1,1.3-2.4,5.7,5.7,0,0,0,1.3-2c0-.3.5-.5,1.1-.5s1.1.2,1.1.6,2.2,1.3,4.6,1.2c.8,0,1.3.2,1.2.4a.8.8,0,0,1-.6.4c-.6,0-2.4,1.7-1.9,1.8l2.3.6c.7.2.9.6.8,1.5s.1,1.1,1.2,1.2a1.6,1.6,0,0,0,1.6-.5,1.7,1.7,0,0,1,1.4-.7,2.3,2.3,0,0,0,1.4-.4c.1-.3.9-.5,1.7-.5s1.5-.2,1.5-.6.2-.6,2.2,1.2a3,3,0,0,0,1.4.7,3.3,3.3,0,0,1,1.5.7,3.3,3.3,0,0,0,1.4.6,3.1,3.1,0,0,1,1.4.7,1.6,1.6,0,0,0,2.1.3,2.9,2.9,0,0,1,2.8.3,7.9,7.9,0,0,0,2.9,1.1,14.9,14.9,0,0,1,3.5,1.6c1.8,1.1,2.3,1.3,4.4,1l2.3-.2,2.9,2.4c4.8,4.2,16.3,9.4,15.5,7.1a.9.9,0,0,0-.8-.5c-.5,0-2.7-2.1-4.9-4.6s-4.2-4.7-4.2-5.9a4.6,4.6,0,0,0-2.7-3.9c-.4-.1-.4-.3-.1-.5a3.4,3.4,0,0,0,.9-1.6c.4-1.4,2.6-2.9,3.6-2.6s.5-.1.5-.4,1.1-1.8,3.9-3.2l2.7-1.4c.1-.1-.4-.6-1.1-1.2a2.4,2.4,0,0,1-1.2-2.6c.1-1.2-.2-1.8-1.4-3.1s-2.3-3-2.6-5.3-.3-1.8,1.3-2.2a15.4,15.4,0,0,1,3.9-.5,5.3,5.3,0,0,0,2.7-.5c.8-.9,6.2-.6,9,.4a9.1,9.1,0,0,0,4.7.7c1.4-.2,2.1-.1,2.1.2s.4.5.8.5a2.8,2.8,0,0,1,1.5.6c.8.9,1.9.9,2.2.1s.7-.6,1.9-.4c3.1.4,3.8-2.1.9-3.1s-3.2-1.6-2.4-2.1.2-.7-2.3-2.5c-.9-.6-.9-.8-.4-2.7s.4-2.2-.3-3.4-2.4-1.8-4.1.2-3.3,2-4.8,0l-2.1-2.9c-1-1.2-1-1.3-.3-2.1a3.1,3.1,0,0,1,2.1-.9c2.9,0,3.9-3.5,1.7-5.6s-2.3-3-2.3-5.6a36.2,36.2,0,0,0-3.6-15.3c-1.7-3.8-2.3-5.6-2-5.9a7.8,7.8,0,0,1,2.5-1.3c4.4-1.7,9.1-5.1,9.2-6.6a9,9,0,0,0-1.8-2.2c-2.1-2.1-4.8-3-9.9-3.4s-4.9-.5-7.4-1.6-2.4-.8-2.7-.5-.3.7.4,1.4,1.1.8,1.4.7,3.8,1.3,4.7,2.1.7,1.1-.6,1.1-1,.2-.8.7.1.5-.4.4-.7-.4-.7-.6a2.6,2.6,0,0,0-1.4-2.4c-.9-.2-1.2.4-.2.7s-.3.4-1.3.6a5.3,5.3,0,0,0-2.1.6,7.2,7.2,0,0,1-2.6.3,7.2,7.2,0,0,0-2.7.6,2,2,0,0,1-1.6.3c-1.2-.1-1.5-1.4-.5-1.7s0-.3-.9-.3a6.3,6.3,0,0,0-2.7.6,4.5,4.5,0,0,1-2.4.7,12.2,12.2,0,0,0-3.2,1.1,6.1,6.1,0,0,1-2.6,1c-1.4.1-2.7,1-2.6,2a1.4,1.4,0,0,1-.7,1.2c-1.1.5-3.3.3-3.9-.3a1.7,1.7,0,0,0-1.2-.7c-1.2,0-.2-1,1.4-1.5l1.7-.4-1.5-1.2c-1.2-.9-2.1-1.2-4.7-1.3s-4.6.2-2.2.7,1.3.4,1.3,2.1.2,2,1.1,2.4,1.3,1.2.7,2.2-.6.5-1.3.1a4.1,4.1,0,0,0-1.8-.5.8.8,0,0,1-.9-.7c0-.4-.4-.2-1.4.7a5.1,5.1,0,0,1-2.1,1.3,5.8,5.8,0,0,0-1.9,1l-1.3,1,1,1c1.6,1.5.7,2-2.3,1.2a34.6,34.6,0,0,1-3.4-1.1,1.7,1.7,0,0,0-1.9,0c-1,.6-1,1.7.1,1.7a.6.6,0,0,1,.6.5c0,.2.5.4,1.2.4a1.9,1.9,0,0,1,1.6.7c.3,1.1-2.3.9-4.5-.3a9,9,0,0,0-2.3-.8c-.5,0-.8-.3-.8-.6a2.2,2.2,0,0,0-.9-1.4c-.7-.6-.7-1-.4-1.6s-.3-1.9-2.3-2.3a1.8,1.8,0,0,1-1.3-.8c-.2-.4.6-.4,3.3.1,9.1,1.9,11.6,1.9,14.3,0s1.5-2,.4-3.3-3.9-2.5-4.3-2.2-.9,0-1.6-.4l-1.6-.7a18.6,18.6,0,0,1-3.4-1.3,28.9,28.9,0,0,0-6-1.3c-2.7-.3-4.1-.7-4.1-1s-3-1.2-3.6-.8a4.7,4.7,0,0,1-2.5.1l-1.9-.2,1.4-.5c.8-.3,1.4-.7,1.2-.9s-5.4-1.9-5.9-1.6-.4,0-.4-.2-.7-.5-1.5-.5a2.2,2.2,0,0,0-2.1,1c-.5.7-.7.8-.8.3s-.5-.9-1.2-1.2S602.6,360.6,602.2,361.3Zm2,.8a.5.5,0,0,1-.5.4c-.2,0-.3-.2-.1-.4s.3-.4.4-.4S604.2,361.8,604.2,362.1Zm4.8-.3c0,.4-1.3.6-1.5.3s.1-.4.6-.4S609,361.7,609,361.8ZM589,366c0,.2-.3.3-.7.2s-.6-.4-.6-.5h.6C588.7,365.6,589,365.7,589,366Zm-4.4.9c0,.2-.3.4-.7.4s-.7-.1-.2-.4S584.6,366.4,584.6,366.9Zm-4.6,2.9c.1.3.1.5-.2.3a.7.7,0,0,1-.4-.7C579.4,368.8,579.7,369,580,369.8Zm3.4-.4h-1.1q-.4-.3.6-.3C583.5,369.1,583.7,369.2,583.4,369.4Zm19.5,9.5c.9.2,1.3.5,1.3,1s-.2.8-.9.6-.9-.1-.7.4-2.5,3.4-3.4,3.4-.7.2-.7.4-2.5,1.8-3.1,1.5a1.1,1.1,0,0,0-1,.2.6.6,0,0,0,.4.8c.6.2.6.3,0,.9a1.1,1.1,0,0,0-.2,1.4l.8,1.6a11.4,11.4,0,0,1,.3,3.1c-.1,1.8,0,2.2.6,2.1s.7.2.6.5.6.6,1.4.7,1.6.5,1.6.8,1.3.1,3.4-.4a14.2,14.2,0,0,1,3.8-.7.8.8,0,0,0,1-.2,10.1,10.1,0,0,1,3.3-.7c2.5-.1,3.2-.1,4.1.6s1.1,1.3-.5,1.4-1.2.4-1.2.7-2.2.6-6.5,0c-2.1-.3-7.2,2-5.8,2.6s.7,1-.1.7a.9.9,0,0,1-.7-.8c0-.4-.2-.6-.5-.6s-2.4.7-1.7.8.6.9-.2.9-.7.3-.4,1.2.7,1.8.9,1.1a1.4,1.4,0,0,1,1.1-.6c.4,0,.8-.1.8-.3s1.7-1,2-.5a1.5,1.5,0,0,0,1,.4c1.5,0,1,4.3-.4,4.4l-1.9-1.5c-1.5-1.3-1.8-1.4-2.9-1s-2.7,3.3-2.4,6-.5,3.4-2,3.4a.8.8,0,0,0-.8.7c0,.4-.5.9-1,1.2s-2.7.1-2.3-.6-5.4-.7-6.5.7a9.8,9.8,0,0,1-3.1,1.1c-2.9.6-4.1.2-4.1-1.1s-1.2-1-5.4.8a4.1,4.1,0,0,1-1.9.5c-.4-.4,1.7-2,2.1-1.7s.4-.1.6-.5a1.1,1.1,0,0,1,.9-.6c.4,0,.6-.2.5-.5a.6.6,0,0,0-.8-.1c-.4.2-.4.1,0-.4s.4-.8.2-.9,0-.3.3-.3.5-.4.5-.8.2-.3.4.4.5,1,2.2,1,1.9-.1,2.1-.8,1.4-1.9,3.2-2,1.7-.2,1.7-.8,0-.6.4-.1.5.6.6.5,1.5-3.7,1.3-3.9-.4,0-.5.3-1,.6-.8-.5a21.8,21.8,0,0,0,.7-3.8c0-.2.4-.4,1-.6l1.2-.4,1.2-.4c.5-.2,1-.7,1-1a1.7,1.7,0,0,1,.6-1.2c.5-.4.5-.7.1-1.5s-.9-1.4-3.1-2.4-1.9-1.6-1.3-2.8a5.4,5.4,0,0,0,.3-1.9,2.6,2.6,0,0,1,1.2-2c.7-.4,1.3-1,1.3-1.2s3-2,4-2a7.4,7.4,0,0,0,2-1.6c1.2-1.1,1.4-1.6,1-1.8s-.4-.7.4-1.7,1.2-1.3,1.4-1.2.3,0,.3-.2S600.7,378.5,602.9,378.9Zm-34,4.2c0,.6-2.1,2.5-2.7,2.5s-.2-.3.1-.6.4-.7.2-.7.1-.4.7-.9S568.9,382.3,568.9,383.1Zm-8,5h-.8c-.3-.1-.2-.3.3-.3S561.1,387.9,560.9,388.1Zm9.3,27.1c0,.2-.3.5-.7.6s-.5.1-.4-.1.1-.5-.1-.5-.5-.1-.5-.4.4-.3.9-.1S570.2,415.1,570.2,415.2Zm26.3.1c-.4.3-.6.4-.6.1s.6-1.1.9-.8A1.3,1.3,0,0,1,596.5,415.3Zm-28.5.8c0-.3.3-.2.7.1s-.4,1.5-1.8.8-1.4-1.4.1-.9S568,416.4,568,416.1Zm-15,7.8a.9.9,0,0,1-.7.5c-.2,0-.2-.3.2-.6S553.5,423.2,553,423.9Zm97,20.9c-.9.5-1.7.8-1.9.6s-.3.1-.3.5.4.7,1,.9.8.3.2.7a2.8,2.8,0,0,0-1,1.5c-.3,1.1-.4,1.2-2.8,1a7.3,7.3,0,0,0-3,.2c-.3.2-.8-.1-1.3-.8l-.9-1.1,1.1-1.3a5.3,5.3,0,0,1,2.5-1.4l2.2-.5a17.2,17.2,0,0,1,4.6-1.1C651.3,444,651.3,444.1,650,444.8Zm-49.3,32c.2-.1.3.2.2.5s-.4.7-.7.7h-.7a2.8,2.8,0,0,1-.4-1.4c-.1-1.5-.1-1.5.6-.7A1.6,1.6,0,0,0,600.7,476.8Zm8.3-1c.6.3.6.4-.1.4a1.3,1.3,0,0,1-1-.4C607.6,475.2,608.1,475.2,609,475.8Zm-2.7,1.6a1.4,1.4,0,0,1-.9,0c-.3-.1-.2-.3.3-.3S606.4,477.2,606.3,477.4Zm.8,1.5c-.1.4-.2.2-.2-.2s.1-.8.2-.6A.7.7,0,0,1,607.1,478.9Z" transform="translate(-68.9 -52.9)" />
      <path class="cls-1" d="M483.4,376.3a3.3,3.3,0,0,1-1.6.7c-.5.1-.9.3-.9.6s-.2.6-.3.6a3.3,3.3,0,0,0-1.3.7c-.7.6-.6.6,2,.5s3.8.8.4,1.2-2.6.6-2.3,1.1a1,1,0,0,0,.7.4c.3,0,.3-.1.2-.3s3-.1,3.3.5.4,1.6-.7,1.6-1.1.2-1.1.6.5.5,2.1.5a7.2,7.2,0,0,1,3.4.5,12.1,12.1,0,0,0,7.3.2,64.2,64.2,0,0,1,6.4-2c2.7-.8,5.6-2.7,5.6-3.7s-.5-1-1.3-1.4-1.2-.7-1-.9-.1-.4-.4-.4-.2-.3.3-.7.8-.7-.7-.4-1.7.1-1.9-.2-2-.5-2,.2-.3.7-.9.7H495c-2.1,0-2.8.2-3.1.8s-.5.7-.7-.1-1.6-.9-1.6.2-.2.8-.6.7-.8-.1-.9.1-1,.5-.8-.4-.2-1-1.4-1.7S484.2,375.4,483.4,376.3Z" transform="translate(-68.9 -52.9)" />
      <path class="cls-1" d="M520.9,389.8c-.5.5-.4,1.6.1,1.3s.5,0,.7.2a.7.7,0,0,1-.2.8c-.4.3-.3.5.2,1s.7.5.5-.2a.9.9,0,0,1,.1-1c.3-.1.4-.4.2-.6a.7.7,0,0,1,.2-.7.9.9,0,0,0,.5-.8c0-.3-.2-.3-.4.1s-.5.5-.7.1A.7.7,0,0,0,520.9,389.8Z" transform="translate(-68.9 -52.9)" />
      <path class="cls-1" d="M530.2,400.6a1.4,1.4,0,0,0-.5,1c0,.7-1.8,1.2-3.3.9s-1.2.1-1.7.8-2.4,2.8-2.9,2.6-.7-.1-1.1.2-.5.7-.1,1.2.6.7.5.8a.7.7,0,0,0-.1.5c0,.2.2.1.4-.3s.5-.4.6-.1-.3.7-1.2.9-1.5.7-1.5,1,.3.2.8-.1.9-.3.9.2a.9.9,0,0,0,.8.8c.5.1.5.3-.5.7s-1.2.7-1.2.9a.9.9,0,0,0,1.5.5c.6-.5,1.1-.2,1.1.6s-.2.1-.4-.2-.4-.5-.4.1.2.8,1.3.5,1.2-.1,1,.4-.4.7-.6.7-.3.5.1,1,.6.7.7.5,3.6-.6,3.3,0,.2.9.6,1.4.8,2.4-.1,2.9a4.2,4.2,0,0,1-2.1.1c-1-.1-1.6,0-1.6.2s.2.4.4.3.5.1-.5,1l-1,1,1.1-.2c1.9-.2,1.6,1.2-.5,2s-2.2,2.2.4,2.3,3.7,1,1.8,1-3,1.4-3,2.2-.7.7-1.5,1.1-1.4.9-1.3,1.1a2.6,2.6,0,0,0,2.6-.3,3.1,3.1,0,0,1,2.3-.4,1.8,1.8,0,0,0,1.9-.6c.6-.7,1.2-.8,3.8-.7s3.1,0,3.1-.2.8-.3,1.8-.2,5.6-1.2,5.6-1.9-.3-.5-.7-.5-.9-1.1,0-1.4,2.1-2.4,1.6-3.3-2.9-1.7-3.9-.9-.7.5-.2-.1.5-1,0-2a12.8,12.8,0,0,1-.5-1.7c0-.5-1.3-1.7-2.4-2.4a2.9,2.9,0,0,1-1.2-1.6c-.4-1.7-1.5-3.1-2.4-3.1s-1-1.4.1-2.2.9-.9.9-1.2a2.2,2.2,0,0,1,.7-1.2c1-1.1.3-1.5-2.5-1.5a5.8,5.8,0,0,1-2.8-.5c-.1-.2-.1-.4.2-.4a3.8,3.8,0,0,0,1.6-.9c.6-.5,1-.9.8-.9s0-.4.5-1l1.2-1.4C532.8,399.9,530.8,399.9,530.2,400.6Zm-8.3,5.9a.5.5,0,0,1-.5.5c-.2,0-.3-.3-.2-.5a.9.9,0,0,1,.5-.4C521.8,406.1,521.9,406.3,521.9,406.5Z" transform="translate(-68.9 -52.9)" />
      <path class="cls-1" d="M515.9,414.3c-1,.3-3.1,2.7-2.3,2.7s.3.2.2.4-1.1.4-2.2.3-2-.1-2.4.6-.2.9.2,1,.4.3,0,.8-.7,1.1.5,1.4,1.3,1.1-.7,2.6-2.3,2.9-1.2,2.9.3.2.1.5-.1.4.4.2.7,0,.7.2,3.4,0,5.6-1.2a10.6,10.6,0,0,1,3.4-1c1.2,0,1.4-.2,1.8-1.7a12.8,12.8,0,0,0,.6-3.4c0-1.4.1-1.8,1.1-2.2s1.3-1.7.3-3S517.6,413.8,515.9,414.3Z" transform="translate(-68.9 -52.9)" />
      <path class="cls-1" d="M564,459.3a2.2,2.2,0,0,1-1.4,1,1.6,1.6,0,0,0-1.2,1,4.9,4.9,0,0,0,1.2,3.8c.7.5.7.6-.4,1.3s-1.3.7-1.5.3-.5-.3-.6.2a2.5,2.5,0,0,0,.4,1.7,2.5,2.5,0,0,1,.4,1.7c-.7,3.4-.7,3.7.3,4.2s1,.4,1.4-.2a1.3,1.3,0,0,1,1.3-.6c.8.4,1.1-.4,1.2-4.1s0-3.1-.7-3.6-.7-.8-.3-2.3S564.6,458.1,564,459.3Z" transform="translate(-68.9 -52.9)" />
      <path class="cls-1" d="M608.4,486.6a2,2,0,0,0-.3,1c0,.5.6.8,1.9,1a4.6,4.6,0,0,1,2,.7c.2.3,1.2.3,2.7.1s3-.9,1.7-1.3-.4,0-.2.4.1.4-.5-.1a5.4,5.4,0,0,0-3-.8c-1.2-.1-2.3-.3-2.3-.5a.5.5,0,0,0-.6-.2.5.5,0,0,1-.8-.2A.4.4,0,0,0,608.4,486.6Z" transform="translate(-68.9 -52.9)" />
    </g>
    <g>
      <path class="cls-1" d="M294.8,574.4c-.7.3-1.2.8-1.2,1.2s-.3.8-.6.8a4,4,0,0,0-1.7.9,5.1,5.1,0,0,1-2.7.9c-1,0-1.7.2-1.8.6s-.6.6-1.2.4-4.2,3.2-3.8,5.6c0,.2-.2.3-.5.3s-1.7,1.1-1.7,1.7-.5.7-1.3,1.1-1.1,1-1,1.5-.5-.2-1.6-1.3-4.4-3.4-5.7-3.4-.4.6-.4,1.2a1.9,1.9,0,0,0,1.1,1.9,3.6,3.6,0,0,1,1.4,1.3c.1.5.4.7.7.5s.3,0,0,.4-.3,2.7.6,3.5a4.2,4.2,0,0,1,1.1,1.7c.7,1.4.9,9,.4,9.3s-.3.6,0,1.2-.2,3.8-1,3.8-.4.3-.4.6-.7.8-1.5,1.2-1.5.9-1.5,1.5a1.4,1.4,0,0,1-.7,1.3c-.4.1-.6.5-.4,1.2s.1,1.2-1.7,1.8-2,.9-2,2.5-.2,1.7-.6,1.9-.7.7-.7,1.3a2,2,0,0,1-.9,1.6c-.5.2-.8.6-.6.9s.6,3.8.1,3.8.1.6.9,1.3a6.7,6.7,0,0,1,1.4,1.7.5.5,0,0,0,.4.5c.3,0,.4-.2.4-.5s.1-.4.3-.3-.3,1.7-.8,1.7a7.4,7.4,0,0,0-2.2,1.8c-1.5,1.7-1.7,2.1-1.4,3.6a4.9,4.9,0,0,0,.9,2.5c.7.8.8,1.7.2,1.7s-.2,1.3,1.5,2.2a6.4,6.4,0,0,1,3.1,3.2c.7,1.2,1.6,2.8,2.1,3.5a26.5,26.5,0,0,1,2.4,4.6,27.5,27.5,0,0,0,2.3,4.4,5.2,5.2,0,0,1,.8,1.8,2.5,2.5,0,0,0,.9,1.4,2.7,2.7,0,0,1,.8,1.6,1.3,1.3,0,0,0,.4,1c.9.5,3.6,5.1,3.4,5.7s.5,2.8,2.6,4.9,8,5.9,10.5,6.7c.8.2,1.4.6,1.4.8a4.3,4.3,0,0,0,1.6,1.1c.8.5,1.5,1,1.5,1.2a2.6,2.6,0,0,0,1.5,1.6c.8,0,2.2,2,2.7,3.9,1.3,4.7,2.2,14.9,1.4,14.9s-.4.4-.4,1,.1,1.1.4,1.1,1.1,17.9.5,19.4a2.2,2.2,0,0,0,.3,2.2,6.5,6.5,0,0,1,.3,3.5,7.2,7.2,0,0,0,.7,4.3,10,10,0,0,1,.9,2.9c0,.5.2.8.4.8s.5.9.4,1.9a20.2,20.2,0,0,0,.1,2.7c0,.9-.3,6-.7,9.6-.1,1.2-.2,2.7-.2,3.2s-.2,1-.7.8-.7-.1-.4.9a3.8,3.8,0,0,0,.9,1.9,3,3,0,0,1,.6,1.3,10.2,10.2,0,0,0,1.1,2.5,4.3,4.3,0,0,1,.9,3.1c-.4,2,.2,5.6,1.1,6.6s.6.8.3.8-.4.5-.2,1.3.4,2,.5,2.7c.5,2.6,1.9,3.4,2.8,1.7s.4-1.1,0-1.6-.4-.6-.2-.6.1-.3-.2-.6-.4-.7-.2-.7.1-.2-.2-.5-.6-1.4.2-1.1.7.1.5-.3-.1-.6.1-.5a1.1,1.1,0,0,1,.5.9c0,.4.2.6.4.6s.4.2.3.4-.1,1,.1,1.9a25.6,25.6,0,0,1,.7,3.6,5.8,5.8,0,0,0,.7,2.5q.6.3-.3.6l-1.1.5c-.1,0-.2-.4-.1-1.1s-.4-1.8-1.5-1.8-.5.2-.2.5.5,1.7-.2,1.7a1.3,1.3,0,0,0-1,.8c-.5,1-.6,1.8-.1.9s2.3.2,2.3,1.5-.3,1.1-.5,1.1-.4.5-.3,1.3a2,2,0,0,1-.3,1.9c-.4.4-.6,1-.4,1.3s1.3,1,1.5.3.5-.4,1.2,0,1.2.4,1.4.2.3.1.1.4,0,.7.2.7-.1,2.4-1.1,2.9-.8.6-.6.8.3.5.3.6.8,2.2,1.1,2.2.4.2.3.4a6.4,6.4,0,0,0,1.5,3.1,3.2,3.2,0,0,1,1,1.8c.2.7.5,1.3.7,1.3l1,.2c.2,0,.6.8.7,1.7s.4,1.6.4,1.3.5.3,1,1.1,1.1,1.3,1.9,1.2a2.2,2.2,0,0,1,2,.7c.5.5,1.2.9,1.3.8a.4.4,0,0,1,.4.4c0,.5-.6.4-2.4-.2s-.4.1.6,1,1.6,1.3,1.8.9,1.3-.1,1,.7-.1.6.1.6,1.9.6,1.9,1.2.5.6,1.3.6,1.2-.2,1-.7a.8.8,0,0,0-1-.5c-.5.1-.8,0-.8-.2s1.7-.3,2.2.6.5,1.1.4,1.2.2.4.7.7l1.4,1c.7.7,1.4.7,1.4-.1s.1-.3.4.2l.7.7,1.6.5a2.8,2.8,0,0,0,1.6.3.5.5,0,0,1,.7.2c.1.3.4.3.7.2s.4-.1.4.2.8.4,1.9.4a5.1,5.1,0,0,1,2.6.5c.4.3.9.4,1,.3s-.1-.6-.5-.9-.5-.7,1.7-.5,2.4.1,2.2-.4a.5.5,0,0,1,.5-.7,1,1,0,0,0,.8-.6c.2-.4.5-.7.7-.7s.3.3-.1.7-.4.6.2.6a.7.7,0,0,0,.7-.8c0-.7-.3-.9-1.5-.9s-7-2.5-9.5-5-2.2-2.5-2.1-2.8-.4-.8-1-1.2-3.7-4.2-3.7-5.3.3-1,1-1.2,1.7-1.4,1.1-3-.3-1.8,2.1-3.9c.8-.7,1.3-1.4,1.1-1.7a2.9,2.9,0,0,1-.4-1.4,2.2,2.2,0,0,0-2.4-2c-1.4,0-4.1-1.4-4.7-2.5s.7-4.4,2.9-4.4,1.7-.7,1-1.2-.3-.4,0-.6.4-.7-.1-2.2l-.7-1.8,1.3-1.2a4.8,4.8,0,0,1,1.9-1.3c.7,0,.8-1,.2-2.2s-.8-.8-2.3-.6l-2,.3-1-2.3c-.6-1.3-.9-2.5-.7-2.5a4.5,4.5,0,0,1,2.1.5c2.1.8,3.5.9,5,.2s1.5-1.8.6-2.4-.3-.9-.2-1.8a2.2,2.2,0,0,0-.4-2.3c-.8-.8-.8-.9,0-.6s.7.2.5-.2.2-.5,1.7-.5c4.6,0,10.7-2.2,10.7-3.8a1.9,1.9,0,0,1,.3-1.2c1.6-1.7,1.4-5.4-.3-5.4s-1.4-.8-1.4-2.4-1-2.2-3.1-3.2-1.5-1.1-1.6-1.6-.1-.9.7-.2a3.5,3.5,0,0,0,2.2.8c.8,0,1.4.2,1.4.4s2.1,1.1,5,1.2,5.3-.8,5.7-3.3c.2-.7.4-1.3.6-1.3s1.7-2.4,2-4a5.2,5.2,0,0,1,1.7-2.9c1.1-.9,1.5-1.5,1.3-2.1s-.3-.7-.6.2-1.6,1.7-2,1.3.3-.9.9-1.7a5.5,5.5,0,0,0,1.1-2.4.8.8,0,0,1,.7-.9c.5,0,.6.3.5,1s.1,1.1.4,1.2.7-.4,1.1-1.6c1.1-4.1,1.3-4.7,2.6-6a7.1,7.1,0,0,0,1.4-7c-.5-1.6-.7-6.5-.2-6.4s4-3.6,4-4,.6-.5,1.3-.7,1.3-.4,1.3-.7.5-.4,1.5-.2,1.5.2,1.5-.2a.5.5,0,0,0-.5-.4c-.2,0-.3-.2-.2-.4s5.9-2.2,8.3-2.2,2.3-.2,2.6-1.3a3.5,3.5,0,0,1,1.6-1.9c1.1-.6,1.3-.9,1.1-1.7s.6-2.9,3.1-7.8a6.5,6.5,0,0,0,.3-3.3c-.2-1.7-.1-2.3.5-2.9s1.3-4.3,1.2-7.9c0-.7-.1-3.3-.2-5.7-.2-4.1.1-5.4,1.2-5.4s1.4-1.4,2.4-3.5,1.9-4,2.9-5a32.7,32.7,0,0,0,5.3-7.4c1-2.6,1-5.7-.1-9.5a42,42,0,0,0-1.3-4.1,11,11,0,0,0-2.9-.6c-2.8-.3-2.8-.4-6.3-3.8a37.5,37.5,0,0,0-4.8-3.6c-2.2-1.2-2.6-1.3-4.3-.9a4.5,4.5,0,0,1-3.1-.2,2.2,2.2,0,0,0-1.6-.4c-.2.2-.9,0-1.5-.4s-3.9-1.3-3.5-.6,0,.3-.7.1-2-1.1-1.8-1.8a1.1,1.1,0,0,0-.5-1.1,2.2,2.2,0,0,1-.7-1.2.4.4,0,0,0-.8,0c0,.5-3.1-.8-3.6-1.5s-.4-.3-.4-.1-.2.2-.6-.1-1.7-.8-3.6-1.1a3.2,3.2,0,0,0-3.2,2.2c-.7,1.9-.8.9-.2-.9s.8-2.7-.9-3a3.6,3.6,0,0,1-2.3-1.2,1.9,1.9,0,0,0-1.1-.8c-.6,0-.6-.7,0-3.2a2.9,2.9,0,0,0-.7-2.5,4.6,4.6,0,0,0-1.5-1.3c-.5,0-1.5-3.4-1.5-5.2s-1.7-3.9-1.8-3-1.1-.7-2.5-2a9.6,9.6,0,0,0-2.9-2.4,12.2,12.2,0,0,1-2-.7c-1.5-.8-6.6-1.3-7-.7s-3.7-.4-5.5-2.2a9.7,9.7,0,0,0-2.4-1.7c-.2,0-.3-.4-.3-1a4.1,4.1,0,0,0-.9-1.9c-1.2-1.5-4.8-3.5-5.6-3.3s-1.6-.6-1.1-1.3a1.4,1.4,0,0,0-.6-2.3c-.6-.2-1-.5-1-.7s-.3-.4-.8-.4a2.1,2.1,0,0,1-1.3-.5c-.4-.4-.6-.4-.9.1s-.5.4-.5.1a5.2,5.2,0,0,0-.2-1.1c-.2-.5-.1-.7.3-.7a2.9,2.9,0,0,0,1.5-.7c.7-.7.5-.7-3.3-.5l-4.5.3q-.3,0-.3.6c0,.3-.5.8-1.1,1.1s-4.1-.1-4.1-1.1-.6-.7-3.7-.4l-3.7.3v-1.1c0-1.3-2.1-2.9-3.8-2.9s-1-.3-1-1-.3-1.6-1.2-1.3-.6.8-.6,1.7-.2,1.5-1.2,1.7a9,9,0,0,0-2.4,1.2c-1.1.8-1.3.8-1,.2s0-.8-.2-.8-.4-.3-.4-.8.3-.9.7-.9a2.5,2.5,0,0,0,1.9-2C297.5,574.4,296.1,573.9,294.8,574.4Zm1.8,10.3c0,1.1-.7,2.2-1.3,2.2a5.1,5.1,0,0,1-.8-1.7c-.5-1.5-.5-1.8.2-2.6l.8-.9.6,1A4.6,4.6,0,0,1,296.6,584.7Zm8.2,95.5c.6.7.8,1.3.5,1.7s-.4.4-.6-.2a1.2,1.2,0,0,0-.9-.7c-.3,0-.6-.4-.8-.9S303.6,679,304.8,680.2ZM389,708.4c0,.2-.1.5-.2.5s-.3-.3-.5-.5,0-.4.2-.4A.5.5,0,0,1,389,708.4Zm-16.3,28.4c-.1.4-.2.3-.2-.2s.1-.8.2-.6A.7.7,0,0,1,372.7,736.8Zm-31.4,45.3c.1.2-.1.4-.6.4s-.9-.2-.9-.4.2-.5.6-.5A1.1,1.1,0,0,1,341.3,782.1Zm-23.6,7.1c-.2.4-.4.6-.6.4s-.1-1,.4-1S317.9,788.9,317.7,789.2Zm-.8,1.6c.4,1.3,0,1.5-.6.2s-.3-1.1-.1-1.1S316.8,790.3,316.9,790.8Zm2,1.5-.7.4c-.3.1-.7,0-.7-.2s.4-.4.7-.4ZM338.5,820c0,1,.7,1.4,2.4,1.4s1.2-.1.3.4-.9.8-.7,1,0,0-.5-.4-.8-.8-1-.3-.4.1-.8-.6-.8-3-.2-2.6S338.5,819.5,338.5,820Zm-2.9-.1c-.1.3-.6.5-1,.5s-.5-.1.2-.6S336.1,819.2,335.6,819.9Z" transform="translate(-68.9 -52.9)" />
      <path class="cls-1" d="M365.3,813.4a3,3,0,0,1-1.6.1c-.5-.2-.5-.1-.1.4s.7,1.7-.1,1.4-.6.7.6,1.4,1.3.6,2.7-1,1.2-1.2,1.1-.8c-.8,2.1-.8,2.4,0,2.4a7.6,7.6,0,0,0,2.9-1.2c1.9-1.1,2-1.3,1.4-1.8a5,5,0,0,0-2.8-.7,11.4,11.4,0,0,1-2.6-.3A2.6,2.6,0,0,0,365.3,813.4Z" transform="translate(-68.9 -52.9)" />
    </g>
    <g>
      <path class="cls-1" d="M472.6,327.3l-11.7.5c-3.2.2-6.5.4-7.2.6l-2.4.2h-1.1l1.1.9c.9.7,1,.8.3.9a1.2,1.2,0,0,1-1-.5c-.1-.3-.7-.4-1.1-.3a1.4,1.4,0,0,1-1.4-.3c-.8-.7-1.3-.9-.9-.2s-.4.4-1.4.4-1.5.1-1.3.7.1.7-.7.4c-2.4-.7-4-.7-4.6,0s-.5.8-.5,0-.4-.8-5-.5l-7.7.5c-1.5.1-2.5.1-2.2,0s.4-1.1-1.2-1.1a4.2,4.2,0,0,1-2.2-.5c-.3-.4-4.7-.5-15.4-.6-15.2-.1-20.1.2-23.2,1.2a6.2,6.2,0,0,1-3.6.3,9.4,9.4,0,0,0-4.1,0,46.1,46.1,0,0,1-5.8.7c-5.1.3-8.1.7-8.1,1.1s.4.4.9.4.9.3.9.6.6.8,1.4,1.1,1.2.4.5.5a2.9,2.9,0,0,0-1.4.5c-.5.5-.6.5-.4,0s-.3-.7-.9-.8a3.2,3.2,0,0,1-1.9-1c-.6-.7-1.4-.9-3-.9a3.8,3.8,0,0,0-2.4.5,2.9,2.9,0,0,1-1.8.4c-.8,0-1.4.2-1.4.4s-.5.5-1,.5a12.3,12.3,0,0,0-3,.8c-1.5.7-1.9,1-1.9,1.8s.3,1.1,1.3,1.2,1.1.3.5.5-.6.3.1,1.3,1,1.1,6.7,1.2,8.8.6,7.1,1.3-.9.1-1-.2-3.4-.7-4.6-.3a.9.9,0,0,0-.4,1.2c.2.8.1.8-.7.6a12.5,12.5,0,0,0-3.4.4,7.2,7.2,0,0,1-2.5.3c-.4-.3-2,.4-2,.8s.2.3.5.1.3-.1.2.3-.6.3-1.2-.2-1.2-.7-2.7-.5-2.1.2-2.2-.1a1.8,1.8,0,0,0-1.4-.5,2,2,0,0,1-1.3-.4c-.2-.4-4.2-.1-4.6.4s-.5.4-.8.6-.6.2,0,.2,1.6,2,1.1,2.5a14.9,14.9,0,0,1-3.1.4l-3.1.2,1.3-1.1c1.1-1.1,1.1-1.2.5-1.9s-.8-.6-1.5-.1-1.5.6-1.1.1-2.6-.6-5.3.2-2.3.9-2.3,1.3-.3.6-.5.4-.3-.4-.2-.6-1.8-1.8-2.7-1.5-2.4,1.9-1.8,1.9.4.1.2.3,1.3,1.4,3,1.4,1.9.2,1.8.8.3.8,3.2.6,3.3-.3,3.7-.8a1,1,0,0,1,1.4-.3c.5.2.6.4.2.5s-.3.4.2.8.6.6.3.6-.7.9.1.9.6-.2.6-.4,1-.3,2.2-.1,2.3,0,3.3-1,1.1-1.3.6-1.6-.5-.5-.1-.7a1,1,0,0,0,.6-.8c0-.9,3.7-.8,4.1.1s.2.7.1.7a3,3,0,0,1-1.2.6c-1.1.5-2.1,2.2-1.4,2.4a98.2,98.2,0,0,0,10.3.6c5.5.2,7.9.2,8.3-.2s.7-.4.9,0,5.1.3,7.6-.5,2.6-1.4,2.6-2.1-6-1.7-11.9-.7a19.6,19.6,0,0,1-3.8.4l-2.4-.4c-1.9-.1-3.9-1.1-2.1-1.1s1.1-.1,1.2-.3a26.3,26.3,0,0,1,5.9-.4h11.6c.9.1.9.1,0,.5s-.1.4,1.8.2,2.3-.1,1.6.2-1.3.9.1.9,1.3-.3,1.4-.9a1.2,1.2,0,0,1,1.2-.9c1.6,0,3.7-.9,3.7-1.6s-.3-.6-1.1-.4-1,.2-.8-.1.7-.5,1.2-.5a5.5,5.5,0,0,0,2.2-.7,9.5,9.5,0,0,1,3.5-.8c3.1-.3,4-.7,3.3-1.1s-.2-.3.7-.2,1.5.1,1.6-.2a1.9,1.9,0,0,1,1.1-.5,2.8,2.8,0,0,0,1.8-1c1-1.1,2.1-1.4,6.9-1.8a14.1,14.1,0,0,0,3.8-.9,8,8,0,0,1,2-.8c9.1-1.7,11.6-2.2,11.2-2.5s.2-.2,1-.1a2.9,2.9,0,0,0,2.2-.2c.6-.4,6.9-1.6,7.2-1.2s-.1.5-.5.9a5.3,5.3,0,0,1-3.2.7c-3.3,0-12.4,1.8-12.6,2.5s.4.5,1.8.5,2,.2,2,.4-2,1.5-6.1,1.8c-6.4.6-13.2,1.6-14.5,2.3l-1.2.6,1.2.5a4.9,4.9,0,0,0,1.9.5,1.3,1.3,0,0,1,1,.4c.1.1-.9.3-2.2.2a6.4,6.4,0,0,0-2.6.3c-.1.2.3.4.9.4s1,.2.9.6,3,3,5.5,3.3,2.2,0,2-.3.1-.4,1.1-.1a3.9,3.9,0,0,0,1.7.2c1-.7,7.4-.5,10.6.3s4.5,1.2,3.2,1.2-.5,1.2.7,1.5.9.3.1.9-.8.6,0,.8.6.2-.2.3-.9.2-.7.5.5.3,1,.1.4.1-.4.8l-1.1.9,1-.2c1-.2,1-.2.3.6s-.7.9-.2,1.3.5.4-.3.4-1.3.6-.4,1,.1.6-.7,1.3-1.1,1.1-.6,1.8.9.8,2.2.5,1.7,0,1.8.2-.1.3-.4.2-.7-.1-.7.2.4.5.9.5.8-.3.8-.8,0-.8.3-.8.3.3.3.5.3.6.8.6,1.1.3,1.1.9-.5,1.2-.9.4-5.4-.5-5.7,0a.4.4,0,0,0,.3.6c.3.2,0,.2-.6.1s-1.2-.1-1,.1-.2.9-.7,1.5l-.8,1.1,1.4.8c1.3.6,1.7.6,3.8.1s3.1-1.3,1.5-2.1-1.1-.6-.9-.7.5-.1.8.2a2.3,2.3,0,0,0,1.5.5c1.2,0,1.2,1.4.1,3.1s-1,1.2-2.9,1-2.2-.2-3.2,1.1-1.3,1.3-1.5,1.3-2.4,2.3-2.4,2.9.4.6.8.7.5.1-.2.4-2.1,2-1.5,2.3.3.7.1,1.2,0,.9.6.7.7-.1.5.3-.1.7.1.7.1.7-.2,1.6-.4,1.7.1,2,.6.5.2.7.1,2.7.9,2.7.4.4.2,1.3-.1,1.3.1,1.3.6.8.9,1.7a3.9,3.9,0,0,0,1.1,1.9,1.4,1.4,0,0,1,.7,1.2c0,.9.5,1.1,1.6.4s4.9.7,4.9,1.6.4.7.8.8l1.7.7a3.1,3.1,0,0,0,3.8-1.3c.3-.5.7-.9,1-.9s.6-.4.8-.9a8.1,8.1,0,0,1,1.7-2.3,8.1,8.1,0,0,0,1.7-2.6,2.3,2.3,0,0,1,1.4-1.6,13.8,13.8,0,0,0,2.3-1.6,5.8,5.8,0,0,1,1.9-1.3c.4-.1.8-.5.8-.8a2.7,2.7,0,0,1,.9-1.5c.6-.6.9-1.2.7-1.8s-.1-.8.1-.7,3.1-1.2,2.8-1.5.7-.4,1.8-.4,1.9-.2,1.7-.6-.2-.4.3,0,3,1.1,3,.6a.7.7,0,0,1,.7-.5c.3,0,.6-.2.6-.4s.2-.3.4-.2a1.1,1.1,0,0,0,1.1-.1l2.9-1.2A14.2,14.2,0,0,0,458,374a15.4,15.4,0,0,1,3.4-2.2,2.8,2.8,0,0,0,1.7-.9c.3-.6.4-.7.8-.1s.9.5,2.3.3c6.3-1,12.8-2.4,14.6-3.3l2.2-.9,3.3-1.3,2.9-1.2-2.5-.3c-3.5-.4-6.7-1-5.4-1.1s1-.3.8-1,.1-1,1.2-1,1.3.2,1.4.8a1.6,1.6,0,0,0,.4,1.1c.3.4,4.9.8,5.4.5a4,4,0,0,0,.7-2.2c0-1.8,0-1.9-1.5-2.7s-1.4-.7-.4-.5,2.9-.6,2-1.2-.4-.4.2-.4.7-.2.5-.8.7-1.4,2.9-1.4,2.9-1.4,1.4-1.8-.5-.2.3-.3h1.5c.6.2,3.9-1.4,4.4-2.1a1.3,1.3,0,0,1,1.2-.3,1.1,1.1,0,0,0,1-.1c.1-.3-.1-.5-.5-.5s-.5-.2-.4-.4-.3-.5-1-.5-2.1,1-1.6,1.8-1.7.6-2.1.1.1-.5.5-.9,1.1-3-.3-3.9-.7-1.3,1.4-1.1,1.4.4,1.3.9-.1.6.1.4.4,0,.3.6.3,1,.8-.5.8-1.3,1.1-1.3.6-.3.5-.8-.6-.7-1.8-.8a6.3,6.3,0,0,1-2-.3c-.1-.3.2-.3.7-.2a1.9,1.9,0,0,0,1.5-.1c.4-.3.2-.4-.6-.8s-1.3-.6-1.4-.9-.5-.3-.9,0-1.3,0-.3-.8a2.7,2.7,0,0,1,2.8-.6c1.5.1,1.7.1,1.5-.5s0-.7.5-.8.6,0-.1-.3-.5-.7,2.3-1a5.4,5.4,0,0,0,2.2-.7c.1-.3,1-.6,1.9-.7s1.5-.5,1.4-.7.4-.4,1.3-.4a2.7,2.7,0,0,0,1.7-.4,10.7,10.7,0,0,1,3.3-.9c4.4-.8,3.4-1.4-2.8-1.7-3.6-.1-5.2,0-5.6.3s-2.6.2-2.3-.4,0-.4-.3-.4-.7.2-.6.5a.8.8,0,0,1-.7.7c-.4.1-.7-.1-.7-.4s-.2-.6-.7-.7-.7-.1-.5.1-.6.7-1.8,1.2-2.7.9-1.6.2.6-.8.5-1.1a.5.5,0,0,1,.3-.7l1.4-.5c1.2-.4.6-.5-2.6-.8a26.6,26.6,0,0,1-4.6-.9C494.1,327.1,480.4,326.8,472.6,327.3Zm-17.1,3.2c0,.7,0,.7-1,.4s-.7-.4.1-.7l.9-.3Zm42,.2a4.2,4.2,0,0,1-1.6.4c-.7,0-.7-.1.3-.4S498.3,330.2,497.5,330.7Zm-131.7.7a1.3,1.3,0,0,1-.9.1q-.4-.3.3-.3C365.7,331.2,365.9,331.3,365.8,331.4Zm2.2,3.2a2.3,2.3,0,0,0-2.2,1c-.7,1.1-1.1,1-.9-.3s1.5-1.5,3.6-1.1S369.3,334.5,368,334.6Zm6.8-.4c.2.2-.1.4-.4.4s-.7.1,0,.7.8.6-.3.2-1.1-.7-.7-1.2S374.5,333.6,374.8,334.2Zm-7.2,2.9q0,.6-.3.3l-.7-.7c-.3-.1-.1-.3.3-.3A.7.7,0,0,1,367.6,337.1Zm-.8.8c0,.1-.2.3-.5.4s-.4.1-.4-.1a.5.5,0,0,1,.4-.5C366.6,337.7,366.8,337.8,366.8,337.9Zm-8.3,1.8a1.8,1.8,0,0,1-1,.6c-.3,0-.1-.3.4-.6S359.2,338.8,358.5,339.7Zm42.4,2.7h-1.1c-.3-.2-.1-.3.5-.3S401.1,342.2,400.9,342.4Zm-6.5.4h-1.1c-.3-.1-.1-.2.5-.2S394.6,342.7,394.4,342.8Zm-71.8,2.8c.4.7-.1.9-.7.2s-.3-.7-.1-.7A1,1,0,0,1,322.6,345.6Zm-6.9.6c-.2.2-.5.2-.9.1s-.2-.3.3-.3S315.8,346.1,315.7,346.2Zm172.4,7.6c.1.2,0,.4-.2.4a.4.4,0,0,1-.4-.4c0-.3,0-.4.1-.4A.5.5,0,0,1,488.1,353.8Zm-1,1.3c-1.2.5-1.3,1.6,0,2s.8.7-.4.3a1.1,1.1,0,0,1-1-1,1.4,1.4,0,0,0-.7-1.2c-.6-.4-.4-.5,1.1-.5S487.9,354.8,487.1,355.1Zm4-.1a2.8,2.8,0,0,1-1.3,0c-.5-.1-.2-.2.5-.2S491.3,354.9,491.1,355Zm.1.8a1,1,0,0,1-.8.1q-.4-.3.3-.3C491.2,355.6,491.4,355.7,491.2,355.8Zm-81.9,27.5c-.2.2-.5,0-.8-.3s-.4-.4.2-.2S409.4,383.2,409.3,383.3Z" transform="translate(-68.9 -52.9)" />
      <path class="cls-1" d="M325,337.2c-1.1.1-2,.5-2,.8s-.4.8-.9,1.2-.8.7-.6.8a14.9,14.9,0,0,0,3.4.5,12.7,12.7,0,0,1,3.7.6,3.4,3.4,0,0,0,2.1.5c1.4,0,1.7-.2,2.2-1.3s.7-1.3-.7-1.9a9,9,0,0,0-2.5-.8l-1.9-.5A9.2,9.2,0,0,0,325,337.2Z" transform="translate(-68.9 -52.9)" />
      <path class="cls-1" d="M306.8,339.2c-3.4.5-4.6,1.1-2.3,1.1a4.6,4.6,0,0,1,2,.4c.3.1-.8.3-2.5.3s-3.1.1-3.4.6.7,1.4,3.5,1.1,4.9-1.2,3.8-1.7.1-.1.9,0,1.4.2,1.2-.2,0-.5.7-.5a3.8,3.8,0,0,0,1.6-.4c.6-.4.6-.5,0-.9S310.9,338.5,306.8,339.2Z" transform="translate(-68.9 -52.9)" />
      <path class="cls-1" d="M288.4,342.4a46.9,46.9,0,0,0-9.9,2.3,10.9,10.9,0,0,1-2.4.4,8.5,8.5,0,0,0-2.5.5c-1.7.6-1.9,1.6-.2,1.3a1.7,1.7,0,0,1,1.5.4c.3.5.5.5,1.2-.2s.9-.7.9-.3.4.5,1.4.3,1.4-.2.6.3-.8.7.3.7a6.2,6.2,0,0,0,2.3-.4c.6-.2,1.1-.3,1.1-.2a3.1,3.1,0,0,1-1.2.7c-1,.4-1.1.5-.5.9a10.8,10.8,0,0,0,2.7.5c1.1.1,1.8.3,1.7.7s2.2,1.4,7.5.5a90.8,90.8,0,0,1,9.2-1.1c3.2-.2,4.4-.4,6.2-1.4s2.5-2.1-.6-1.9h-2l.7-1c.6-1,.5-1.6-.3-1.6s-.2.2-.1.5.2.4-.2.2-1.2-.1-2.1.2c-3.1.9-3,.8-2.3,1.3s.5.4-.3.4-1.3.7-.2,1-.4.2-1.8.3-2.4-.2-2.3-.4-1.4-1.8-4.1-2.1-2.8-.3-1.5-.8,1.1-.6.9-.7.1-.1.8-.3,1.3-.5,1.3-.7S292.5,342.1,288.4,342.4Zm-1,4,2,.4h-2a6.1,6.1,0,0,0-2.6.2c-.5.3-.4.4.3.4s.6.1.4.2-1,0-1.5-.2-.9-.4-.3-.4.7-.3.7-.5-.5-.4-1.4-.2-1.4.2-.3-.4a1.9,1.9,0,0,1,1.9-.1A15.9,15.9,0,0,0,287.4,346.4Zm1.6-.9c-.1.3-.6.5-1.1.5s-.8-.2-.6-.5a1.4,1.4,0,0,1,1.1-.4C288.9,345.1,289.1,345.3,289,345.5Zm-.4,4c.1.2-.3.4-1.2.3s-1.4,0-.3-.3l1.1-.4C288.3,349,288.4,349.2,288.6,349.5Z" transform="translate(-68.9 -52.9)" />
      <path class="cls-1" d="M262.1,351.1a2.2,2.2,0,0,0-1.7,1.2c-.3.6-.8,1.1-1,1.1a10.3,10.3,0,0,0-2.6,1.1,10.2,10.2,0,0,1-2.5,1.1,1.9,1.9,0,0,0-1.2.6,13.7,13.7,0,0,1-2.7,1.3c-1.2.4-2,.9-1.9,1.1a.7.7,0,0,0,.8.2c.8-.3,2.2,1,1.9,1.8s.6,1.2,2.8.5a12.1,12.1,0,0,1,3.6-.7,5.8,5.8,0,0,0,2.8-.9c1.5-1,6.5-2.7,6.8-2.2s-.4.5-1.2.6a9.1,9.1,0,0,0-2.2.9c-.8.7-.8.7-.1,1.2s.7.7-.5,1.1-1.7.7-.7,1.6,1.3.7,4.6.4a36.7,36.7,0,0,1,6.2-.2c.7,0,1.2.2,1,.3s-2.5.3-5.2.4c-6.5.1-8.6.5-8.6,1.6s1.2,2.1,3.8,2.1,2.3.1,1.9.5a2.1,2.1,0,0,0-.5,1.3c0,.6.5.7,3.8.6s4.8-.4,6-.6l4.1-.7,2-.2-1.7.4c-3.6.7-4.4,1.3-4.2,3s-.3.6-1.6.3-2.2-.5-1.8-.9.7-.1,1.2.2,1.5.1.7-.7-.9-.5-1.8-.1c-2.5,1-8,1.4-9.5.7s-.7-.3-.5,0-.3.6-1.7.5-1.8-.6,1-1.1,2.7-.9,1.4-1.9-1.6-.8-3.4-.8a13.8,13.8,0,0,1-4.6-.6l-2.6-.8a2,2,0,0,1-1.2-.6c-.7-.9-4.2-.9-6,0a3.4,3.4,0,0,1-2.3.4c-.9-.3-1.2-1.1-.4-1.1s.4.2.4.5.3.4.5.4.4-.2.2-.4.1-.5.4-.6.7-.5.7-.7-2.1-.2-3.1.6a10.6,10.6,0,0,1-3.3,1.5,5.5,5.5,0,0,1,.1-1.7c.2-1.4.1-1.8-.5-2a.8.8,0,0,0-1,.2,5.9,5.9,0,0,1-3.6,1.8c-.5,0-.7-.2-.5-.7s.1-.7-.6-.4a4.7,4.7,0,0,1-1.7.4c-2.9.5-8.2,1.6-8.8,2s-.4.4.6.2,1.1-.2.4.2-1,.4-1.9,0-5.3-.8-5.3-.3-.4.3-.8.3a2.7,2.7,0,0,0-1.6.8c-1.3,1.2-6.1.5-5.6-.9s-.4-.6-2.1-.6-4.7-.5-4.7-1.1-1.3-.4-3.1-.3a39.6,39.6,0,0,1-6.1-.5l-6.5-.8c-2.7-.2-3.7-.4-3.6-.8s-.4-.6-2.3-.5-2.4,0-2.6-.4a.6.6,0,0,0-.9-.3,1,1,0,0,1-1-.5c-.3-.5-.7-.5-2.9.3a24.7,24.7,0,0,1-5.4,1.1,33.1,33.1,0,0,0-5.5.8,19,19,0,0,1-3.9.7c-1.6,0-4.9,1.1-8.5,2.8a24.6,24.6,0,0,1-6.1,1.6,20,20,0,0,0-4.9,1.1,6.8,6.8,0,0,1-2.1.6c-1.1,0-1,.7,0,1.1s2,1.9,1.4,2.5-.6,1.2.4,1.2.8.2.6.7a4,4,0,0,1-2.7,2.3c-1.3-.1-3.4-.7-2.7-.8a1.9,1.9,0,0,0,1.3-.7c.7-.9.2-.9-3.7.1l-8.9,1.9c-2.7.5-3.6,1.1-2.5,1.5s.6.4-.1,1.5-.7,1.9,3.1,1.9a9.7,9.7,0,0,1,3.6.3c.4.3,1.1.2,2.1-.2s3.1-.9,2-.2-.5.4,0,.4-1.5,2.1-2.8,2.4a5.7,5.7,0,0,1-2.6,0c-.9-.1-1.5-.1-1.5.2s-2.7,1.4-4.3,1.1-2.6,0-5,1.6a4.5,4.5,0,0,1-1.8.8,12.2,12.2,0,0,0-4.2,1.8l-1.4.6c-1.2.3-2.3,2-1.8,2.9s-.3.5-.8.8-1.1.7-1.1,1.9.2,1.6,1.2,1.6l2.7-.4c1.5-.4,1.6-.3,1.2.4a3.2,3.2,0,0,1-1.2,1.1,3.2,3.2,0,0,0-1.6,1.3c-.4.6-1,1.1-1.4,1.1s-.6.1-.3.4.8.4,1.5,0,.8-.3.7,0,0,.6,1.5-.2,3.6-.5,3.3.5,1,.7,1.6-.1.8-.6,1.6-.3,1,.4-.9,1.8a26.5,26.5,0,0,1-3.9,2.3l-2.8,1.2-4.2,1.5c-3.9,1.3-5.6,2-5.6,2.5s-.4.2-.9,0-2.2-.1-7.2,1.8a14.7,14.7,0,0,1-5.1,1.5c-2.1.2-5.4,1.8-4.8,2.4a1,1,0,0,0,1.3,0,5.1,5.1,0,0,1,2.2-.5,6.8,6.8,0,0,0,2.5-.7,3.9,3.9,0,0,1,2.2-.5,2.2,2.2,0,0,0,1.7-.3c.4-.4.9-.6,1.1-.5a.4.4,0,0,0,.6-.2c.5-.8,2.5-.5,2.7.4s.7,1.1,1.4.4.7-.4,1.1,0,.8.4,1.2-.3.3-.9-.3-.9a.7.7,0,0,1-.6-.7c0-.6.3-.7,1.1-.5a2.9,2.9,0,0,0,2.2-.4c.5-.4,1.2-.6,1.4-.4s3.4-.9,4.4-1.8a1.1,1.1,0,0,1,1-.4c.2.2.3.1.3-.2s.6-.3,1.4-.2,1.2.1,1.1-.2.5-.5,1.5-.7a9.5,9.5,0,0,0,2.7-1c.8-.6,2-1.1,5.1-2l1.4-.6a6.4,6.4,0,0,1,2-.5,7.8,7.8,0,0,0,2.5-1.1,7.2,7.2,0,0,1,2.6-1.1c1.4,0,2.4-1.2,1.5-1.8s-.4-.4.2-.4h1.4a.9.9,0,0,0,.8-.6c.1-.4.7-.7,1.3-.7s1.1-.2,1.1-.4.4-.5.8-.5a3.7,3.7,0,0,0,1.6-.5c1.2-.8,2.4-1.2,2.4-.8s-.5.6-1.1.8-1,.8-.8,1-.4.6-1.1.9-1.3.7-1.3.9,2.3.4,5.3-.7a9.9,9.9,0,0,1,2.9-.8c0,.1.3,0,.6-.2a5.7,5.7,0,0,1,4.3-.3,5.5,5.5,0,0,0,2.8-.7c1.7-.9,2.5-1.7,1.5-1.7s-.5.1-.5.4-.1.4-.3.4-.4-.3-.3-.7.4-.7,1-.7,1-.1,1-.3.4-.4,1-.4,1.4.9.1,1.3a1.3,1.3,0,0,0-1,.7c-.1.4.2.4,1.3.1a3.2,3.2,0,0,1,2.7,0c1.3.4,1.3.4.3.7s-1,.5-1,.7.3.3.8.1a18.4,18.4,0,0,1,3.9-.5c2.3-.1,3.4,0,4.5.6a4.1,4.1,0,0,0,2.6.4c.7-.2.9-.1.5.2s-.4.5.5,1.3a6.1,6.1,0,0,1,1.4,2c.1.6.4,1.1.7,1.1s-.1,3.2-1.1,4.3-.7.9-.3.8.7.1.7.8-.1.9-.3.7a.5.5,0,0,0-.4.5c0,1,.7.9,1.5-.2s.8-.9.9-.7-.3.7-1,1.3-1.7,1.6-.4,1.7h1l-1,.4c-.8.3-.9.7-.8,1.8s.3,1.4,1.5,1.5a2.3,2.3,0,0,0,2-.7c.8-.9.9-.9,1.4-.1s.6.6,1-.4l.5-1.1-.2,1.2c-.2.7-.1,1.3.2,1.5a1,1,0,0,1,.4.7c0,.4-.1.4-.4,0s-.5-.5-.8.2-.6.7-.7.5-1.7.8-1.4,1.3a.4.4,0,0,1-.2.7c-.6.5-.5,1,.6,2s.7.9.3.9-.4.4-.3.9.3,1,.7.9.3.4-.3,1.4-.8,1.7-.4,1.8.2.4-.1.6-.3.7.7,1.6,1,1.1.4.8a4.4,4.4,0,0,0-3.2,0c-.6.2-1,.1-1-.1s.5-.6,1-.6.8-.2-.1-.2-1.1.3-1,1.2-.1,1.3-.4,1.3-.1.2.5.5,1.2.8,1.2,1.1a2.5,2.5,0,0,0,.1.9c0,.3.4.6.9.7s.8.5.6.7.1.6.4.7.6.4.5.6,0,.4.3.4a3,3,0,0,1,1.4.7c.8.5.8.6-.4.5s-1.5.1-2.5,3.5-3.3,6.9-4.4,8l-1.6,2.1a20,20,0,0,1-2.8,3.4,14.4,14.4,0,0,0-3.9,6.4,14.2,14.2,0,0,1-2.4,4.3c-1.5,1.8-1.6,2.2-1.2,2.9s.3,1.2-.3,2.4-.7,1.9-.3,2.7a3.4,3.4,0,0,1,.3,1.9c-.2.4-.1.9.1,1s.3,1,.2,1.9-.1,1.7.4,1.9.5.5,0,.8-.6.8-.1,3a17.6,17.6,0,0,1,.6,4c.1,1.5.2,1.6,1.7,1.7s1.6.3,1.6.8.9.8,1.9.6.3.2.2.6-.1.7.3.7,1.9,1.5,1.9,3.5.4,7.2.5,7.2a7,7,0,0,1,.2,2.3c.2,1.7.4,2.5,1.1,2.9a8.5,8.5,0,0,1,1.8,2.2c.9,1.4.9,1.6.2,2.6s-1.1,1.2-2.5,1.1-.8.1-.8.3,3.6,4.5,4,4.2,3.4,2.7,3.4,3.5a6.2,6.2,0,0,1-.6,1.8,5.6,5.6,0,0,0-.7,1.9,1.9,1.9,0,0,0,1.7,1.8c1,0,4,3.5,4,4.6s.2,1,.6.9a5.3,5.3,0,0,1,1.3-.6c.7-.2.7-.6.5-1.8s-.2-1.9-.2-2.4a.7.7,0,0,0-.5-.7c-.2,0-.3.2-.2.5s-.1.1-.6-.5-.8-1-1-.2-.3.5-.3-.3a2.2,2.2,0,0,1,.4-1.5c.6-.4.5-1.1-.2-1.1s-1.2-2.5-.6-2.8a1.3,1.3,0,0,0,.4-.7c0-.3-.2-.3-.5-.2s-.4-.2-.4-.8-1.7-4.7-2.3-5-.4-2.5.2-3a.7.7,0,0,0,.2-.8c-.2-.2-.5-.1-.7.3s-.5.4-.5-.3-.1-1.1-.4-1.3a.8.8,0,0,1-.4-.7c0-.3.3-.1.7.3s.6.8.3-.4-.6-1.9-1-1.2-.6.2-1.2-.8-.8-1.6-.3-4,.7-3.2,1.8-2.8a1.3,1.3,0,0,0,1.1.3c.6-.1,2.2,1.7,2,2.2a9.4,9.4,0,0,0,0,3,5.4,5.4,0,0,1-.2,3.5c-.5,1.1-.5,1.7.3,1.7s.2-.4.1-1,.1-.3.5.6a18.7,18.7,0,0,0,1.4,2.1,2,2,0,0,1,.6.9c0,.3.3.5.8.7s.7.5.6,1.3,0,1.2.7,1.4a1.2,1.2,0,0,1,.9,1,1.2,1.2,0,0,0,1,1c.8.3.8.3.2,1.3a4,4,0,0,0-.8,1.7,4.3,4.3,0,0,0,2.3,2.1c.2,0,.6.5.9,1.2a7.2,7.2,0,0,0,1.7,2.3,12.4,12.4,0,0,1,1.9,2.6c.4.8,1.2,2.1,1.7,2.9s1.2,2.1,1.2,5.8-.1,3.1-.8,3.1-.7,1.9.4,3.6a9.2,9.2,0,0,0,2.5,2.3,4.2,4.2,0,0,1,1.9,1.8c.4.8,2.9,2,4.5,2a4.6,4.6,0,0,1,2.1,1.4c1.3,1.3,5.8,3.7,7,3.7a1.8,1.8,0,0,1,1.1.5,10.3,10.3,0,0,0,4,2.1,3.8,3.8,0,0,1,1.8.6c1.3.6,2.6.4,5.1-.8a6.3,6.3,0,0,1,2.1-.7c1.8,0,4,1.4,5.7,3.6s4,4.7,6.4,5.1a12.6,12.6,0,0,1,3,.8,10.6,10.6,0,0,0,6,1.6c1.6-.1,1.9,0,1.4.4s-.5.8,1,2.3c3.9,4.6,4.7,6,3.8,7.5s.1,2.1,1.5,2.8,1.3.6,1.7,0,.4-.7.5,0,.6,1,1.4,1.4,2.3,1.7,1.6,2.2,0,1.5.6,1.5a3.7,3.7,0,0,1,1.5,1c.9.8,1,.8,1,.1s.2-.7.7-.5l1.4.3a1.1,1.1,0,0,1,.9,1.9c-.6.6-.5,1.1.2,1.1s.6-.2.4-.6,1-.4,1.8.9.7,1,2.2.3,1.8-1.3.9-2.6-.9-1.2.6-1.8,1.3-.9,1.3-1.2.3-.6.7-.8.9-2.9.4-2.9l-3.1,1.5c-3.1,1.8-3.5,1.8-4.6.8s-.8-.5-.8-.1-.1.4-.6,0-.6-.8-.4-1.1-.3-.7-.9-1-1.1-.8-1.1-1.2a.6.6,0,0,0-.5-.6c-.2,0-.6-.6-.8-1.3a18.6,18.6,0,0,0-1-2,2.1,2.1,0,0,1,0-1.9,4.6,4.6,0,0,0,.5-2c0-.6.2-1.1.5-1.1s.4-1.1.4-2.3a9,9,0,0,1,.8-3.9,4.5,4.5,0,0,0,.7-2.4,1,1,0,0,1,.2-1.2c.3-.2.1-.7-.7-1.4a17.2,17.2,0,0,1-1.9-1.7c-.9-.8-6.1-1.5-6.8-1s-4.2.6-4.9.2a.9.9,0,0,0-1.1.2c-.6.4-.8.4-1.3,0a1.1,1.1,0,0,0-1.2-.2c-.3.2,0-.3.6-1a6.6,6.6,0,0,0,1.5-3,7,7,0,0,1,.7-2.3c.2-.2.3-.5.2-.5s.2-.5.8-1.1a3.1,3.1,0,0,0,1.1-1.7,6.7,6.7,0,0,1,.5-1.9,9,9,0,0,0,.5-1.9,2.8,2.8,0,0,1,.4-1.1c.2-.1.3-.6.3-1a1.9,1.9,0,0,1,.7-1.3c.5-.5.6-.4.4.2s.3.8,1-.2.3-.9.1-.9-.3-.3,0-.9a2.5,2.5,0,0,0,.2-1.9c-.2-1-.4-1-2.9-.9a53.9,53.9,0,0,0-5.6.8c-2.3.7-3,1-3.4,1.9a5,5,0,0,0-.5,1.5,12.2,12.2,0,0,1-1.1,2.7,6.6,6.6,0,0,1-5.4,4.1,29.3,29.3,0,0,0-6.6,1.4c-.8.5-1.1.4-2-.5a4.9,4.9,0,0,0-2.3-1.3c-1.1-.3-1.8-1.3-2.4-4a5.1,5.1,0,0,0-1-2.1,5.1,5.1,0,0,1-.8-2.7,17.2,17.2,0,0,0-.5-2.9,3.4,3.4,0,0,1-.3-1.9c.7-4.3,2.3-9.3,3.7-11.1a8,8,0,0,0,1-4c.3-4,1.3-5.1,7-8.5s8.6-4.7,9.7-3.6a5.9,5.9,0,0,0,2.7.5c1.5,0,2.2.2,2.2.6a.9.9,0,0,0,.6.7c1.8.2,3.2.1,3.4-.3s1.8-.8,1.5-.3,0,.6.1,1,.4.7,1.2.1.8-.6-.2-1.4-.9-.8-.1-1.5a3.5,3.5,0,0,0,1-1.2c.3-.8,9.4-1,10.7-.2s1,.9,1,1.2,1.4,1.3,2.7.3,2.5-1,3.2.4a10.4,10.4,0,0,0,1.2,1.7c.9,1,.9,2,.1,3.5a5,5,0,0,0-.5,2.3c.3,2.6.8,4.7,1.2,4.7s.4.3.4.7a2.3,2.3,0,0,0,.8,1.4,2.8,2.8,0,0,1,.9,1.9c0,1,.2,1.2.7,1a.9.9,0,0,1,1.1.3c.3.5.5.5.8,0a3.7,3.7,0,0,0,.4-1.1,3.3,3.3,0,0,1,.7-1.3,10.3,10.3,0,0,0,1-7.1,8.6,8.6,0,0,1-.1-3.2,10.7,10.7,0,0,0-.5-3.1c-1.4-5.5,1-10.2,6.6-13a14.7,14.7,0,0,0,3.1-2.5c1.1-1.2,2.1-1.8,2.9-1.8a2.3,2.3,0,0,0,1.4-.5c.5-.9,3.7-2.6,4.7-2.6s2.5-1.2,1.6-1.7,0-.6,1.3-1.2,1.7-.8,1.3-.1a2,2,0,0,1-1.2.9c-.4,0-.5.1-.2.2a2,2,0,0,0,1.4-.3c.7-.4.9-.8.9-3.4s-.2-3.2-.5-3.4-.3-.8.1-1.7a14.3,14.3,0,0,0,.6-2.1c.3-1.5,1-1.7.9-.3a3.8,3.8,0,0,1-.6,1.9,2.2,2.2,0,0,0-.5,1.4c0,.8.1.7,1-.4s1-1.5.9-1.7-.1-.3.2-.1,1-.2,1.6-.9a2.6,2.6,0,0,0,.9-2.6c-.1-.8,0-1.6.2-1.7s.4,0,.4.4.3.9,2.4-.8a12.1,12.1,0,0,0,2.4-3c.5-1.4.8-1.6,3-2s5.5-1.7,4.2-1.8,0-.3,1.2-.6a6.8,6.8,0,0,1,2.9-.4,1.1,1.1,0,0,0,1.1-.3,1.4,1.4,0,0,1,1.1-.4,1.3,1.3,0,0,0,.9-2c-.3-.3-.5-.2-.5.4s-.8.9-1.2-.3-.2-1.1.2-1.4a2,2,0,0,0,.6-1.2c0-1.3,2.8-3.2,6.5-4.5a40,40,0,0,0,4.7-1.8,5.2,5.2,0,0,1,2.3-.6c1.2-.1,1.9-.8.8-.9s1-.7,2.5-.9l2.5-.7c.7-.3,1.3-.3,1.4-.1s-1.1,1.1-2.7,1.9-2.9,1.6-3,2.7a2.1,2.1,0,0,0,.5,1.8c.7.7,1.9.8,1.9.2s.4-.5.9-.5.9-.2.9-.4,3.4-2.7,3.8-2.4a1.4,1.4,0,0,0,1.1-.1c.9-.6,7.4-2.7,7.7-2.5s.4-.2.7-.7a2.1,2.1,0,0,1,1.4-.8c.9,0,3.1-1.4,3.1-2.1a.6.6,0,0,0-.6-.6c-.8,0-.8-.1-.2-1.3s.5-.9,0-1.4-1,.1-3.1,2.2-2.6,2.5-2.6,2.3-.4-.3-1-.1-4.8-.2-4.4-.8,2.3-.4,2.3.1.4.3.9.3.9-.1.9-.4.5-.7,1.2-1,1.1-.7-1.2-.7-3.6-.4-3.2-1.6.1-.7-.3-.5a.7.7,0,0,0-.6.7c.1.2-.1.4-.5.2s-.8.5,0,1.3.8,1.1-.2.9-1.4-1.5-1.2-2.9a7.1,7.1,0,0,1,1.7-2.4l1.5-1.4-1.2.2c-1.8.5-1.5-.1.5-.9,3.5-1.4,2.5-3.9-1.4-3.8s-8.4,1.9-11.1,3.4-2.7,1.4-.9-.2,4.9-3.1,6.1-3.1a3.8,3.8,0,0,0,2.1-1.2,6.3,6.3,0,0,1,2.3-1.8c.8-.3,4.9-.4,10.4-.4s9.3-.1,9.5-.4a3.1,3.1,0,0,1,1.2-.7l2.2-1.3a9.3,9.3,0,0,1,5.5-2h1.3l-1.9,1.9c-3.2,3-5.3,5.4-5.3,5.9a.6.6,0,0,1-.6.5,1,1,0,0,0-.9.6c-.2.4-.5.6-.7.4s-1.7.8-1.7,1.4.5.2,1,0,.2.2-.9.9c-3,1.9-2.4,2.3,3.6,2.6,11.1.4,10.3.3,9.6,1.1s-.8,1.7-.2,1.7.4-.2.2-.4a.6.6,0,0,1,.2-.7c.3-.2.5-.1.4.1s.1,1.7,1.2,1.5,4.2-4.4,2.8-4.4a.4.4,0,0,0-.4.4.4.4,0,0,1-.4.4c-.2,0-.4-.3-.4-.6s.2-.5.4-.4.5-.1.8-.5.4-.6-.2-.6a2.5,2.5,0,0,0-1.4.8,3.2,3.2,0,0,1-1.2.9c-.2,0,0-.5.6-1s.8-1.1.4-1.3,0-.2.7-.2,1.3-.1,1.4-.6-.1-.7-.7-.5-1.3-.9-.3-1.4.8-1-.3-1.5-.7-.4-.4-.4a.4.4,0,0,0,.3-.6c-.3-.3-.5-.2-1,.3s-.5.6-.5.3-.3-.5-.7-.5-.6.1-.6.4a2.1,2.1,0,0,1-1.3.3c-.9,0-1.2-.1-1-.5a.8.8,0,0,1,.8-.6c1.2,0,.6-.8-.8-1.1l-1.4-.3,1.4-1.2c1-.9,1.7-1.2,1.9-.9s.9-.2.5-1.1,0-.7.2-.7.5-.3.7-.6-.1-.7-.9-.7-1,.2-.7.4.2.4-.7.3h-1.3a8.2,8.2,0,0,1,1.9-1c1.8-.9,2.1-1.3,2.7-3.6s.5-3.3-.8-3.6-2.4-1.9-1.4-2.5-.6-1.8-2.1-1.7-1.2-.1-1.1-.4-2-1.3-3.1-1-.5.1-.3-.1.7-1.6-.4-2.6-1-1-.3-1.3,1.1-2.2.5-2.6-.1-.7.3-1.3.6-1-.2-1.5a1.9,1.9,0,0,1-.9-1.9,8.2,8.2,0,0,0-.6-2.7,6.6,6.6,0,0,1-.5-3.2c.1-1,.1-1.8-.1-1.8s-1.5,1.3-1.3,1.7,0,.3-.3.2-1.7.8-3.2,2.2a13.5,13.5,0,0,1-3,2.4,10.9,10.9,0,0,0-2.4.9c-1.5.8-1.9.8-2.5.4s-2.3-2.2-2.4-3,1.2-3.8,1.8-4.1.4-.5.2-.7-.1-.4.2-.4.3,0,.3-.2-.6-.5-1.3-.6l-2.3-.3c-.9-.2-1-.4-.5-.9s.4-.8-.1-1.1a26.9,26.9,0,0,1-3.4-2.7c-.4-.4-.9-.8-1.2-.8a.5.5,0,1,0,0,.9c.3,0,.2.2-.3.5s-1.4.4-6.6-.6c-2.6-.4-2.7-.4-3.6.5a3.1,3.1,0,0,0-1.1,2c-.2,1.4-1.1,2.4-2.8,3.1s-1.8,1.2-.3.8,1.2-.2.8.7a6.1,6.1,0,0,0-.3,1.6c0,.3-.1.5-.3.5a8.6,8.6,0,0,0-2.2,1.6,12.6,12.6,0,0,1-2.3,1.5c-.4,0-1.6,1.1-1.6,1.5s.2.2.4.2,2.6,1.9,2.6,2.7a12.3,12.3,0,0,1-2.5,5.3,25.2,25.2,0,0,1-9.2,4.3l-2.6.5.2,1.9c.1,1.1,0,1.9-.2,1.9s-.5.5-.5,1-.1,1.2-.3,1.3a3.4,3.4,0,0,0-.5,1.7,3.1,3.1,0,0,1-1.3,2.4c-.8.6-1.3,1.3-1.1,1.5s.1.4-.2.4-.5-.3-.6-.6-.5-.2-1.3.5-2.1.9-2.1-.4a2.1,2.1,0,0,0-.7-1.4,1.8,1.8,0,0,1-.8-1.2l-.4-1.4c-.3-.6-.2-.7.9-.4s2.6.8,2.6-.4-.2-1-1.4-1-1.3,0-1.2-.7.4-1,.6-1.1.4-.7.4-1.3.2-1.1.4-1.1,1.8-2.5,1.4-2.8l-3.8-.5c-2-.1-3.6-.4-4-.8a10.7,10.7,0,0,0-2.6-1.2c-1-.3-1.8-.8-1.8-1.1s-1.5-2.2-2.7-2.5l-2.5-.9a3.2,3.2,0,0,0-3-.2l-1.9.4c-.3,0,.1-2.2.9-4s.3-2.1-1.5-2.1-1.5-.1-1.5-.2a32.4,32.4,0,0,1,4.2-5.4,16.3,16.3,0,0,0,2.9-2,25.6,25.6,0,0,1,3.8-2.2,1.9,1.9,0,0,0,1.4-.8,3,3,0,0,1,1.8-1c.9-.1,1.6-.4,1.6-.6a.3.3,0,0,1,.5-.3c.3.1.5-.1.4-.5s.3-.6,2.3.2.7.2.3-.2-.2-.5.9-.9a4.4,4.4,0,0,0,2.1-1.3,1.9,1.9,0,0,1,1.3-.9,1.8,1.8,0,0,0,1.2-.5,5.7,5.7,0,0,1,2.6-.6,18.9,18.9,0,0,0,8.6-4,15.5,15.5,0,0,1,4.3-2.7c.2,0-.9,1.1-2.4,2.5a12.7,12.7,0,0,0-2.5,2.9c0,.3-.9.8-2,1.1s-2.4,1.6,0,1.4,1.6-.1,1.3.7.7,1.3,3,.1a6.7,6.7,0,0,1,2.2-.9,2.2,2.2,0,0,0,1.4-.9c.9-.9,2.9-.7,2.5.3s3,1.2,4.8.6,1.4-.7,1.1-1.3a.9.9,0,0,0-1-.6c-.4.1-.7-.2-.8-.8s-1.9-2.2-4-3c-.5-.3-.7-.6-.4-1.6a9.3,9.3,0,0,1,.4-1.4c.3-.3,1,1,.8,1.4s0,.4,1.7.5.5-.3.5-.8c.2-2.6.2-2.6,1.1-1.5s.8,1,1.1.3a1.3,1.3,0,0,1,1-.8,7.1,7.1,0,0,0,2-.6,5,5,0,0,1,1.7-.7,3.7,3.7,0,0,0,1.6-1.1c.8-.8.9-1.1.5-1.6s.4-1.8,2.4-2.5a4.5,4.5,0,0,0,1.8-1.5c.4-1,.4-1.1-.3-1.1s-1.4-.8.2-1.3a3.6,3.6,0,0,1,2.9.2,4,4,0,0,0,2.4.4c1.6-.3,2.3.5.8.9s-2.4,1.5-1.5,1.5.2.4-.4.9-.9,1-.7,1.2.4.1.5-.2a1,1,0,0,1,.8-.6c.6,0,.8-.5.7-1.4s.1-.3.4-.3,3.9-2.2,3.9-2.7-.4-.3-.8-.1-2.3.7-2.3.2.5-.5,1.1-.5a1.4,1.4,0,0,0,1.5-1c.3-.5.4-.7.4-.4a.9.9,0,0,0,.7.6c.4,0,.6.2.4.7s-.2.6.2.4.5-.1.5,0,.5.7,1.2,1.1l1.2.8h-1.2c-.7,0-1.1-.2-1-.4s-.6-1-1.3-.5-.5.7-.1,1.2a1.1,1.1,0,0,1,.1,1.1c-.2.4.1.4,1.2.2s1.5-.1,1.5.4-.4.6-1.8.6c-2.9,0-6.1,2.1-5.2,3.5s6.3-.3,6.3-1.5a2,2,0,0,1,.6-1.1c.5-.3.6-.3.5.3s.4.8,1.6.9,1.6,0,1.6-.5-.4-.7-.9-.8-1.1-.4-1.1-.8-.2-.5.4-.1.7.5.9,0,.3-.4.3,0,.4.6.9.6.8.2.7.9a6.2,6.2,0,0,0-.2,1.8.8.8,0,0,1-.8.7,2.5,2.5,0,0,0-1.4.6,9.7,9.7,0,0,1-2.9,1.4c-2.7,1-3.2,1.4-2.5,2.1s.7,1.1-.2,1.1l-2.4.4a8.5,8.5,0,0,1-3.9,0,5.3,5.3,0,0,0-3.8.4c-2.3,1.2-3.3,2.2-2.7,2.9s2.5,1.1,4.5.6a14.7,14.7,0,0,1,3.4-.5l2.5.2c.6,0,.9.2.8.4s0,.5.4.5.6.3.6.7a3,3,0,0,0,.8,1.9,4.1,4.1,0,0,1,1,1.8c0,1.1.6,1.3,1.9.8s1.3-.4,2.3.4a4.2,4.2,0,0,0,2.1.9,12.7,12.7,0,0,1,3.3.9c1.1.5,2.1.8,2.1.6l1,.7c1,1.1,2.1.5,1.8-.9s-1.4-1.2-1.4-.4-.3.4-.6.3a.9.9,0,0,1-.4-1,3.2,3.2,0,0,0-1-1.9,3.4,3.4,0,0,1-1.1-1.3c0-.2-.4-.5-.9-.6a1.2,1.2,0,0,1-.8-1c0-.7,0-.7.8,0s1,.7,1.2.6.6,0,.9.6.7.7,1.3.3.6-.4.4-.1.2.6.8.8a1.7,1.7,0,0,1,1.2,1.1,1,1,0,0,0,1.9.4.8.8,0,0,0-.3-.9c-.4-.2-.5-.4,0-.4s.5-.4.5-.8.2-.8.6-.7.9,0,1.3-.5.6-.8.1-1.6a1.5,1.5,0,0,1-.2-1.8c.5-.8-.1-1.5-1.4-1.5s-1.3-.8-1.6-2.4.1-.7.5-.7.8-.5.2-1.3-.5-.5,0-.3a.8.8,0,0,0,1-.1c.7-.6,2.7,1.1,2.9,2.4s.9,2.1,1.3,1.7.5,0,1,.2a1.8,1.8,0,0,0,2.6-1c.3-.8.6-.9,1.9-.8s1.5,0,1.5-.4a2.4,2.4,0,0,1,1.9-1.7,4.6,4.6,0,0,0,1.6-.8l1-.8-1.2-.9c-.7-.5-1.6-.8-1.9-.6s-.5,0-.3-.3,0-.5-.3-.5a3,3,0,0,1-1.6-1.2c-.8-.7-1.4-1-2.1-.8s-1.1,0-1.2-.2a4.6,4.6,0,0,0-1.8-1.1c-.8-.4-1.5-.8-1.5-1s2.1-1.5,2.6-1.2,1.4-.2.8-1-.4-.7,0-.8-.4-2.9-2.7-3.6a5.9,5.9,0,0,0-2.1-.2c-.1.1-.3-.1-.3-.5s-.2-.6-.4-.4-.5-.2-.6-.7-.6-.8-2.1-.8a5.4,5.4,0,0,0-2.6.5c-.5.5-.5.4,0-.2s.4-.8.1-.8-.4-.2-.3-.4,0-.4-.4-.4a.7.7,0,0,1-.7-.7c0-.3-.4-.7-.9-.8l-1.9-.4q-.9-.2.3-.3c.7,0,1.2-.3,1.2-.6s-1.5-1.9-5-2.2-3.6-.1-4.2.5-.8.6-.8,0-2.1-1-6.1-.1-4.1.8-2.6.1l1.1-.4-1.1-.4c-3-1.2-11.3,1.4-14.9,4.6a3,3,0,0,1-1.1.7c-.4,0-2.1,2.1-1.8,2.3a9.2,9.2,0,0,0,2.5.6l2.4.5h-2.5c-3-.1-3.5.5-2,1.9a1.8,1.8,0,0,0,1.8.6c.6-.2.8-.1.6.2s0,.6,2.6.6c.9-.1,1.4,0,1.1.2a2.8,2.8,0,0,0-1.9,2.4c-.1.6-.5,1-.8,1a7,7,0,0,0-2.2,1.2c-1.6,1.2-2.4,1.5-1.9.8s0-.5-.4-.5-2.3,1.7-1.8,2.1-.4.5-1.2.8-1.4.5-1.7.1-.2-1.8,1-2.4,1.7-4.1-1-3.2c-1.2.4-1.3.4-1-.4s.1-.9-.6-.9-1.3-1.5-.4-1.8.3-.5,0-1.2-.5-1.1-.1-1.6.1-2.4-.8-2.4.1-.4,1.2-.8,2-.9,2.1-1.2a5.2,5.2,0,0,1,2.7-.7c3-.3,9.7-3.2,8.7-3.8a4.5,4.5,0,0,0-2.3-.4l-3.5-.3c-2.1-.3-5.3.4-5.2,1.1s-.1.3-.5.2-1.1.1-1.6.6l-1.8,1.2a.7.7,0,0,0-.6,1c.3,1-1,2.3-3.1,3.1s-1.4.7-1.4.9-.4.3-.9.3-3,1.3-3,2.1-.5.8-1.1,1.1-1.1.9-1,1.5-.1.9-1.1,1a2.6,2.6,0,0,1-2-.5c-.7-.6-1-.7-2-.2a5,5,0,0,0-1.7,1.1c-.1.3-1.1.7-2,.8s-2.4,1.3-.8,1.6a1.5,1.5,0,0,1,1.1.7c.2.4,0,.5-.7.3s-1.2.1-1.9.8-1.4,1-5.9,1.1-5-.1-5.2-.6-.5-.5-1-.4-2.1-.3-1-.7.8-.3,0-.6-.9-.2-1.2.2-.3.3-.5-.4a1.7,1.7,0,0,0-.7-1.3c-.4-.1-.5,0-.4.3s-.3.3-1,.2l-1.3-.2,1.2-.6c.8-.4,1.3-.5,1.6-.2s1.3.6.9,0,0-.3.4-.2.8.5.8.8,1.3.6,3,.6a8.6,8.6,0,0,1,3.3.6c.5.4.8.3,1.6-.4a4.3,4.3,0,0,1,1.5-.9c.6,0,.7-.3.1-1.3s-.2-.8.5-.8.8.2.8.6.1.6.3.6a7.1,7.1,0,0,0,2.8-2.3c0-.5-1.9-1.5-4.1-2.2s-1-1.1.1-1.6a1.8,1.8,0,0,0,.9-1.1c0-1.5,1.9-3.5,4.2-4.5a6.3,6.3,0,0,0,2.3-1.4c0-.5-1.1-.9-2.6-.9s-3.9,1-3.1,1.2a.7.7,0,0,1,.5.6c0,.3-.3.3-.8,0a4,4,0,0,0-4.9.9,9,9,0,0,0-1.7,2.4c-.3.6-.6,1-.8,1s-.4-.8.1-1.6.1-.9-.4-1.5-2.8-1.1-2.8-.1-.6.8-2.9-.1a4.3,4.3,0,0,0-3.3-.2c-1.1.4-1.3.4-.9,0s.7-1.3-.2-1.3a1.7,1.7,0,0,1-1.4-1c-.7-1.4-1.7-1.7-4.8-1.8l-6.6-.3A22.3,22.3,0,0,0,262.1,351.1Zm84,3.8a7.3,7.3,0,0,0-2.2,2.1l-.7,1.4-.5-1.1c-.2-.6-.2-1.1,0-1.2l1.9-1a8.3,8.3,0,0,1,2.1-.8C347.1,354.3,346.8,354.6,346.1,354.9Zm12.1.7c.2.8.5.9,2.1.7s1.7-.2.8.2a10.9,10.9,0,0,1-3,.5c-2,.1-2,.1-1.2-.7a1.5,1.5,0,0,0,.5-1.2c-.2-.2-.1-.4.1-.4S358.1,355.1,358.2,355.6ZM342.1,358c-.4.2-.5.5-.2,1.1s-.1,1.2-.6.4.1-1.8.7-1.7S342.5,357.9,342.1,358Zm25.8.6a1.5,1.5,0,0,1-1,.4c-.6,0-.6-.1.1-.4S368.2,358.1,367.9,358.6Zm6.3,3.5a4.2,4.2,0,0,1-1.5.4c-.7-.1-.7-.1.2-.4S375,361.6,374.2,362.1Zm4.5,1.8c-.2.4-.1.4.5.2s.9-.1,1.1.3-.4.6-2.5,1-4.1.5-1.2-.2a5,5,0,0,0,1.9-.8c-.1-.6,0-1,.3-1S378.9,363.6,378.7,363.9Zm-43.4.2a.9.9,0,0,1-.9,0c-.3-.1-.2-.2.3-.2S335.5,364,335.3,364.1Zm41.5.3c0,.1-.4.3-.9.4s-.8.1-.6-.1S376.8,364.1,376.8,364.4Zm-147,.6a1.1,1.1,0,0,1-.8,0c-.3-.1-.2-.3.3-.3S230,364.8,229.8,365Zm113.5.1c0,.3-.5.5-1,.5s-.9-.1-.4-.5S343.3,364.6,343.3,365.1Zm6.4-.1a3.8,3.8,0,0,1-1.5,0c-.5-.1-.1-.2.7-.2S350.1,364.9,349.7,365Zm-123.2.6-1.3.4c-.4,0-.4-.2.2-.4S227.3,365,226.5,365.6Zm95,0a.5.5,0,0,1-.5.4.4.4,0,0,1-.4-.4.5.5,0,0,1,.4-.5A.5.5,0,0,1,321.5,365.6Zm-7.4.9c0,.2-.5.7-1.1,1.1s-1.5,1.6-.2,1.3.8-.1.6.1a26.4,26.4,0,0,1-5.6,2,2.3,2.3,0,0,0-1.6,1.3c-.3.8-.6,1-1.1.8s-.7-.3,0-.8.6-.8.4-1.2-.2-.4.1-.2,2-.4,1.7-.9.7-.6,1.8-.9,1.8-.7,1.7-.9a.5.5,0,0,0-.7-.2c-.3.2-.4,0-.3-.5s.5-.8,1.1-.7a1.4,1.4,0,0,0,1.2-.3C312.4,366,314.1,366,314.1,366.5Zm-97.2.6c-2,.8-3.1.8-1.7,0a5.6,5.6,0,0,1,2.1-.6C218.3,366.5,218.2,366.6,216.9,367.1Zm163.4-.3c0,.2-.7.3-1.5.2a3.6,3.6,0,0,1-1.6-.4,3.5,3.5,0,0,1,1.6-.2C379.6,366.4,380.3,366.6,380.3,366.8Zm-57.4,1.5c-.2.9-1,1.8-1.3,1.5s1-2.5,1.3-2.5S323.1,367.8,322.9,368.3Zm34.1-.1a1.3,1.3,0,0,1-.7.4c-.3,0-.3-.2-.2-.4s.5-.4.7-.4S357.1,367.9,357,368.2Zm-13.3.4a.5.5,0,0,1-.5.5c-.2,0-.3-.3-.2-.5l.5-.4C343.6,368.2,343.7,368.4,343.7,368.6Zm16-.2c-.2.2-.5.2-.9.1s-.2-.3.3-.3S359.8,368.3,359.7,368.4Zm-30.2,2.8a.9.9,0,0,1-.7.5c-.3,0-.3-.3.1-.7S330,370.5,329.5,371.2Zm-27.2.2c0,.1-.3.3-.7.4s-.6.1-.6-.1a.6.6,0,0,1,.6-.5C302,371.2,302.3,371.3,302.3,371.4Zm58.3.1a3.8,3.8,0,0,1-1.5,0c-.5-.1-.1-.2.7-.2S361,371.4,360.6,371.5Zm-86.2,2.2c0,.1-.4.1-.9.1s-.8-.1-.6-.4S274.4,373.3,274.4,373.7Zm30.4.4a1,1,0,0,1-.8.1c-.4-.2-.3-.3.2-.3S305,374,304.8,374.1Zm-60.7.6-2.3.9c-1.5.6-1.5.6-.4,1a8,8,0,0,0,3.2.1l2.2-.3-1.4.9a5.5,5.5,0,0,1-3.1.8c-2.1,0-3.7.5-3.4,1s-.7.6-1.6.5a4.8,4.8,0,0,0-2,.6,4,4,0,0,1-1.7.4c-.4-.3,3-1.6,3.6-1.3a.8.8,0,0,0,.9-.3c.5-.8-3.3,0-4.7,1s-1.5.8-2.2.5-.9-.5-.2-.5.7-.3.7-.5.4-.4.9-.4a2.6,2.6,0,0,0,1.5-.7,1.9,1.9,0,0,1,1.4-.5h1.6c1.6-.2-.1-1.4-1.8-1.3h-1.6l1.4.2c.8.1,1.4.3,1.4.6s0,.4-.1.4l-2.5-.6-2.4-.6,3.5-.5,6.3-1.2C244.6,374.2,245.4,374.2,244.1,374.7Zm121.4,0c0,.2.5.5,1.1.6s.9,1-1.4,1.3-1.8.1-1.6-.5S365.5,373.7,365.5,374.7Zm22.4.4c.1.2-.2.3-.6.2s-1.2-.6-.3-.6A1.5,1.5,0,0,1,387.9,375.1Zm-246.5.8a1.1,1.1,0,0,1-.8,0c-.4-.1-.2-.3.2-.3S141.6,375.7,141.4,375.9Zm186.5,1.5c0,.8-.1,1.2-.2.9s-.6-.5-1.1-.5-.8-.2-.6-.3a1.1,1.1,0,0,0-.2-.9c-.4-.4-.2-.6.8-.6S327.9,376.2,327.9,377.4Zm-10.6,1.5c.9.7.9.7-.1.5s-1.2-.4-1.3-.7S316.3,378.1,317.3,378.9Zm-185.1,2.8a1.2,1.2,0,0,1-.8.4c-.3,0-.3-.1.1-.4S132.5,381.2,132.2,381.7Zm218.5.5c0,.2-.3.4-.7.4s-.5-.3-.4-.7S350.7,381.4,350.7,382.2Zm5.4,3.4a.8.8,0,0,1-.7.4.4.4,0,0,1-.4-.4c0-.2.3-.4.7-.4S356.2,385.4,356.1,385.6Zm-112.9,5.2c.7.7,2.9.4,5.7-.6.5-.1-.1.2-1.3.9a12.3,12.3,0,0,1-4.3,1.5,5.5,5.5,0,0,0-2.6,1c-.6.8-7.1,1.4-8.1.7s-.6-.4,0-.5H234a4.8,4.8,0,0,0,2-.7,10.9,10.9,0,0,1,2.7-1.1c1.3-.2,1.5-.3,1.6-1.6s.3-1.4,1.1-.8Zm126.5,1.6a1,1,0,0,1-.8.1c-.4-.2-.3-.3.2-.3S369.9,392.3,369.7,392.4ZM145,394.2h-.6c-.4,0-.7-.1-.7-.4s.3-.3.7-.2Zm-3.6.4a.7.7,0,0,1-.8,0c-.4-.1-.2-.2.2-.2S141.6,394.5,141.4,394.6Zm-1.8.6c-.4.6-2,1.4-2,1s1.1-1,2.1-1.4S139.7,394.9,139.6,395.2Zm-14,4.2a3.3,3.3,0,0,1-1.4,0c-.4-.1-.1-.2.6-.2S125.8,399.3,125.6,399.4Zm2.4-.1c0,.1-.4.3-.8.4s-.8,0-.6-.2S128,398.9,128,399.3Zm44.4,3.5c-.1.2-.4-.1-.5-.5s-.3-.7.2-.3S172.5,402.7,172.4,402.8Zm.7,1.1c.2.2.1.4-.1.4a.8.8,0,0,1-.7-.4c-.2-.3-.1-.4.1-.4S173,403.6,173.1,403.9Zm-2.2.9a1.3,1.3,0,0,0,.2,1c.4.4.3.6-.2.6s-.5-.2-.3-.4a1.1,1.1,0,0,0-.3-.6c-.4-.2-.4-.4,0-.7S171.3,404.3,170.9,404.8Zm-55.9.4c0,.2-.1.5-.2.5l-.5-.5c-.1-.2,0-.4.2-.4S115,405,115,405.2Zm59.7,2c-.7.7-2.1.8-2.4.2s.1-.3.6-.1a1.1,1.1,0,0,0,1.1-.3.9.9,0,0,1,.7-.5C175,406.5,175,406.8,174.7,407.2Zm-.7,1.6c.2.3.2.3-.1.2s-.7,0-.9.4-.5.6-.7.2a.3.3,0,0,1,.2-.5c.2,0,.3-.2.2-.4s0-.4.4-.4A1.1,1.1,0,0,1,174,408.8Zm-2.8,1.4c0,.1-.4.4-.8.7s-.7.5-.1-.2S171.2,409.8,171.2,410.2Zm1.7,1.8c0,.3-.1.6-.2.6s-.2-.3-.4-.6,0-.7.2-.7S172.9,411.6,172.9,412Zm2.9-.4a.7.7,0,0,1-.8,0c-.3-.1-.2-.2.3-.2S176,411.4,175.8,411.6Zm-5.2,3.3c-.2.6-.5,1-.5,1.1s-.1-.5-.1-1.2.2-1.2.6-1S171,414.2,170.6,414.9Zm91.4,5.2c.4.6-.7,6.9-1.1,6.9s-.4-.1-.4-.3a3.4,3.4,0,0,0-.4-1c-.3-.4-.6-.5-1.1-.1s-.6.4-.6,0a6.1,6.1,0,0,0-.3-1.6c-.2-.7-.1-1,.7-1.3l1-.4h-.9c-1.3-.1-1.3-.4.2-1.6S261.6,419.3,262,420.1Zm109.1-.3a3,3,0,0,1-1.4.6c-1.3.5-1.3.4-.6-.2S371.1,419.4,371.1,419.8Zm-199.5,1.5c0,.3-.1.5-.2.5s-.3-.2-.5-.5,0-.4.2-.4A.5.5,0,0,1,171.6,421.3Zm89.3,7.7-1.3,1.5c-.8.8-1.3,1.1-1.3.7a2.4,2.4,0,0,1,1.1-1.5C260.6,428.7,260.9,428.6,260.9,429Zm-84.7,5.2c0,.5.5.9,1.4,1.3s1.3.6.9,1-.4.5,0,.5.5.5.5,1-.1.8-.4.4a.6.6,0,0,0-.9-.3c-.3.2-.5.1-.3-.3s-.4-1.1-1-1.7-1.6-2.6-.7-2.6A.5.5,0,0,1,176.2,434.2Zm107.9,4c.4.1.6.6.5,1.2a1.6,1.6,0,0,0,2.3,1.7c.7-.3.7-.2.3.4s-.5.7-.3.9.1.6-.1,1a6.8,6.8,0,0,0-.6,2.1c0,.4-.2.7-.5.7s-.4-.3-.2-.7-.1-.6-1.8-.3a9.9,9.9,0,0,0-2.8.6c-1,.5-2.9,0-3.2-.8a1.1,1.1,0,0,0-1-.6c-.5,0-.3-.3.7-.9s1.5-1.5-.2-1.1-1,.5-.8.8.2.4-.2.2-1.1,0-1.9.4a11.8,11.8,0,0,1-2.7,1.1l-2.4.7c-1.1.2-1.1.2-.2-.5s.8-.7-1-.5h-1.9c0-.3,4.9-2.7,6.7-3.2a10.4,10.4,0,0,0,2.3-.9c.1-.3.4-.4.8-.4s0,.3-.4.6-.6.7-.3.7,2.7-.9,2.7-1.3-.3-.3-.6-.2a1,1,0,0,1-1-.3c-.1-.3-.1-.4.1-.3s1.5-.1,2.8-.5S283,437.7,284.1,438.2Zm-106.6,1.5a3.2,3.2,0,0,1-1.7.3c-.9,0-1.1-.1-.5-.2a5.3,5.3,0,0,0,1.3-.6C177,438.7,177.8,439.1,177.5,439.7Zm167.3,1.2c.3.6-.2.6-1.1,0s-.6-.4.1-.4A1.5,1.5,0,0,1,344.8,440.9Zm4.5,6c0,.1-.3.1-.9.1s-.7-.1-.6-.4S349.3,446.5,349.3,446.9Zm-57.2.8c.2.1-.5.2-1.7.2a4.4,4.4,0,0,1-2-.3C288.4,447.3,291.1,447.3,292.1,447.7Zm-8.1.5c0,.4-2.7,2.9-3.3,3.1s-1.9.7-3.4,2.4-2.4,3.7-2.4,5.4-.7,1.7-2,3-3.2,2.5-3.3.9,1.8-6.1,5.5-10.2c1.8-2.1,2.2-3.1.6-1.8s-.2,0,.5-.6a2.8,2.8,0,0,1,1.8-1.1,1.7,1.7,0,0,0,1.5-.3C280.6,448.2,284,447.6,284,448.2Zm7.4,1.3c1.4.6,1.6.6,2.3-.2s2.3-1.2,2.9.4-.9,4.7-2.4,2.1-1.9-1.7-1.6-.1-.1,1.4-1.1,2.3a5.4,5.4,0,0,0-1.6,2.3c-.3,1-1.8,2.5-2.6,2.5a3.9,3.9,0,0,1-.1-1.9c.1-1.6,0-1.8-.8-1.7a4.8,4.8,0,0,0-1.6.8,1.6,1.6,0,0,1-1,.6c-.2,0,.5-.8,1.7-1.9s1.9-2.2,1.8-2.4-.1-.5.2-.7.5-1.1-.7-1.6-1.1-.8-1.1-1.1.4-.6,2.1-.3A11.9,11.9,0,0,1,291.4,449.5Zm1.1-.6a1.5,1.5,0,0,1-.7.3.4.4,0,0,1-.4-.3c0-.2.3-.4.7-.4S292.6,448.7,292.5,448.9Zm14.2,6.7c-.1,1.5-2.7,2.5-5.5,2.1a11.7,11.7,0,0,0-3.8.1c-2.1.6-2.1,0,0-1a9.7,9.7,0,0,1,4.6-.8c1.6,0,2.9-.2,2.9-.4s.4-.3.9-.3S306.7,455.4,306.7,455.6Zm-10.1,4.3c0,.3-3.4,2-6.5,3.1s-6,2-7,1.5-1.1-1.3,0-1.3.9.2.9.5.1.4.3,0a11.6,11.6,0,0,1,3-1.8c2.1-1.1,2.9-1.3,4.5-1.1s1.8.1,1.4-.2-.3-.4.9-.6l2-.2C296.4,459.7,296.6,459.8,296.6,459.9Zm-11.1,2.4a1.4,1.4,0,0,1-1.1.4c-.4,0-.8-.2-.8-.4s.5-.4,1.1-.4S285.7,462,285.5,462.3ZM297.7,478c.5.8,0,.9-.6.2s-.4-.7-.1-.7A1.2,1.2,0,0,1,297.7,478Zm0,7.4c.2.2,0,.3-.4.2s-.9-.7-.3-.7A.8.8,0,0,1,297.7,485.4Zm-51.4,21.8c.1.2,0,.4-.4.4s-.6-.2-.5-.4.4-.5.5-.5S246.2,506.9,246.3,507.2Zm4.9,70.7c.5,1,.4,1.1-1,1s-1.4-.2-.8-.6.7-.6.1-.8a1.3,1.3,0,0,1-.8-1.1c0-.8.1-.8,1-.2A4,4,0,0,1,251.2,577.9Z" transform="translate(-68.9 -52.9)" />
      <path class="cls-1" d="M319.1,352.2l-3.9.4a19.7,19.7,0,0,0-3.5.7c-1.3.5-1.6.7-1,1s.4,1.7-1,1.7-1.3-.2-1.3-.4-1.6-.6-2.7,0-.6,1.5,1.4,2.5,1.5,1,1.5,1.7,0,1.2,5.4.1a7.5,7.5,0,0,0,4.6-2.5,6.2,6.2,0,0,0,2-2.7c0-.5.3-.9.6-.9s.8-.3.4-1.3S320.9,351.9,319.1,352.2Zm.6,3c.6.4.6.4-.1.2a.8.8,0,0,0-.9.3c-.1.2-.2.2-.4-.3S318.7,354.4,319.7,355.2Z" transform="translate(-68.9 -52.9)" />
      <path class="cls-1" d="M126,403.2a14.7,14.7,0,0,0-2.6,1.3,1.9,1.9,0,0,1-1.2.3,2.6,2.6,0,0,0-1.6.6c-.3.4-.7.6-.8.5s-3.1.7-3.5,1.5.1,1.9,1.5,1.5l2-.5a6.5,6.5,0,0,0,1.5-.5l2.5-1.1c1.4-.6,1.8-1.1,1.7-2.5a3.2,3.2,0,0,1,1.5,0c1.3.1,1.5,0,1.5-1a6.3,6.3,0,0,0-.1-1.1Z" transform="translate(-68.9 -52.9)" />
      <path class="cls-1" d="M264.8,533.8l-3.1.8a6.6,6.6,0,0,0-2.8,1.4,2.5,2.5,0,0,1-1.4.8c-.6,0-.6.1-.1.4s.5.5-.3.7-1.2.9.1,1.1a2.5,2.5,0,0,0,2-.5,3.4,3.4,0,0,1,1.8-.8,4,4,0,0,0,1.7-.9,3.4,3.4,0,0,1,2.7-.8c1,0,1.5.1,1.1.2s-.8.4-.8.6,2.7,1.3,3.9,1.3a11,11,0,0,1,2.9,1.1,6.6,6.6,0,0,0,3.1.8c.8-.2,1-.1,1,.8a2.6,2.6,0,0,0,.6,1.6,2,2,0,0,1,.7,1.1,1.7,1.7,0,0,0,.7,1.1c.3.3.6.9.4,1.2s8.9.5,10.9-.3l1.2-.5-1.2-1a4.9,4.9,0,0,0-2.5-1.1c-.7,0-1.1-.2-1-.7s-.6-.9-1.9-1.3-4.4-2.7-4.4-3.8-.2-.4-.3-.2-.5,0-.9-.3-2-.9-1.6-.2.1.4-.4.3l-1.4-.4c-.4,0-.6-.2-.5-.5S267.5,533,264.8,533.8Zm15.9,10c.2.2-.3.4-1,.4s-1.4-.2-1.4-.4.5-.5,1.1-.5S280.6,543.5,280.7,543.8Z" transform="translate(-68.9 -52.9)" />
      <path class="cls-1" d="M293.7,545.9c-1.5.7-1.5,1.3,0,1.3s.8.4.8,1.3a2.9,2.9,0,0,0,.5,1.7c.8.8-.8,1.1-3.5.7s-2.4-.4-2.7.3-.2.9,1,1.4,2.2,1,1.9.4.9-.4,2.4-.3,2.7.1,3.5,1.2l.9,1.2,1.1-1.5c1-1.6,1.6-1.9,1.9-1.1s.6.1,1.4-.2,3.9-.6,4.1.2a1.1,1.1,0,0,0,.9.4c.3,0,.5-.1.4-.3s0-.5.4-.8.7-.7-.8-2.2a5.8,5.8,0,0,0-2.5-1.5c-.5,0-.9-.3-.9-.6s-3.6-1.7-5.9-1.3-2.2.1-2.7-.4S294.9,545.3,293.7,545.9Z" transform="translate(-68.9 -52.9)" />
    </g>
  </g>
</svg>