<svg id="Header" xmlns="http://www.w3.org/2000/svg" viewBox="152.6 0 668 53.75">
  <defs>
    <style>
      #Header {
        fill: gray;
      }
    </style>
  </defs>
  <title>World's Top Polluters</title>
  <g id="Header">
    <g>
      <path d="M262.1,94.1,250.5,59.9h-4.4v-7h18.5v7h-4.3L267,79.5l6.2-19.6h-3.7v-7h14.7v7h-3.8l6.7,19.6,6.5-19.6h-4.1v-7h16.4v7h-4.5L290.1,94.1h-7.6L276,75.4l-6,18.7Z" transform="translate(-68.9 -52.9)" />
      <path d="M319,94.5a15.1,15.1,0,0,1-10.6-4c-2.9-2.7-4.3-6.3-4.3-10.9s1.4-8.3,4.3-10.9a16.2,16.2,0,0,1,21.3,0c2.9,2.6,4.3,6.3,4.3,10.9s-1.4,8.2-4.3,10.9A15.2,15.2,0,0,1,319,94.5Zm0-7.1a4.9,4.9,0,0,0,4.1-1.9c1.1-1.3,1.6-3.3,1.6-6.1a9.6,9.6,0,0,0-1.5-5.7,5.2,5.2,0,0,0-4.2-2c-3.7,0-5.6,2.7-5.6,8.1a10.4,10.4,0,0,0,1.4,5.5A4.6,4.6,0,0,0,319,87.4Z" transform="translate(-68.9 -52.9)" />
      <path d="M356.9,87.3v6.5H336.8V87.3h5.3V71.9h-4.9V65.4h13.2v7.2a10,10,0,0,1,3.5-5.4,9.9,9.9,0,0,1,6.4-2.3h1.5v8.6a17.4,17.4,0,0,0-5.6.7,6.3,6.3,0,0,0-3.6,3.4,12.8,12.8,0,0,0-1.4,6.1v3.5Z" transform="translate(-68.9 -52.9)" />
      <path d="M362.9,93.8V87.3h4.5V59.5h-4.5V52.9h13.5V87.3h4.1v6.5Z" transform="translate(-68.9 -52.9)" />
      <path d="M417.4,87.3v6.5H403.6V90.5c-2.5,2.5-5.2,3.8-8.2,3.8a10.9,10.9,0,0,1-8.8-4.4,16.1,16.1,0,0,1-3.5-10.4A15.6,15.6,0,0,1,386.7,69a10.9,10.9,0,0,1,8.7-4.3,10.2,10.2,0,0,1,8.2,3.8v-9h-4.4V52.9h13.5V87.3Zm-13.7-7.7c0-2.8-.6-4.7-1.7-5.9a5.8,5.8,0,0,0-4-1.7,4.6,4.6,0,0,0-4.1,2.1,10.5,10.5,0,0,0,0,10.8,4.5,4.5,0,0,0,4.1,2.2,5.3,5.3,0,0,0,4-1.8C403.2,84.1,403.7,82.2,403.7,79.6Z" transform="translate(-68.9 -52.9)" />
      <path d="M420.9,73.7V69.2c3.3-.3,4.9-2.2,4.9-5.8v-.5h-4.9v-10h9.9v9.3a19.4,19.4,0,0,1-.9,6.6,7.2,7.2,0,0,1-3.2,3.7A12.2,12.2,0,0,1,420.9,73.7Z" transform="translate(-68.9 -52.9)" />
      <path d="M437.4,93.8V84.1H444a3.9,3.9,0,0,0,1.9,3.1,7.3,7.3,0,0,0,4.3,1.2,6.8,6.8,0,0,0,3.5-.7,2.4,2.4,0,0,0,1.2-2,1.8,1.8,0,0,0-1.1-1.8,16,16,0,0,0-4.5-1.1c-4.6-.8-7.9-1.9-10-3.4a7.4,7.4,0,0,1-3-6.1,7.2,7.2,0,0,1,2.9-5.9,10.9,10.9,0,0,1,7.6-2.5,17.2,17.2,0,0,1,7.2,1.5v-1h6.5v8.2H454c-.6-1.9-2.7-2.9-6.2-2.9s-4,.7-4,2.1a1.4,1.4,0,0,0,.8,1.3,21.1,21.1,0,0,0,4.2,1,51.4,51.4,0,0,1,7.8,1.8,8.3,8.3,0,0,1,5.8,8.1,8.5,8.5,0,0,1-3,6.8q-3,2.7-8.4,2.7c-3.4,0-5.7-.7-7-2.1v1.4Z" transform="translate(-68.9 -52.9)" />
      <path d="M488.5,93.8V86.9h6.1v-27h-6.1v9.5h-7V52.9h37V69.4h-6.9V59.9h-6.3v27h6.1v6.9Z" transform="translate(-68.9 -52.9)" />
      <path d="M535.8,94.5a14.9,14.9,0,0,1-10.6-4c-2.9-2.7-4.3-6.3-4.3-10.9s1.4-8.3,4.3-10.9a16.2,16.2,0,0,1,21.3,0c2.9,2.6,4.3,6.3,4.3,10.9s-1.4,8.2-4.3,10.9A15.2,15.2,0,0,1,535.8,94.5Zm0-7.1a4.9,4.9,0,0,0,4.1-1.9c1.1-1.3,1.6-3.3,1.6-6.1a9.6,9.6,0,0,0-1.5-5.7,5.2,5.2,0,0,0-4.2-2c-3.7,0-5.6,2.7-5.6,8.1a10.4,10.4,0,0,0,1.4,5.5A4.6,4.6,0,0,0,535.8,87.4Z" transform="translate(-68.9 -52.9)" />
      <path d="M572.4,100.1v6.6H552.8v-6.6h4.8V71.9h-4V65.4h13V69c2.6-2.7,5.4-4.1,8.5-4.1a10.4,10.4,0,0,1,8.9,4.5,17.3,17.3,0,0,1,3.3,10.5,16,16,0,0,1-3.4,10.4,10.8,10.8,0,0,1-8.9,4.2,12,12,0,0,1-8.4-3.6v9.2Zm5.5-20.4c0-2.5-.5-4.4-1.5-5.6a5.1,5.1,0,0,0-4.1-1.8,4.9,4.9,0,0,0-4.1,1.9c-1.1,1.2-1.6,3.1-1.6,5.6a9.2,9.2,0,0,0,1.5,5.5,5.4,5.4,0,0,0,4.3,2,5.2,5.2,0,0,0,4-1.8C577.4,84.2,577.9,82.3,577.9,79.7Z" transform="translate(-68.9 -52.9)" />
      <path d="M627.8,86.9v6.9H606.3V86.9h5.2v-27h-5.2v-7h21.5c5.1,0,8.9,1.2,11.7,3.6a11.9,11.9,0,0,1,4.1,9.5,13.2,13.2,0,0,1-1.5,6.2,10.8,10.8,0,0,1-3.7,4.2,12.7,12.7,0,0,1-5.1,2,36.9,36.9,0,0,1-7.3.6h-3.9v7.9Zm-5.7-14.7h1.6c3.7,0,6-.6,7.1-1.8a6.7,6.7,0,0,0,1.5-4.4,5.9,5.9,0,0,0-1.1-3.8,4.3,4.3,0,0,0-2.5-2,23.9,23.9,0,0,0-4.6-.3h-2Z" transform="translate(-68.9 -52.9)" />
      <path d="M660.7,94.5a15.1,15.1,0,0,1-10.7-4c-2.9-2.7-4.3-6.3-4.3-10.9s1.4-8.3,4.3-10.9a15.1,15.1,0,0,1,10.7-4,14.9,14.9,0,0,1,10.6,4c2.9,2.6,4.3,6.3,4.3,10.9s-1.4,8.2-4.2,10.9A15.6,15.6,0,0,1,660.7,94.5Zm-.1-7.1a4.9,4.9,0,0,0,4.1-1.9c1.1-1.3,1.6-3.3,1.6-6.1a9.6,9.6,0,0,0-1.5-5.7,5,5,0,0,0-4.2-2c-3.7,0-5.6,2.7-5.6,8.1a10.4,10.4,0,0,0,1.4,5.5A4.9,4.9,0,0,0,660.6,87.4Z" transform="translate(-68.9 -52.9)" />
      <path d="M678.5,93.8V87.3H683V59.5h-4.5V52.9h13.6V87.3h4.1v6.5Z" transform="translate(-68.9 -52.9)" />
      <path d="M699.5,93.8V87.3H704V59.5h-4.5V52.9h13.6V87.3h4v6.5Z" transform="translate(-68.9 -52.9)" />
      <path d="M753.2,87.3v6.5H739.5V91.4a14.1,14.1,0,0,1-8.2,2.9,8.7,8.7,0,0,1-6.5-2.4c-1.6-1.5-2.3-3.7-2.3-6.5V71.9h-4.3V65.4h13.3V83.1a4.2,4.2,0,0,0,.7,2.9,2.9,2.9,0,0,0,2.3.8,8.9,8.9,0,0,0,5-2V71.9h-4.3V65.4h13.4V87.3Z" transform="translate(-68.9 -52.9)" />
      <path d="M754.5,71.9V65.4h3.6V60.9l9.1-6.5v11h5.2v6.5h-5.2V84.3a3.7,3.7,0,0,0,.4,2.2c.3.4.9.6,2,.6a7.9,7.9,0,0,0,2.8-.6v6.3a17.1,17.1,0,0,1-6.8,1.5q-7.5,0-7.5-7.5V71.9Z" transform="translate(-68.9 -52.9)" />
      <path d="M798.2,85.3l7,2.2c-2.9,4.7-7.6,7-13.9,7s-8.9-1.3-11.7-4a13.6,13.6,0,0,1-4.2-10.4,14.9,14.9,0,0,1,4.3-11,14.7,14.7,0,0,1,11.1-4.4,14.3,14.3,0,0,1,8.4,2.4,13,13,0,0,1,5,6.2,23.5,23.5,0,0,1,1.4,8.2H784.4c.1,2.6.9,4.4,2.4,5.5a7.9,7.9,0,0,0,4.8,1.6C793.8,88.6,795.9,87.5,798.2,85.3Zm-1.8-8.9a7,7,0,0,0-1.8-4,5.8,5.8,0,0,0-4.3-1.7c-3.3,0-5.2,1.9-5.8,5.7Z" transform="translate(-68.9 -52.9)" />
      <path d="M828.7,87.3v6.5h-20V87.3H814V71.9h-5V65.4h13.3v7.2a10,10,0,0,1,3.5-5.4,9.7,9.7,0,0,1,6.4-2.3h1.5v8.6a18.5,18.5,0,0,0-5.7.7,6.4,6.4,0,0,0-3.5,3.4,11.7,11.7,0,0,0-1.5,6.1v3.5Z" transform="translate(-68.9 -52.9)" />
      <path d="M837.7,93.8V84.1h6.6a3.9,3.9,0,0,0,1.9,3.1,7.3,7.3,0,0,0,4.3,1.2,6.8,6.8,0,0,0,3.5-.7,2.6,2.6,0,0,0,1.3-2,1.9,1.9,0,0,0-1.2-1.8,16,16,0,0,0-4.5-1.1c-4.6-.8-7.9-1.9-10-3.4a7.4,7.4,0,0,1-3-6.1,7.2,7.2,0,0,1,2.9-5.9,10.9,10.9,0,0,1,7.6-2.5,17.2,17.2,0,0,1,7.2,1.5v-1h6.5v8.2h-6.5c-.6-1.9-2.7-2.9-6.2-2.9s-4,.7-4,2.1a1.4,1.4,0,0,0,.8,1.3,21.1,21.1,0,0,0,4.2,1,56.7,56.7,0,0,1,7.9,1.8,8.3,8.3,0,0,1,4.1,3,8.2,8.2,0,0,1,1.6,5.1,8.5,8.5,0,0,1-3,6.8q-3,2.7-8.4,2.7c-3.4,0-5.7-.7-7-2.1v1.4Z" transform="translate(-68.9 -52.9)" />
    </g>
    <g>
      <rect x="513.1" y="48.1" width="307.5" height="5" />
      <rect x="152.6" y="48.1" width="321.5" height="5" />
    </g>
  </g>
</svg>